<svg width="470" height="451" viewBox="0 0 470 451" fill="none" xmlns="http://www.w3.org/2000/svg">
<path opacity="0.04" d="M324.098 192.221C499.362 256.848 234.502 450.982 208.028 323.011C194.842 259.329 71.4046 298.722 75.1402 233.017C78.8758 167.311 134.452 172.981 189.63 140.808C258.318 100.351 277.69 175.108 324.098 192.221Z" stroke="#6B5AA7" stroke-width="1.37" stroke-miterlimit="10"/>
<path opacity="0.07" d="M325.456 188.927C489.883 256.729 243.214 447.585 208.072 325.875C190.767 265.884 69.2785 291.561 76.735 228.04C84.1915 164.52 138.159 165.14 192.155 138.577C259.485 105.429 280.658 170.456 325.456 188.927Z" stroke="#6959A6" stroke-width="1.37" stroke-miterlimit="10"/>
<path opacity="0.11" d="M326.815 185.636C480.374 256.288 252.058 444.324 208.131 328.741C186.766 272.485 67.2113 284.445 78.3443 223.066C89.4773 161.686 141.835 157.198 194.71 136.334C260.548 110.333 283.597 165.762 326.815 185.636Z" stroke="#6758A6" stroke-width="1.37" stroke-miterlimit="10"/>
<path opacity="0.15" d="M328.173 182.343C470.82 255.49 261.094 441.178 208.19 331.605C182.853 279.144 65.1145 277.18 79.9684 218.119C94.8223 159.058 145.438 149.254 197.279 134.105C261.581 115.323 286.49 160.977 328.173 182.343Z" stroke="#6657A5" stroke-width="1.37" stroke-miterlimit="10"/>
<path opacity="0.19" d="M329.531 179.065C461.326 254.294 270.352 438.122 208.249 334.47C179.073 285.744 63.0179 270.064 81.5779 213.129C100.138 156.194 149.04 141.295 199.818 131.92C262.571 120.255 289.34 156.105 329.531 179.065Z" stroke="#6655A4" stroke-width="1.37" stroke-miterlimit="10"/>
<path opacity="0.23" d="M330.875 175.772C451.95 252.67 279.861 434.962 208.323 337.334C175.441 292.462 60.9656 262.887 83.2317 208.153C105.261 153.521 152.629 133.307 202.388 129.645C263.516 125.098 292.19 151.173 330.875 175.772Z" stroke="#6454A3" stroke-width="1.37" stroke-miterlimit="10"/>
<path opacity="0.26" d="M332.233 172.479C442.574 250.603 289.591 431.773 208.353 340.198C171.868 299.062 58.8394 255.726 84.8115 203.176C110.518 150.789 156.157 125.29 204.912 127.416C264.446 130.014 295.04 146.123 332.233 172.479Z" stroke="#6353A3" stroke-width="1.37" stroke-miterlimit="10"/>
<path opacity="0.3" d="M333.592 169.187C433.42 248.137 299.632 428.421 208.412 343.063C168.412 305.603 56.7426 248.565 86.4356 198.2C115.819 147.998 159.686 117.242 207.511 125.186C265.376 134.813 297.919 140.97 333.592 169.187Z" stroke="#6252A3" stroke-width="1.37" stroke-miterlimit="10"/>
<path opacity="0.34" d="M334.95 165.895C424.517 245.229 309.672 424.834 208.456 345.928C165.031 312.057 54.6461 241.39 88.0157 193.24C121.06 145.268 163.186 109.078 209.977 122.958C266.292 139.568 300.843 135.67 334.95 165.895Z" stroke="#6152A2" stroke-width="1.37" stroke-miterlimit="10"/>
<path opacity="0.38" d="M336.309 162.601C415.879 241.95 319.89 420.994 208.515 348.791C161.694 318.404 52.5789 234.227 89.6693 188.263C126.391 142.491 166.803 101 212.576 120.727C267.251 144.292 303.884 130.25 336.309 162.601Z" stroke="#5F51A2" stroke-width="1.37" stroke-miterlimit="10"/>
<path opacity="0.41" d="M337.667 159.309C407.595 238.363 330.137 417.023 208.574 351.657C158.372 324.651 50.4675 227.067 91.2935 183.332C131.691 139.804 170.406 92.8802 215.13 118.542C268.241 148.959 307.059 124.699 337.667 159.309Z" stroke="#5F50A1" stroke-width="1.37" stroke-miterlimit="10"/>
<path opacity="0.45" d="M339.025 156.017C399.696 234.524 340.384 412.756 208.633 354.522C155.006 330.823 48.3707 219.892 92.9028 178.254C136.977 136.911 174.038 84.5973 217.684 116.239C269.259 153.625 310.425 119.015 339.025 156.017Z" stroke="#5E4FA1" stroke-width="1.37" stroke-miterlimit="10"/>
<path opacity="0.49" d="M340.384 152.724C392.225 230.567 350.557 408.297 208.678 357.386C151.624 336.921 46.2594 212.686 94.5271 173.337C142.263 134.238 177.7 76.4764 220.239 114.039C270.337 158.276 314.057 113.286 340.384 152.724Z" stroke="#5D4EA1" stroke-width="1.37" stroke-miterlimit="10"/>
<path opacity="0.53" d="M341.742 149.431C385.211 226.609 360.657 403.675 208.737 360.25C148.199 342.96 44.1776 205.569 96.1366 168.375C147.549 131.462 181.391 68.2959 222.793 111.809C271.445 162.941 318.015 107.38 341.742 149.431Z" stroke="#5B4EA0" stroke-width="1.37" stroke-miterlimit="10"/>
<path opacity="0.56" d="M343.101 146.139C378.67 222.8 370.667 398.936 208.736 363.189C144.67 349.029 42.0215 198.467 97.7014 163.474C152.85 128.716 185.112 60.1313 225.333 109.58C272.582 167.637 322.326 101.474 343.101 146.139Z" stroke="#594EA0" stroke-width="1.37" stroke-miterlimit="10"/>
<path opacity="0.6" d="M344.459 142.817C372.513 219.242 380.56 394.048 208.84 365.95C141.17 354.92 39.9839 191.232 99.3699 158.423C158.136 125.94 188.847 51.9805 227.828 107.35C273.718 172.347 327.036 95.5676 344.459 142.817Z" stroke="#594DA0" stroke-width="1.37" stroke-miterlimit="10"/>
<path d="M252.589 372.372C127.188 627.339 -30.2841 172.14 135.619 177.396C218.703 180.025 190.427 -13.8437 271.696 1.91087C352.964 17.6654 323.773 98.0329 353.495 188.249C390.615 300.908 284.999 306.489 252.589 372.372Z" stroke="#33A2DB" stroke-width="1.37" stroke-miterlimit="10"/>
<g style="mix-blend-mode:hard-light" opacity="0.94">
<path d="M256.148 375.104C129.432 614.021 -28.6302 185.414 132.179 176.776C212.044 172.539 199.582 -15.1725 277.188 5.41031C354.795 25.9931 332.411 105.15 355.444 192.457C384.591 301.277 289.606 312.041 256.148 375.104Z" stroke="#33A2DB" stroke-width="1.37" stroke-miterlimit="10"/>
</g>
<g style="mix-blend-mode:hard-light" opacity="0.88">
<path d="M259.706 377.836C131.987 600.688 -27.1538 198.821 128.738 176.216C205.252 165.127 208.751 -16.5747 282.696 8.9102C356.64 34.3951 340.738 112.341 357.408 196.666C378.168 301.735 294.272 317.534 259.706 377.836Z" stroke="#33A2DB" stroke-width="1.37" stroke-miterlimit="10"/>
</g>
<g style="mix-blend-mode:hard-light" opacity="0.81">
<path d="M263.265 380.538C134.91 587.355 -25.9576 212.464 125.283 175.64C198.357 157.921 217.921 -17.9479 288.189 12.3947C358.457 42.7374 349.228 119.458 359.357 200.874C371.952 302.09 299.012 322.953 263.265 380.538Z" stroke="#33A2DB" stroke-width="1.37" stroke-miterlimit="10"/>
</g>
<g style="mix-blend-mode:hard-light" opacity="0.75">
<path d="M266.838 383.284C138.232 574.052 -24.9685 226.403 121.843 175.094C191.372 150.731 227.075 -19.3062 293.696 15.8352C360.243 50.7994 357.718 126.486 361.306 205.038C365.75 302.429 303.825 328.402 266.838 383.284Z" stroke="#33A2DB" stroke-width="1.37" stroke-miterlimit="10"/>
</g>
<g style="mix-blend-mode:hard-light" opacity="0.69">
<path d="M270.397 386.016C141.939 560.837 -24.0529 240.696 118.403 174.459C184.389 143.791 236.244 -20.6793 299.189 19.4232C362.059 59.1419 366.253 133.618 363.255 209.261C359.579 302.74 308.742 333.791 270.397 386.016Z" stroke="#33A2DB" stroke-width="1.37" stroke-miterlimit="10"/>
</g>
<g style="mix-blend-mode:hard-light" opacity="0.63">
<path d="M273.955 388.747C146.264 547.739 -23.1229 255.342 114.947 173.823C177.419 136.91 245.413 -22.1123 304.681 22.8185C363.875 67.3802 374.802 140.601 365.219 213.453C353.451 303.005 313.762 339.194 273.955 388.747Z" stroke="#33A2DB" stroke-width="1.37" stroke-miterlimit="10"/>
</g>
<g style="mix-blend-mode:hard-light" opacity="0.56">
<path d="M277.513 391.478C151.034 534.834 -22.0596 270.329 111.507 173.291C170.568 130.472 254.583 -23.412 310.189 26.3765C365.692 75.7369 383.395 147.688 367.168 217.72C347.353 303.27 318.886 344.568 277.513 391.478Z" stroke="#33A2DB" stroke-width="1.37" stroke-miterlimit="10"/>
</g>
<g style="mix-blend-mode:hard-light" opacity="0.5">
<path d="M281.072 394.196C156.32 522.181 -20.7602 285.612 108.067 172.716C163.688 123.991 263.737 -24.7694 315.682 29.8917C367.508 84.036 392.018 154.732 369.117 221.944C341.329 303.522 324.157 349.988 281.072 394.196Z" stroke="#33A2DB" stroke-width="1.37" stroke-miterlimit="10"/>
</g>
<g style="mix-blend-mode:hard-light" opacity="0.44">
<path d="M284.63 396.926C162.078 509.866 -19.1951 301.099 104.612 172.124C156.984 117.567 272.936 -26.144 321.189 33.3306C369.324 92.2884 400.7 161.715 371.081 226.121C335.349 303.757 329.576 355.435 284.63 396.926Z" stroke="#33A2DB" stroke-width="1.37" stroke-miterlimit="10"/>
</g>
<g style="mix-blend-mode:hard-light" opacity="0.38">
<path d="M288.188 399.733C168.442 498.025 -17.3201 316.781 101.171 171.609C150.399 111.234 282.076 -27.5155 326.682 36.8611C371.14 100.618 409.367 168.819 373.03 230.286C329.413 304.098 335.157 361.092 288.188 399.733Z" stroke="#33A2DB" stroke-width="1.37" stroke-miterlimit="10"/>
</g>
<g style="mix-blend-mode:hard-light" opacity="0.31">
<path d="M291.776 402.375C175.204 486.537 -15.1351 332.372 97.7603 170.944C143.931 104.884 291.245 -28.8751 332.174 40.3594C372.956 108.915 418.167 175.919 374.993 234.567C323.522 304.451 340.886 366.908 291.776 402.375Z" stroke="#33A2DB" stroke-width="1.37" stroke-miterlimit="10"/>
</g>
<g style="mix-blend-mode:hard-light" opacity="0.25">
<path d="M295.305 405.106C182.233 475.699 -12.7577 348.053 94.2759 170.367C137.553 98.5194 300.399 -30.2487 337.682 43.8878C374.772 117.227 426.938 183.08 376.943 238.79C317.66 304.835 346.777 372.977 295.305 405.106Z" stroke="#33A2DB" stroke-width="1.37" stroke-miterlimit="10"/>
</g>
<g style="mix-blend-mode:hard-light" opacity="0.19">
<path d="M298.864 407.838C189.483 465.422 -10.1292 363.616 90.8358 169.777C131.263 92.156 309.569 -31.6067 343.175 47.3433C376.588 125.496 435.723 190.242 378.892 242.998C311.784 305.234 352.816 379.4 298.864 407.838Z" stroke="#33A2DB" stroke-width="1.37" stroke-miterlimit="10"/>
</g>
<g style="mix-blend-mode:hard-light" opacity="0.13">
<path d="M302.422 410.57C196.718 455.958 -7.32386 379.149 87.3955 169.187C125.047 85.7334 318.738 -32.9795 348.741 50.843C378.464 133.794 444.553 197.462 380.9 247.221C305.907 305.766 358.929 386.296 302.422 410.57Z" stroke="#33A2DB" stroke-width="1.37" stroke-miterlimit="10"/>
</g>
<g style="mix-blend-mode:hard-light" opacity="0.06">
<path d="M305.981 413.286C203.702 447.128 -4.38561 394.578 83.9403 168.61C118.86 79.3245 327.892 -34.3682 354.175 54.3416C380.221 142.077 453.25 204.711 382.805 251.414C300.016 306.296 365.071 393.736 305.981 413.286Z" stroke="#33A2DB" stroke-width="1.37" stroke-miterlimit="10"/>
</g>
<path opacity="0.03" d="M112.142 310.284C-163.969 277.491 164.322 -76.1527 242.076 92.1716C280.747 175.891 449.278 81.6735 463.866 173.646C478.454 265.619 395.384 275.704 324.496 337.969C236.318 415.974 185.186 318.952 112.142 310.284Z" stroke="#6DCDE4" stroke-width="1.37" stroke-miterlimit="10"/>
<path opacity="0.05" d="M111.167 315.259C-150.178 274.551 152.599 -68.6387 241.102 88.2277C284.674 165.494 454.49 90.8855 462.98 181.028C471.47 271.17 392.313 287.736 321.44 341.866C233.084 409.358 182.203 326.333 111.167 315.259Z" stroke="#6DCDE4" stroke-width="1.37" stroke-miterlimit="10"/>
<path opacity="0.07" d="M110.163 320.25C-136.299 272.041 140.609 -61.4032 240.098 84.2859C288.439 155.041 459.687 100.114 462.079 188.426C464.471 276.737 389.404 299.889 318.354 345.764C230.028 402.862 179.309 333.775 110.163 320.25Z" stroke="#6DCDE4" stroke-width="1.37" stroke-miterlimit="10"/>
<path opacity="0.1" d="M109.204 325.241C-122.257 270.019 128.281 -54.2269 239.138 80.344C292.072 144.573 464.914 109.343 461.223 195.823C457.532 282.304 386.525 312.041 315.401 349.678C227.031 396.365 176.489 341.291 109.204 325.241Z" stroke="#6DCDE4" stroke-width="1.37" stroke-miterlimit="10"/>
<path opacity="0.13" d="M108.214 330.218C-108.097 268.529 115.597 -46.976 238.237 76.4027C295.601 134.12 470.23 118.572 460.425 203.207C450.887 287.635 383.646 324.209 312.285 353.577C224.077 389.885 173.728 348.911 108.214 330.218Z" stroke="#6DCDE4" stroke-width="1.37" stroke-miterlimit="10"/>
<path opacity="0.15" d="M107.211 335.207C-93.9074 267.641 102.589 -39.6389 237.293 72.4591C298.908 123.739 475.472 127.799 459.569 210.603C443.992 293.156 380.885 336.389 309.229 357.488C221.169 383.49 171.026 356.632 107.211 335.207Z" stroke="#6DCDE4" stroke-width="1.37" stroke-miterlimit="10"/>
<path opacity="0.18" d="M106.251 340.198C-79.7181 267.39 89.2706 -32.0796 236.333 68.5163C302.112 113.477 480.772 137.012 458.728 218C437.096 298.678 378.124 348.599 306.173 361.386C218.319 377.007 168.368 364.501 106.251 340.198Z" stroke="#6DCDE4" stroke-width="1.37" stroke-miterlimit="10"/>
<path opacity="0.2" d="M105.276 345.174C-65.5436 267.804 75.7012 -24.209 235.373 64.5599C305.065 103.348 485.955 146.242 457.871 225.383C430.201 304.186 375.392 360.87 303.116 365.299C215.484 370.659 165.71 372.549 105.276 345.174Z" stroke="#6DCDE4" stroke-width="1.37" stroke-miterlimit="10"/>
<path opacity="0.23" d="M104.257 350.165C-51.6935 268.882 61.9697 -16.014 234.399 60.6326C308.063 93.3673 491.182 155.47 457 232.781C423.306 309.664 372.661 373.155 300.06 369.198C212.679 364.384 163.009 380.774 104.257 350.165Z" stroke="#6DCDE4" stroke-width="1.37" stroke-miterlimit="10"/>
<path opacity="0.25" d="M103.312 355.141C-37.9914 270.595 48.2527 -7.39128 233.468 56.6901C311.06 83.5334 496.453 164.698 456.173 240.164C416.41 315.215 369.914 385.587 297.018 373.051C209.844 358.182 160.233 389.219 103.312 355.141Z" stroke="#6DCDE4" stroke-width="1.37" stroke-miterlimit="10"/>
<path opacity="0.28" d="M102.323 360.131C-24.6731 272.897 34.5357 1.55581 232.523 52.7471C314.057 73.8467 501.695 173.911 455.317 247.56C409.544 320.737 367.139 398.019 293.962 377.008C206.965 352.025 157.309 397.9 102.323 360.131Z" stroke="#6DCDE4" stroke-width="1.37" stroke-miterlimit="10"/>
<path opacity="0.3" d="M101.304 365.123C-11.8275 275.704 20.9367 10.7855 231.563 48.8209C317.099 64.2507 506.936 183.185 454.519 254.959C402.664 326.261 364.377 410.497 290.949 380.922C204.041 345.913 154.149 406.835 101.304 365.123Z" stroke="#6DCDE4" stroke-width="1.37" stroke-miterlimit="10"/>
<path opacity="0.33" d="M100.359 370.098C0.442721 278.863 7.47099 20.264 230.619 44.8778C320.215 54.7557 512.193 192.368 453.575 262.341C395.68 331.738 361.424 422.987 287.805 384.819C201.073 339.829 150.665 416.048 100.359 370.098Z" stroke="#6DCDE4" stroke-width="1.37" stroke-miterlimit="10"/>
<path opacity="0.35" d="M99.3849 375.089C12.0482 282.2 -5.83257 29.9206 229.659 40.9355C323.419 45.3651 517.435 201.597 452.777 269.797C388.829 337.349 358.56 435.538 284.793 388.776C198.047 333.746 146.767 425.483 99.3849 375.089Z" stroke="#6DCDE4" stroke-width="1.37" stroke-miterlimit="10"/>
<path opacity="0.38" d="M98.3511 380.079C22.9152 285.493 -18.9591 39.7101 228.699 36.9932C326.682 35.9154 522.676 210.825 451.921 277.18C381.933 342.841 355.621 448.015 281.736 392.674C194.975 327.648 142.337 435.169 98.3511 380.079Z" stroke="#6DCDE4" stroke-width="1.37" stroke-miterlimit="10"/>
<path opacity="0.4" d="M97.4207 385.055C32.9997 288.52 -31.9232 49.5734 227.754 33.0511C330.018 26.5396 527.917 220.039 451.064 284.563C375.038 348.364 352.653 460.491 278.694 396.572C191.874 321.476 137.316 444.87 97.4207 385.055Z" stroke="#6DCDE4" stroke-width="1.37" stroke-miterlimit="10"/>
</svg>
