<svg width="12" height="219" viewBox="0 0 12 219" fill="none" xmlns="http://www.w3.org/2000/svg">
<path d="M6 0.666667C3.05448 0.666666 0.666667 3.05448 0.666667 6C0.666666 8.94552 3.05448 11.3333 6 11.3333C8.94552 11.3333 11.3333 8.94552 11.3333 6C11.3333 3.05448 8.94552 0.666667 6 0.666667ZM5.99999 207.667C3.05447 207.667 0.666658 210.054 0.666657 213C0.666657 215.946 3.05447 218.333 5.99999 218.333C8.94551 218.333 11.3333 215.946 11.3333 213C11.3333 210.054 8.94551 207.667 5.99999 207.667ZM5 6L4.99999 213L6.99999 213L7 6L5 6Z" fill="#20699B"/>
</svg>
