<svg width="1251" height="12" viewBox="0 0 1251 12" fill="none" xmlns="http://www.w3.org/2000/svg">
<path d="M0.666667 6C0.666667 8.94552 3.05448 11.3333 6 11.3333C8.94552 11.3333 11.3333 8.94552 11.3333 6C11.3333 3.05448 8.94552 0.666667 6 0.666667C3.05448 0.666667 0.666667 3.05448 0.666667 6ZM1239.67 6C1239.67 8.94552 1242.05 11.3333 1245 11.3333C1247.95 11.3333 1250.33 8.94552 1250.33 6C1250.33 3.05448 1247.95 0.666667 1245 0.666667C1242.05 0.666667 1239.67 3.05448 1239.67 6ZM6 7H1245V5H6V7Z" fill="#58AEE9"/>
</svg>
