<svg width="881" height="249" viewBox="0 0 881 249" fill="none" xmlns="http://www.w3.org/2000/svg">
<path d="M880.358 365.658C880.358 366.155 880.244 366.67 879.977 367.13C879.138 368.638 877.173 369.208 875.609 368.381C874.045 367.571 873.454 365.677 874.293 364.168C875.132 362.66 877.097 362.09 878.661 362.899C879.729 363.469 880.339 364.536 880.358 365.64V365.658ZM852.073 349.656C852.073 350.226 851.92 350.796 851.577 351.311C850.623 352.764 848.64 353.187 847.133 352.268C845.626 351.348 845.188 349.417 846.141 347.982C847.095 346.529 849.078 346.106 850.585 347.025C851.558 347.614 852.073 348.626 852.073 349.656ZM824.875 331.979C824.875 332.605 824.684 333.23 824.264 333.782C823.235 335.18 821.232 335.511 819.782 334.518C818.333 333.524 817.989 331.575 819.019 330.195C820.049 328.797 822.071 328.466 823.502 329.459C824.379 330.066 824.856 331.023 824.856 331.979H824.875ZM798.516 313.126C798.516 313.788 798.287 314.45 797.829 315.02C796.742 316.381 794.739 316.621 793.309 315.591C791.898 314.542 791.65 312.592 792.718 311.231C793.805 309.87 795.827 309.613 797.238 310.661C798.058 311.268 798.497 312.188 798.497 313.126H798.516ZM772.805 293.444C772.805 294.143 772.576 294.842 772.081 295.413C770.955 296.737 768.934 296.939 767.541 295.854C766.168 294.769 765.958 292.819 767.083 291.476C768.209 290.152 770.231 289.95 771.623 291.035C772.386 291.642 772.805 292.543 772.805 293.444ZM747.553 273.23C747.553 273.947 747.305 274.646 746.79 275.235C745.645 276.541 743.624 276.706 742.25 275.603C740.896 274.499 740.705 272.549 741.869 271.225C743.013 269.919 745.035 269.735 746.408 270.857C747.152 271.464 747.553 272.347 747.553 273.23ZM722.567 252.702C722.567 253.42 722.319 254.137 721.785 254.726C720.622 256.032 718.581 256.179 717.246 255.057C715.891 253.935 715.739 251.985 716.902 250.679C718.066 249.373 720.087 249.226 721.442 250.348C722.185 250.955 722.567 251.819 722.567 252.702ZM697.677 232.046C697.677 232.764 697.429 233.499 696.895 234.069C695.731 235.375 693.69 235.523 692.355 234.401C691.001 233.279 690.868 231.31 692.012 230.023C693.175 228.717 695.216 228.57 696.551 229.692C697.295 230.299 697.658 231.163 697.658 232.028L697.677 232.046ZM672.767 211.427C672.767 212.144 672.519 212.862 671.985 213.45C670.841 214.756 668.8 214.903 667.446 213.8C666.092 212.696 665.939 210.728 667.083 209.422C668.247 208.116 670.288 207.969 671.623 209.072C672.367 209.679 672.748 210.562 672.748 211.427H672.767ZM647.686 191.01C647.686 191.709 647.438 192.426 646.923 193.015C645.779 194.321 643.757 194.505 642.384 193.401C641.03 192.297 640.839 190.348 641.964 189.023C643.109 187.717 645.13 187.533 646.504 188.619C647.267 189.226 647.648 190.108 647.667 191.01H647.686ZM622.319 170.924C622.319 171.623 622.09 172.303 621.594 172.874C620.488 174.198 618.447 174.419 617.074 173.333C615.682 172.267 615.472 170.298 616.578 168.974C617.684 167.65 619.725 167.429 621.098 168.496C621.88 169.103 622.3 170.004 622.3 170.905L622.319 170.924ZM596.551 151.316C596.551 151.978 596.341 152.64 595.884 153.211C594.797 154.572 592.775 154.829 591.363 153.781C589.952 152.732 589.704 150.783 590.791 149.422C591.878 148.06 593.9 147.803 595.312 148.851C596.132 149.458 596.57 150.378 596.57 151.316H596.551ZM570.307 132.315C570.307 132.959 570.097 133.585 569.696 134.155C568.647 135.534 566.626 135.847 565.195 134.835C563.765 133.824 563.44 131.874 564.489 130.494C565.539 129.115 567.56 128.802 568.991 129.814C569.849 130.421 570.307 131.359 570.307 132.315ZM543.509 114.069C543.509 114.657 543.318 115.283 542.956 115.816C541.945 117.232 539.962 117.6 538.474 116.625C537.005 115.669 536.624 113.738 537.635 112.321C538.646 110.905 540.648 110.537 542.117 111.494C543.032 112.101 543.528 113.075 543.528 114.069H543.509ZM516.063 96.7234C516.063 97.2936 515.91 97.8639 515.586 98.3789C514.633 99.832 512.649 100.273 511.142 99.3537C509.635 98.4524 509.178 96.5211 510.131 95.068C511.066 93.6149 513.069 93.1734 514.575 94.0931C515.548 94.6817 516.082 95.6934 516.082 96.7234H516.063ZM487.949 80.4266C487.949 80.9416 487.816 81.475 487.511 81.9716C486.633 83.4615 484.669 83.9766 483.124 83.1121C481.579 82.266 481.045 80.3714 481.922 78.8815C482.8 77.3916 484.764 76.8765 486.309 77.7226C487.358 78.2929 487.93 79.3414 487.93 80.4266H487.949ZM459.13 65.3437C459.13 65.8219 459.016 66.3002 458.768 66.7601C457.966 68.2867 456.021 68.8753 454.438 68.1028C452.855 67.3302 452.225 65.454 453.046 63.9273C453.847 62.4007 455.792 61.7937 457.375 62.5846C458.481 63.1181 459.13 64.2217 459.13 65.3437ZM429.586 51.6036C429.586 52.0267 429.49 52.468 429.3 52.8911C428.556 54.4546 426.668 55.1536 425.046 54.4362C423.425 53.7373 422.7 51.8979 423.444 50.3345C424.169 48.771 426.076 48.072 427.698 48.7893C428.88 49.3044 429.586 50.4264 429.586 51.6036ZM399.336 39.3717C399.336 39.7396 399.26 40.1443 399.126 40.4937C398.478 42.094 396.608 42.885 394.949 42.278C393.29 41.6526 392.47 39.85 393.099 38.2498C393.747 36.6495 395.617 35.8585 397.276 36.4839C398.554 36.9438 399.336 38.1394 399.336 39.3717ZM368.438 28.7954C368.438 29.108 368.38 29.4392 368.285 29.7519C367.751 31.3889 365.92 32.2717 364.241 31.7567C362.544 31.2233 361.628 29.4759 362.163 27.8573C362.716 26.2202 364.528 25.3374 366.206 25.8524C367.56 26.2755 368.438 27.4894 368.438 28.7954ZM336.967 19.948C336.967 20.2055 336.929 20.463 336.853 20.7389C336.414 22.3943 334.659 23.3876 332.923 22.9646C331.207 22.5231 330.158 20.8309 330.616 19.1755C331.054 17.52 332.828 16.5267 334.545 16.9498C335.994 17.3177 336.948 18.5684 336.967 19.948ZM305.02 12.94C305.02 13.1423 305.001 13.3447 304.962 13.547C304.619 15.2208 302.922 16.3244 301.186 15.9933C299.431 15.6622 298.306 14.0252 298.649 12.3513C298.993 10.6591 300.69 9.57386 302.426 9.90494C303.952 10.1992 305.02 11.4869 305.02 12.94ZM272.691 7.78973C272.691 7.93688 272.691 8.0656 272.653 8.21275C272.424 9.90498 270.803 11.1006 269.029 10.8799C267.255 10.6591 266.015 9.09563 266.263 7.38501C266.492 5.67439 268.113 4.47878 269.887 4.7179C271.508 4.93862 272.672 6.26305 272.691 7.78973ZM240.095 4.55242C240.095 4.55242 240.095 4.71795 240.095 4.77313C239.961 6.48375 238.417 7.77131 236.643 7.64255C234.869 7.51379 233.534 6.02391 233.667 4.31329C233.801 2.60267 235.346 1.31511 237.12 1.44387C238.817 1.57263 240.114 2.91535 240.114 4.534L240.095 4.55242ZM207.366 3.17288C207.366 3.17288 207.366 3.20961 207.366 3.22801C207.327 4.93863 205.878 6.29983 204.104 6.28143C202.33 6.26304 200.9 4.84668 200.938 3.13606C200.957 1.42544 202.426 0.0459628 204.199 0.0827503C205.954 0.101144 207.366 1.48068 207.366 3.1913V3.17288ZM174.56 3.61432C174.56 5.26975 173.206 6.64929 171.47 6.72286C169.696 6.79644 168.19 5.4721 168.113 3.74309C168.037 2.03247 169.41 0.579345 171.203 0.50577C172.977 0.432195 174.484 1.75654 174.56 3.48555C174.56 3.52233 174.56 3.57753 174.56 3.61432ZM141.831 5.80318C141.831 7.38504 140.591 8.74616 138.912 8.89331C137.139 9.05886 135.575 7.80804 135.403 6.09743C135.231 4.38681 136.528 2.87859 138.302 2.71304C140.076 2.5475 141.64 3.79831 141.811 5.50893C141.811 5.60089 141.811 5.71121 141.811 5.80318H141.831ZM109.273 9.62911C109.273 11.1558 108.109 12.4801 106.526 12.7192C104.772 12.9584 103.131 11.7996 102.883 10.1074C102.616 8.39674 103.837 6.83319 105.592 6.57568C107.346 6.33656 108.987 7.49545 109.254 9.18767C109.273 9.35322 109.292 9.48196 109.292 9.62911H109.273ZM76.925 15C76.925 16.4532 75.8759 17.7591 74.331 18.0534C72.5763 18.3844 70.8979 17.2809 70.5546 15.6071C70.2113 13.9148 71.3556 12.2961 73.0913 11.965C74.846 11.6339 76.5244 12.7376 76.8677 14.4114C76.9059 14.6138 76.925 14.8161 76.925 15ZM44.8822 21.7873C44.8822 23.1853 43.9095 24.4729 42.4218 24.8224C40.6862 25.227 38.9505 24.197 38.5309 22.5231C38.1113 20.8677 39.1794 19.1754 40.896 18.7707C42.6125 18.3661 44.3673 19.3961 44.7869 21.0515C44.8441 21.3091 44.8822 21.5482 44.8822 21.7873ZM13.1828 29.8989C13.1828 31.2417 12.2673 32.4924 10.8368 32.8787C9.12025 33.3569 7.34646 32.4005 6.85056 30.7451C6.35466 29.108 7.34646 27.379 9.06303 26.9007C10.7796 26.4225 12.5534 27.379 13.0493 29.0345C13.1447 29.3104 13.1828 29.6047 13.1828 29.8806V29.8989ZM-18.1733 39.2246C-18.1733 40.5305 -19.0316 41.7446 -20.3858 42.186C-22.0833 42.7195 -23.8952 41.8365 -24.4483 40.1995C-25.0014 38.5625 -24.0859 36.815 -22.3884 36.2632C-20.71 35.7298 -18.879 36.6311 -18.3259 38.2498C-18.2114 38.5808 -18.1542 38.8935 -18.1542 39.2246H-18.1733ZM-49.1479 49.6539C-49.1479 50.9231 -49.949 52.1186 -51.265 52.5784C-52.9435 53.167 -54.7745 52.3393 -55.4039 50.7391C-56.0142 49.1204 -55.1559 47.3547 -53.4966 46.7477C-51.8182 46.1591 -49.9681 46.9868 -49.3577 48.587C-49.2242 48.9365 -49.167 49.3044 -49.167 49.6539H-49.1479Z" fill="url(#paint0_linear_18_500)" fill-opacity="0.15"/>
<defs>
<linearGradient id="paint0_linear_18_500" x1="-71.0038" y1="1067.32" x2="477.303" y2="18.9629" gradientUnits="userSpaceOnUse">
<stop stop-color="#4591CA"/>
<stop offset="0.01" stop-color="#37A2D4"/>
<stop offset="0.02" stop-color="#00EBFF"/>
<stop offset="0.23" stop-color="#02E7FC"/>
<stop offset="0.42" stop-color="#0ADCF6"/>
<stop offset="0.6" stop-color="#18CAEC"/>
<stop offset="0.77" stop-color="#2CB0DD"/>
<stop offset="0.94" stop-color="#4590CA"/>
<stop offset="1" stop-color="#5082C2"/>
</linearGradient>
</defs>
</svg>
