<svg width="832" height="185" viewBox="0 0 832 185" fill="none" xmlns="http://www.w3.org/2000/svg">
<path d="M831.722 348.012C831.722 348.803 831.436 349.575 830.883 350.237C829.605 351.691 827.354 351.875 825.867 350.642C824.36 349.41 824.169 347.239 825.447 345.805C826.706 344.352 828.957 344.168 830.463 345.4C831.284 346.08 831.722 347.055 831.722 348.03V348.012ZM807.023 327.264C807.023 328.073 806.717 328.901 806.126 329.563C804.81 330.979 802.578 331.108 801.11 329.839C799.641 328.57 799.508 326.399 800.824 324.983C802.14 323.567 804.391 323.456 805.859 324.707C806.641 325.387 807.042 326.307 807.042 327.264H807.023ZM782.762 306.037C782.762 306.865 782.456 307.711 781.827 308.355C780.492 309.753 778.241 309.845 776.792 308.557C775.342 307.27 775.247 305.099 776.582 303.701C777.917 302.303 780.168 302.211 781.617 303.499C782.38 304.161 782.762 305.081 782.762 306.019V306.037ZM758.749 284.553C758.749 285.4 758.424 286.246 757.795 286.908C756.46 288.287 754.19 288.361 752.76 287.073C751.329 285.786 751.253 283.615 752.588 282.236C753.923 280.838 756.174 280.764 757.623 282.052C758.367 282.732 758.749 283.634 758.749 284.553ZM734.793 263.014C734.793 263.842 734.469 264.707 733.839 265.369C732.504 266.748 730.253 266.822 728.804 265.553C727.373 264.265 727.297 262.076 728.632 260.697C729.967 259.299 732.218 259.225 733.668 260.513C734.411 261.193 734.793 262.095 734.793 263.014ZM710.742 241.567C710.742 242.395 710.437 243.241 709.807 243.885C708.472 245.283 706.221 245.375 704.772 244.087C703.322 242.8 703.227 240.629 704.562 239.231C705.897 237.833 708.148 237.741 709.597 239.029C710.36 239.71 710.742 240.629 710.761 241.567H710.742ZM686.481 220.341C686.481 221.15 686.176 221.978 685.584 222.64C684.268 224.056 682.018 224.167 680.568 222.916C679.1 221.647 678.985 219.476 680.282 218.06C681.598 216.662 683.849 216.533 685.317 217.803C686.099 218.483 686.5 219.403 686.5 220.359L686.481 220.341ZM661.896 199.464C661.896 200.255 661.61 201.064 661.018 201.708C659.721 203.143 657.49 203.29 656.002 202.057C654.534 200.825 654.362 198.655 655.64 197.22C656.918 195.785 659.168 195.62 660.656 196.87C661.457 197.551 661.877 198.508 661.896 199.464ZM636.891 179.065C636.891 179.838 636.624 180.61 636.071 181.254C634.831 182.726 632.58 182.928 631.055 181.714C629.548 180.5 629.338 178.33 630.597 176.876C631.856 175.423 634.087 175.203 635.613 176.417C636.452 177.097 636.891 178.072 636.891 179.065ZM611.39 159.255C611.39 159.991 611.142 160.745 610.627 161.389C609.407 162.879 607.175 163.136 605.63 161.978C604.085 160.8 603.818 158.648 605.02 157.158C606.24 155.669 608.472 155.411 610.017 156.57C610.913 157.25 611.39 158.244 611.39 159.274V159.255ZM585.317 140.163C585.317 140.862 585.089 141.579 584.631 142.186C583.467 143.713 581.236 144.044 579.653 142.922C578.07 141.8 577.745 139.648 578.89 138.121C580.053 136.594 582.285 136.282 583.868 137.404C584.821 138.066 585.317 139.114 585.317 140.163ZM558.615 121.879C558.615 122.541 558.424 123.222 558.005 123.829C556.898 125.392 554.686 125.797 553.046 124.712C551.425 123.645 551.005 121.511 552.13 119.948C553.237 118.384 555.449 117.98 557.07 119.065C558.081 119.727 558.615 120.794 558.615 121.879ZM531.264 104.552C531.264 105.178 531.074 105.803 530.711 106.392C529.662 107.992 527.469 108.47 525.79 107.477C524.131 106.465 523.616 104.35 524.665 102.731C525.714 101.131 527.907 100.634 529.586 101.646C530.654 102.308 531.245 103.412 531.245 104.552H531.264ZM503.208 88.2738C503.208 88.844 503.055 89.451 502.731 89.9844C501.739 91.6215 499.584 92.1917 497.867 91.2536C496.17 90.2971 495.579 88.2003 496.551 86.5632C497.543 84.9262 499.698 84.356 501.415 85.2941C502.559 85.9378 503.208 87.0782 503.208 88.2738ZM474.465 73.1725C474.465 73.7059 474.331 74.2394 474.064 74.7545C473.168 76.4283 471.013 77.0905 469.277 76.226C467.522 75.3431 466.836 73.2829 467.751 71.5907C468.647 69.9169 470.803 69.2547 472.538 70.1192C473.759 70.7262 474.465 71.9218 474.465 73.1725ZM445.035 59.3588C445.035 59.837 444.94 60.3337 444.711 60.7936C443.891 62.5226 441.793 63.2767 440 62.4858C438.207 61.6948 437.425 59.6532 438.245 57.9426C439.065 56.2136 441.182 55.4593 442.956 56.2503C444.272 56.8205 445.035 58.0713 445.035 59.3588ZM414.957 46.943C414.957 47.3661 414.881 47.8075 414.709 48.2122C413.984 49.978 411.905 50.8426 410.074 50.1252C408.243 49.4263 407.347 47.4214 408.091 45.6556C408.815 43.8898 410.875 43.0436 412.706 43.7425C414.099 44.276 414.938 45.5636 414.957 46.9247V46.943ZM384.268 35.9989C384.268 36.3667 384.211 36.753 384.078 37.1208C383.448 38.905 381.426 39.8615 379.557 39.2729C377.707 38.6659 376.715 36.6978 377.326 34.9136C377.955 33.111 379.996 32.1545 381.846 32.7615C383.315 33.2582 384.249 34.5825 384.268 35.9989ZM353.027 26.5996C353.027 26.9123 352.988 27.225 352.893 27.5377C352.359 29.377 350.375 30.4256 348.487 29.9105C346.599 29.3955 345.493 27.4826 346.046 25.6616C346.58 23.8222 348.544 22.7737 350.452 23.3071C352.016 23.7302 353.027 25.1097 353.027 26.5996ZM321.346 18.7822C321.346 19.0397 321.308 19.2973 321.251 19.5548C320.812 21.3942 318.905 22.553 316.998 22.1299C315.071 21.7068 313.87 19.8675 314.327 18.0097C314.766 16.1703 316.673 15.0116 318.581 15.4347C320.221 15.8025 321.346 17.2004 321.346 18.7822ZM289.265 12.5835C289.265 12.7859 289.246 12.9882 289.208 13.1722C288.865 15.0299 287.015 16.2991 285.088 15.968C283.143 15.6553 281.846 13.8711 282.189 12.0133C282.533 10.1372 284.383 8.88648 286.309 9.21757C288.026 9.51187 289.265 10.9649 289.265 12.5835ZM256.898 8.00352C256.898 8.13228 256.898 8.27939 256.879 8.42654C256.65 10.3027 254.877 11.6455 252.912 11.4247C250.967 11.204 249.574 9.49347 249.803 7.59891C250.032 5.72275 251.806 4.38 253.751 4.60072C255.563 4.80305 256.879 6.27451 256.879 8.00352H256.898ZM224.341 5.02374C224.341 5.02374 224.341 5.18931 224.341 5.28128C224.207 7.15744 222.51 8.59212 220.545 8.46336C218.581 8.31621 217.093 6.67919 217.246 4.80303C217.379 2.90847 219.077 1.4738 221.041 1.62095C222.91 1.7497 224.36 3.23957 224.36 5.04216L224.341 5.02374ZM191.669 3.60739C191.669 3.60739 191.669 3.66266 191.669 3.69945C191.63 5.594 190.009 7.10221 188.026 7.06542C186.061 7.01024 184.516 5.44682 184.554 3.55227C184.592 1.65771 186.214 0.149411 188.178 0.204592C190.124 0.24138 191.669 1.76803 191.669 3.6258V3.60739ZM158.939 3.69945C158.939 5.55722 157.413 7.08389 155.468 7.13907C153.503 7.19425 151.863 5.68595 151.806 3.79139C151.768 1.89684 153.313 0.315009 155.277 0.259827C157.242 0.204646 158.882 1.71283 158.939 3.60739C158.939 3.64418 158.939 3.66266 158.939 3.69945ZM126.248 5.24446C126.248 7.02865 124.818 8.53691 122.929 8.66567C120.965 8.81282 119.267 7.37816 119.134 5.502C119 3.60744 120.469 1.97042 122.433 1.84166C124.398 1.69451 126.095 3.12917 126.229 5.00533C126.229 5.0973 126.229 5.17088 126.229 5.24446H126.248ZM93.6521 8.1507C93.6521 9.87971 92.317 11.3696 90.5051 11.5719C88.5406 11.7926 86.7858 10.4316 86.557 8.53701C86.3281 6.66085 87.7395 4.95012 89.685 4.74779C91.6304 4.52707 93.4042 5.88823 93.614 7.76439C93.6331 7.89315 93.6331 8.02195 93.6331 8.1507H93.6521ZM61.2089 12.3628C61.2089 14.0183 59.9501 15.4898 58.1953 15.7657C56.2499 16.06 54.4379 14.7725 54.1328 12.8963C53.8276 11.0202 55.1627 9.27274 57.1082 8.97844C59.0536 8.68414 60.8656 9.9717 61.1707 11.8479C61.1898 12.0318 61.2089 12.1973 61.2089 12.3628ZM28.9373 17.7706C28.9373 19.3892 27.7547 20.824 26.0572 21.1551C24.1309 21.523 22.2617 20.2905 21.8802 18.4512C21.4988 16.575 22.7767 14.7724 24.703 14.4229C26.6294 14.055 28.4986 15.2691 28.861 17.1269C28.8991 17.3476 28.9182 17.5683 28.9182 17.7706H28.9373ZM-3.08639 24.3188C-3.08639 25.8822 -4.19263 27.2986 -5.85198 27.6664C-7.77836 28.1079 -9.68567 26.9491 -10.1244 25.0914C-10.563 23.252 -9.3805 21.4126 -7.45412 20.9895C-5.52774 20.548 -3.6395 21.7069 -3.18176 23.5463C-3.12453 23.8038 -3.08639 24.0612 -3.08639 24.3188ZM-34.8621 31.9154C-34.8621 33.4237 -35.9111 34.8216 -37.4942 35.2446C-39.4015 35.7229 -41.3469 34.6376 -41.8428 32.7982C-42.3387 30.9773 -41.2134 29.1012 -39.3061 28.6045C-37.4179 28.1263 -35.4724 29.2116 -34.9575 31.0509C-34.8812 31.3452 -34.843 31.6395 -34.843 31.9338L-34.8621 31.9154ZM-66.3708 40.5052C-66.3708 41.9767 -67.3626 43.3563 -68.9075 43.7978C-70.7767 44.3496 -72.7793 43.3195 -73.3325 41.4986C-73.9046 39.6776 -72.8366 37.7646 -70.9483 37.2312C-69.0601 36.6794 -67.0765 37.7278 -66.5234 39.5304C-66.428 39.8615 -66.3899 40.1925 -66.3708 40.5052Z" fill="url(#paint0_linear_18_495)" fill-opacity="0.2"/>
<defs>
<linearGradient id="paint0_linear_18_495" x1="-74.7085" y1="1001.38" x2="473.598" y2="-46.9775" gradientUnits="userSpaceOnUse">
<stop stop-color="#4591CA"/>
<stop offset="0.01" stop-color="#37A2D4"/>
<stop offset="0.02" stop-color="#00EBFF"/>
<stop offset="0.23" stop-color="#02E7FC"/>
<stop offset="0.42" stop-color="#0ADCF6"/>
<stop offset="0.6" stop-color="#18CAEC"/>
<stop offset="0.77" stop-color="#2CB0DD"/>
<stop offset="0.94" stop-color="#4590CA"/>
<stop offset="1" stop-color="#5082C2"/>
</linearGradient>
</defs>
</svg>
