<svg width="757" height="58" viewBox="0 0 757 58" fill="none" xmlns="http://www.w3.org/2000/svg">
<path d="M756.555 323.701C756.555 325.154 755.754 326.552 754.343 327.288C752.302 328.373 749.708 327.656 748.583 325.688C747.457 323.701 748.201 321.218 750.261 320.133C752.302 319.048 754.877 319.765 756.021 321.752C756.365 322.377 756.536 323.039 756.555 323.701ZM740.152 296.534C740.152 297.913 739.428 299.238 738.131 300.029C736.128 301.206 733.534 300.617 732.294 298.686C731.055 296.755 731.684 294.253 733.687 293.057C735.689 291.862 738.283 292.469 739.523 294.4C739.943 295.062 740.152 295.798 740.152 296.534ZM722.357 270.194C722.357 271.5 721.728 272.787 720.526 273.578C718.6 274.866 715.968 274.388 714.633 272.53C713.298 270.672 713.794 268.134 715.72 266.846C717.646 265.559 720.278 266.037 721.613 267.895C722.109 268.612 722.357 269.403 722.357 270.212V270.194ZM703.17 244.792C703.17 246.025 702.598 247.239 701.51 248.048C699.641 249.427 696.99 249.096 695.56 247.294C694.129 245.51 694.472 242.935 696.342 241.573C698.192 240.194 700.843 240.525 702.273 242.309C702.865 243.045 703.151 243.928 703.151 244.792H703.17ZM682.609 220.402C682.609 221.561 682.113 222.701 681.121 223.511C679.348 224.982 676.677 224.78 675.151 223.069C673.626 221.359 673.835 218.765 675.609 217.312C677.383 215.841 680.072 216.043 681.579 217.753C682.266 218.526 682.609 219.464 682.609 220.402ZM660.713 197.134C660.713 198.219 660.294 199.286 659.416 200.095C657.719 201.659 655.048 201.604 653.427 199.967C651.806 198.33 651.863 195.736 653.561 194.191C655.258 192.628 657.929 192.683 659.55 194.301C660.332 195.092 660.732 196.104 660.732 197.116L660.713 197.134ZM637.52 175.062C637.52 176.055 637.139 177.066 636.376 177.857C634.793 179.494 632.104 179.586 630.387 178.041C628.69 176.515 628.594 173.921 630.177 172.266C631.779 170.629 634.45 170.537 636.166 172.063C637.063 172.873 637.52 173.958 637.52 175.062ZM613.088 154.258C613.088 155.178 612.764 156.116 612.096 156.889C610.608 158.618 607.919 158.857 606.126 157.404C604.333 155.95 604.085 153.375 605.592 151.646C607.08 149.917 609.769 149.678 611.562 151.113C612.554 151.922 613.088 153.081 613.088 154.24V154.258ZM587.492 134.798C587.492 135.662 587.225 136.508 586.652 137.244C585.26 139.065 582.609 139.433 580.74 138.09C578.852 136.729 578.47 134.191 579.862 132.37C581.255 130.549 583.906 130.181 585.794 131.524C586.9 132.333 587.492 133.547 587.492 134.798ZM560.847 116.735C560.847 117.508 560.618 118.298 560.141 118.997C558.863 120.892 556.212 121.389 554.266 120.156C552.302 118.905 551.768 116.367 553.065 114.491C554.362 112.615 556.994 112.1 558.939 113.351C560.16 114.141 560.828 115.429 560.828 116.753L560.847 116.735ZM533.21 100.089C533.21 100.788 533.019 101.505 532.638 102.167C531.455 104.117 528.842 104.761 526.839 103.62C524.837 102.48 524.15 99.9783 525.333 98.0285C526.515 96.0788 529.109 95.4351 531.131 96.5755C532.466 97.3296 533.21 98.6907 533.229 100.089H533.21ZM504.696 84.8771C504.696 85.5209 504.543 86.1646 504.219 86.7716C503.132 88.7765 500.595 89.5491 498.497 88.519C496.418 87.4706 495.617 85.0058 496.704 83.0009C497.772 80.996 500.328 80.205 502.426 81.2535C503.875 81.9892 504.715 83.4056 504.715 84.8771H504.696ZM475.399 71.1369C475.399 71.7071 475.285 72.2957 475.018 72.8475C474.045 74.9076 471.528 75.809 469.41 74.8709C467.274 73.9328 466.34 71.5048 467.312 69.4631C468.266 67.403 470.784 66.5017 472.92 67.4397C474.484 68.1203 475.399 69.5918 475.399 71.1553V71.1369ZM445.436 58.8131C445.436 59.3281 445.34 59.8432 445.13 60.3398C444.272 62.4367 441.812 63.4667 439.618 62.639C437.444 61.8113 436.395 59.4201 437.253 57.3232C438.112 55.2263 440.572 54.1963 442.765 55.0424C444.425 55.6862 445.436 57.1944 445.436 58.8315V58.8131ZM414.881 47.9056C414.881 48.347 414.804 48.7886 414.652 49.2484C413.889 51.3821 411.466 52.5225 409.273 51.7868C407.061 51.051 405.878 48.7334 406.641 46.5997C407.404 44.466 409.807 43.3256 412.02 44.0614C413.774 44.65 414.881 46.2134 414.881 47.924V47.9056ZM383.849 38.3592C383.849 38.7455 383.792 39.1318 383.677 39.5365C383.01 41.6885 380.664 42.9393 378.413 42.2955C376.162 41.6517 374.884 39.3893 375.552 37.2188C376.2 35.0484 378.565 33.816 380.816 34.4598C382.666 34.9748 383.868 36.6118 383.868 38.3592H383.849ZM352.397 30.1373C352.397 30.4684 352.359 30.7994 352.264 31.1305C351.711 33.3194 349.403 34.6621 347.133 34.1103C344.863 33.5769 343.49 31.3512 344.043 29.1624C344.615 26.9735 346.904 25.6492 349.174 26.1826C351.1 26.6424 352.397 28.3163 352.397 30.1373ZM320.622 23.1844C320.622 23.4603 320.602 23.7363 320.545 24.0306C320.068 26.2562 317.837 27.6725 315.548 27.2126C313.259 26.7528 311.772 24.6007 312.248 22.3935C312.725 20.1862 314.957 18.7516 317.246 19.2114C319.248 19.6161 320.622 21.3083 320.622 23.2028V23.1844ZM288.598 17.464C288.598 17.7031 288.579 17.9054 288.541 18.1445C288.159 20.3702 285.985 21.8785 283.658 21.5106C281.35 21.1427 279.786 19.0275 280.168 16.8018C280.549 14.5762 282.723 13.0679 285.05 13.4357C287.11 13.7668 288.598 15.4958 288.598 17.464ZM256.364 12.9024C256.364 13.0679 256.364 13.2518 256.326 13.4357C256.021 15.6798 253.885 17.2432 251.577 16.9673C249.25 16.673 247.61 14.6313 247.915 12.3873C248.22 10.1432 250.337 8.57981 252.664 8.85572C254.8 9.13163 256.364 10.8607 256.364 12.9024ZM223.978 9.42592C223.978 9.55468 223.978 9.68349 223.959 9.83064C223.73 12.0747 221.671 13.73 219.344 13.5277C217.017 13.307 215.3 11.3205 215.529 9.07643C215.758 6.8324 217.818 5.17696 220.145 5.39769C222.338 5.60002 223.997 7.36584 223.997 9.44433L223.978 9.42592ZM191.478 6.99793C191.478 6.99793 191.478 7.1635 191.478 7.25547C191.325 9.49951 189.323 11.2102 186.977 11.0814C184.65 10.9343 182.857 9.00282 183.009 6.74039C183.162 4.49636 185.165 2.76743 187.511 2.91458C189.742 3.04333 191.478 4.84585 191.478 6.97952V6.99793ZM158.92 5.54487C158.92 5.54487 158.92 5.63685 158.92 5.67364C158.844 7.93607 156.898 9.7018 154.552 9.62822C152.206 9.55465 150.375 7.67853 150.452 5.4161C150.528 3.15367 152.473 1.38782 154.819 1.4614C157.108 1.53497 158.92 3.3376 158.92 5.52646V5.54487ZM126.343 5.02979C126.343 7.31061 124.436 9.13167 122.109 9.13167C119.763 9.13167 117.875 7.29222 117.875 5.02979C117.875 2.78575 119.782 0.964844 122.109 0.964844C124.436 0.964844 126.324 2.78575 126.343 5.02979ZM93.7476 5.39769C93.7476 7.62333 91.9165 9.44427 89.6087 9.49945C87.2818 9.55464 85.3363 7.77047 85.2791 5.50804C85.2219 3.24561 87.072 1.36951 89.418 1.31433C91.7449 1.25915 93.6903 3.04331 93.7476 5.30574C93.7476 5.34253 93.7476 5.3609 93.7476 5.39769ZM61.1708 6.59332C61.1708 8.76379 59.4161 10.5663 57.1464 10.6767C54.8195 10.8054 52.8168 9.05806 52.7023 6.79563C52.5879 4.5332 54.3808 2.62022 56.7268 2.50986C59.0537 2.3811 61.0564 4.12848 61.1708 6.39091C61.1708 6.46448 61.1708 6.51975 61.1708 6.59332ZM28.6321 8.56147C28.6321 10.6767 26.9346 12.4793 24.7031 12.6448C22.3762 12.8104 20.3354 11.1182 20.1637 8.87413C19.9921 6.6117 21.7468 4.66195 24.0737 4.49641C26.4006 4.33087 28.4414 6.02307 28.6131 8.26711C28.6131 8.37747 28.6131 8.4695 28.6131 8.56147H28.6321ZM-3.84926 11.2653C-3.84926 13.3438 -5.47047 15.128 -7.66387 15.3304C-9.99078 15.5511 -12.0697 13.914 -12.2986 11.6516C-12.5275 9.40757 -10.83 7.40266 -8.50309 7.18194C-6.17618 6.96121 -4.09721 8.59826 -3.86834 10.8607C-3.84927 10.9894 -3.84926 11.1181 -3.84926 11.2653ZM-36.2544 14.6681C-36.2544 16.7098 -37.8374 18.4756 -39.9927 18.7331C-42.3196 18.9907 -44.4367 17.4088 -44.7038 15.1648C-44.9708 12.9207 -43.3114 10.8791 -40.9845 10.6216C-38.6576 10.364 -36.5595 11.9458 -36.2735 14.2082C-36.2544 14.3738 -36.2353 14.521 -36.2353 14.6865L-36.2544 14.6681ZM-68.5832 18.7147C-68.5832 20.7197 -70.1091 22.4671 -72.2262 22.7798C-74.5531 23.0925 -76.6893 21.529 -77.0135 19.3034C-77.3377 17.0593 -75.7356 14.9992 -73.4087 14.6865C-71.0818 14.3738 -68.9456 15.9189 -68.6214 18.1629C-68.6023 18.3469 -68.5832 18.5492 -68.5832 18.7331V18.7147ZM-100.817 23.3868C-100.817 25.3549 -102.304 27.1024 -104.383 27.4151C-106.691 27.7645 -108.866 26.2562 -109.247 24.0306C-109.628 21.8049 -108.045 19.708 -105.738 19.3402C-103.43 18.9723 -101.255 20.4989 -100.874 22.7246C-100.836 22.9453 -100.817 23.1477 -100.817 23.3684V23.3868Z" fill="url(#paint0_linear_18_487)" fill-opacity="0.5"/>
<defs>
<linearGradient id="paint0_linear_18_487" x1="-71.4047" y1="876.101" x2="476.902" y2="-172.24" gradientUnits="userSpaceOnUse">
<stop stop-color="#4591CA"/>
<stop offset="0.01" stop-color="#37A2D4"/>
<stop offset="0.02" stop-color="#00EBFF"/>
<stop offset="0.23" stop-color="#02E7FC"/>
<stop offset="0.42" stop-color="#0ADCF6"/>
<stop offset="0.6" stop-color="#18CAEC"/>
<stop offset="0.77" stop-color="#2CB0DD"/>
<stop offset="0.94" stop-color="#4590CA"/>
<stop offset="1" stop-color="#5082C2"/>
</linearGradient>
</defs>
</svg>
