<svg width="937" height="346" viewBox="0 0 937 346" fill="none" xmlns="http://www.w3.org/2000/svg">
<path d="M936.185 380.567C936.185 380.788 936.166 381.009 936.109 381.229C935.727 382.627 934.24 383.455 932.809 383.106C931.36 382.738 930.501 381.303 930.864 379.923C931.245 378.526 932.714 377.698 934.163 378.047C935.384 378.342 936.185 379.409 936.185 380.567ZM904.867 370.947C904.867 371.242 904.81 371.573 904.695 371.867C904.161 373.21 902.597 373.909 901.205 373.394C899.794 372.879 899.088 371.37 899.622 370.009C900.156 368.667 901.72 367.968 903.112 368.483C904.2 368.869 904.867 369.862 904.867 370.929V370.947ZM874.674 358.458C874.674 358.844 874.598 359.231 874.408 359.598C873.759 360.904 872.138 361.438 870.784 360.812C869.429 360.187 868.876 358.624 869.525 357.318C870.173 356.012 871.794 355.478 873.149 356.104C874.121 356.545 874.674 357.483 874.674 358.458ZM845.607 343.633C845.607 344.074 845.493 344.516 845.245 344.939C844.501 346.189 842.842 346.612 841.545 345.895C840.248 345.178 839.79 343.577 840.553 342.327C841.297 341.076 842.956 340.635 844.253 341.352C845.13 341.83 845.607 342.713 845.607 343.614V343.633ZM817.589 326.986C817.589 327.483 817.436 327.98 817.131 328.439C816.311 329.653 814.633 329.985 813.374 329.194C812.134 328.403 811.772 326.784 812.592 325.57C813.412 324.356 815.09 324.025 816.349 324.816C817.15 325.313 817.57 326.159 817.589 327.005V326.986ZM790.486 308.979C790.486 309.512 790.333 310.046 789.971 310.524C789.094 311.683 787.396 311.959 786.176 311.113C784.974 310.266 784.688 308.629 785.565 307.471C786.443 306.293 788.14 306.036 789.342 306.882C790.066 307.379 790.467 308.188 790.467 308.997L790.486 308.979ZM764.127 289.941C764.127 290.512 763.936 291.063 763.574 291.542C762.658 292.682 760.961 292.903 759.759 292.001C758.577 291.119 758.348 289.482 759.283 288.323C760.198 287.182 761.896 286.98 763.097 287.863C763.784 288.378 764.146 289.15 764.146 289.923L764.127 289.941ZM738.359 270.168C738.359 270.757 738.15 271.345 737.749 271.824C736.814 272.946 735.098 273.111 733.934 272.191C732.771 271.29 732.599 269.635 733.534 268.513C734.488 267.391 736.185 267.225 737.349 268.126C738.016 268.641 738.359 269.396 738.359 270.15V270.168ZM712.992 249.898C712.992 250.487 712.782 251.094 712.363 251.59C711.39 252.694 709.693 252.841 708.529 251.903C707.385 250.983 707.232 249.328 708.205 248.206C709.159 247.102 710.875 246.974 712.039 247.893C712.668 248.408 712.992 249.144 712.992 249.898ZM687.892 229.334C687.892 229.941 687.682 230.548 687.244 231.045C686.271 232.148 684.554 232.277 683.41 231.339C682.266 230.401 682.132 228.745 683.105 227.642C684.078 226.538 685.794 226.409 686.938 227.366C687.549 227.881 687.892 228.617 687.892 229.334ZM662.868 208.678C662.868 209.285 662.659 209.892 662.22 210.388C661.247 211.492 659.53 211.621 658.386 210.683C657.242 209.745 657.108 208.089 658.081 206.986C659.073 205.9 660.77 205.772 661.915 206.71C662.544 207.225 662.868 207.96 662.868 208.678ZM637.806 188.077C637.806 188.665 637.596 189.272 637.158 189.769C636.204 190.873 634.488 191.001 633.343 190.063C632.199 189.144 632.065 187.488 633.019 186.385C633.992 185.281 635.708 185.152 636.853 186.072C637.482 186.587 637.806 187.323 637.806 188.077ZM612.496 167.641C612.496 168.23 612.286 168.819 611.867 169.315C610.913 170.419 609.216 170.584 608.052 169.665C606.908 168.745 606.736 167.09 607.69 165.986C608.644 164.882 610.36 164.717 611.505 165.636C612.153 166.151 612.477 166.906 612.477 167.66L612.496 167.641ZM586.9 147.592C586.9 148.162 586.71 148.751 586.309 149.229C585.374 150.37 583.677 150.554 582.494 149.652C581.312 148.751 581.14 147.114 582.056 145.974C582.99 144.833 584.688 144.668 585.87 145.55C586.538 146.066 586.9 146.82 586.9 147.592ZM560.885 128.095C560.885 128.647 560.713 129.198 560.332 129.677C559.435 130.835 557.738 131.056 556.536 130.192C555.334 129.309 555.106 127.672 556.002 126.513C556.917 125.354 558.615 125.133 559.817 126.016C560.503 126.531 560.885 127.304 560.885 128.095ZM534.354 109.297C534.354 109.812 534.182 110.345 533.839 110.823C532.981 112 531.283 112.276 530.063 111.43C528.842 110.602 528.556 108.965 529.433 107.788C530.291 106.611 531.989 106.335 533.21 107.163C533.953 107.678 534.354 108.487 534.354 109.297ZM507.175 91.3809C507.175 91.8775 507.041 92.3742 506.736 92.8157C505.916 94.0297 504.238 94.3607 502.979 93.5698C501.739 92.7788 501.377 91.1602 502.197 89.9463C503.017 88.7323 504.695 88.4011 505.954 89.192C506.736 89.6887 507.175 90.5348 507.175 91.3809ZM479.271 74.5691C479.271 75.0106 479.138 75.4888 478.89 75.9118C478.127 77.1442 476.467 77.5672 475.17 76.8131C473.892 76.0773 473.454 74.4771 474.236 73.2263C474.999 71.9939 476.658 71.5709 477.955 72.325C478.794 72.8033 479.29 73.6862 479.29 74.5691H479.271ZM450.566 59.0264C450.566 59.4494 450.471 59.8725 450.261 60.2587C449.555 61.5279 447.915 62.0245 446.599 61.3623C445.283 60.6817 444.768 59.0999 445.455 57.8307C446.16 56.5616 447.801 56.065 449.117 56.7272C450.032 57.187 450.566 58.1067 450.566 59.0448V59.0264ZM421.041 45.0104C421.041 45.3598 420.965 45.746 420.793 46.0955C420.183 47.4015 418.562 47.9901 417.207 47.3831C415.834 46.7945 415.243 45.231 415.872 43.9251C416.502 42.6007 418.104 42.0305 419.477 42.6375C420.469 43.0789 421.06 44.0171 421.06 45.0104H421.041ZM390.677 32.7049C390.677 33.0176 390.619 33.3303 390.486 33.643C389.952 34.9858 388.388 35.6663 386.977 35.1512C385.584 34.6362 384.878 33.128 385.413 31.7668C385.947 30.4241 387.511 29.7435 388.922 30.2585C389.99 30.6632 390.658 31.6381 390.658 32.7049H390.677ZM359.588 22.3677C359.588 22.6252 359.549 22.8827 359.473 23.1402C359.035 24.5197 357.509 25.2922 356.078 24.8692C354.648 24.4461 353.847 22.9746 354.285 21.5951C354.724 20.2155 356.25 19.443 357.68 19.866C358.844 20.2155 359.588 21.2457 359.588 22.3677ZM327.85 14.164C327.85 14.3664 327.831 14.5503 327.774 14.7526C327.45 16.169 325.981 17.0519 324.531 16.7208C323.082 16.4081 322.166 14.9917 322.491 13.5938C322.815 12.1959 324.283 11.313 325.733 11.6257C326.992 11.9016 327.85 12.9868 327.85 14.1824V14.164ZM295.578 8.22288C295.578 8.35164 295.578 8.49873 295.54 8.62749C295.311 10.0438 293.938 11.0187 292.45 10.8163C290.963 10.5956 289.952 9.27128 290.181 7.83657C290.41 6.42025 291.783 5.42699 293.271 5.64771C294.625 5.85004 295.578 6.95371 295.578 8.22288ZM262.944 4.61767C262.944 4.61767 262.944 4.7464 262.944 4.81997C262.83 6.25468 261.514 7.33991 260.026 7.22955C258.539 7.11918 257.413 5.86847 257.528 4.41536C257.642 2.98065 258.939 1.89542 260.446 2.00579C261.876 2.11615 262.964 3.25651 262.964 4.59925L262.944 4.61767ZM230.12 3.36691C230.12 4.82001 228.899 5.9972 227.411 5.9972C225.924 5.9972 224.703 4.82003 224.703 3.38532C224.703 1.95061 225.943 0.773438 227.43 0.773438C228.918 0.773438 230.12 1.95061 230.12 3.38532V3.36691ZM197.238 4.41536C197.238 5.7765 196.151 6.93527 194.72 7.02724C193.232 7.11921 191.935 6.03397 191.821 4.59925C191.726 3.16454 192.851 1.91384 194.339 1.80348C195.845 1.71151 197.123 2.79665 197.238 4.23136C197.238 4.28654 197.238 4.36018 197.238 4.41536ZM164.508 7.65268C164.508 8.94024 163.536 10.0806 162.162 10.2461C160.675 10.4301 159.321 9.43688 159.111 8.00216C158.92 6.56745 159.95 5.24304 161.438 5.0591C162.925 4.85677 164.299 5.86848 164.489 7.30319C164.508 7.41356 164.508 7.54232 164.508 7.65268ZM132.065 12.9501C132.065 14.1641 131.188 15.2676 129.891 15.5251C128.422 15.801 126.992 14.8814 126.706 13.4651C126.4 12.0487 127.354 10.6692 128.823 10.3933C130.291 10.099 131.722 11.0187 132.008 12.4534C132.046 12.619 132.065 12.7844 132.065 12.9684V12.9501ZM100.003 20.1052C100.003 21.264 99.2022 22.3308 97.9816 22.6435C96.532 23.0114 95.0443 22.1836 94.6629 20.7857C94.2814 19.3878 95.1588 17.9531 96.5892 17.5852C98.0388 17.2174 99.5265 18.0635 99.908 19.443C99.9652 19.6637 100.003 19.8844 100.003 20.1052ZM68.4184 28.9894C68.4184 30.1114 67.6936 31.1414 66.5301 31.4909C65.1187 31.9139 63.5738 31.1782 63.1351 29.7987C62.6774 28.4192 63.4594 26.9477 64.8898 26.5063C66.3203 26.0648 67.8462 26.8189 68.3039 28.1985C68.3993 28.456 68.4374 28.7135 68.4374 28.9894H68.4184ZM37.3293 39.4186C37.3293 40.467 36.6617 41.4787 35.5746 41.865C34.1822 42.3616 32.6182 41.681 32.0842 40.3383C31.5501 38.9771 32.2558 37.4689 33.6672 36.9723C35.0596 36.4757 36.6236 37.1562 37.1576 38.5173C37.2721 38.8116 37.3293 39.1243 37.3293 39.4186ZM6.77424 51.209C6.77424 52.2391 6.14483 53.1956 5.11488 53.637C3.74162 54.1888 2.13949 53.5818 1.54823 52.2575C0.976032 50.9331 1.60544 49.3881 2.9787 48.8179C4.37104 48.2477 5.9541 48.8731 6.54536 50.1974C6.67887 50.5285 6.75517 50.878 6.75517 51.209H6.77424ZM-23.2467 64.2318C-23.2467 65.2067 -23.8189 66.1631 -24.7917 66.6046C-26.1459 67.23 -27.7671 66.6598 -28.4155 65.3538C-29.064 64.0479 -28.4728 62.4844 -27.1186 61.8774C-25.7835 61.252 -24.1623 61.8038 -23.5138 63.1097C-23.3421 63.4592 -23.2467 63.8456 -23.2467 64.2134V64.2318Z" fill="url(#paint0_linear_18_515)" fill-opacity="0.1"/>
<defs>
<linearGradient id="paint0_linear_18_515" x1="-74.785" y1="1162.33" x2="473.522" y2="113.985" gradientUnits="userSpaceOnUse">
<stop stop-color="#4591CA"/>
<stop offset="0.01" stop-color="#37A2D4"/>
<stop offset="0.02" stop-color="#00EBFF"/>
<stop offset="0.23" stop-color="#02E7FC"/>
<stop offset="0.42" stop-color="#0ADCF6"/>
<stop offset="0.6" stop-color="#18CAEC"/>
<stop offset="0.77" stop-color="#2CB0DD"/>
<stop offset="0.94" stop-color="#4590CA"/>
<stop offset="1" stop-color="#5082C2"/>
</linearGradient>
</defs>
</svg>
