<svg width="870" height="217" viewBox="0 0 870 217" fill="none" xmlns="http://www.w3.org/2000/svg">
<path d="M869.639 366.27C869.639 366.859 869.468 367.484 869.105 368.036C868.094 369.563 866.015 370.004 864.413 369.03C862.83 368.055 862.372 366.05 863.383 364.505C864.394 362.978 866.492 362.537 868.075 363.511C869.086 364.137 869.639 365.185 869.639 366.27ZM842.555 348.447C842.555 349.109 842.346 349.79 841.907 350.378C840.82 351.85 838.703 352.163 837.177 351.114C835.651 350.047 835.308 348.006 836.414 346.552C837.52 345.099 839.637 344.768 841.144 345.817C842.06 346.46 842.536 347.454 842.536 348.465L842.555 348.447ZM816.425 329.354C816.425 330.072 816.197 330.789 815.701 331.378C814.537 332.794 812.42 333.033 810.932 331.929C809.464 330.807 809.216 328.747 810.36 327.331C811.524 325.915 813.66 325.676 815.128 326.779C815.968 327.423 816.406 328.379 816.406 329.336L816.425 329.354ZM791.001 309.397C791.001 310.133 790.753 310.887 790.219 311.494C789.017 312.874 786.881 313.057 785.432 311.899C784.001 310.74 783.81 308.68 785.012 307.3C786.214 305.902 788.35 305.718 789.78 306.877C790.581 307.521 791.001 308.459 791.001 309.379V309.397ZM766.034 288.888C766.034 289.661 765.767 290.415 765.214 291.04C763.975 292.401 761.838 292.548 760.427 291.371C759.016 290.194 758.863 288.116 760.084 286.754C761.304 285.393 763.46 285.246 764.871 286.423C765.634 287.067 766.034 287.968 766.034 288.888ZM741.354 268.066C741.354 268.839 741.068 269.611 740.496 270.237C739.256 271.598 737.12 271.727 735.708 270.531C734.316 269.336 734.163 267.275 735.422 265.914C736.662 264.553 738.798 264.424 740.209 265.62C740.953 266.264 741.354 267.147 741.354 268.066ZM716.788 247.116C716.788 247.888 716.502 248.661 715.929 249.286C714.69 250.647 712.554 250.776 711.142 249.562C709.731 248.367 709.597 246.306 710.856 244.945C712.096 243.584 714.232 243.456 715.643 244.669C716.387 245.313 716.788 246.196 716.788 247.116ZM692.184 226.202C692.184 226.975 691.897 227.729 691.344 228.354C690.105 229.715 687.968 229.844 686.557 228.649C685.146 227.453 685.012 225.393 686.252 224.032C687.492 222.671 689.628 222.542 691.039 223.737C691.802 224.381 692.184 225.282 692.203 226.202H692.184ZM667.408 205.472C667.408 206.245 667.141 206.999 666.587 207.606C665.367 208.986 663.231 209.133 661.8 207.956C660.389 206.778 660.217 204.718 661.438 203.339C662.658 201.959 664.795 201.812 666.206 202.989C666.988 203.633 667.389 204.553 667.389 205.472H667.408ZM642.346 185.074C642.346 185.809 642.098 186.545 641.564 187.171C640.362 188.55 638.226 188.752 636.795 187.594C635.346 186.435 635.155 184.375 636.357 182.995C637.539 181.597 639.675 181.413 641.125 182.572C641.926 183.216 642.346 184.136 642.346 185.074ZM616.902 165.135C616.902 165.852 616.673 166.57 616.177 167.158C615.014 168.575 612.878 168.814 611.409 167.692C609.94 166.57 609.693 164.51 610.856 163.093C612.019 161.695 614.156 161.456 615.624 162.578C616.464 163.222 616.902 164.179 616.902 165.135ZM590.982 145.766C590.982 146.465 590.753 147.146 590.295 147.734C589.17 149.188 587.034 149.463 585.546 148.378C584.039 147.293 583.753 145.251 584.879 143.798C586.023 142.345 588.121 142.069 589.628 143.154C590.505 143.798 590.982 144.755 590.982 145.748V145.766ZM564.508 127.115C564.508 127.777 564.299 128.439 563.879 129.01C562.792 130.481 560.675 130.831 559.168 129.801C557.642 128.752 557.28 126.71 558.348 125.239C559.435 123.767 561.552 123.418 563.078 124.448C563.994 125.092 564.508 126.085 564.508 127.115ZM537.425 109.31C537.425 109.935 537.253 110.542 536.872 111.094C535.842 112.621 533.744 113.026 532.18 112.032C530.616 111.039 530.177 109.016 531.207 107.507C532.237 105.981 534.335 105.558 535.899 106.569C536.891 107.195 537.425 108.225 537.425 109.292V109.31ZM509.693 92.4797C509.693 93.0499 509.54 93.6385 509.216 94.1719C508.243 95.717 506.164 96.2136 504.562 95.2939C502.96 94.3742 502.426 92.3509 503.398 90.8058C504.352 89.2608 506.45 88.7642 508.052 89.6838C509.101 90.2908 509.693 91.3761 509.693 92.4797ZM481.255 76.753C481.255 77.2864 481.121 77.8383 480.854 78.3165C479.958 79.9168 477.898 80.487 476.258 79.6225C474.598 78.758 474.007 76.7714 474.903 75.1896C475.8 73.6077 477.841 73.0191 479.5 73.8836C480.625 74.4722 481.255 75.5942 481.255 76.753ZM452.13 62.2955C452.13 62.7738 452.016 63.2705 451.806 63.7303C450.986 65.349 448.964 66.0295 447.266 65.2386C445.569 64.4477 444.882 62.4979 445.702 60.8609C446.523 59.2422 448.544 58.5617 450.242 59.3526C451.443 59.9228 452.149 61.0816 452.149 62.2955H452.13ZM422.319 49.1992C422.319 49.6223 422.243 50.0637 422.052 50.4868C421.308 52.1422 419.324 52.9148 417.589 52.2158C415.872 51.4984 415.071 49.6039 415.796 47.93C416.521 46.2562 418.504 45.5021 420.24 46.201C421.537 46.716 422.3 47.93 422.3 49.1992H422.319ZM391.859 37.5928C391.859 37.9606 391.802 38.3653 391.649 38.7147C391.001 40.407 389.055 41.2899 387.301 40.6645C385.546 40.0391 384.63 38.163 385.279 36.4708C385.908 34.7785 387.873 33.8956 389.628 34.521C391.001 35.0177 391.859 36.25 391.859 37.5743V37.5928ZM360.789 27.5866C360.789 27.9176 360.732 28.2304 360.637 28.5431C360.083 30.2721 358.195 31.2469 356.402 30.7135C354.609 30.1985 353.599 28.3591 354.133 26.63C354.686 24.901 356.574 23.9263 358.367 24.4413C359.836 24.8827 360.77 26.1702 360.789 27.5681V27.5866ZM329.204 19.2543C329.204 19.5118 329.166 19.7692 329.109 20.0268C328.67 21.7926 326.82 22.8594 325.008 22.4363C323.177 22.0133 322.071 20.2474 322.51 18.4816C322.948 16.7342 324.779 15.649 326.61 16.0721C328.155 16.4399 329.204 17.7644 329.204 19.2543ZM297.181 12.6509C297.181 12.8532 297.161 13.0555 297.123 13.2395C296.78 15.0237 295.006 16.2008 293.175 15.8698C291.325 15.5387 290.124 13.828 290.448 12.0622C290.791 10.278 292.565 9.10086 294.396 9.43195C296.017 9.72625 297.161 11.0874 297.161 12.6324L297.181 12.6509ZM264.833 7.79488C264.833 7.92363 264.833 8.07086 264.814 8.21801C264.566 10.0022 262.887 11.2713 261.018 11.0322C259.149 10.8115 257.852 9.17444 258.081 7.37186C258.31 5.58766 260.007 4.31844 261.876 4.55756C263.574 4.75989 264.833 6.15781 264.833 7.77646V7.79488ZM232.256 4.68633C232.256 4.68633 232.256 4.85188 232.256 4.92546C232.122 6.72804 230.501 8.08922 228.632 7.96047C226.763 7.83171 225.37 6.2682 225.504 4.46561C225.638 2.66303 227.259 1.30196 229.128 1.43071C230.921 1.55947 232.275 2.97571 232.275 4.68633H232.256ZM199.546 3.2885C199.546 3.2885 199.546 3.32523 199.546 3.34362C199.507 5.14621 197.962 6.59931 196.093 6.56253C194.224 6.52574 192.717 5.03585 192.775 3.23326C192.794 1.43068 194.358 -0.0224099 196.208 0.0327713C198.058 0.0695588 199.546 1.50431 199.546 3.2885ZM166.778 3.56434C166.778 5.33014 165.348 6.7833 163.517 6.83848C161.647 6.91205 160.083 5.4773 160.007 3.69311C159.931 1.89052 161.399 0.382185 163.269 0.30861C165.138 0.235035 166.702 1.66979 166.778 3.45398C166.778 3.49077 166.778 3.52755 166.778 3.56434ZM134.068 5.42212C134.068 7.11435 132.733 8.5491 130.959 8.67785C129.09 8.825 127.449 7.50066 127.297 5.69807C127.144 3.89549 128.537 2.31355 130.406 2.1664C132.256 2.01925 133.896 3.3436 134.049 5.16458C134.049 5.25655 134.049 5.34855 134.049 5.42212H134.068ZM101.491 8.78821C101.491 10.4069 100.251 11.8231 98.5347 12.0438C96.6846 12.2829 94.968 11.0138 94.7391 9.22964C94.4912 7.44545 95.8072 5.79003 97.6764 5.5693C99.5265 5.33019 101.224 6.5993 101.472 8.38349C101.491 8.53064 101.51 8.65947 101.51 8.80662L101.491 8.78821ZM69.105 13.5705C69.105 15.134 67.9415 16.5136 66.3012 16.8079C64.4511 17.1205 62.6964 15.9249 62.3722 14.1407C62.0479 12.3565 63.2877 10.6643 65.1378 10.3516C66.9878 10.0389 68.7426 11.2162 69.0668 13.0187C69.1049 13.2027 69.124 13.3866 69.124 13.5705H69.105ZM36.9478 19.6773C36.9478 21.1856 35.8606 22.5467 34.2775 22.8778C32.4465 23.264 30.6346 22.1605 30.2341 20.3947C29.8335 18.6289 30.997 16.8814 32.828 16.5135C34.659 16.1272 36.471 17.2309 36.8524 18.9967C36.9096 19.2358 36.9478 19.4566 36.9478 19.6957V19.6773ZM5.05764 27.0164C5.05764 28.4695 4.04676 29.7939 2.52092 30.1801C0.708977 30.64 -1.14111 29.5731 -1.61793 27.8257C-2.09476 26.0783 -0.988522 24.2941 0.823418 23.8527C2.63536 23.3928 4.48544 24.4596 4.96227 26.1886C5.01949 26.4645 5.05764 26.7404 5.05764 26.9979V27.0164ZM-26.5083 35.4775C-26.5083 36.8939 -27.4619 38.1813 -28.9305 38.6044C-30.7234 39.1194 -32.6117 38.1446 -33.1457 36.3972C-33.6797 34.6682 -32.6689 32.8472 -30.8569 32.3322H-30.876C-29.0831 31.8172 -27.1949 32.8104 -26.6609 34.5394C-26.5655 34.8521 -26.5273 35.1649 -26.5083 35.4775ZM-57.769 44.9871C-57.769 46.3666 -58.6654 47.6358 -60.0768 48.0956C-61.8506 48.6842 -63.777 47.7462 -64.3683 46.0355C-64.9596 44.3249 -64.0059 42.4855 -62.2321 41.8969C-60.4583 41.3267 -58.5319 42.2464 -57.9407 43.9754C-57.8262 44.3065 -57.769 44.656 -57.769 45.0055V44.9871Z" fill="url(#paint0_linear_18_497)" fill-opacity="0.2"/>
<defs>
<linearGradient id="paint0_linear_18_497" x1="-65.5422" y1="1038.16" x2="482.765" y2="-10.1798" gradientUnits="userSpaceOnUse">
<stop stop-color="#4591CA"/>
<stop offset="0.01" stop-color="#37A2D4"/>
<stop offset="0.02" stop-color="#00EBFF"/>
<stop offset="0.23" stop-color="#02E7FC"/>
<stop offset="0.42" stop-color="#0ADCF6"/>
<stop offset="0.6" stop-color="#18CAEC"/>
<stop offset="0.77" stop-color="#2CB0DD"/>
<stop offset="0.94" stop-color="#4590CA"/>
<stop offset="1" stop-color="#5082C2"/>
</linearGradient>
</defs>
</svg>
