<svg width="820" height="153" viewBox="0 0 820 153" fill="none" xmlns="http://www.w3.org/2000/svg">
<path d="M819.286 348.237C819.286 349.175 818.905 350.095 818.18 350.812C816.712 352.21 814.346 352.191 812.916 350.775C811.466 349.359 811.466 347.078 812.954 345.68C814.423 344.282 816.788 344.301 818.218 345.717C818.943 346.416 819.306 347.317 819.306 348.237H819.286ZM796.418 325.668C796.418 326.606 796.036 327.544 795.293 328.261C793.805 329.641 791.459 329.604 790.028 328.169C788.598 326.753 788.617 324.472 790.105 323.093C791.573 321.713 793.938 321.75 795.369 323.185C796.055 323.865 796.418 324.766 796.418 325.668ZM773.626 303.025C773.626 303.963 773.244 304.901 772.5 305.618C771.032 306.998 768.667 306.961 767.236 305.545C765.806 304.11 765.844 301.848 767.331 300.468C768.8 299.089 771.165 299.107 772.596 300.542C773.282 301.241 773.645 302.142 773.645 303.043L773.626 303.025ZM750.776 280.437C750.776 281.376 750.414 282.295 749.67 283.013C748.201 284.392 745.836 284.374 744.406 282.976C742.956 281.56 742.975 279.279 744.444 277.881C745.912 276.483 748.277 276.52 749.708 277.936C750.414 278.617 750.776 279.536 750.776 280.437ZM727.698 258.071C727.698 258.972 727.335 259.91 726.61 260.609C725.161 262.025 722.796 262.025 721.346 260.627C719.878 259.229 719.878 256.949 721.327 255.551C722.777 254.134 725.142 254.134 726.591 255.532C727.316 256.231 727.698 257.151 727.698 258.089V258.071ZM704.295 236.017C704.295 236.918 703.952 237.819 703.246 238.518C701.835 239.953 699.47 239.99 697.982 238.61C696.494 237.249 696.456 234.968 697.886 233.533C699.298 232.099 701.663 232.062 703.151 233.441C703.914 234.14 704.295 235.078 704.295 236.017ZM680.473 214.404C680.473 215.268 680.148 216.151 679.481 216.85C678.089 218.303 675.724 218.414 674.217 217.053C672.691 215.71 672.596 213.429 674.007 211.976C675.399 210.523 677.764 210.412 679.271 211.774C680.072 212.491 680.473 213.447 680.473 214.422V214.404ZM656.136 193.325C656.136 194.152 655.83 195.017 655.22 195.698C653.847 197.187 651.501 197.335 649.956 196.029C648.411 194.704 648.258 192.442 649.613 190.952C650.967 189.444 653.332 189.296 654.877 190.602C655.716 191.32 656.155 192.313 656.155 193.306L656.136 193.325ZM631.226 172.889C631.226 173.699 630.94 174.508 630.368 175.189C629.052 176.715 626.706 176.936 625.123 175.667C623.54 174.398 623.311 172.135 624.627 170.608C625.943 169.082 628.27 168.861 629.872 170.13C630.768 170.848 631.226 171.859 631.226 172.908V172.889ZM605.668 153.19C605.668 153.962 605.42 154.735 604.886 155.397C603.627 156.96 601.281 157.255 599.66 156.041C598.02 154.827 597.715 152.564 598.993 151.001C600.251 149.437 602.597 149.143 604.219 150.357C605.172 151.074 605.668 152.123 605.668 153.208V153.19ZM579.443 134.336C579.443 135.072 579.214 135.808 578.737 136.433C577.535 138.052 575.209 138.419 573.53 137.261C571.852 136.102 571.47 133.858 572.672 132.239C573.873 130.62 576.2 130.253 577.879 131.411C578.89 132.11 579.443 133.214 579.443 134.336ZM552.512 116.439C552.512 117.138 552.302 117.818 551.882 118.425C550.738 120.081 548.43 120.541 546.713 119.437C544.978 118.333 544.52 116.108 545.645 114.452C546.79 112.797 549.098 112.337 550.814 113.441C551.901 114.121 552.493 115.262 552.493 116.421L552.512 116.439ZM524.856 99.6086C524.856 100.234 524.684 100.878 524.322 101.466C523.254 103.159 520.965 103.71 519.21 102.68C517.455 101.65 516.883 99.4431 517.932 97.7508C519 96.0586 521.289 95.5068 523.044 96.5185C524.207 97.1991 524.856 98.3763 524.856 99.6086ZM496.494 83.9187C496.494 84.5073 496.361 85.0959 496.036 85.6477C495.045 87.3951 492.794 88.039 490.982 87.0825C489.17 86.126 488.522 83.9555 489.494 82.2081C490.486 80.4607 492.737 79.817 494.549 80.755C495.788 81.4172 496.494 82.6495 496.494 83.9187ZM467.446 69.4613C467.446 69.9947 467.331 70.5281 467.064 71.0431C466.149 72.8273 463.917 73.5631 462.086 72.6986C460.236 71.8157 459.473 69.6636 460.37 67.8978C461.285 66.1136 463.517 65.3779 465.348 66.2424C466.664 66.8677 467.446 68.1369 467.446 69.4797V69.4613ZM437.73 56.3281C437.73 56.8063 437.635 57.2846 437.425 57.7629C436.605 59.5838 434.411 60.43 432.523 59.6391C430.616 58.8665 429.757 56.7328 430.578 54.9119C431.379 53.0909 433.572 52.2447 435.46 53.0357C436.872 53.6243 437.73 54.9302 437.73 56.3281ZM407.385 44.593C407.385 45.0161 407.309 45.439 407.156 45.8621C406.431 47.7198 404.295 48.658 402.349 47.9774C400.423 47.2784 399.45 45.2183 400.156 43.3421C400.881 41.4844 403.017 40.5279 404.962 41.2269C406.469 41.7603 407.385 43.1399 407.385 44.593ZM376.486 34.3108C376.486 34.6603 376.429 35.0466 376.315 35.4144C375.685 37.2906 373.587 38.3575 371.642 37.7505C369.677 37.1435 368.59 35.1385 369.22 33.244C369.849 31.3494 371.928 30.3011 373.892 30.908C375.476 31.4047 376.486 32.8026 376.486 34.3293V34.3108ZM345.111 25.5003C345.111 25.813 345.073 26.1256 344.997 26.4383C344.463 28.3512 342.422 29.5101 340.438 28.995C338.436 28.48 337.253 26.5118 337.787 24.5989C338.321 22.6859 340.343 21.5272 342.346 22.0423C344.024 22.4653 345.111 23.9183 345.111 25.5186V25.5003ZM313.316 18.2163C313.316 18.4738 313.297 18.7129 313.24 18.9704C312.801 20.9202 310.837 22.1526 308.815 21.7479C306.813 21.3248 305.516 19.4303 305.935 17.4805C306.374 15.5308 308.338 14.2985 310.36 14.7032C312.115 15.071 313.316 16.5425 313.316 18.2163ZM281.197 12.4223C281.197 12.6062 281.197 12.8085 281.159 13.0109C280.835 14.9606 278.909 16.3033 276.887 15.9906C274.865 15.6779 273.473 13.8202 273.797 11.8705C274.121 9.90233 276.048 8.57799 278.069 8.89068C279.9 9.18498 281.197 10.7116 281.197 12.4223ZM248.83 8.13659C248.83 8.26535 248.83 8.41246 248.811 8.55961C248.583 10.5277 246.732 11.944 244.692 11.7233C242.632 11.5026 241.163 9.71841 241.411 7.75028C241.64 5.76376 243.49 4.34749 245.531 4.58661C247.438 4.78894 248.83 6.3523 248.83 8.15489V8.13659ZM216.292 5.30388C216.292 5.30388 216.292 5.46945 216.292 5.56142C216.158 7.54795 214.385 9.03785 212.325 8.9091C210.265 8.78034 208.72 7.06969 208.853 5.08317C208.987 3.09664 210.78 1.60674 212.821 1.73549C214.785 1.86425 216.292 3.44613 216.292 5.32229V5.30388ZM183.639 3.86923C183.639 3.86923 183.639 3.92439 183.639 3.96117C183.582 5.9477 181.884 7.52951 179.824 7.47433C177.764 7.41915 176.124 5.78211 176.181 3.79558C176.238 1.80906 177.936 0.227245 179.996 0.282426C182.018 0.337608 183.639 1.91949 183.639 3.86923ZM150.948 3.81399C150.948 5.76373 149.326 7.38242 147.286 7.41921C145.226 7.47439 143.509 5.87416 143.49 3.88764C143.452 1.91951 145.092 0.263979 147.152 0.227191C149.212 0.190404 150.909 1.77235 150.948 3.75887C150.948 3.77726 150.948 3.7956 150.948 3.81399ZM118.256 5.04645C118.256 6.94101 116.73 8.54119 114.747 8.65156C112.687 8.76192 110.932 7.2536 110.799 5.28547C110.684 3.29895 112.248 1.60682 114.308 1.47806C116.349 1.34931 118.123 2.87593 118.256 4.86245C118.256 4.91763 118.256 4.99118 118.256 5.06475V5.04645ZM85.6414 7.52956C85.6414 9.36894 84.211 10.9324 82.2846 11.1164C80.2438 11.3003 78.4127 9.86557 78.2029 7.87905C78.0122 5.91092 79.4999 4.14511 81.5598 3.96117C83.6006 3.77724 85.4316 5.21195 85.6414 7.18008C85.6414 7.29044 85.6414 7.40081 85.6414 7.52956ZM53.16 11.1715C53.16 12.9557 51.8058 14.5008 49.9176 14.7399C47.8768 14.9974 46.0076 13.6179 45.7406 11.6497C45.4736 9.68161 46.885 7.87901 48.9449 7.6031C50.9857 7.34559 52.8548 8.7251 53.1219 10.6932C53.1409 10.8588 53.16 11.0059 53.16 11.1715ZM20.8312 15.8987C20.8312 17.6277 19.5533 19.1544 17.7223 19.4487C15.6815 19.7798 13.7551 18.4555 13.4118 16.5057C13.0685 14.5376 14.4417 12.6798 16.4635 12.3487C18.5043 12.0176 20.4307 13.3419 20.774 15.2917C20.8121 15.494 20.8312 15.6963 20.8312 15.8803V15.8987ZM-11.326 21.6744C-11.326 23.3482 -12.5467 24.8564 -14.3204 25.1875C-16.3422 25.5922 -18.3067 24.3231 -18.7073 22.3733C-19.1078 20.4236 -17.8108 18.529 -15.7891 18.1244C-13.7673 17.7381 -11.8028 18.9888 -11.4023 20.9386C-11.3451 21.1777 -11.326 21.4168 -11.326 21.6559V21.6744ZM-43.2733 28.388C-43.2733 30.025 -44.4368 31.515 -46.1534 31.9013C-48.156 32.3427 -50.1778 31.1471 -50.6355 29.2157C-51.0933 27.2844 -49.8535 25.3531 -47.8509 24.8933C-45.8482 24.4334 -43.8455 25.629 -43.3687 27.5788C-43.3115 27.8547 -43.2733 28.1305 -43.2733 28.388ZM-75.0109 36.0215C-75.0109 37.6033 -76.1171 39.0748 -77.7765 39.4979C-79.7792 40.0129 -81.82 38.8541 -82.335 36.9411C-82.869 35.0098 -81.6674 33.0416 -79.6838 32.545C-77.7002 32.03 -75.6594 33.1888 -75.1253 35.1018C-75.03 35.4145 -75.0109 35.7271 -75.0109 36.0215Z" fill="url(#paint0_linear_18_493)" fill-opacity="0.25"/>
<defs>
<linearGradient id="paint0_linear_18_493" x1="-69.9916" y1="971.836" x2="478.315" y2="-76.5056" gradientUnits="userSpaceOnUse">
<stop stop-color="#4591CA"/>
<stop offset="0.01" stop-color="#37A2D4"/>
<stop offset="0.02" stop-color="#00EBFF"/>
<stop offset="0.23" stop-color="#02E7FC"/>
<stop offset="0.42" stop-color="#0ADCF6"/>
<stop offset="0.6" stop-color="#18CAEC"/>
<stop offset="0.77" stop-color="#2CB0DD"/>
<stop offset="0.94" stop-color="#4590CA"/>
<stop offset="1" stop-color="#5082C2"/>
</linearGradient>
</defs>
</svg>
