<svg width="741" height="26" viewBox="0 0 741 26" fill="none" xmlns="http://www.w3.org/2000/svg">
<path d="M740.553 322.696C740.553 324.351 739.542 325.915 737.883 326.614C735.632 327.534 733.057 326.559 732.085 324.388C731.131 322.236 732.161 319.734 734.411 318.815C736.643 317.895 739.237 318.888 740.191 321.04C740.439 321.592 740.553 322.144 740.553 322.696ZM726.801 294.296C726.801 295.841 725.924 297.349 724.379 298.104C722.205 299.17 719.554 298.324 718.447 296.227C717.36 294.13 718.219 291.574 720.393 290.525C722.567 289.458 725.218 290.305 726.305 292.401C726.63 293.027 726.782 293.671 726.782 294.314L726.801 294.296ZM711.2 266.761C711.2 268.214 710.418 269.648 709.025 270.439C706.927 271.635 704.219 270.954 702.998 268.931C701.758 266.908 702.464 264.296 704.562 263.119C706.66 261.923 709.35 262.604 710.589 264.627C711.009 265.289 711.2 266.043 711.2 266.779V266.761ZM693.748 240.274C693.748 241.635 693.08 242.977 691.821 243.805C689.819 245.13 687.072 244.633 685.699 242.683C684.326 240.733 684.841 238.103 686.862 236.779C688.865 235.454 691.612 235.951 692.985 237.882C693.5 238.618 693.748 239.446 693.748 240.274ZM674.484 214.964C674.484 216.215 673.912 217.484 672.806 218.311C670.898 219.765 668.133 219.433 666.626 217.594C665.119 215.736 665.462 213.069 667.37 211.616C669.296 210.163 672.062 210.494 673.568 212.334C674.198 213.106 674.503 214.026 674.503 214.945L674.484 214.964ZM653.465 190.96C653.465 192.119 652.97 193.278 652.016 194.124C650.223 195.706 647.438 195.558 645.779 193.829C644.139 192.082 644.291 189.415 646.084 187.815C647.896 186.233 650.681 186.38 652.321 188.109C653.084 188.918 653.465 189.93 653.465 190.96ZM630.807 168.428C630.807 169.495 630.406 170.561 629.567 171.389C627.869 173.081 625.085 173.118 623.349 171.499C621.594 169.862 621.537 167.177 623.235 165.485C624.932 163.792 627.717 163.756 629.472 165.374C630.368 166.202 630.826 167.324 630.826 168.428H630.807ZM606.622 147.422C606.622 148.397 606.279 149.372 605.592 150.163C604.028 151.947 601.243 152.186 599.374 150.678C597.524 149.169 597.276 146.484 598.84 144.7C600.404 142.897 603.189 142.676 605.058 144.185C606.088 145.012 606.622 146.226 606.622 147.422ZM581.045 128.017C581.045 128.881 580.759 129.782 580.187 130.536C578.737 132.431 575.991 132.817 574.007 131.438C572.043 130.04 571.642 127.391 573.073 125.497C574.522 123.602 577.269 123.197 579.252 124.595C580.416 125.423 581.045 126.711 581.045 128.017ZM554.247 110.211C554.247 111.002 554.019 111.793 553.542 112.529C552.226 114.497 549.498 115.067 547.457 113.798C545.398 112.529 544.806 109.899 546.122 107.912C547.438 105.944 550.166 105.374 552.226 106.643C553.523 107.452 554.247 108.814 554.247 110.211ZM526.363 94.0434C526.363 94.7423 526.191 95.4597 525.79 96.1219C524.608 98.1636 521.919 98.8992 519.802 97.7404C517.665 96.6 516.921 94.0066 518.123 91.9465C519.306 89.9048 521.995 89.169 524.112 90.3278C525.562 91.1003 526.363 92.5535 526.363 94.0434ZM497.543 79.4572C497.543 80.0825 497.391 80.7262 497.086 81.3332C496.017 83.4301 493.366 84.313 491.192 83.283C489.018 82.2529 488.102 79.6963 489.17 77.5994C490.238 75.5025 492.889 74.6196 495.064 75.6496C496.628 76.3854 497.524 77.8937 497.543 79.4572ZM467.942 66.4159C467.942 66.9678 467.827 67.5379 467.579 68.0897C466.626 70.2418 464.032 71.2535 461.8 70.3338C459.569 69.4141 458.52 66.9125 459.473 64.7605C460.427 62.6084 463.021 61.5968 465.253 62.5165C466.931 63.1971 467.942 64.7789 467.942 66.4159ZM437.673 54.8646C437.673 55.3613 437.597 55.858 437.406 56.3362C436.567 58.5435 434.03 59.6655 431.741 58.8561C429.453 58.0468 428.289 55.6188 429.109 53.3931C429.948 51.1859 432.485 50.0639 434.774 50.8732C436.548 51.4986 437.673 53.1357 437.673 54.8463V54.8646ZM406.87 44.7481C406.87 45.1711 406.794 45.6126 406.66 46.0357C405.935 48.2797 403.456 49.5305 401.129 48.8131C398.802 48.1142 397.524 45.7045 398.249 43.4789C398.974 41.2533 401.453 40.0026 403.78 40.7015C405.649 41.2717 406.87 42.9455 406.87 44.7481ZM375.609 35.9743C375.609 36.3422 375.552 36.71 375.457 37.0779C374.827 39.3403 372.405 40.6831 370.059 40.0761C367.713 39.4691 366.321 37.1331 366.95 34.8706C367.579 32.6082 369.983 31.2471 372.348 31.8724C374.312 32.3875 375.609 34.0982 375.609 35.9743ZM344.005 28.4512C344.005 28.7639 343.967 29.0766 343.891 29.3893C343.357 31.6886 341.011 33.1233 338.627 32.6082C336.242 32.0932 334.755 29.8308 335.289 27.5316C335.823 25.2323 338.188 23.7976 340.572 24.3126C342.613 24.7541 344.005 26.5015 344.005 28.4512ZM312.115 22.1238C312.115 22.3813 312.096 22.6572 312.039 22.9147C311.6 25.2323 309.292 26.7407 306.908 26.3176C304.505 25.8762 302.941 23.6689 303.38 21.3513C303.818 19.0521 306.126 17.5253 308.51 17.9668C310.627 18.3347 312.115 20.1189 312.115 22.1238ZM280.015 16.9C280.015 17.1208 279.996 17.323 279.958 17.5438C279.595 19.8614 277.345 21.4616 274.942 21.1122C272.538 20.7627 270.879 18.5922 271.241 16.2746C271.604 13.957 273.854 12.3567 276.258 12.7062C278.432 13.0189 280.015 14.8399 280.015 16.9ZM247.743 12.7246C247.743 12.8902 247.743 13.0558 247.705 13.2397C247.419 15.5573 245.226 17.2311 242.804 16.9552C240.381 16.6792 238.646 14.564 238.951 12.2464C239.237 9.91035 241.43 8.23649 243.853 8.53079C246.084 8.7883 247.743 10.6094 247.743 12.743V12.7246ZM215.357 9.52412C215.357 9.65288 215.357 9.78156 215.357 9.91032C215.129 12.2463 213.011 13.9754 210.589 13.7731C208.167 13.5707 206.355 11.4922 206.584 9.17463C206.813 6.83863 208.93 5.09116 211.371 5.31188C213.66 5.51421 215.376 7.37207 215.376 9.54253L215.357 9.52412ZM182.895 7.2249C182.895 7.31687 182.895 7.40877 182.895 7.50074C182.762 9.83675 180.664 11.621 178.241 11.4923C175.819 11.3451 173.969 9.34019 174.102 7.00419C174.255 4.66818 176.334 2.86551 178.775 3.01266C181.102 3.15981 182.914 5.01767 182.914 7.24331L182.895 7.2249ZM150.376 5.77172C150.376 5.77172 150.376 5.88214 150.376 5.93732C150.299 8.27332 148.239 10.1127 145.817 10.0391C143.395 9.96551 141.487 7.99737 141.564 5.66137C141.64 3.32536 143.681 1.46763 146.103 1.5596C148.487 1.63317 150.356 3.50931 150.356 5.79014L150.376 5.77172ZM117.837 5.10958V5.16481C117.818 7.50082 115.815 9.39533 113.393 9.37694C110.971 9.35854 109.006 7.42717 109.025 5.09117C109.044 2.75516 111.047 0.860645 113.469 0.879039C115.891 0.897433 117.837 2.79197 117.837 5.10958ZM85.2601 5.20152C85.2601 7.51913 83.3337 9.41368 80.9115 9.45047C78.4701 9.48726 76.4674 7.61116 76.4484 5.25676C76.4102 2.92075 78.3557 0.989361 80.797 0.952574C83.2384 0.93418 85.241 2.792 85.2601 5.1464V5.20152ZM52.7024 5.97414C52.7024 8.25497 50.8333 10.1495 48.4491 10.2231C46.0268 10.2967 43.9669 8.45722 43.8907 6.12121C43.8144 3.78521 45.7026 1.79877 48.144 1.72519C50.5662 1.65162 52.6261 3.49095 52.7024 5.82696C52.7024 5.88214 52.7024 5.91896 52.7024 5.97414ZM20.1638 7.39038C20.1638 9.63442 18.3519 11.5106 16.0059 11.6393C13.5836 11.7681 11.5046 9.96552 11.3711 7.62951C11.2376 5.29351 13.0877 3.2886 15.529 3.15985C17.9704 3.03109 20.0493 4.83366 20.1828 7.16967C20.1828 7.26164 20.1828 7.33522 20.1828 7.40879L20.1638 7.39038ZM-12.3367 9.43217C-12.3367 11.6394 -14.0914 13.4972 -16.4183 13.6811C-18.8406 13.8467 -20.9577 12.0809 -21.1294 9.76325C-21.301 7.42724 -19.4891 5.36707 -17.0668 5.20152C-14.6445 5.03598 -12.5274 6.78339 -12.3558 9.1194C-12.3558 9.22976 -12.3558 9.32181 -12.3558 9.43217H-12.3367ZM-44.799 12.0256C-44.799 14.1961 -46.4965 16.0723 -48.8044 16.2746C-51.2267 16.4953 -53.3628 14.7664 -53.5917 12.4304C-53.8206 10.0944 -52.0277 8.01585 -49.6055 7.81352C-47.1832 7.59279 -45.0279 9.32174 -44.8181 11.6577C-44.8181 11.7865 -44.8181 11.9153 -44.8181 12.0441L-44.799 12.0256ZM-77.2042 15.171C-77.2042 17.3231 -78.8826 19.1624 -81.1332 19.4016C-83.5555 19.6591 -85.7298 17.9669 -85.9968 15.6309C-86.2639 13.2949 -84.5282 11.198 -82.0869 10.9405C-79.6646 10.683 -77.4903 12.3752 -77.2232 14.7112C-77.2232 14.8583 -77.2042 15.0238 -77.2042 15.1526V15.171ZM-109.552 18.8313C-109.552 20.9466 -111.173 22.786 -113.424 23.0619C-115.846 23.3562 -118.04 21.7007 -118.345 19.3647C-118.65 17.0471 -116.933 14.9135 -114.511 14.6192C-112.108 14.3249 -109.895 15.9804 -109.59 18.298C-109.571 18.4819 -109.552 18.6474 -109.552 18.8129V18.8313Z" fill="url(#paint0_linear_18_485)" fill-opacity="0.6"/>
<defs>
<linearGradient id="paint0_linear_18_485" x1="-68.3301" y1="845.714" x2="480.066" y2="-202.814" gradientUnits="userSpaceOnUse">
<stop stop-color="#4591CA"/>
<stop offset="0.01" stop-color="#37A2D4"/>
<stop offset="0.02" stop-color="#00EBFF"/>
<stop offset="0.23" stop-color="#02E7FC"/>
<stop offset="0.42" stop-color="#0ADCF6"/>
<stop offset="0.6" stop-color="#18CAEC"/>
<stop offset="0.77" stop-color="#2CB0DD"/>
<stop offset="0.94" stop-color="#4590CA"/>
<stop offset="1" stop-color="#5082C2"/>
</linearGradient>
</defs>
</svg>
