<svg width="790" height="89" viewBox="0 0 790 89" fill="none" xmlns="http://www.w3.org/2000/svg">
<path d="M789.189 349.847C789.189 351.153 788.521 352.423 787.301 353.177C785.412 354.335 782.895 353.802 781.693 351.981C780.492 350.16 781.045 347.732 782.933 346.555C784.821 345.396 787.339 345.93 788.56 347.769C788.979 348.413 789.189 349.13 789.189 349.866V349.847ZM771.241 323.544C771.241 324.795 770.612 326.027 769.467 326.8C767.617 328.014 765.081 327.554 763.822 325.77C762.544 323.986 763.04 321.539 764.89 320.325C766.759 319.111 769.277 319.571 770.555 321.355C771.031 322.018 771.26 322.79 771.26 323.544H771.241ZM752.416 297.83C752.416 299.044 751.844 300.239 750.757 301.012C748.945 302.299 746.389 301.913 745.073 300.166C743.738 298.418 744.138 295.954 745.95 294.684C747.762 293.397 750.318 293.783 751.634 295.531C752.149 296.23 752.416 297.039 752.416 297.83ZM732.656 272.778C732.656 273.936 732.122 275.095 731.112 275.868C729.338 277.21 726.782 276.916 725.409 275.224C724.016 273.513 724.321 271.067 726.076 269.724C727.85 268.381 730.387 268.676 731.779 270.368C732.37 271.085 732.656 271.931 732.656 272.778ZM711.962 248.443C711.962 249.546 711.485 250.668 710.532 251.441C708.815 252.839 706.259 252.655 704.81 250.999C703.341 249.344 703.551 246.879 705.267 245.481C706.965 244.065 709.54 244.267 710.989 245.923C711.638 246.659 711.962 247.56 711.962 248.461V248.443ZM690.295 224.917C690.295 225.965 689.856 227.032 688.998 227.805C687.358 229.276 684.783 229.184 683.238 227.584C681.712 226.002 681.827 223.519 683.467 222.048C685.126 220.576 687.701 220.686 689.208 222.268C689.933 223.022 690.295 223.979 690.295 224.917ZM667.636 202.274C667.636 203.286 667.255 204.279 666.454 205.052C664.871 206.597 662.296 206.597 660.694 205.07C659.111 203.544 659.092 201.06 660.694 199.515C662.277 197.989 664.852 197.97 666.435 199.515C667.236 200.269 667.636 201.281 667.636 202.293V202.274ZM643.986 180.588C643.986 181.526 643.623 182.483 642.937 183.237C641.43 184.837 638.855 184.966 637.196 183.494C635.536 182.041 635.403 179.558 636.929 177.958C638.435 176.358 641.01 176.229 642.67 177.7C643.547 178.473 644.005 179.521 644.005 180.588H643.986ZM619.362 159.95C619.362 160.833 619.057 161.716 618.428 162.47C616.997 164.144 614.422 164.365 612.706 162.985C610.97 161.606 610.741 159.123 612.172 157.449C613.602 155.775 616.158 155.554 617.894 156.934C618.867 157.725 619.362 158.828 619.362 159.95ZM593.766 140.435C593.766 141.262 593.499 142.09 592.946 142.807C591.592 144.536 589.036 144.886 587.243 143.58C585.451 142.274 585.088 139.809 586.442 138.08C587.797 136.351 590.352 136.002 592.145 137.308C593.213 138.062 593.766 139.239 593.766 140.435ZM567.255 122.096C567.255 122.869 567.026 123.641 566.549 124.322C565.29 126.106 562.754 126.584 560.904 125.352C559.053 124.138 558.558 121.691 559.835 119.889C561.094 118.105 563.631 117.645 565.5 118.859C566.645 119.613 567.274 120.845 567.274 122.096H567.255ZM539.847 105.008C539.847 105.707 539.656 106.425 539.237 107.068C538.073 108.908 535.555 109.496 533.648 108.356C531.722 107.234 531.13 104.806 532.294 102.967C533.457 101.127 535.975 100.539 537.882 101.679C539.122 102.415 539.809 103.702 539.828 105.008H539.847ZM511.619 89.2448C511.619 89.8886 511.466 90.5324 511.123 91.121C510.036 93.0155 507.575 93.7145 505.592 92.6844C503.627 91.636 502.902 89.2633 503.99 87.3503C505.058 85.4557 507.537 84.7567 509.502 85.8052C510.856 86.5225 511.619 87.8469 511.619 89.2448ZM482.647 74.8058C482.647 75.376 482.513 75.9645 482.246 76.5164C481.254 78.4661 478.832 79.2938 476.81 78.3373C474.789 77.3809 473.95 75.0449 474.941 73.0952C475.933 71.1454 478.355 70.3361 480.377 71.2926C481.827 71.9732 482.666 73.3527 482.666 74.8058H482.647ZM452.969 61.7462C452.969 62.2613 452.874 62.7946 452.645 63.2913C451.768 65.2962 449.364 66.1975 447.304 65.3698C445.245 64.5236 444.272 62.2061 445.168 60.2195C446.046 58.233 448.43 57.2949 450.509 58.1594C452.035 58.8032 452.969 60.238 452.969 61.7462ZM422.681 50.0662C422.681 50.526 422.605 50.9858 422.433 51.4457C421.651 53.469 419.305 54.499 417.207 53.7449C415.109 52.9908 414.041 50.7283 414.823 48.705C415.605 46.6817 417.951 45.6517 420.049 46.4058C421.67 46.9944 422.681 48.4843 422.7 50.0662H422.681ZM391.878 39.7657C391.878 40.1704 391.821 40.575 391.668 40.9612C390.982 43.0213 388.693 44.1618 386.557 43.4996C384.421 42.8374 383.238 40.6302 383.925 38.5701C384.611 36.4916 386.881 35.3695 389.036 36.0317C390.753 36.5651 391.859 38.0919 391.859 39.7657H391.878ZM360.598 30.8447C360.598 31.1942 360.56 31.5436 360.465 31.8747C359.874 33.9716 357.642 35.204 355.468 34.6338C353.293 34.0636 352.015 31.9115 352.607 29.8146C353.179 27.7177 355.43 26.4854 357.585 27.0556C359.397 27.5338 360.579 29.1157 360.579 30.8447H360.598ZM328.937 23.2665C328.937 23.5424 328.899 23.8367 328.823 24.131C328.346 26.2463 326.152 27.5706 323.978 27.1108C321.785 26.6326 320.411 24.5357 320.888 22.4204C321.384 20.3051 323.558 18.9807 325.752 19.4589C327.64 19.8636 328.918 21.4823 328.937 23.2665ZM296.971 17.0127C296.971 17.2518 296.952 17.4908 296.913 17.7299C296.513 19.8636 294.396 21.28 292.183 20.8937C289.971 20.5074 288.502 18.4658 288.903 16.3321C289.303 14.1984 291.42 12.782 293.633 13.1683C295.597 13.5178 296.971 15.1549 296.99 17.0127H296.971ZM264.756 12.0463C264.756 12.2303 264.756 12.4142 264.718 12.5981C264.413 14.7502 262.353 16.2401 260.121 15.9458C257.89 15.6515 256.345 13.665 256.669 11.5129C256.974 9.36088 259.034 7.87097 261.266 8.16527C263.288 8.44118 264.756 10.115 264.775 12.0463H264.756ZM232.37 8.31234C232.37 8.4411 232.37 8.56991 232.351 8.71706C232.122 10.8691 230.139 12.4325 227.888 12.2118C225.656 11.9911 224.035 10.0782 224.245 7.92614C224.474 5.77408 226.458 4.19215 228.689 4.41288C230.787 4.61521 232.351 6.32582 232.351 8.31234H232.37ZM199.87 5.73728C199.87 5.73728 199.87 5.92125 199.87 5.99482C199.717 8.16528 197.791 9.80233 195.54 9.67357C193.309 9.52642 191.592 7.66862 191.745 5.49816C191.878 3.32769 193.824 1.69065 196.055 1.81941C198.21 1.94816 199.87 3.67717 199.87 5.71887V5.73728ZM167.293 4.30252C167.293 4.30252 167.293 4.3945 167.293 4.43129C167.217 6.60175 165.347 8.29399 163.097 8.2388C160.846 8.18362 159.091 6.38103 159.149 4.21057C159.206 2.04011 161.075 0.329479 163.326 0.403054C165.519 0.458235 167.274 2.18724 167.293 4.30252ZM134.678 3.93462C134.678 6.10508 132.866 7.87091 130.635 7.87091C128.384 7.87091 126.553 6.1419 126.553 3.97144C126.553 1.80098 128.365 0.0351562 130.596 0.0351562C132.847 0.0351562 134.678 1.78255 134.678 3.93462ZM102.044 4.59688C102.044 6.69377 100.308 8.45957 98.134 8.51476C95.8834 8.60672 93.9952 6.89602 93.9189 4.74395C93.8426 2.57349 95.5973 0.770973 97.8289 0.679005C100.079 0.60543 101.968 2.29763 102.044 4.4497C102.044 4.48649 102.044 4.54168 102.044 4.57847V4.59688ZM69.4481 6.19713C69.4481 8.23883 67.8079 9.98625 65.6526 10.115C63.4211 10.2622 61.4756 8.62513 61.323 6.45467C61.1704 4.2842 62.8679 2.4264 65.1186 2.27925C67.3501 2.1321 69.2955 3.76913 69.4481 5.93959C69.4481 6.03156 69.4481 6.10516 69.4481 6.19713ZM36.9095 8.71706C36.9095 10.722 35.3264 12.451 33.2284 12.6349C30.9969 12.8373 29.0133 11.2554 28.8035 9.10337C28.5937 6.9513 30.2339 5.03834 32.4655 4.83601C34.697 4.63368 36.6806 6.21551 36.8904 8.36757C36.8904 8.47794 36.8904 8.6067 36.8904 8.71706H36.9095ZM4.46624 12.0831C4.46624 14.0513 2.95947 15.7435 0.880508 15.9826C-1.35104 16.2401 -3.37278 14.7134 -3.65887 12.5613C-3.9259 10.4092 -2.34284 8.45949 -0.111298 8.20198C2.12025 7.94447 4.14201 9.47124 4.40903 11.6233C4.4281 11.7888 4.44717 11.936 4.44717 12.0831H4.46624ZM-27.8817 16.2769C-27.8817 18.1898 -29.3312 19.882 -31.353 20.1579H-31.372C-33.6036 20.4706 -35.6635 18.9807 -35.9877 16.8471C-36.312 14.695 -34.767 12.7085 -32.5546 12.3958C-30.323 12.0831 -28.2631 13.573 -27.9389 15.7067C-27.9198 15.8906 -27.9007 16.0745 -27.9007 16.2769H-27.8817ZM-60.0961 21.2248C-60.0961 23.1009 -61.5075 24.7747 -63.4911 25.1058C-65.7035 25.4737 -67.8206 24.039 -68.183 21.9053C-68.5645 19.7533 -67.0768 17.73 -64.8643 17.3621C-62.6518 16.9943 -60.5347 18.429 -60.1723 20.5626C-60.1342 20.7834 -60.1151 21.0041 -60.1151 21.2248H-60.0961ZM-92.2151 26.9085C-92.2151 28.7479 -93.5502 30.4032 -95.4956 30.7527C-97.689 31.1574 -99.8443 29.7779 -100.264 27.6626C-100.684 25.5473 -99.253 23.4688 -97.0406 23.0642C-94.8472 22.6595 -92.6919 24.039 -92.2723 26.1543C-92.2341 26.4118 -92.2151 26.651 -92.196 26.9085H-92.2151Z" fill="url(#paint0_linear_18_489)" fill-opacity="0.5"/>
<defs>
<linearGradient id="paint0_linear_18_489" x1="-62.3532" y1="911.829" x2="485.954" y2="-136.512" gradientUnits="userSpaceOnUse">
<stop stop-color="#4591CA"/>
<stop offset="0.01" stop-color="#37A2D4"/>
<stop offset="0.02" stop-color="#00EBFF"/>
<stop offset="0.23" stop-color="#02E7FC"/>
<stop offset="0.42" stop-color="#0ADCF6"/>
<stop offset="0.6" stop-color="#18CAEC"/>
<stop offset="0.77" stop-color="#2CB0DD"/>
<stop offset="0.94" stop-color="#4590CA"/>
<stop offset="1" stop-color="#5082C2"/>
</linearGradient>
</defs>
</svg>
