<svg width="929" height="314" viewBox="0 0 929 314" fill="none" xmlns="http://www.w3.org/2000/svg">
<path d="M928.766 379.266C928.766 379.524 928.727 379.781 928.651 380.057C928.193 381.529 926.591 382.356 925.065 381.933C923.54 381.492 922.681 379.947 923.12 378.475C923.578 377.004 925.18 376.176 926.706 376.599C927.945 376.967 928.766 378.052 928.766 379.266ZM897.829 368.653C897.829 369.003 897.753 369.37 897.619 369.702C897.009 371.118 895.33 371.798 893.843 371.21C892.374 370.621 891.688 369.003 892.279 367.568C892.889 366.152 894.568 365.489 896.036 366.06C897.142 366.501 897.81 367.531 897.829 368.635V368.653ZM868.056 355.281C868.056 355.704 867.961 356.145 867.732 356.55C866.988 357.911 865.271 358.445 863.86 357.746C862.449 357.028 861.895 355.373 862.62 353.993C863.345 352.632 865.081 352.099 866.492 352.798C867.484 353.294 868.037 354.251 868.056 355.263V355.281ZM839.427 339.738C839.427 340.235 839.294 340.731 839.027 341.191C838.188 342.497 836.433 342.92 835.06 342.129C833.705 341.338 833.267 339.628 834.087 338.303C834.907 336.997 836.681 336.574 838.035 337.365C838.931 337.88 839.408 338.8 839.427 339.738ZM811.829 322.54C811.829 323.073 811.676 323.625 811.314 324.103C810.417 325.373 808.624 325.685 807.308 324.821C805.992 323.956 805.649 322.227 806.545 320.958C807.442 319.689 809.235 319.358 810.551 320.222C811.371 320.756 811.81 321.639 811.81 322.522L811.829 322.54ZM785.069 304.091C785.069 304.661 784.878 305.25 784.497 305.765C783.543 306.997 781.75 307.255 780.453 306.335C779.176 305.415 778.909 303.686 779.862 302.436C780.816 301.203 782.628 300.946 783.906 301.865C784.669 302.399 785.069 303.245 785.069 304.091ZM758.996 284.741C758.996 285.348 758.786 285.973 758.386 286.47C757.394 287.684 755.582 287.886 754.323 286.93C753.065 285.973 752.855 284.226 753.866 283.03C754.857 281.816 756.669 281.614 757.909 282.57C758.634 283.122 758.996 283.932 758.996 284.741ZM733.419 264.784C733.419 265.409 733.19 266.034 732.752 266.568C731.741 267.745 729.929 267.911 728.708 266.936C727.469 265.961 727.297 264.213 728.308 263.018C729.319 261.841 731.131 261.657 732.37 262.65C733.057 263.202 733.419 263.993 733.419 264.784ZM708.167 244.44C708.167 245.084 707.938 245.709 707.48 246.243C706.45 247.42 704.638 247.549 703.417 246.574C702.197 245.581 702.044 243.833 703.074 242.656C704.104 241.479 705.916 241.35 707.137 242.325C707.804 242.877 708.167 243.649 708.167 244.44ZM683.086 223.894C683.086 224.538 682.857 225.182 682.399 225.697C681.369 226.856 679.557 227.003 678.336 226.01C677.135 225.016 676.982 223.269 678.012 222.092C679.042 220.915 680.854 220.786 682.075 221.761C682.742 222.312 683.086 223.085 683.086 223.876V223.894ZM658.023 203.33C658.023 203.974 657.814 204.618 657.337 205.133C656.307 206.292 654.495 206.439 653.274 205.464C652.054 204.471 651.901 202.723 652.931 201.546C653.961 200.369 655.773 200.24 656.994 201.215C657.661 201.767 658.004 202.539 658.004 203.33H658.023ZM632.847 182.913C632.847 183.557 632.618 184.182 632.18 184.697C631.169 185.874 629.338 186.04 628.117 185.047C626.896 184.072 626.725 182.306 627.736 181.129C628.746 179.952 630.577 179.786 631.798 180.779C632.466 181.331 632.828 182.104 632.828 182.895L632.847 182.913ZM607.423 162.79C607.423 163.397 607.213 164.023 606.793 164.538C605.801 165.733 603.971 165.917 602.731 164.961C601.491 163.986 601.3 162.239 602.311 161.043C603.303 159.847 605.115 159.663 606.355 160.62C607.06 161.172 607.423 161.963 607.423 162.79ZM581.598 143.054C581.598 143.642 581.388 144.249 580.987 144.764C580.015 145.978 578.203 146.199 576.944 145.261C575.685 144.305 575.456 142.557 576.429 141.362C577.402 140.148 579.214 139.927 580.472 140.865C581.197 141.417 581.598 142.226 581.598 143.054ZM555.296 123.924C555.296 124.495 555.124 125.083 554.743 125.58C553.808 126.812 551.996 127.088 550.699 126.168C549.422 125.267 549.135 123.52 550.089 122.287C551.024 121.055 552.836 120.779 554.114 121.68C554.876 122.214 555.296 123.078 555.296 123.924ZM528.441 105.586C528.441 106.138 528.289 106.671 527.926 107.149C527.03 108.418 525.237 108.749 523.921 107.885C522.605 107.02 522.262 105.291 523.158 104.022C524.054 102.753 525.847 102.422 527.163 103.287C527.983 103.82 528.422 104.703 528.422 105.567L528.441 105.586ZM500.938 88.1853C500.938 88.682 500.804 89.197 500.499 89.6568C499.66 90.9628 497.886 91.349 496.532 90.5397C495.178 89.7303 494.777 88.0198 495.616 86.7139C496.456 85.4079 498.229 85.0216 499.584 85.8309C500.461 86.3459 500.938 87.2656 500.938 88.1853ZM472.71 71.9068C472.71 72.3666 472.595 72.8449 472.328 73.2863C471.546 74.6107 469.792 75.0889 468.399 74.3348C467.026 73.5807 466.53 71.8884 467.312 70.5457C468.094 69.2029 469.849 68.7431 471.241 69.4972C472.176 70.0123 472.691 70.9319 472.71 71.9068ZM443.719 56.9344C443.719 57.3574 443.623 57.7805 443.414 58.1851C442.708 59.5647 440.972 60.1165 439.542 59.4359C438.111 58.7553 437.558 57.0815 438.264 55.7019C438.97 54.3224 440.705 53.789 442.136 54.4696C443.127 54.9478 443.719 55.9226 443.719 56.9527V56.9344ZM413.908 43.4886C413.908 43.8564 413.831 44.2243 413.679 44.5921C413.049 45.9901 411.352 46.6339 409.883 46.0269C408.434 45.4199 407.766 43.7644 408.395 42.3665C409.025 40.9685 410.741 40.3064 412.191 40.9318C413.278 41.3916 413.927 42.4033 413.927 43.4886H413.908ZM383.391 31.7533C383.391 32.066 383.333 32.397 383.219 32.7097C382.666 34.1628 381.026 34.8987 379.519 34.3836C378.012 33.8502 377.249 32.2684 377.802 30.8152C378.336 29.3621 379.996 28.6263 381.483 29.1598C382.647 29.5644 383.391 30.6313 383.391 31.7533ZM352.187 21.9126C352.187 22.1701 352.149 22.4276 352.073 22.7035C351.615 24.175 350.032 25.0212 348.506 24.5982C346.98 24.1567 346.103 22.63 346.542 21.1401C346.98 19.6686 348.582 18.8225 350.108 19.2455C351.348 19.595 352.187 20.6986 352.187 21.9126ZM320.354 14.0953C320.354 14.2976 320.335 14.5 320.297 14.7023C319.954 16.1922 318.409 17.1487 316.864 16.8176C315.319 16.4865 314.327 14.9966 314.67 13.5067C315.014 12.0168 316.559 11.0604 318.104 11.3915C319.458 11.6858 320.354 12.8261 320.373 14.0953H320.354ZM288.064 8.41168C288.064 8.54044 288.064 8.68753 288.044 8.81629C287.816 10.3246 286.347 11.3915 284.764 11.1707C283.2 10.95 282.094 9.53364 282.323 8.00696C282.551 6.49867 284.02 5.43191 285.603 5.67103C287.034 5.87336 288.064 7.05054 288.064 8.41168ZM255.449 4.91682C255.449 4.91682 255.449 5.06396 255.449 5.13754C255.334 6.66422 253.942 7.80466 252.359 7.6943C250.757 7.56554 249.574 6.2412 249.708 4.71452C249.822 3.18784 251.214 2.0474 252.797 2.15776C254.304 2.26812 255.449 3.48211 255.468 4.91682H255.449ZM222.662 3.61083V3.64765C222.662 5.19273 221.346 6.40671 219.763 6.40671C218.161 6.40671 216.883 5.13751 216.902 3.61083C216.902 2.06575 218.218 0.833372 219.82 0.851766C221.384 0.851766 222.681 2.10254 222.681 3.61083H222.662ZM189.799 4.43857C189.799 5.91007 188.617 7.12407 187.091 7.21604C185.489 7.30801 184.134 6.13084 184.039 4.60416C183.944 3.05909 185.145 1.75306 186.747 1.66109C188.331 1.56913 189.704 2.72801 189.799 4.27309C189.799 4.32827 189.799 4.38339 189.799 4.43857ZM157.07 7.30799C157.07 8.68752 156.002 9.90151 154.533 10.067C152.95 10.251 151.52 9.16574 151.329 7.63906C151.138 6.13077 152.263 4.73286 153.846 4.54893C155.41 4.36499 156.86 5.45023 157.051 6.97691C157.051 7.08728 157.07 7.19762 157.07 7.30799ZM124.569 12.0904C124.569 13.4148 123.597 14.592 122.204 14.8311C120.64 15.107 119.133 14.1137 118.847 12.6054C118.561 11.0971 119.591 9.64398 121.174 9.36808C122.738 9.09217 124.226 10.0855 124.512 11.6122C124.55 11.7777 124.55 11.9433 124.55 12.1088L124.569 12.0904ZM92.4121 18.657C92.4121 19.9078 91.5348 21.0481 90.1996 21.3608C88.6547 21.7287 87.0907 20.809 86.7283 19.3007C86.3469 17.8109 87.3005 16.3026 88.8645 15.9531C90.4094 15.5852 91.9734 16.5049 92.3358 18.0132C92.393 18.2339 92.4121 18.4363 92.4121 18.657ZM60.6555 26.8238C60.6555 28.0194 59.8353 29.1414 58.5765 29.4908C57.0507 29.9139 55.4485 29.0863 55.0099 27.6148C54.5712 26.1433 55.4295 24.5982 56.9744 24.1567C58.5002 23.7153 60.1024 24.5613 60.541 26.0512C60.6173 26.3087 60.6555 26.5663 60.6555 26.8238ZM29.3375 36.4805C29.3375 37.6394 28.5937 38.7062 27.3921 39.1108C25.8853 39.6075 24.2259 38.8533 23.73 37.4002C23.2151 35.9471 23.9971 34.3652 25.5038 33.8686C27.0106 33.3719 28.6509 34.1445 29.1659 35.5976C29.2612 35.8919 29.3185 36.1862 29.3185 36.4988L29.3375 36.4805ZM-1.5036 47.4616C-1.5036 48.5652 -2.19024 49.632 -3.33462 50.055C-4.82232 50.6068 -6.50074 49.9079 -7.07293 48.4916C-7.6642 47.0569 -6.92035 45.4382 -5.45173 44.8864C-3.96403 44.3346 -2.2856 45.0336 -1.71341 46.4499C-1.5799 46.781 -1.52267 47.1121 -1.52267 47.4616H-1.5036ZM-31.9251 59.6382C-31.9251 60.7234 -32.5545 61.7351 -33.6417 62.195C-35.1103 62.802 -36.8078 62.1765 -37.4372 60.7786C-38.0857 59.3623 -37.4182 57.7253 -35.9686 57.1183C-34.5 56.4929 -32.8025 57.1367 -32.1731 58.5346C-32.0014 58.9025 -31.9251 59.2703 -31.9251 59.6382Z" fill="url(#paint0_linear_18_510)" fill-opacity="0.1"/>
<defs>
<linearGradient id="paint0_linear_18_510" x1="-68.4832" y1="1133.64" x2="479.824" y2="85.2819" gradientUnits="userSpaceOnUse">
<stop stop-color="#4591CA"/>
<stop offset="0.01" stop-color="#37A2D4"/>
<stop offset="0.02" stop-color="#00EBFF"/>
<stop offset="0.23" stop-color="#02E7FC"/>
<stop offset="0.42" stop-color="#0ADCF6"/>
<stop offset="0.6" stop-color="#18CAEC"/>
<stop offset="0.77" stop-color="#2CB0DD"/>
<stop offset="0.94" stop-color="#4590CA"/>
<stop offset="1" stop-color="#5082C2"/>
</linearGradient>
</defs>
</svg>
