<svg width="806" height="121" viewBox="0 0 806 121" fill="none" xmlns="http://www.w3.org/2000/svg">
<path d="M805.134 348.94C805.134 350.044 804.638 351.147 803.685 351.883C802.006 353.189 799.546 352.932 798.211 351.313C796.876 349.694 797.143 347.321 798.821 346.034C800.5 344.728 802.96 344.985 804.295 346.604C804.867 347.285 805.153 348.112 805.153 348.94H805.134ZM784.516 324.476C784.516 325.562 784.04 326.647 783.086 327.383C781.427 328.707 778.966 328.468 777.593 326.868C776.239 325.267 776.468 322.895 778.127 321.57C779.786 320.246 782.247 320.485 783.601 322.085C784.192 322.784 784.497 323.63 784.497 324.476H784.516ZM763.536 300.307C763.536 301.374 763.078 302.441 762.182 303.177C760.542 304.538 758.081 304.335 756.689 302.753C755.297 301.172 755.487 298.799 757.128 297.456C758.768 296.113 761.228 296.297 762.621 297.879C763.231 298.578 763.555 299.443 763.555 300.307H763.536ZM742.098 276.524C742.098 277.554 741.659 278.602 740.801 279.338C739.18 280.718 736.719 280.589 735.289 279.026C733.858 277.462 733.992 275.089 735.613 273.728C737.215 272.349 739.695 272.477 741.106 274.041C741.755 274.758 742.079 275.641 742.098 276.524ZM720.107 253.201C720.107 254.212 719.687 255.224 718.867 255.96C717.303 257.376 714.824 257.284 713.355 255.776C711.886 254.268 711.982 251.876 713.546 250.46C715.11 249.044 717.589 249.117 719.058 250.644C719.763 251.361 720.107 252.281 720.107 253.201ZM697.486 230.466C697.486 231.441 697.105 232.416 696.323 233.152C694.797 234.605 692.317 234.586 690.811 233.115C689.304 231.643 689.323 229.252 690.849 227.799C692.375 226.346 694.854 226.364 696.361 227.836C697.105 228.571 697.486 229.51 697.486 230.466ZM674.179 208.375C674.179 209.313 673.816 210.251 673.092 210.987C671.604 212.477 669.144 212.551 667.58 211.116C666.035 209.681 665.958 207.308 667.446 205.8C668.934 204.292 671.394 204.237 672.958 205.671C673.759 206.407 674.16 207.4 674.16 208.394L674.179 208.375ZM650.147 187.038C650.147 187.921 649.823 188.823 649.174 189.54C647.744 191.085 645.283 191.232 643.662 189.853C642.06 188.473 641.926 186.1 643.338 184.555C644.768 183.01 647.248 182.863 648.85 184.243C649.727 184.978 650.147 186.008 650.166 187.038H650.147ZM625.352 166.511C625.352 167.357 625.066 168.222 624.474 168.921C623.101 170.521 620.641 170.742 618.981 169.417C617.322 168.093 617.093 165.72 618.466 164.12C619.821 162.52 622.3 162.299 623.959 163.623C624.875 164.359 625.371 165.426 625.371 166.511H625.352ZM599.775 146.922C599.775 147.713 599.527 148.522 598.974 149.202C597.658 150.858 595.216 151.171 593.5 149.92C591.783 148.651 591.459 146.296 592.756 144.641C594.072 142.985 596.513 142.673 598.23 143.923C599.241 144.659 599.756 145.781 599.775 146.903V146.922ZM573.397 128.326C573.397 129.061 573.168 129.815 572.691 130.478C571.451 132.17 569.029 132.593 567.255 131.397C565.501 130.202 565.062 127.866 566.302 126.174C567.541 124.463 569.964 124.058 571.737 125.235C572.825 125.971 573.397 127.13 573.397 128.326ZM546.237 110.833C546.237 111.532 546.046 112.231 545.626 112.856C544.463 114.604 542.06 115.119 540.229 114.015C538.417 112.893 537.883 110.576 539.027 108.828C540.191 107.062 542.594 106.566 544.425 107.669C545.588 108.387 546.218 109.582 546.218 110.833H546.237ZM518.314 94.4995C518.314 95.1433 518.161 95.7871 517.799 96.3757C516.712 98.1783 514.347 98.8037 512.477 97.7552C510.608 96.7252 509.96 94.4259 511.047 92.6233C512.115 90.8391 514.499 90.2137 516.368 91.2438C517.608 91.9428 518.314 93.212 518.314 94.4995ZM489.647 79.4166C489.647 79.9868 489.513 80.5938 489.208 81.1456C488.216 82.985 485.871 83.7208 483.963 82.7643C482.056 81.8078 481.293 79.5454 482.285 77.706C483.277 75.8667 485.623 75.1309 487.549 76.0874C488.884 76.7495 489.666 78.0739 489.666 79.435L489.647 79.4166ZM460.275 65.6397C460.275 66.1548 460.16 66.6881 459.912 67.2032C459.016 69.0793 456.689 69.9255 454.743 69.061C452.798 68.1964 451.921 65.9709 452.817 64.0763C453.713 62.1818 456.021 61.354 457.986 62.2185C459.416 62.8623 460.275 64.205 460.275 65.6397ZM430.253 53.224C430.253 53.7022 430.177 54.1805 429.967 54.6403C429.166 56.5717 426.897 57.5097 424.894 56.7188C422.891 55.9463 421.919 53.7574 422.72 51.8444C423.521 49.9131 425.79 48.975 427.793 49.7475C429.319 50.3361 430.234 51.7341 430.234 53.224H430.253ZM399.66 42.2061C399.66 42.6108 399.603 43.0338 399.451 43.4385C398.745 45.3882 396.532 46.4367 394.492 45.7561C392.47 45.0755 391.383 42.9235 392.088 40.9738C392.794 39.024 395.026 37.9756 397.047 38.6562C398.649 39.1896 399.66 40.6427 399.679 42.2061H399.66ZM368.571 32.5862C368.571 32.9357 368.514 33.3035 368.419 33.653C367.808 35.6579 365.653 36.78 363.574 36.2098C361.495 35.6212 360.332 33.5243 360.923 31.5378C361.533 29.5329 363.708 28.4108 365.768 28.9994C367.465 29.4777 368.552 30.9676 368.571 32.5862ZM337.043 24.401C337.043 24.7137 337.005 25.008 336.929 25.3023C336.414 27.3256 334.316 28.558 332.218 28.0613C330.139 27.5831 328.842 25.5413 329.357 23.518C329.872 21.4947 331.97 20.2623 334.068 20.759C335.842 21.182 337.043 22.7272 337.043 24.401ZM305.153 17.6321C305.153 17.8896 305.134 18.1287 305.077 18.3678C304.677 20.3911 302.617 21.7339 300.5 21.3293C298.382 20.9246 297.009 18.9564 297.41 16.9147C297.829 14.873 299.87 13.5487 301.987 13.9534C303.837 14.3029 305.134 15.8663 305.134 17.6321H305.153ZM272.977 12.2611C272.977 12.445 272.977 12.6289 272.939 12.8313C272.615 14.8914 270.631 16.3077 268.514 15.9951C266.378 15.6824 264.909 13.7694 265.233 11.7277C265.558 9.66759 267.541 8.25133 269.658 8.56402C271.585 8.83993 272.977 10.4401 272.977 12.2795V12.2611ZM240.61 8.23283C240.61 8.36159 240.61 8.5088 240.572 8.63756C240.343 10.716 238.417 12.206 236.281 11.9852C234.144 11.7645 232.58 9.90674 232.828 7.84664C233.057 5.78654 234.984 4.29665 237.12 4.51738C239.122 4.71971 240.61 6.35669 240.61 8.25125V8.23283ZM208.071 5.52901C208.071 5.52901 208.071 5.71297 208.071 5.78655C207.938 7.86504 206.069 9.42844 203.933 9.28129C201.777 9.15254 200.156 7.34998 200.309 5.28988C200.442 3.21139 202.311 1.64788 204.448 1.79503C206.507 1.92378 208.091 3.57927 208.091 5.52901H208.071ZM175.457 4.09424C175.457 4.09424 175.457 4.16781 175.457 4.2046C175.399 6.28309 173.606 7.92023 171.47 7.86505C169.315 7.80987 167.618 6.08081 167.656 4.02071C167.713 1.94222 169.506 0.305192 171.661 0.360373C173.778 0.415554 175.457 2.07095 175.457 4.11266V4.09424ZM142.803 3.87353C142.803 5.91523 141.087 7.60755 138.951 7.64433C136.795 7.66273 135.022 6.00726 135.003 3.92876C134.984 1.85027 136.7 0.139639 138.855 0.121246C141.011 0.102852 142.784 1.75832 142.803 3.83682V3.87353ZM110.15 4.81163C110.15 6.81654 108.529 8.47196 106.431 8.58232C104.276 8.67429 102.445 7.07412 102.35 4.99563C102.254 2.91714 103.913 1.16971 106.069 1.05934C108.224 0.967376 110.036 2.54924 110.15 4.62773C110.15 4.68292 110.15 4.73805 110.15 4.81163ZM77.5355 6.8533C77.5355 8.80304 75.9906 10.4402 73.9497 10.6057C71.7945 10.7712 69.9253 9.22618 69.7537 7.16608C69.582 5.08759 71.1841 3.28496 73.3203 3.10102C75.4756 2.93548 77.3447 4.48054 77.5355 6.54064C77.5355 6.651 77.5355 6.74294 77.5355 6.8533ZM45.035 9.92514C45.035 11.8197 43.5664 13.4383 41.5637 13.659C39.4275 13.8981 37.5011 12.4083 37.2532 10.3482C37.0052 8.28806 38.5501 6.43028 40.6863 6.19116C42.8225 5.95204 44.7489 7.44191 44.9968 9.50201C45.0159 9.64916 45.035 9.77799 45.035 9.92514ZM12.6299 13.9718C12.6299 15.8112 11.2375 17.4298 9.29208 17.7057C7.15589 18 5.17229 16.5653 4.86713 14.5236C4.56196 12.4635 6.04966 10.5505 8.16676 10.2562C10.3029 9.96191 12.2865 11.3966 12.5917 13.4383C12.6108 13.6222 12.6299 13.7878 12.6299 13.9718ZM-19.6227 18.938C-19.6227 20.7406 -20.9578 22.3225 -22.8651 22.6536C-24.9822 23.0215 -27.004 21.642 -27.3663 19.6003C-27.7478 17.5586 -26.3173 15.6087 -24.2002 15.2593C-22.0831 14.8914 -20.0614 16.271 -19.699 18.3127C-19.6608 18.515 -19.6418 18.7357 -19.6418 18.9564L-19.6227 18.938ZM-51.7417 24.7872C-51.7417 26.553 -53.0196 28.1165 -54.8697 28.4844C-56.9677 28.889 -59.0276 27.5831 -59.4472 25.5414C-59.8859 23.5181 -58.5126 21.5131 -56.4146 21.1085C-54.2975 20.7038 -52.2376 22.0098 -51.818 24.0515C-51.7608 24.309 -51.7417 24.5481 -51.7417 24.7872ZM-83.67 31.4458C-83.67 33.1565 -84.8907 34.7199 -86.6835 35.1062C-88.7816 35.566 -90.8796 34.3152 -91.3564 32.2735C-91.8333 30.2502 -90.5363 28.2269 -88.4383 27.7671C-86.3402 27.3072 -84.2422 28.558 -83.7654 30.5997C-83.6891 30.8756 -83.67 31.1515 -83.67 31.4274V31.4458Z" fill="url(#paint0_linear_18_491)" fill-opacity="0.3"/>
<defs>
<linearGradient id="paint0_linear_18_491" x1="-65.8476" y1="942.015" x2="482.459" y2="-106.345" gradientUnits="userSpaceOnUse">
<stop stop-color="#4591CA"/>
<stop offset="0.01" stop-color="#37A2D4"/>
<stop offset="0.02" stop-color="#00EBFF"/>
<stop offset="0.23" stop-color="#02E7FC"/>
<stop offset="0.42" stop-color="#0ADCF6"/>
<stop offset="0.6" stop-color="#18CAEC"/>
<stop offset="0.77" stop-color="#2CB0DD"/>
<stop offset="0.94" stop-color="#4590CA"/>
<stop offset="1" stop-color="#5082C2"/>
</linearGradient>
</defs>
</svg>
