<svg width="89" height="94" viewBox="0 0 89 94" fill="none" xmlns="http://www.w3.org/2000/svg">
<path d="M52.4657 83.6946C52.6589 83.6946 52.8521 83.6894 53.0454 83.6946C53.4475 83.7068 53.8445 83.6407 54.2396 83.5885C54.7567 83.5189 55.2737 83.4249 55.7786 83.2875C56.5254 83.084 57.2531 82.8352 57.9565 82.5133C58.611 82.2141 59.2343 81.8644 59.8209 81.4504C60.6043 80.8989 61.2955 80.25 61.8473 79.4619C62.2373 78.9035 62.5333 78.3016 62.7091 77.6405C62.7944 77.3204 62.8605 76.9968 62.8675 76.6645C62.871 76.4992 62.8727 76.334 62.8762 76.1687C62.8867 75.4293 62.7387 74.7178 62.4845 74.0272C62.0632 72.8894 61.4226 71.8839 60.6165 70.9792C59.7652 70.0224 58.7747 69.2395 57.6744 68.5941C56.8997 68.1401 56.0833 67.773 55.2354 67.4738C54.4538 67.1989 53.653 67.0006 52.84 66.8457C52.6641 66.8127 52.4866 66.7883 52.309 66.7588C51.7589 66.6683 51.1095 67.0458 51.0364 67.7695C51.0068 68.0687 51.1147 68.3401 51.3184 68.5645C51.4803 68.7437 51.684 68.8533 51.9225 68.8986C52.1923 68.949 52.4639 68.9977 52.7355 69.0482C53.7992 69.243 54.8176 69.5805 55.7908 70.0468C57.0355 70.6435 58.1323 71.4455 59.0462 72.4841C59.6155 73.1312 60.0803 73.8427 60.3937 74.6482C60.533 75.0101 60.6374 75.3824 60.6844 75.7651C60.7993 76.6941 60.58 77.5413 60.0177 78.2963C59.6277 78.8217 59.1577 79.2619 58.625 79.6394C57.946 80.1195 57.2131 80.4988 56.4349 80.7928C55.8012 81.0311 55.1519 81.2155 54.4886 81.3443C54.1787 81.4034 53.8619 81.4382 53.5468 81.4747C53.0367 81.5339 52.5283 81.5443 52.0183 81.5217C51.3985 81.4921 50.7805 81.4504 50.1764 81.2886C49.7621 81.1773 49.3651 81.0224 48.9961 80.8015C48.3746 80.4309 47.915 79.909 47.5772 79.2775C47.2882 78.74 47.0968 78.1659 46.9732 77.5692C46.8687 77.0699 46.8025 76.5671 46.7764 76.0556C46.7538 75.6294 46.712 75.2049 46.7329 74.777C46.7573 74.309 46.7677 73.841 46.8165 73.3748C46.9035 72.5397 47.0254 71.7099 47.1786 70.8835C47.4728 69.297 47.8889 67.7434 48.3659 66.2038C48.7767 64.8747 49.2398 63.5629 49.7638 62.2738C50.2878 60.983 50.8936 59.7322 51.5674 58.5126C52.114 57.5228 52.7024 56.559 53.3396 55.6248C54.0847 54.5305 54.8785 53.4728 55.7385 52.4655C55.89 52.2881 56.0432 52.1089 56.1964 51.9314C56.233 51.8897 56.273 51.8514 56.313 51.8131C56.3513 51.7766 56.4245 51.7696 56.4645 51.8009C56.5933 51.9036 56.7274 52.0027 56.8492 52.1141C57.0216 52.2724 57.1852 52.4394 57.3558 52.6029C57.7301 52.9613 58.0087 53.3858 58.2106 53.859C58.5779 54.7201 58.9348 55.5865 59.3004 56.4476C59.6764 57.3349 60.0542 58.2221 60.4372 59.1076C60.8585 60.0818 61.2833 61.0526 61.7098 62.0233C61.971 62.6166 62.2356 63.2063 62.5054 63.7943C63.0625 65.0086 63.6248 66.2212 64.1854 67.4337C64.551 68.2218 64.92 69.0064 65.2839 69.7945C65.6303 70.5443 65.9698 71.2976 66.2605 72.0717C66.4154 72.4858 66.5495 72.9068 66.6278 73.34C66.7236 73.8688 66.7584 74.3994 66.694 74.9422C66.6313 75.4624 66.5547 75.9773 66.4294 76.4871C66.163 77.5639 65.7452 78.5799 65.2038 79.5454C64.5527 80.7041 63.7641 81.7618 62.8658 82.7395C62.6046 83.0231 62.34 83.3049 62.0702 83.5798C61.5775 84.0825 61.0518 84.5488 60.5208 85.0098C59.9167 85.5352 59.2952 86.0362 58.6563 86.5181C57.7423 87.207 56.804 87.8594 55.8378 88.4752C54.896 89.0754 53.935 89.646 52.9549 90.1801C52.0949 90.6481 51.2192 91.0848 50.3261 91.4866C49.5462 91.8381 48.7541 92.1564 47.9515 92.4487C46.9401 92.8157 45.906 93.1115 44.8545 93.3359C44.2626 93.4612 43.6637 93.5586 43.0614 93.6247C42.7045 93.6647 42.3476 93.6873 41.9907 93.703C41.7574 93.7134 41.5241 93.7378 41.2891 93.7447C41.082 93.7517 40.8765 93.7534 40.6711 93.7152C40.5771 93.6978 40.4779 93.703 40.3821 93.6995C38.9633 93.6438 37.5984 93.3394 36.2823 92.8123C35.095 92.3356 34.0174 91.6745 33.0303 90.8656C32.2609 90.2358 31.5697 89.5243 30.9413 88.7518C30.0604 87.668 29.31 86.499 28.6642 85.262C28.0897 84.1626 27.5918 83.0283 27.1583 81.8644C26.8937 81.1546 26.6569 80.4344 26.4271 79.7142C26.4062 79.6481 26.3801 79.5837 26.3662 79.5176C26.3018 79.2306 26.2879 79.1958 26.5821 79.0253C27.4891 78.4981 28.3752 77.9397 29.2404 77.3499C30.2327 76.6749 31.2007 75.9686 32.1407 75.2223C32.9607 74.5699 33.758 73.8915 34.5362 73.1886C35.5616 72.2649 36.5365 71.2906 37.4801 70.2851C38.2617 69.45 39.0068 68.5819 39.7223 67.6877C40.3073 66.9553 40.8765 66.2108 41.418 65.447C41.928 64.7268 42.4155 63.9926 42.8873 63.2481C43.4391 62.3747 43.9632 61.484 44.4541 60.5742C44.9764 59.6034 45.4673 58.617 45.9286 57.615C46.3656 56.6634 46.7677 55.6978 47.1455 54.7201C47.5807 53.5893 47.9689 52.4411 48.3189 51.2808C48.526 50.5953 48.7245 49.9082 48.8951 49.2123C48.9177 49.1183 48.9473 49.0261 48.9856 48.9374C48.9995 48.9061 49.05 48.873 49.0814 48.873C49.2468 48.8765 49.4139 48.873 49.5758 48.9026C50.4445 49.0557 51.3062 49.2349 52.1488 49.5011C52.8469 49.7203 53.5206 50.0021 54.1822 50.3118C54.2692 50.3518 54.3511 50.4057 54.4329 50.4562C54.4851 50.4875 54.5008 50.5536 54.466 50.5971C54.3441 50.7467 54.224 50.8963 54.1004 51.0442C53.4353 51.8357 52.7947 52.6464 52.1923 53.4867C51.6126 54.2922 51.0625 55.1168 50.542 55.9623C50.2896 56.3728 50.0423 56.7869 49.8056 57.2079C49.2119 58.2656 48.6636 59.3477 48.1744 60.4576C47.7148 61.5049 47.3039 62.5713 46.9244 63.6499C46.578 64.6381 46.2594 65.6349 45.9687 66.6387C45.6396 67.7765 45.3524 68.9229 45.1243 70.085C45.0181 70.6261 44.9276 71.1689 44.8336 71.7099C44.7814 72.0074 44.7727 72.3136 44.7187 72.611C44.6316 73.0877 44.663 73.5731 44.5864 74.0498C44.5707 74.1437 44.5742 74.2429 44.5742 74.3386C44.5725 74.8204 44.5672 75.3023 44.5742 75.7842C44.5759 75.9617 44.6021 76.1409 44.616 76.3183C44.6247 76.4279 44.6334 76.5375 44.6421 76.6471C44.7361 77.7814 44.9938 78.8757 45.4655 79.9142C45.8172 80.6884 46.3029 81.3704 46.9314 81.9462C47.5389 82.5046 48.2388 82.91 49.0135 83.1866C49.6646 83.418 50.3383 83.5467 51.0277 83.6215C51.5099 83.6737 51.9904 83.6737 52.4726 83.6824L52.4657 83.6946Z" fill="#FBD841"/>
<path d="M45.7011 48.6426C46.0092 48.6478 46.34 48.653 46.6708 48.66C46.7282 48.66 46.77 48.7191 46.7561 48.7748C46.7282 48.8948 46.7004 49.0166 46.669 49.1366C46.3069 50.5093 45.8769 51.8593 45.3964 53.1953C45.05 54.1539 44.6705 55.0985 44.2596 56.0328C43.9149 56.8139 43.5598 57.5915 43.1698 58.3518C42.524 59.6165 41.8311 60.8534 41.0755 62.0573C40.3357 63.2368 39.5453 64.3815 38.694 65.4845C38.2727 66.029 37.8375 66.5631 37.4005 67.0954C36.2254 68.5254 34.9389 69.8476 33.5949 71.1176C33.205 71.4864 32.7993 71.8395 32.392 72.1909C31.9654 72.5615 31.5354 72.9303 31.0967 73.2835C30.6145 73.6732 30.1236 74.0524 29.6257 74.4212C28.4297 75.3085 27.1919 76.1366 25.9141 76.902C25.8671 76.9299 25.8166 76.9542 25.7679 76.9786C25.74 76.9925 25.6704 76.9699 25.6582 76.9438C25.646 76.9194 25.6303 76.8951 25.6234 76.869C25.357 75.9695 25.0315 75.0927 24.685 74.2229C24.309 73.2765 23.919 72.3336 23.5482 71.3855C23.106 70.2564 22.7161 69.11 22.4375 67.9287C22.3017 67.3529 22.1816 66.7736 22.1102 66.1856C22.0423 65.6254 21.9779 65.0635 21.9849 64.4981C22.0058 62.6766 22.4915 60.9943 23.5012 59.4686C23.8598 58.9276 24.2515 58.4126 24.6937 57.9377C24.9287 57.6855 25.1551 57.4245 25.404 57.1862C25.8828 56.7304 26.3685 56.2798 26.889 55.8692C27.3538 55.5022 27.8256 55.142 28.2956 54.7819C28.4262 54.6828 28.569 54.5958 28.7065 54.5071C28.7622 54.4705 28.8492 54.4949 28.8875 54.5523C28.9554 54.6549 29.0233 54.7593 29.0877 54.8654C29.5073 55.5474 29.9791 56.1911 30.4961 56.8017C30.7903 57.1479 31.095 57.4871 31.3979 57.8264C31.5076 57.9499 31.626 58.0664 31.7443 58.1813C32.721 59.119 33.7638 59.9749 34.911 60.7003C35.1791 60.8691 35.4542 61.0291 35.7275 61.1874C36.0078 61.3492 36.3107 61.3527 36.6101 61.2727C36.873 61.2014 37.0663 61.0239 37.2038 60.7873C37.5015 60.2741 37.3222 59.7331 36.9757 59.4391C36.8504 59.3329 36.7042 59.2512 36.5666 59.1607C36.2654 58.9676 35.9573 58.7832 35.6596 58.5831C34.925 58.0908 34.2443 57.5341 33.5949 56.9322C33.1788 56.5477 32.7941 56.1354 32.4198 55.7127C31.7896 54.9994 31.236 54.2252 30.7451 53.4093C30.7172 53.3623 30.6963 53.3102 30.6807 53.258C30.6737 53.2353 30.6841 53.1988 30.7015 53.1832C30.752 53.1362 30.8043 53.091 30.8635 53.0562C31.3143 52.7882 31.7635 52.5186 32.2179 52.2594C32.9229 51.854 33.6506 51.4887 34.3801 51.1303C35.7101 50.4797 37.0959 49.9908 38.5304 49.6272C39.211 49.455 39.897 49.3002 40.5863 49.1662C40.992 49.0879 41.4011 49.0323 41.8102 48.9696C42.1375 48.9192 42.4648 48.874 42.7921 48.8305C42.8739 48.82 42.9574 48.8218 43.0393 48.8096C43.5859 48.7365 44.1378 48.7261 44.6879 48.6774C45.0169 48.6478 45.3494 48.653 45.7028 48.6426H45.7011Z" fill="#FBD841"/>
<path d="M34.9766 24.443C34.9957 23.8585 34.9696 23.2374 35.0253 22.6198C35.034 22.5241 35.034 22.4267 35.034 22.331C35.0323 21.5725 35.0984 20.8175 35.1541 20.0625C35.2029 19.391 35.2708 18.7194 35.3543 18.0479C35.4379 17.3781 35.5284 16.7101 35.6329 16.0438C35.7182 15.501 35.8035 14.9565 35.9602 14.4259C36.1917 13.6396 36.5277 12.9037 37.0047 12.2356C37.3686 11.7259 37.8003 11.2858 38.3226 10.9361C38.965 10.5064 39.6665 10.2506 40.4412 10.1863C41.4858 10.0976 42.4729 10.3028 43.4095 10.7499C44.4087 11.2266 45.1138 11.9956 45.5664 12.9994C45.845 13.6187 46.0191 14.2693 46.134 14.9356C46.2332 15.5202 46.2837 16.1082 46.322 16.7014C46.3655 17.3903 46.3585 18.0775 46.3707 18.7664C46.3777 19.2222 46.3324 19.6745 46.2802 20.1251C46.2436 20.44 46.1949 20.7531 46.1566 21.0663C46.0887 21.6404 46.0278 22.2162 45.9581 22.7903C45.8885 23.3644 45.8119 23.9367 45.7423 24.5108C45.6744 25.071 45.6169 25.6329 45.549 26.1931C45.4811 26.7533 45.408 27.3135 45.3366 27.8737C45.3035 28.1329 45.274 28.3938 45.2426 28.653C45.1608 29.3228 45.079 29.9926 44.9989 30.6624C44.9327 31.2086 44.8718 31.7566 44.8039 32.3029C44.7378 32.8352 44.6629 33.3676 44.5933 33.8999C44.5532 34.2148 44.5167 34.528 44.4784 34.8428C44.447 35.102 44.414 35.3613 44.3809 35.6222C44.2991 36.2363 44.2207 36.8504 44.1354 37.4645C44.0431 38.1326 43.9422 38.8006 43.8499 39.4687C43.7803 39.9592 43.7193 40.4516 43.6497 40.9422C43.5661 41.5284 43.493 42.1165 43.3242 42.6853C43.2145 43.0559 43.07 43.4125 42.8437 43.7326C42.5286 44.1815 42.109 44.4807 41.5746 44.5938C40.4082 44.8408 39.3584 44.5886 38.4462 43.8127C37.9866 43.423 37.6506 42.9376 37.3947 42.3948C37.2415 42.0695 37.1231 41.7302 37.0482 41.3806C36.8254 40.3159 36.5991 39.2529 36.3971 38.1848C36.2021 37.1427 36.0141 36.0989 35.8662 35.0499C35.7669 34.3557 35.6573 33.6616 35.5667 32.9657C35.4919 32.3916 35.4362 31.8175 35.3735 31.2417C35.3282 30.8311 35.283 30.4206 35.2447 30.01C35.2116 29.6673 35.175 29.3246 35.1611 28.9801C35.1315 28.2512 35.0549 27.524 35.0462 26.7933C35.0427 26.4767 35.0149 26.1601 35.0062 25.8434C34.994 25.3894 34.9905 24.9353 34.9818 24.4447L34.9766 24.443Z" fill="#F8A91E"/>
<path d="M61.0526 20.6413C61.0543 21.3859 60.9847 22.1253 60.8994 22.8646C60.8036 23.6858 60.6696 24.4999 60.5321 25.3141C60.4398 25.8569 60.3301 26.3962 60.2187 26.9355C60.0342 27.8245 59.8462 28.7117 59.6512 29.599C59.3535 30.9559 59.0245 32.3059 58.6954 33.6576C58.3124 35.2355 57.912 36.8082 57.482 38.3739C57.1982 39.409 56.8988 40.4407 56.5489 41.4549C56.2982 42.1838 56.0214 42.9041 55.6645 43.5895C55.4922 43.9218 55.2972 44.2367 55.0639 44.5272C54.7366 44.9343 54.3362 45.2422 53.8227 45.3744C53.4884 45.4597 53.1507 45.4962 52.799 45.4527C51.6726 45.3118 50.7744 44.769 50.0606 43.9096C49.6428 43.4068 49.4269 42.8136 49.3782 42.1682C49.3416 41.688 49.359 41.2079 49.4252 40.726C49.5366 39.9205 49.7159 39.1289 49.9039 38.3391C50.1668 37.2275 50.4384 36.1193 50.6612 34.9989C50.8057 34.27 50.945 33.5411 51.0442 32.8035C51.1121 32.285 51.1939 31.7683 51.2583 31.2499C51.3071 30.8533 51.3367 30.4549 51.3697 30.0582C51.415 29.5241 51.4585 28.9883 51.502 28.4542C51.5038 28.4264 51.5055 28.3986 51.5073 28.3725C51.5403 27.6853 51.5734 26.9981 51.6048 26.3092C51.6396 25.5524 51.6605 24.7957 51.7109 24.0407C51.7614 23.2856 51.8346 22.5324 51.9529 21.7843C52.2524 19.9072 52.9052 18.171 53.9967 16.6052C54.2666 16.219 54.5643 15.8607 54.9055 15.5353C55.0953 15.3544 55.2972 15.1891 55.5218 15.0517C56.1972 14.6411 56.911 14.5542 57.6648 14.8029C58.0217 14.9212 58.3455 15.1004 58.6502 15.3179C59.068 15.6154 59.4336 15.9703 59.7626 16.3617C59.9663 16.6035 60.1612 16.854 60.3197 17.1289C60.6609 17.7221 60.8559 18.3623 60.9621 19.0338C61.0474 19.5662 61.0526 20.1038 61.0508 20.6396L61.0526 20.6413Z" fill="#91C644"/>
<path d="M21.3477 24.2855C21.3598 23.9341 21.3564 23.6296 21.3825 23.3286C21.4539 22.4571 21.6419 21.6151 22.0562 20.8357C22.3939 20.2024 22.8588 19.6857 23.4785 19.3169C23.8841 19.0751 24.3246 18.9168 24.7842 18.8142C25.0958 18.7446 25.4092 18.7167 25.7295 18.7237C26.1369 18.7324 26.5216 18.8263 26.8854 19.0073C27.3102 19.2178 27.6775 19.5048 27.9857 19.8649C28.4784 20.4373 28.8126 21.0984 29.0842 21.7942C29.3401 22.4484 29.5368 23.1234 29.7213 23.8001C30.1026 25.2075 30.4891 26.6149 30.8547 28.0275C31.2168 29.4262 31.551 30.8319 31.8244 32.2515C31.9863 33.09 32.1238 33.9303 32.2352 34.7775C32.3379 35.5551 32.4441 36.3328 32.5625 37.1069C32.7418 38.276 32.9437 39.4416 33.184 40.602C33.318 41.2491 33.4416 41.898 33.5182 42.5539C33.5687 42.9923 33.5705 43.4342 33.5635 43.8743C33.5583 44.2049 33.5339 44.5337 33.466 44.859C33.4068 45.1443 33.3146 45.4174 33.1875 45.6784C33.0082 46.0454 32.7314 46.3307 32.3936 46.5586C32.0472 46.7918 31.6694 46.9553 31.2708 47.0736C30.9748 47.1623 30.6736 47.171 30.369 47.1745C29.5525 47.1867 28.8683 46.8753 28.2851 46.3168C27.9752 46.0193 27.7211 45.6766 27.4948 45.313C27.2249 44.8799 26.9951 44.4241 26.7932 43.9561C26.2082 42.6043 25.6511 41.2404 25.1237 39.8643C24.5701 38.4256 24.0513 36.973 23.5847 35.503C23.1773 34.2173 22.803 32.9213 22.4845 31.6095C22.2268 30.5535 22.0022 29.4889 21.8177 28.4172C21.7028 27.7527 21.5983 27.0864 21.5287 26.4148C21.4939 26.086 21.4347 25.7607 21.4086 25.4319C21.3755 25.0335 21.3668 24.6351 21.3494 24.2837L21.3477 24.2855Z" fill="#33BED4"/>
<path d="M22.0049 52.1293C21.984 52.4877 21.9701 52.8843 21.8186 53.2653C21.6341 53.7229 21.3259 54.0586 20.8785 54.2604C20.4746 54.4431 20.0464 54.5492 19.6059 54.6014C19.4823 54.6153 19.3587 54.6292 19.2351 54.6344C18.067 54.6797 17.0956 54.2935 16.4097 53.3158C15.9031 52.5938 15.4139 51.8614 14.9212 51.129C14.1361 49.9634 13.3509 48.7978 12.5745 47.627C11.0512 45.3324 9.5488 43.0238 8.08645 40.6874C7.40576 39.6018 6.73551 38.5111 6.06005 37.422C5.92948 37.2115 5.80762 36.9958 5.71535 36.7644C5.44377 36.0877 5.4107 35.404 5.62134 34.7029C5.76236 34.2332 5.99389 33.8139 6.29507 33.4347C6.71985 32.9023 7.22471 32.4569 7.82009 32.1194C8.24835 31.8776 8.70969 31.7454 9.19888 31.7332C9.57143 31.7245 9.93876 31.7854 10.2939 31.9124C10.6456 32.0394 10.9746 32.2099 11.2862 32.4169C11.7597 32.7318 12.1758 33.1111 12.5832 33.5042C13.5372 34.428 14.3693 35.4544 15.1423 36.5313C16.0998 37.8656 16.9493 39.2661 17.7362 40.7048C18.7929 42.6411 19.7226 44.6365 20.5269 46.691C20.9691 47.8201 21.3677 48.9631 21.6793 50.1356C21.8621 50.8263 21.9718 51.4787 22.0032 52.1276L22.0049 52.1293Z" fill="#F04E26"/>
<path d="M69.4539 67.3311C68.8603 67.3381 68.3328 67.2633 67.8175 67.0893C67.4728 66.9727 67.1646 66.7953 66.8896 66.5604C66.7416 66.4352 66.6232 66.2803 66.5205 66.1168C66.3133 65.788 66.1706 65.4314 66.0974 65.0469C66.0139 64.612 65.9808 64.1718 66.0208 63.7317C66.0591 63.3072 66.1096 62.8845 66.2002 62.4669C66.3377 61.8337 66.5222 61.2144 66.7486 60.609C66.8635 60.2993 66.9975 59.9966 67.1315 59.6956C67.5476 58.7632 68.0455 57.8742 68.6113 57.0252C68.9543 56.5103 69.3355 56.0197 69.7237 55.536C70.0441 55.1377 70.4166 54.788 70.7422 54.3948C70.777 54.3531 70.817 54.3148 70.8588 54.2765C71.388 53.7946 71.9173 53.3127 72.4952 52.8865C73.1742 52.3837 73.9071 51.9767 74.6766 51.6287C75.1414 51.4182 75.6306 51.2703 76.1233 51.1399C76.4819 51.0459 76.8457 50.9624 77.2113 50.8946C77.7405 50.7971 78.2785 50.7728 78.8164 50.778C79.2325 50.7832 79.6381 50.8354 80.0403 50.9485C80.5016 51.0772 80.9177 51.2947 81.2537 51.627C81.7307 52.1002 82.0893 52.6516 82.199 53.3336C82.2425 53.6067 82.2408 53.8816 82.1903 54.1547C82.1015 54.6227 81.91 55.0472 81.6541 55.4438C81.4678 55.7344 81.2606 56.0092 81.0204 56.258C80.7697 56.5155 80.5155 56.766 80.2614 57.0183C79.7234 57.5523 79.182 58.0829 78.651 58.624C78.2245 59.0554 77.8311 59.5164 77.4341 59.974C77.1086 60.348 76.7865 60.7238 76.4767 61.1117C76.1076 61.5745 75.7368 62.0355 75.3712 62.5017C74.8437 63.1733 74.3232 63.85 73.7957 64.5198C73.3692 65.0608 72.8904 65.5566 72.396 66.0385C72.0583 66.3673 71.684 66.6492 71.2696 66.8718C70.6899 67.185 70.0737 67.3642 69.4574 67.3294L69.4539 67.3311Z" fill="#9688C0"/>
<path d="M3.75315 29.9721C2.01574 29.9965 0.464606 28.5786 0.445456 26.705C0.429788 25.0488 1.69716 23.4291 3.74271 23.377C5.67336 23.4152 7.05911 24.9079 7.04867 26.6945C7.03822 28.6499 5.43138 29.9895 3.75315 29.9704V29.9721Z" fill="#F04E26"/>
<path d="M21.3532 10.9307C22.9862 10.8889 24.6052 12.178 24.6679 14.1961C24.6383 16.014 23.2682 17.4545 21.3915 17.5171C19.2885 17.4823 18.0612 15.807 18.0664 14.2152C18.0716 12.359 19.6071 10.9046 21.355 10.9324L21.3532 10.9307Z" fill="#33BED4"/>
<path d="M40.6879 7.56106C39.0218 7.57323 37.4359 6.26847 37.3906 4.27827C37.4289 2.43594 38.8286 1.02506 40.6792 0.974609C42.7944 1.02158 44.0008 2.7056 43.9921 4.29045C43.9799 6.15887 42.4148 7.59237 40.6896 7.5628L40.6879 7.56106Z" fill="#F8A91E"/>
<path d="M57.9311 6.05665C59.7851 6.05143 61.2162 7.58062 61.2144 9.34466C61.2144 11.02 59.914 12.5927 57.9276 12.6414C56.044 12.6031 54.6095 11.1644 54.6251 9.3203C54.6425 7.25878 56.3556 6.01316 57.9293 6.05839L57.9311 6.05665Z" fill="#91C644"/>
<path d="M81.8815 44.6959C81.8815 44.6402 81.8815 44.5863 81.8815 44.5306C81.8972 43.739 82.1897 43.0606 82.7189 42.4743C83.1472 42.0011 83.6677 41.6792 84.2805 41.5122C84.5991 41.4253 84.9264 41.3574 85.2589 41.3852C86.3313 41.474 87.2156 41.9054 87.8528 42.7996C88.1557 43.2258 88.3159 43.7025 88.4203 44.2053C88.53 45.2299 88.2933 46.1468 87.5743 46.9122C87.4037 47.0931 87.2261 47.2636 87.0189 47.4046C86.3539 47.8551 85.6158 48.0465 84.8202 47.9647C83.9636 47.8777 83.2342 47.502 82.6649 46.8565C82.2767 46.4147 82.0173 45.898 81.9164 45.3134C81.8815 45.1116 81.885 44.9029 81.8711 44.6959C81.8746 44.6959 81.8781 44.6959 81.8815 44.6959Z" fill="#9688C0"/>
</svg>
