<svg width="525" height="472" viewBox="0 0 525 472" fill="none" xmlns="http://www.w3.org/2000/svg">
<g opacity="0.3">
<rect x="510.023" y="284.016" width="94" height="85" transform="rotate(90 510.023 284.016)" fill="#F26622"/>
<rect x="424.992" y="377.992" width="94" height="85" transform="rotate(90 424.992 377.992)" fill="#F8F3EB"/>
<rect x="255.016" y="378" width="94" height="85" transform="rotate(90 255.016 378)" fill="#F26622"/>
<rect x="85" y="378.008" width="94" height="85" transform="rotate(90 85 378.008)" fill="#F8F3EB"/>
<rect x="425.023" y="189.992" width="94" height="85" transform="rotate(90 425.023 189.992)" fill="#F8F3EB"/>
<rect x="340.008" y="95.9922" width="94" height="85" transform="rotate(90 340.008 95.9922)" fill="#F8F3EB"/>
<rect x="595.016" y="190.008" width="94" height="85" transform="rotate(90 595.016 190.008)" fill="#F8F3EB"/>
<rect x="150.008" width="94" height="85" transform="rotate(90 150.008 0)" fill="#F8F3EB"/>
<rect x="170.008" y="284.016" width="94" height="85" transform="rotate(90 170.008 284.016)" fill="#F8F3EB"/>
</g>
</svg>
