<svg width="25" height="36" viewBox="0 0 25 36" fill="none" xmlns="http://www.w3.org/2000/svg">
<path d="M23.1494 1.15625C23.5726 1.20226 23.8561 1.51342 23.8574 1.93359C23.8587 2.35255 23.5591 2.70021 23.1191 2.7168C22.7068 2.73216 22.3134 2.7168 21.915 2.7168H21.627V3.09961C21.627 4.94819 21.596 6.79686 21.6367 8.64355C21.6739 10.2952 21.2245 11.7618 20.4053 13.1162C19.399 14.7762 18.1243 16.1476 16.7461 17.4072L16.1504 17.9404C15.9965 18.0767 15.8405 18.2101 15.6738 18.3555L16.958 19.4961C18.079 20.5328 19.1282 21.6516 20.0059 22.9502C20.735 24.0288 21.3293 25.1897 21.541 26.5371V26.5381C21.5973 26.9142 21.626 27.2947 21.626 27.6758V33.9111H22.9336C23.0782 33.9069 23.2226 33.9252 23.3623 33.9658L23.3652 33.9668C23.5102 34.0174 23.6352 34.118 23.7227 34.252C23.8101 34.386 23.8559 34.5472 23.8525 34.7109C23.8492 34.8746 23.797 35.0334 23.7041 35.1631C23.6112 35.2927 23.482 35.3871 23.335 35.4307L23.332 35.4316V35.4307C23.2179 35.4578 23.1019 35.4739 22.9854 35.4775L22.8682 35.4766H1.87891C1.65822 35.4583 1.47296 35.3731 1.34277 35.2354C1.21255 35.0975 1.14066 34.9105 1.14062 34.6943C1.14062 34.2578 1.45345 33.923 1.91504 33.9141C2.39556 33.9046 2.87857 33.9135 3.39453 33.9141V33.5137C3.39454 31.6417 3.42138 29.7688 3.38574 27.8984C3.36554 26.5615 3.68424 25.2463 4.30469 24.0977L4.43262 23.8701C5.37834 22.1924 6.63256 20.8135 7.99023 19.54L7.99121 19.5391C8.42265 19.1414 8.86717 18.7554 9.30762 18.3633C8.49711 17.5928 7.6792 16.856 6.91309 16.0713C5.81437 14.9474 4.83904 13.7041 4.13184 12.2324L3.95605 11.8467C3.57352 10.9359 3.37872 9.94199 3.38867 8.93652C3.40776 7.00598 3.38867 5.07606 3.38867 3.14453V2.7207H2.0625V2.71973C1.90657 2.72517 1.75098 2.70387 1.60156 2.65527L1.59863 2.6543C1.45781 2.59858 1.33734 2.49581 1.25488 2.36133C1.17245 2.22688 1.1315 2.06719 1.1377 1.90625C1.14393 1.74539 1.19748 1.59039 1.29004 1.46387C1.38267 1.3373 1.51053 1.24573 1.65527 1.20312L1.65723 1.20215C1.7631 1.17552 1.87105 1.16017 1.97949 1.15625H23.1494ZM4.80664 9.04395C4.80502 9.79649 4.96311 10.5389 5.2666 11.2139V11.2148C5.79216 12.4217 6.54998 13.444 7.39258 14.4062H7.3916C8.46142 15.5948 9.62324 16.68 10.8633 17.6504H10.8643C11.1262 17.8618 11.2646 18.1046 11.2646 18.3555C11.2646 18.5749 11.1589 18.7906 10.957 18.9863L10.8643 19.0684C10.569 19.3152 10.2716 19.5421 9.98145 19.791C8.40775 21.1384 6.93135 22.5876 5.81738 24.4199C5.1464 25.5211 4.74641 26.6986 4.79688 28.0576C4.84785 29.4297 4.8086 30.8325 4.80859 32.2168L4.80664 33.8906H20.1924V33.5225C20.1924 31.592 20.1809 29.6606 20.1924 27.7295C20.1965 26.917 20.0241 26.1149 19.6885 25.3906L19.6875 25.3896C19.1619 24.2258 18.4206 23.2298 17.6035 22.2969V22.2959C16.5425 21.1146 15.389 20.0372 14.1562 19.0762H14.1553C13.8758 18.8531 13.7287 18.6081 13.7295 18.3535C13.7304 18.0993 13.8787 17.8512 14.1543 17.6221C14.5179 17.322 14.8838 17.0287 15.2383 16.7188C16.7317 15.4147 18.1275 14.0095 19.1895 12.2549C19.8524 11.1611 20.231 9.99176 20.1943 8.64746C20.1447 6.78809 20.1826 4.92491 20.1826 3.06641V2.74609H4.80664V9.04395Z" fill="black" stroke="black" stroke-width="0.1"/>
<mask id="path-2-outside-1_926_1869" maskUnits="userSpaceOnUse" x="0" y="0" width="25" height="36" fill="black">
<rect fill="white" width="25" height="36"/>
<path d="M2.01107 35.6487C1.96523 35.6487 1.91812 35.6487 1.86973 35.6487C1.35018 35.6055 1 35.2308 1 34.7069C1 34.1649 1.38202 33.7776 1.91302 33.7679C2.25938 33.7609 2.60065 33.7679 2.96102 33.7679H3.25263V33.5185C3.25263 32.9537 3.25263 32.3895 3.25263 31.8257C3.25263 30.5411 3.26409 29.212 3.23862 27.9079C3.21061 26.4631 3.56079 25.1214 4.307 23.7895C5.13852 22.3168 6.24765 20.9654 7.90051 19.4328C8.20612 19.1458 8.52447 18.8658 8.83136 18.5969L9.08604 18.3739C8.88739 18.1859 8.68874 18.0006 8.49136 17.8167C7.93616 17.2956 7.36059 16.7564 6.81813 16.2019C5.56638 14.9229 4.64699 13.6537 4.00903 12.3217C3.49606 11.2874 3.23307 10.1268 3.24499 8.95007C3.259 7.59306 3.25518 6.21236 3.25263 4.87763C3.25263 4.30454 3.25263 3.73146 3.25263 3.15837V2.8853H3.04379C2.70635 2.8853 2.388 2.8853 2.06456 2.8853C1.89211 2.89168 1.71992 2.86624 1.5552 2.81006C1.38742 2.74275 1.24354 2.61884 1.14432 2.45623C1.0451 2.29361 0.995679 2.10071 1.00319 1.90536C1.0107 1.71002 1.07475 1.52234 1.1861 1.36941C1.29745 1.21649 1.45034 1.10624 1.62269 1.05458C1.77583 1.01573 1.93288 0.998406 2.09002 1.00303C8.8407 1.00303 15.5897 1.00303 22.337 1.00303H22.966C23.0322 0.99899 23.0985 0.99899 23.1647 1.00303C23.6626 1.05597 23.9987 1.43075 24 1.9365C24 2.46454 23.6345 2.86022 23.1252 2.87972C22.8425 2.88948 22.5572 2.88808 22.2809 2.87972H21.7716V3.10404C21.7716 3.66133 21.7716 4.21863 21.7652 4.78568C21.7588 6.05074 21.7525 7.35899 21.7805 8.64356C21.8161 10.2611 21.4061 11.7547 20.5249 13.2092C19.2655 15.2921 17.5732 16.9013 16.24 18.0702L15.9076 18.3614L16.1483 18.5732C16.4602 18.8518 16.7557 19.1054 17.0511 19.3785C18.3551 20.5836 19.3305 21.6899 20.1213 22.8616C20.9999 24.1643 21.4965 25.3262 21.6812 26.5188C21.7388 26.9043 21.7678 27.2943 21.7677 27.685C21.7677 29.1242 21.7677 30.5885 21.7677 32.004V33.7595H21.9702C22.3 33.7595 22.6184 33.7595 22.9367 33.7595C23.0953 33.7551 23.2536 33.7762 23.4066 33.8222C23.5801 33.8827 23.7311 34.0031 23.8368 34.1653C23.9426 34.3275 23.9975 34.5228 23.9934 34.722C23.9892 34.9212 23.9262 35.1136 23.8138 35.2704C23.7013 35.4271 23.5455 35.5398 23.3697 35.5916C23.2059 35.6314 23.0382 35.6487 22.8705 35.6432C16.3439 35.6432 9.81739 35.6432 3.29083 35.6432H2.01107V35.6487ZM2.50642 34.1761C2.30905 34.1761 2.11549 34.1761 1.92066 34.1761C1.5934 34.1761 1.38202 34.3865 1.38202 34.6972C1.38202 35.0078 1.58067 35.1959 1.89137 35.2224C1.95122 35.2224 2.0098 35.2224 2.06965 35.2224H3.28956C9.81612 35.2224 16.3427 35.2224 22.8692 35.2224C23.0043 35.2279 23.1395 35.2148 23.2716 35.1834C23.367 35.1544 23.4513 35.0925 23.5121 35.0069C23.5729 34.9214 23.6068 34.8167 23.609 34.7084C23.6111 34.6001 23.5813 34.4939 23.524 34.4056C23.4667 34.3172 23.3849 34.2514 23.2907 34.2179C23.173 34.1853 23.0517 34.1708 22.9304 34.1747C22.6146 34.1747 22.2937 34.1747 21.9689 34.1747H21.3845V32.004C21.3845 30.5885 21.3845 29.1256 21.3845 27.685C21.3841 27.3177 21.3572 26.9511 21.3042 26.5885C21.1285 25.4614 20.6548 24.3593 19.8118 23.1054C19.0401 21.9629 18.0838 20.8762 16.8028 19.6961C16.5112 19.4272 16.2183 19.1695 15.9114 18.8978L15.4848 18.5216L15.3002 18.3572L16.0031 17.7428C17.3147 16.5934 18.9777 15.0121 20.2053 12.9779C21.0419 11.5958 21.4316 10.1817 21.3972 8.65192C21.3692 7.36178 21.3755 6.04935 21.3819 4.7815C21.3819 4.2242 21.3883 3.66691 21.3883 3.10961V2.46593H22.2796C22.5509 2.46593 22.8336 2.46593 23.1086 2.46593C23.413 2.45479 23.618 2.24441 23.618 1.94347C23.618 1.64253 23.4295 1.45583 23.1265 1.42239C23.0781 1.42239 23.0246 1.42239 22.9686 1.42239H22.342C15.5914 1.42239 8.84239 1.42239 2.09512 1.42239C1.97108 1.41831 1.84705 1.43095 1.72583 1.46001C1.6321 1.48878 1.5491 1.54927 1.48872 1.63282C1.42835 1.71637 1.3937 1.81869 1.38974 1.92512C1.38578 2.03154 1.41272 2.1366 1.46669 2.22524C1.52066 2.31389 1.59889 2.38156 1.69018 2.41856C1.8142 2.45776 1.94322 2.4747 2.0722 2.46872C2.39182 2.46872 2.70889 2.46872 3.04379 2.46872H3.63592V3.15141C3.63592 3.72449 3.63592 4.29758 3.63592 4.87067C3.63592 6.20678 3.63592 7.58748 3.62828 8.94729C3.61636 10.0541 3.86267 11.146 4.34393 12.1197C4.96279 13.4098 5.85672 14.6429 7.07663 15.8898C7.61272 16.4373 8.15901 16.9501 8.7384 17.492C8.99308 17.7317 9.24776 17.9713 9.50244 18.2151L9.67307 18.3781L9.49862 18.5342L9.06821 18.9159C8.7626 19.1862 8.44679 19.4649 8.145 19.7519C6.52397 21.2663 5.44032 22.5815 4.63299 24.0166C3.92625 25.2705 3.59517 26.5439 3.62191 27.9051C3.64738 29.2161 3.64101 30.5523 3.63592 31.8354C3.63592 32.3983 3.63592 32.9616 3.63592 33.5254V34.1858H2.5077L2.50642 34.1761ZM20.4332 34.1538H4.57059V32.2186C4.57059 31.8006 4.57059 31.3729 4.57823 30.9493C4.58587 30.0033 4.59478 29.0267 4.55913 28.0695C4.51074 26.7696 4.8571 25.5296 5.61859 24.2799C6.82831 22.2917 8.42769 20.7968 9.83352 19.5903C9.99524 19.4509 10.1621 19.3116 10.3238 19.1876C10.4511 19.0817 10.5886 18.9744 10.7198 18.8658C10.851 18.7571 11.0254 18.5634 11.0229 18.3531C11.0203 18.1427 10.8573 17.9699 10.7198 17.8598C9.46807 16.8809 8.29601 15.7855 7.2167 14.5857C6.1878 13.414 5.51927 12.4095 5.05193 11.3297C4.73185 10.6196 4.56665 9.83797 4.56932 9.04621C4.57823 7.62789 4.57568 6.18449 4.56932 4.78986C4.56932 4.21863 4.56932 3.6474 4.56932 3.07617V2.49101H20.4332V3.07617C20.4332 3.63347 20.4332 4.19076 20.4256 4.74806C20.4179 6.02566 20.4103 7.34785 20.4447 8.64913C20.4791 9.95042 20.1391 11.1862 19.4005 12.4109C18.229 14.3461 16.6474 15.8452 15.4008 16.9347C15.1461 17.1563 14.8812 17.3736 14.6253 17.5826C14.5209 17.669 14.4152 17.754 14.3108 17.8417C14.158 17.9685 13.9759 18.1636 13.9771 18.3739C13.9784 18.5843 14.158 18.7641 14.3069 18.8825C15.552 19.8515 16.7161 20.9393 17.7859 22.1329C18.7676 23.2475 19.4413 24.2534 19.9111 25.2914C20.2637 26.0513 20.4445 26.8927 20.4383 27.7449C20.4256 29.1172 20.4281 30.5133 20.4307 31.8633C20.4307 32.4206 20.4307 32.9779 20.4307 33.5352L20.4332 34.1538ZM4.95261 33.7358H20.0512V33.5324C20.0512 32.9751 20.0512 32.4178 20.0512 31.8605C20.0512 30.5105 20.0512 29.113 20.0589 27.7379C20.0646 26.9509 19.8973 26.174 19.5711 25.4725C19.1216 24.4763 18.4671 23.5053 17.5133 22.4199C16.4587 21.2434 15.3112 20.1711 14.0841 19.2155C13.7645 18.9591 13.6002 18.6749 13.5977 18.3712C13.5951 18.0674 13.7594 17.7707 14.0828 17.5018L14.3986 17.2426C14.6533 17.035 14.9144 16.8247 15.1627 16.6017C16.3877 15.5317 17.9399 14.0619 19.0822 12.174C19.7749 11.0302 20.1009 9.88076 20.0627 8.66028C20.0283 7.35621 20.0359 6.02984 20.0436 4.74667C20.0436 4.18937 20.0512 3.63207 20.0512 3.07478V2.90898H4.95261V3.07617C4.95261 3.64554 4.95261 4.21631 4.95261 4.78846C4.95261 6.1817 4.95261 7.62789 4.95261 9.04899C4.94898 9.77719 5.0998 10.4964 5.3932 11.15C5.84526 12.188 6.49341 13.1577 7.49302 14.2959C8.41241 15.3437 9.51008 16.3691 10.9465 17.5227C11.3221 17.825 11.4036 18.1385 11.4049 18.3475C11.4062 18.5565 11.3298 18.8797 10.9516 19.1974C10.8242 19.3088 10.6841 19.4161 10.5492 19.5248C10.39 19.6529 10.2257 19.7853 10.0691 19.9191C8.68747 21.1019 7.1161 22.5662 5.93567 24.5167C5.22129 25.6912 4.8953 26.849 4.94115 28.057C4.9768 29.0253 4.96789 30.0075 4.96025 30.9591C4.96025 31.3771 4.95261 31.8034 4.95261 32.2242V33.7358Z"/>
</mask>
<path d="M2.01107 35.6487C1.96523 35.6487 1.91812 35.6487 1.86973 35.6487C1.35018 35.6055 1 35.2308 1 34.7069C1 34.1649 1.38202 33.7776 1.91302 33.7679C2.25938 33.7609 2.60065 33.7679 2.96102 33.7679H3.25263V33.5185C3.25263 32.9537 3.25263 32.3895 3.25263 31.8257C3.25263 30.5411 3.26409 29.212 3.23862 27.9079C3.21061 26.4631 3.56079 25.1214 4.307 23.7895C5.13852 22.3168 6.24765 20.9654 7.90051 19.4328C8.20612 19.1458 8.52447 18.8658 8.83136 18.5969L9.08604 18.3739C8.88739 18.1859 8.68874 18.0006 8.49136 17.8167C7.93616 17.2956 7.36059 16.7564 6.81813 16.2019C5.56638 14.9229 4.64699 13.6537 4.00903 12.3217C3.49606 11.2874 3.23307 10.1268 3.24499 8.95007C3.259 7.59306 3.25518 6.21236 3.25263 4.87763C3.25263 4.30454 3.25263 3.73146 3.25263 3.15837V2.8853H3.04379C2.70635 2.8853 2.388 2.8853 2.06456 2.8853C1.89211 2.89168 1.71992 2.86624 1.5552 2.81006C1.38742 2.74275 1.24354 2.61884 1.14432 2.45623C1.0451 2.29361 0.995679 2.10071 1.00319 1.90536C1.0107 1.71002 1.07475 1.52234 1.1861 1.36941C1.29745 1.21649 1.45034 1.10624 1.62269 1.05458C1.77583 1.01573 1.93288 0.998406 2.09002 1.00303C8.8407 1.00303 15.5897 1.00303 22.337 1.00303H22.966C23.0322 0.99899 23.0985 0.99899 23.1647 1.00303C23.6626 1.05597 23.9987 1.43075 24 1.9365C24 2.46454 23.6345 2.86022 23.1252 2.87972C22.8425 2.88948 22.5572 2.88808 22.2809 2.87972H21.7716V3.10404C21.7716 3.66133 21.7716 4.21863 21.7652 4.78568C21.7588 6.05074 21.7525 7.35899 21.7805 8.64356C21.8161 10.2611 21.4061 11.7547 20.5249 13.2092C19.2655 15.2921 17.5732 16.9013 16.24 18.0702L15.9076 18.3614L16.1483 18.5732C16.4602 18.8518 16.7557 19.1054 17.0511 19.3785C18.3551 20.5836 19.3305 21.6899 20.1213 22.8616C20.9999 24.1643 21.4965 25.3262 21.6812 26.5188C21.7388 26.9043 21.7678 27.2943 21.7677 27.685C21.7677 29.1242 21.7677 30.5885 21.7677 32.004V33.7595H21.9702C22.3 33.7595 22.6184 33.7595 22.9367 33.7595C23.0953 33.7551 23.2536 33.7762 23.4066 33.8222C23.5801 33.8827 23.7311 34.0031 23.8368 34.1653C23.9426 34.3275 23.9975 34.5228 23.9934 34.722C23.9892 34.9212 23.9262 35.1136 23.8138 35.2704C23.7013 35.4271 23.5455 35.5398 23.3697 35.5916C23.2059 35.6314 23.0382 35.6487 22.8705 35.6432C16.3439 35.6432 9.81739 35.6432 3.29083 35.6432H2.01107V35.6487ZM2.50642 34.1761C2.30905 34.1761 2.11549 34.1761 1.92066 34.1761C1.5934 34.1761 1.38202 34.3865 1.38202 34.6972C1.38202 35.0078 1.58067 35.1959 1.89137 35.2224C1.95122 35.2224 2.0098 35.2224 2.06965 35.2224H3.28956C9.81612 35.2224 16.3427 35.2224 22.8692 35.2224C23.0043 35.2279 23.1395 35.2148 23.2716 35.1834C23.367 35.1544 23.4513 35.0925 23.5121 35.0069C23.5729 34.9214 23.6068 34.8167 23.609 34.7084C23.6111 34.6001 23.5813 34.4939 23.524 34.4056C23.4667 34.3172 23.3849 34.2514 23.2907 34.2179C23.173 34.1853 23.0517 34.1708 22.9304 34.1747C22.6146 34.1747 22.2937 34.1747 21.9689 34.1747H21.3845V32.004C21.3845 30.5885 21.3845 29.1256 21.3845 27.685C21.3841 27.3177 21.3572 26.9511 21.3042 26.5885C21.1285 25.4614 20.6548 24.3593 19.8118 23.1054C19.0401 21.9629 18.0838 20.8762 16.8028 19.6961C16.5112 19.4272 16.2183 19.1695 15.9114 18.8978L15.4848 18.5216L15.3002 18.3572L16.0031 17.7428C17.3147 16.5934 18.9777 15.0121 20.2053 12.9779C21.0419 11.5958 21.4316 10.1817 21.3972 8.65192C21.3692 7.36178 21.3755 6.04935 21.3819 4.7815C21.3819 4.2242 21.3883 3.66691 21.3883 3.10961V2.46593H22.2796C22.5509 2.46593 22.8336 2.46593 23.1086 2.46593C23.413 2.45479 23.618 2.24441 23.618 1.94347C23.618 1.64253 23.4295 1.45583 23.1265 1.42239C23.0781 1.42239 23.0246 1.42239 22.9686 1.42239H22.342C15.5914 1.42239 8.84239 1.42239 2.09512 1.42239C1.97108 1.41831 1.84705 1.43095 1.72583 1.46001C1.6321 1.48878 1.5491 1.54927 1.48872 1.63282C1.42835 1.71637 1.3937 1.81869 1.38974 1.92512C1.38578 2.03154 1.41272 2.1366 1.46669 2.22524C1.52066 2.31389 1.59889 2.38156 1.69018 2.41856C1.8142 2.45776 1.94322 2.4747 2.0722 2.46872C2.39182 2.46872 2.70889 2.46872 3.04379 2.46872H3.63592V3.15141C3.63592 3.72449 3.63592 4.29758 3.63592 4.87067C3.63592 6.20678 3.63592 7.58748 3.62828 8.94729C3.61636 10.0541 3.86267 11.146 4.34393 12.1197C4.96279 13.4098 5.85672 14.6429 7.07663 15.8898C7.61272 16.4373 8.15901 16.9501 8.7384 17.492C8.99308 17.7317 9.24776 17.9713 9.50244 18.2151L9.67307 18.3781L9.49862 18.5342L9.06821 18.9159C8.7626 19.1862 8.44679 19.4649 8.145 19.7519C6.52397 21.2663 5.44032 22.5815 4.63299 24.0166C3.92625 25.2705 3.59517 26.5439 3.62191 27.9051C3.64738 29.2161 3.64101 30.5523 3.63592 31.8354C3.63592 32.3983 3.63592 32.9616 3.63592 33.5254V34.1858H2.5077L2.50642 34.1761ZM20.4332 34.1538H4.57059V32.2186C4.57059 31.8006 4.57059 31.3729 4.57823 30.9493C4.58587 30.0033 4.59478 29.0267 4.55913 28.0695C4.51074 26.7696 4.8571 25.5296 5.61859 24.2799C6.82831 22.2917 8.42769 20.7968 9.83352 19.5903C9.99524 19.4509 10.1621 19.3116 10.3238 19.1876C10.4511 19.0817 10.5886 18.9744 10.7198 18.8658C10.851 18.7571 11.0254 18.5634 11.0229 18.3531C11.0203 18.1427 10.8573 17.9699 10.7198 17.8598C9.46807 16.8809 8.29601 15.7855 7.2167 14.5857C6.1878 13.414 5.51927 12.4095 5.05193 11.3297C4.73185 10.6196 4.56665 9.83797 4.56932 9.04621C4.57823 7.62789 4.57568 6.18449 4.56932 4.78986C4.56932 4.21863 4.56932 3.6474 4.56932 3.07617V2.49101H20.4332V3.07617C20.4332 3.63347 20.4332 4.19076 20.4256 4.74806C20.4179 6.02566 20.4103 7.34785 20.4447 8.64913C20.4791 9.95042 20.1391 11.1862 19.4005 12.4109C18.229 14.3461 16.6474 15.8452 15.4008 16.9347C15.1461 17.1563 14.8812 17.3736 14.6253 17.5826C14.5209 17.669 14.4152 17.754 14.3108 17.8417C14.158 17.9685 13.9759 18.1636 13.9771 18.3739C13.9784 18.5843 14.158 18.7641 14.3069 18.8825C15.552 19.8515 16.7161 20.9393 17.7859 22.1329C18.7676 23.2475 19.4413 24.2534 19.9111 25.2914C20.2637 26.0513 20.4445 26.8927 20.4383 27.7449C20.4256 29.1172 20.4281 30.5133 20.4307 31.8633C20.4307 32.4206 20.4307 32.9779 20.4307 33.5352L20.4332 34.1538ZM4.95261 33.7358H20.0512V33.5324C20.0512 32.9751 20.0512 32.4178 20.0512 31.8605C20.0512 30.5105 20.0512 29.113 20.0589 27.7379C20.0646 26.9509 19.8973 26.174 19.5711 25.4725C19.1216 24.4763 18.4671 23.5053 17.5133 22.4199C16.4587 21.2434 15.3112 20.1711 14.0841 19.2155C13.7645 18.9591 13.6002 18.6749 13.5977 18.3712C13.5951 18.0674 13.7594 17.7707 14.0828 17.5018L14.3986 17.2426C14.6533 17.035 14.9144 16.8247 15.1627 16.6017C16.3877 15.5317 17.9399 14.0619 19.0822 12.174C19.7749 11.0302 20.1009 9.88076 20.0627 8.66028C20.0283 7.35621 20.0359 6.02984 20.0436 4.74667C20.0436 4.18937 20.0512 3.63207 20.0512 3.07478V2.90898H4.95261V3.07617C4.95261 3.64554 4.95261 4.21631 4.95261 4.78846C4.95261 6.1817 4.95261 7.62789 4.95261 9.04899C4.94898 9.77719 5.0998 10.4964 5.3932 11.15C5.84526 12.188 6.49341 13.1577 7.49302 14.2959C8.41241 15.3437 9.51008 16.3691 10.9465 17.5227C11.3221 17.825 11.4036 18.1385 11.4049 18.3475C11.4062 18.5565 11.3298 18.8797 10.9516 19.1974C10.8242 19.3088 10.6841 19.4161 10.5492 19.5248C10.39 19.6529 10.2257 19.7853 10.0691 19.9191C8.68747 21.1019 7.1161 22.5662 5.93567 24.5167C5.22129 25.6912 4.8953 26.849 4.94115 28.057C4.9768 29.0253 4.96789 30.0075 4.96025 30.9591C4.96025 31.3771 4.95261 31.8034 4.95261 32.2242V33.7358Z" fill="black"/>
<path d="M2.01107 35.6487C1.96523 35.6487 1.91812 35.6487 1.86973 35.6487C1.35018 35.6055 1 35.2308 1 34.7069C1 34.1649 1.38202 33.7776 1.91302 33.7679C2.25938 33.7609 2.60065 33.7679 2.96102 33.7679H3.25263V33.5185C3.25263 32.9537 3.25263 32.3895 3.25263 31.8257C3.25263 30.5411 3.26409 29.212 3.23862 27.9079C3.21061 26.4631 3.56079 25.1214 4.307 23.7895C5.13852 22.3168 6.24765 20.9654 7.90051 19.4328C8.20612 19.1458 8.52447 18.8658 8.83136 18.5969L9.08604 18.3739C8.88739 18.1859 8.68874 18.0006 8.49136 17.8167C7.93616 17.2956 7.36059 16.7564 6.81813 16.2019C5.56638 14.9229 4.64699 13.6537 4.00903 12.3217C3.49606 11.2874 3.23307 10.1268 3.24499 8.95007C3.259 7.59306 3.25518 6.21236 3.25263 4.87763C3.25263 4.30454 3.25263 3.73146 3.25263 3.15837V2.8853H3.04379C2.70635 2.8853 2.388 2.8853 2.06456 2.8853C1.89211 2.89168 1.71992 2.86624 1.5552 2.81006C1.38742 2.74275 1.24354 2.61884 1.14432 2.45623C1.0451 2.29361 0.995679 2.10071 1.00319 1.90536C1.0107 1.71002 1.07475 1.52234 1.1861 1.36941C1.29745 1.21649 1.45034 1.10624 1.62269 1.05458C1.77583 1.01573 1.93288 0.998406 2.09002 1.00303C8.8407 1.00303 15.5897 1.00303 22.337 1.00303H22.966C23.0322 0.99899 23.0985 0.99899 23.1647 1.00303C23.6626 1.05597 23.9987 1.43075 24 1.9365C24 2.46454 23.6345 2.86022 23.1252 2.87972C22.8425 2.88948 22.5572 2.88808 22.2809 2.87972H21.7716V3.10404C21.7716 3.66133 21.7716 4.21863 21.7652 4.78568C21.7588 6.05074 21.7525 7.35899 21.7805 8.64356C21.8161 10.2611 21.4061 11.7547 20.5249 13.2092C19.2655 15.2921 17.5732 16.9013 16.24 18.0702L15.9076 18.3614L16.1483 18.5732C16.4602 18.8518 16.7557 19.1054 17.0511 19.3785C18.3551 20.5836 19.3305 21.6899 20.1213 22.8616C20.9999 24.1643 21.4965 25.3262 21.6812 26.5188C21.7388 26.9043 21.7678 27.2943 21.7677 27.685C21.7677 29.1242 21.7677 30.5885 21.7677 32.004V33.7595H21.9702C22.3 33.7595 22.6184 33.7595 22.9367 33.7595C23.0953 33.7551 23.2536 33.7762 23.4066 33.8222C23.5801 33.8827 23.7311 34.0031 23.8368 34.1653C23.9426 34.3275 23.9975 34.5228 23.9934 34.722C23.9892 34.9212 23.9262 35.1136 23.8138 35.2704C23.7013 35.4271 23.5455 35.5398 23.3697 35.5916C23.2059 35.6314 23.0382 35.6487 22.8705 35.6432C16.3439 35.6432 9.81739 35.6432 3.29083 35.6432H2.01107V35.6487ZM2.50642 34.1761C2.30905 34.1761 2.11549 34.1761 1.92066 34.1761C1.5934 34.1761 1.38202 34.3865 1.38202 34.6972C1.38202 35.0078 1.58067 35.1959 1.89137 35.2224C1.95122 35.2224 2.0098 35.2224 2.06965 35.2224H3.28956C9.81612 35.2224 16.3427 35.2224 22.8692 35.2224C23.0043 35.2279 23.1395 35.2148 23.2716 35.1834C23.367 35.1544 23.4513 35.0925 23.5121 35.0069C23.5729 34.9214 23.6068 34.8167 23.609 34.7084C23.6111 34.6001 23.5813 34.4939 23.524 34.4056C23.4667 34.3172 23.3849 34.2514 23.2907 34.2179C23.173 34.1853 23.0517 34.1708 22.9304 34.1747C22.6146 34.1747 22.2937 34.1747 21.9689 34.1747H21.3845V32.004C21.3845 30.5885 21.3845 29.1256 21.3845 27.685C21.3841 27.3177 21.3572 26.9511 21.3042 26.5885C21.1285 25.4614 20.6548 24.3593 19.8118 23.1054C19.0401 21.9629 18.0838 20.8762 16.8028 19.6961C16.5112 19.4272 16.2183 19.1695 15.9114 18.8978L15.4848 18.5216L15.3002 18.3572L16.0031 17.7428C17.3147 16.5934 18.9777 15.0121 20.2053 12.9779C21.0419 11.5958 21.4316 10.1817 21.3972 8.65192C21.3692 7.36178 21.3755 6.04935 21.3819 4.7815C21.3819 4.2242 21.3883 3.66691 21.3883 3.10961V2.46593H22.2796C22.5509 2.46593 22.8336 2.46593 23.1086 2.46593C23.413 2.45479 23.618 2.24441 23.618 1.94347C23.618 1.64253 23.4295 1.45583 23.1265 1.42239C23.0781 1.42239 23.0246 1.42239 22.9686 1.42239H22.342C15.5914 1.42239 8.84239 1.42239 2.09512 1.42239C1.97108 1.41831 1.84705 1.43095 1.72583 1.46001C1.6321 1.48878 1.5491 1.54927 1.48872 1.63282C1.42835 1.71637 1.3937 1.81869 1.38974 1.92512C1.38578 2.03154 1.41272 2.1366 1.46669 2.22524C1.52066 2.31389 1.59889 2.38156 1.69018 2.41856C1.8142 2.45776 1.94322 2.4747 2.0722 2.46872C2.39182 2.46872 2.70889 2.46872 3.04379 2.46872H3.63592V3.15141C3.63592 3.72449 3.63592 4.29758 3.63592 4.87067C3.63592 6.20678 3.63592 7.58748 3.62828 8.94729C3.61636 10.0541 3.86267 11.146 4.34393 12.1197C4.96279 13.4098 5.85672 14.6429 7.07663 15.8898C7.61272 16.4373 8.15901 16.9501 8.7384 17.492C8.99308 17.7317 9.24776 17.9713 9.50244 18.2151L9.67307 18.3781L9.49862 18.5342L9.06821 18.9159C8.7626 19.1862 8.44679 19.4649 8.145 19.7519C6.52397 21.2663 5.44032 22.5815 4.63299 24.0166C3.92625 25.2705 3.59517 26.5439 3.62191 27.9051C3.64738 29.2161 3.64101 30.5523 3.63592 31.8354C3.63592 32.3983 3.63592 32.9616 3.63592 33.5254V34.1858H2.5077L2.50642 34.1761ZM20.4332 34.1538H4.57059V32.2186C4.57059 31.8006 4.57059 31.3729 4.57823 30.9493C4.58587 30.0033 4.59478 29.0267 4.55913 28.0695C4.51074 26.7696 4.8571 25.5296 5.61859 24.2799C6.82831 22.2917 8.42769 20.7968 9.83352 19.5903C9.99524 19.4509 10.1621 19.3116 10.3238 19.1876C10.4511 19.0817 10.5886 18.9744 10.7198 18.8658C10.851 18.7571 11.0254 18.5634 11.0229 18.3531C11.0203 18.1427 10.8573 17.9699 10.7198 17.8598C9.46807 16.8809 8.29601 15.7855 7.2167 14.5857C6.1878 13.414 5.51927 12.4095 5.05193 11.3297C4.73185 10.6196 4.56665 9.83797 4.56932 9.04621C4.57823 7.62789 4.57568 6.18449 4.56932 4.78986C4.56932 4.21863 4.56932 3.6474 4.56932 3.07617V2.49101H20.4332V3.07617C20.4332 3.63347 20.4332 4.19076 20.4256 4.74806C20.4179 6.02566 20.4103 7.34785 20.4447 8.64913C20.4791 9.95042 20.1391 11.1862 19.4005 12.4109C18.229 14.3461 16.6474 15.8452 15.4008 16.9347C15.1461 17.1563 14.8812 17.3736 14.6253 17.5826C14.5209 17.669 14.4152 17.754 14.3108 17.8417C14.158 17.9685 13.9759 18.1636 13.9771 18.3739C13.9784 18.5843 14.158 18.7641 14.3069 18.8825C15.552 19.8515 16.7161 20.9393 17.7859 22.1329C18.7676 23.2475 19.4413 24.2534 19.9111 25.2914C20.2637 26.0513 20.4445 26.8927 20.4383 27.7449C20.4256 29.1172 20.4281 30.5133 20.4307 31.8633C20.4307 32.4206 20.4307 32.9779 20.4307 33.5352L20.4332 34.1538ZM4.95261 33.7358H20.0512V33.5324C20.0512 32.9751 20.0512 32.4178 20.0512 31.8605C20.0512 30.5105 20.0512 29.113 20.0589 27.7379C20.0646 26.9509 19.8973 26.174 19.5711 25.4725C19.1216 24.4763 18.4671 23.5053 17.5133 22.4199C16.4587 21.2434 15.3112 20.1711 14.0841 19.2155C13.7645 18.9591 13.6002 18.6749 13.5977 18.3712C13.5951 18.0674 13.7594 17.7707 14.0828 17.5018L14.3986 17.2426C14.6533 17.035 14.9144 16.8247 15.1627 16.6017C16.3877 15.5317 17.9399 14.0619 19.0822 12.174C19.7749 11.0302 20.1009 9.88076 20.0627 8.66028C20.0283 7.35621 20.0359 6.02984 20.0436 4.74667C20.0436 4.18937 20.0512 3.63207 20.0512 3.07478V2.90898H4.95261V3.07617C4.95261 3.64554 4.95261 4.21631 4.95261 4.78846C4.95261 6.1817 4.95261 7.62789 4.95261 9.04899C4.94898 9.77719 5.0998 10.4964 5.3932 11.15C5.84526 12.188 6.49341 13.1577 7.49302 14.2959C8.41241 15.3437 9.51008 16.3691 10.9465 17.5227C11.3221 17.825 11.4036 18.1385 11.4049 18.3475C11.4062 18.5565 11.3298 18.8797 10.9516 19.1974C10.8242 19.3088 10.6841 19.4161 10.5492 19.5248C10.39 19.6529 10.2257 19.7853 10.0691 19.9191C8.68747 21.1019 7.1161 22.5662 5.93567 24.5167C5.22129 25.6912 4.8953 26.849 4.94115 28.057C4.9768 29.0253 4.96789 30.0075 4.96025 30.9591C4.96025 31.3771 4.95261 31.8034 4.95261 32.2242V33.7358Z" stroke="black" stroke-width="0.2" mask="url(#path-2-outside-1_926_1869)"/>
<path d="M12.5107 7.02246H17.7471C18.0626 7.02246 18.2907 7.08177 18.4375 7.24219C18.5828 7.40122 18.6381 7.64766 18.6406 7.99121C18.6482 8.93477 18.69 9.88966 18.2246 10.7793C17.6111 11.9341 16.8278 12.9709 15.9062 13.8477L15.9053 13.8467C14.9722 14.7476 13.9805 15.576 13.0117 16.4287C12.8706 16.5533 12.7168 16.6312 12.5566 16.6445C12.3957 16.6579 12.2342 16.6057 12.0791 16.4824C10.3444 15.1088 8.70463 13.6224 7.36621 11.7598C6.50217 10.5595 6.25542 9.22749 6.38477 7.75879C6.40584 7.52176 6.48122 7.33599 6.61816 7.20898C6.75515 7.08199 6.9469 7.0202 7.18652 7.0166C8.96323 7.01846 10.7383 7.0206 12.5107 7.02246ZM7.8418 8.58301C7.68572 9.42114 8.0174 10.0704 8.43945 10.7002C9.52587 12.3266 10.92 13.6033 12.3916 14.793C12.4357 14.8125 12.4832 14.821 12.5303 14.8164C12.5778 14.8117 12.6233 14.7932 12.6641 14.7646C13.3425 14.1784 14.0286 13.6021 14.6719 12.9746C15.5448 12.1252 16.3453 11.2009 16.9404 10.0898L17.0254 9.91113C17.2002 9.49788 17.2562 9.03489 17.1865 8.58301H7.8418Z" fill="black" stroke="black" stroke-width="0.1"/>
<path d="M11.6937 14.6862C11.7627 14.7371 11.8448 14.7625 11.928 14.7586V14.753C12.0428 14.7567 12.1559 14.7211 12.2514 14.6513L12.5303 14.4047C13.1097 13.9059 13.7095 13.3891 14.271 12.8415C15.3229 11.8175 16.0589 10.8812 16.5873 9.89481C16.8614 9.37615 16.9576 8.76758 16.8586 8.17833L16.8331 8H7.08528L7.05217 8.1644C6.85734 9.12713 7.23936 9.87112 7.6825 10.5329C8.84893 12.2786 10.3655 13.612 11.6937 14.6862Z" fill="#F48F38"/>
<path d="M12.4668 23.4053C12.609 23.3943 12.7517 23.4364 12.8877 23.5391L13.6143 24.1143C15.2928 25.4733 16.8573 26.9718 18.0225 28.9238L18.1777 29.1904C18.4671 29.7357 18.6283 30.3508 18.6475 30.9805L18.6455 31.2969C18.6287 31.5996 18.5638 31.8296 18.4238 31.9834C18.2823 32.1389 18.0722 32.2073 17.7891 32.208C16.0199 32.2108 14.2534 32.2108 12.4902 32.209H7.32812C6.97781 32.209 6.73755 32.1508 6.58496 31.9795C6.43453 31.8105 6.38023 31.5436 6.36621 31.1611C6.32614 30.0821 6.77179 29.2124 7.31348 28.3975C8.42529 26.7281 9.84085 25.3995 11.3281 24.1641C11.5705 23.9631 11.8151 23.7669 12.0625 23.5762C12.1893 23.4782 12.3258 23.4162 12.4668 23.4053ZM12.4883 25.2256C12.4453 25.2292 12.4035 25.2443 12.3662 25.2695L12.3652 25.2686C11.8736 25.673 11.3844 26.0807 10.917 26.5186H10.916C9.89106 27.4716 8.93048 28.4877 8.21094 29.7393C8.05537 30.0114 7.94321 30.3081 7.79785 30.6387L17.2334 30.6357C17.0049 30.1853 16.8313 29.7754 16.5947 29.4102C15.5166 27.7468 14.1049 26.449 12.6094 25.2461C12.5708 25.2292 12.5294 25.2221 12.4883 25.2256Z" fill="black" stroke="black" stroke-width="0.1"/>
<path d="M12.4785 23.1885C12.6574 23.1817 12.8305 23.2418 12.9883 23.3652L13.6924 23.9219C15.3359 25.2491 16.963 26.7814 18.1719 28.8125C18.6603 29.6296 18.8742 30.4489 18.8252 31.3125C18.8045 31.6784 18.7138 31.9563 18.5381 32.1426C18.3614 32.3299 18.1066 32.4163 17.7783 32.417C16.9906 32.4161 16.2029 32.415 15.416 32.4141H7.32422C6.92815 32.4141 6.64304 32.3348 6.45508 32.1299C6.26873 31.9267 6.18755 31.6107 6.1709 31.165C6.12711 29.98 6.64707 29.0343 7.15527 28.2715C8.34873 26.4778 9.87483 25.1016 11.209 23.9932C11.4412 23.8005 11.6839 23.6065 11.9492 23.4014C12.121 23.2684 12.3002 23.1952 12.4785 23.1885ZM12.5479 23.7178C12.4738 23.7069 12.368 23.7215 12.2305 23.8281V23.8291C11.97 24.0307 11.7316 24.2201 11.5029 24.4092L11.5039 24.4102C10.1946 25.4974 8.70791 26.8424 7.54688 28.5791C7.05791 29.3156 6.61572 30.1308 6.65332 31.1523C6.65934 31.3174 6.67164 31.4465 6.69434 31.5479C6.71697 31.6489 6.74925 31.7189 6.79395 31.7686C6.88288 31.8672 7.03532 31.9026 7.32422 31.9033H12.4453L12.4463 31.8965H17.7734C17.9881 31.8965 18.1177 31.8565 18.1992 31.7686C18.2825 31.6786 18.3263 31.5271 18.3408 31.2773C18.3834 30.5295 18.1948 29.8136 17.7627 29.0898C16.4319 26.851 14.5465 25.2154 12.7051 23.791C12.6756 23.7684 12.6237 23.7289 12.5479 23.7178ZM12.4756 24.9248C12.5785 24.9196 12.681 24.9458 12.7705 25L12.7764 25.0039L13.29 25.4219C14.417 26.3571 15.6223 27.4868 16.6064 28.9072L16.8301 29.2402V29.2412C17.0043 29.523 17.1616 29.8169 17.3008 30.1211C17.372 30.2629 17.4424 30.4134 17.5215 30.5654L17.6826 30.8672L17.7217 30.9404H7.33301L7.36523 30.8701L7.50195 30.5693C7.55155 30.4566 7.59918 30.348 7.64355 30.2412C7.73604 30.0138 7.84124 29.7927 7.95801 29.5791V29.5781C8.74496 28.2089 9.79783 27.1448 10.7207 26.2871C11.1868 25.8526 11.6615 25.4581 12.1875 25.0303L12.1895 25.0293C12.2738 24.9665 12.3728 24.9301 12.4756 24.9248ZM12.5117 25.4297C12.4964 25.4301 12.4813 25.4335 12.4668 25.4395C11.9513 25.8636 11.4861 26.25 11.0322 26.6719C10.1341 27.507 9.11717 28.5372 8.36719 29.8457L8.36621 29.8447C8.26497 30.0311 8.17499 30.2246 8.09473 30.4229H16.9092C16.898 30.4002 16.8874 30.3779 16.876 30.3564L16.875 30.3535C16.7445 30.0668 16.5972 29.7897 16.4346 29.5234V29.5225C15.316 27.7944 13.8313 26.4855 12.5117 25.4297Z" fill="black" stroke="black" stroke-width="0.1"/>
<path d="M12.5742 20.6309L12.5732 20.6318C12.7842 20.6533 12.9469 20.7491 13.0547 20.918C13.1614 21.0851 13.2119 21.3187 13.2119 21.6084C13.2119 21.8871 13.162 22.113 13.0576 22.2764C12.9518 22.4418 12.7925 22.5388 12.5869 22.5635L12.5859 22.5625C12.4522 22.5884 12.3143 22.5683 12.1924 22.5039C12.0695 22.4389 11.9696 22.3333 11.9062 22.2031C11.8162 22.0194 11.7682 21.8145 11.7666 21.6064C11.765 21.3984 11.8093 21.1922 11.8965 21.0068C11.9573 20.875 12.056 20.7672 12.1777 20.6992C12.2997 20.6312 12.4385 20.6068 12.5742 20.6309Z" fill="black" stroke="black" stroke-width="0.1"/>
<path d="M12.5908 20.416L12.5898 20.417C12.7408 20.4327 12.9453 20.4889 13.1113 20.665C13.2785 20.8423 13.3997 21.1329 13.3965 21.6025C13.3965 22.0565 13.2761 22.3399 13.1123 22.5146C12.9898 22.6453 12.8468 22.7116 12.7207 22.7441L12.6016 22.7666C12.563 22.7712 12.5242 22.7721 12.4854 22.7715L12.4863 22.7725C12.3318 22.7782 12.1788 22.7363 12.0459 22.6514C11.9131 22.5664 11.8057 22.442 11.7354 22.2939V22.2949C11.6316 22.0819 11.577 21.8444 11.5752 21.6035C11.5734 21.3628 11.6243 21.1248 11.7246 20.9102C11.8024 20.7403 11.9277 20.6007 12.083 20.5117C12.2385 20.4227 12.4164 20.3887 12.5908 20.416ZM12.4795 20.9297C12.4142 20.9241 12.3486 20.9396 12.291 20.9756C12.2332 21.0118 12.186 21.0667 12.1562 21.1338L12.1553 21.1357C12.0869 21.2773 12.0508 21.4352 12.0508 21.5957C12.0508 21.7559 12.0872 21.9134 12.1553 22.0547L12.1875 22.1074C12.223 22.157 12.2684 22.1974 12.3203 22.2236C12.3892 22.2584 12.4661 22.2681 12.54 22.252L12.5449 22.251C12.5999 22.2441 12.687 22.2333 12.7627 22.1553C12.8387 22.0768 12.9115 21.9206 12.9121 21.6035C12.912 21.2716 12.837 21.1097 12.7588 21.0293C12.6812 20.9495 12.592 20.94 12.5361 20.9346L12.4795 20.9297Z" fill="black" stroke="black" stroke-width="0.1"/>
<path d="M12.5869 17.8389C12.6915 17.853 12.7915 17.8926 12.8799 17.9541C12.9683 18.0156 13.0434 18.0971 13.0986 18.1934C13.14 18.2654 13.1691 18.3445 13.1865 18.4268L13.2002 18.5107V18.5117C13.2137 18.6662 13.2164 18.8216 13.208 18.9766C13.1931 19.4393 12.9034 19.7821 12.5 19.7822C12.0954 19.7822 11.8136 19.4341 11.791 18.9756V18.9746C11.7884 18.9148 11.79 18.8542 11.79 18.7959C11.79 18.5448 11.826 18.3448 11.9053 18.1914C11.9856 18.0362 12.1087 17.9318 12.2764 17.8721L12.3525 17.8496C12.4293 17.8317 12.5085 17.8283 12.5869 17.8389Z" fill="black" stroke="black" stroke-width="0.1"/>
<path d="M12.6484 17.6084C12.6513 17.609 12.6553 17.6099 12.6592 17.6113C12.6629 17.6128 12.669 17.6155 12.6748 17.6201C12.6808 17.6249 12.6876 17.6339 12.6914 17.6465C12.7977 17.6712 12.8997 17.7142 12.9912 17.7783C13.1027 17.8564 13.197 17.9609 13.2666 18.083C13.3187 18.1745 13.3561 18.2746 13.3779 18.3789L13.3945 18.4844V18.4854C13.4019 18.5682 13.4067 18.6513 13.4082 18.7344L13.4033 18.9824C13.3821 19.5561 13.0092 19.9891 12.502 19.9893C11.9956 19.9893 11.6236 19.5556 11.6025 18.9805V18.7939C11.6025 18.4847 11.7525 18.2284 11.9492 18.0342C12.1234 17.8623 12.3372 17.7375 12.5244 17.6611C12.5261 17.6491 12.5316 17.6403 12.5361 17.6348C12.5409 17.6291 12.5464 17.6252 12.5498 17.623C12.5533 17.6208 12.5569 17.6194 12.5596 17.6182C12.5648 17.6159 12.5698 17.6135 12.5742 17.6123C12.5834 17.6099 12.5941 17.6084 12.6035 17.6074C12.6129 17.6064 12.6233 17.606 12.6328 17.6064C12.6374 17.6067 12.6428 17.6073 12.6484 17.6084ZM12.083 18.9619C12.0944 19.2729 12.2731 19.4695 12.5 19.4697C12.6192 19.4697 12.7203 19.4205 12.793 19.334C12.8662 19.2467 12.9131 19.1185 12.918 18.9609V18.96C12.9254 18.8202 12.9227 18.6795 12.9111 18.54V18.5391C12.9041 18.4723 12.8837 18.4083 12.8516 18.3516C12.8192 18.2944 12.7756 18.2459 12.7246 18.21V18.209C12.6722 18.1726 12.6127 18.1501 12.5518 18.1416C12.4906 18.1332 12.428 18.1391 12.3691 18.1602L12.3701 18.1611C12.294 18.1887 12.2245 18.2278 12.1729 18.3145C12.1206 18.4021 12.0831 18.5435 12.082 18.7803L12.083 18.7822V18.9619Z" fill="black" stroke="black" stroke-width="0.1"/>
</svg>
