<svg width="36" height="36" viewBox="0 0 36 36" fill="none" xmlns="http://www.w3.org/2000/svg">
<path d="M24.5 28.5C25.5 31 26.4853 34.5 24 34.5C21.5147 34.5 11.5 35.4853 11.5 33C11.5 30.5147 14.0147 25 16.5 25C18.9853 25 23 26 24.5 28.5Z" fill="#F48F38"/>
<path d="M8.79004 8.76953C7.77427 8.76583 6.79845 9.1449 6.07227 9.82422C5.34621 10.5035 4.92808 11.4284 4.90625 12.3994C4.89833 14.4229 6.59811 16.113 8.66016 16.124C10.9125 16.1351 12.6329 14.5285 12.6455 12.4277L12.6377 12.2461C12.5783 11.3415 12.1756 10.4855 11.5 9.84375C10.7792 9.15907 9.80589 8.77324 8.79004 8.76953ZM2.56641 25.499H10.9756C11.1648 25.5097 11.344 25.5885 11.4775 25.7197C11.6109 25.851 11.6895 26.026 11.6963 26.2109C11.703 26.3961 11.6367 26.5767 11.5127 26.7168C11.3889 26.8566 11.2162 26.9465 11.0283 26.9697H11.0254C10.9096 26.9813 10.793 26.985 10.6768 26.9795C7.79567 26.9795 4.92127 26.9798 2.04297 26.9873H2.04199C1.8297 26.9873 1.63528 26.959 1.46484 26.8809C1.29255 26.8018 1.15077 26.6739 1.03906 26.4863L1.02539 26.4629V26.4355L1.03516 22.9072V22.8945L1.03809 22.8838C1.17513 22.3159 1.26482 21.6988 1.47168 21.1338C2.20341 19.1445 3.5832 17.6983 5.57617 16.8076L5.73145 16.7363C4.02617 15.5217 3.18891 13.8975 3.39941 11.8428L3.43359 11.5791C3.63376 10.2744 4.31704 9.19278 5.4043 8.35449L5.61816 8.19922C6.70337 7.44949 8.04176 7.1098 9.37598 7.25195C10.7991 7.40359 12.1026 8.0908 13 9.16406C14.8162 11.3272 14.6284 14.7827 11.8262 16.7266C12.0293 16.8234 12.2224 16.9147 12.4141 17.0107L12.584 17.1094C12.7404 17.2149 12.8552 17.3399 12.918 17.4814C13.0035 17.6743 12.9858 17.8835 12.873 18.085C12.7605 18.2858 12.5926 18.4118 12.3828 18.4512C12.1766 18.4897 11.9417 18.4426 11.6943 18.3232H11.6934C8.10938 16.5702 3.91687 18.2857 2.80664 21.9404C2.57686 22.6968 2.54813 23.4722 2.56641 24.2627V25.499Z" fill="black" stroke="black" stroke-width="0.2"/>
<path d="M8.38965 7.56152C7.37206 7.63481 6.40082 7.99967 5.60352 8.60938C4.48462 9.47429 3.85494 10.5682 3.72168 11.874C3.53774 13.6845 4.21082 15.1831 5.73926 16.3438L6.05664 16.5713L6.05762 16.5723L6.23926 16.6982L6.38477 16.7979L6.22363 16.8711L5.90234 17.0166L5.70605 17.1064C3.79247 17.9656 2.47325 19.3565 1.77637 21.2451L1.77734 21.2461C1.6508 21.6238 1.55118 22.0097 1.47949 22.4004V22.4023C1.44263 22.578 1.4046 22.7564 1.3623 22.9336V26.3789C1.43009 26.4783 1.50901 26.5486 1.6084 26.5947C1.71668 26.645 1.85453 26.6709 2.03613 26.6709H2.04492C4.1903 26.6608 6.37016 26.6618 8.48242 26.6631H10.7705L10.8799 26.6641C10.9167 26.6629 10.9536 26.6602 10.9902 26.6562L11.0713 26.6396C11.1501 26.616 11.22 26.571 11.2725 26.5098C11.3421 26.4284 11.3754 26.3251 11.3662 26.2217V26.2158C11.3628 26.1162 11.3192 26.0207 11.2441 25.9492C11.169 25.8778 11.0673 25.8356 10.96 25.833H10.9551C10.882 25.8272 10.8084 25.8271 10.7295 25.833H2.23535V24.2773L2.23438 23.71C2.24465 23.1233 2.29792 22.4843 2.48828 21.8574C2.75243 20.967 3.21905 20.1438 3.85352 19.4473C4.48808 18.7507 5.27519 18.1978 6.1582 17.8281H6.15918C7.06428 17.4592 8.04305 17.2872 9.02539 17.3242C10.0076 17.3613 10.9696 17.6061 11.8418 18.042L11.9297 18.0811C12.0239 18.1187 12.1325 18.1485 12.2363 18.1475C12.3669 18.1461 12.4895 18.0971 12.5752 17.9395L12.5781 17.9346H12.5791C12.6055 17.8923 12.6221 17.8452 12.6289 17.7969C12.6356 17.7495 12.6311 17.7015 12.6182 17.6553C12.5503 17.5036 12.4243 17.3813 12.2637 17.3154L12.2568 17.3125C12.0956 17.2314 11.9329 17.1537 11.7627 17.0732L11.7617 17.0723L11.3203 16.8613L11.1641 16.7861L11.3076 16.6885L11.4922 16.5625L11.4951 16.5605C12.106 16.1745 12.6262 15.6708 13.0215 15.0811C13.4167 14.4914 13.6784 13.8289 13.791 13.1367L13.833 12.7734C13.8981 11.9252 13.7309 11.073 13.3438 10.3027C12.9012 9.42232 12.1922 8.68938 11.3086 8.2002C10.425 7.71103 9.4075 7.4883 8.38965 7.56152ZM8.7793 8.83008L8.76758 8.83203V8.83105C7.77792 8.83178 6.82958 9.20859 6.12988 9.87793C5.43031 10.5472 5.03602 11.4543 5.03223 12.4004C5.02332 14.3379 6.68203 15.99 8.65527 16H8.67969C10.8582 16 12.4978 14.4642 12.5107 12.4277L12.5068 12.251C12.4649 11.368 12.0841 10.5275 11.4326 9.89453C10.7394 9.22123 9.79637 8.83712 8.80859 8.82715L8.7793 8.83008ZM2.70215 25.3789H10.9941C11.2158 25.3914 11.4257 25.4832 11.582 25.6367C11.7384 25.7904 11.831 25.9956 11.8389 26.2119C11.8467 26.4284 11.7692 26.6397 11.624 26.8037C11.4791 26.9673 11.2768 27.0723 11.0566 27.0996H11.0557C11.0073 27.1055 10.9588 27.1103 10.9102 27.1123H8.4873C6.38088 27.1123 4.20412 27.1107 2.0625 27.1182L2.05273 27.1211L2.04492 27.1221H2.03613C1.77839 27.122 1.55892 27.0808 1.37402 26.9873C1.18778 26.8931 1.04419 26.7488 0.931641 26.5566L0.930664 26.5576L0.914062 26.5283L0.900391 26.5049V22.8691L0.90332 22.8574C0.947354 22.6772 0.98442 22.4953 1.02246 22.3115C1.09858 21.8997 1.20534 21.4932 1.34082 21.0957V21.0938C2.07571 19.0971 3.46819 17.623 5.47461 16.7119C3.80894 15.4553 3.06018 13.8158 3.26172 11.8281C3.40753 10.3929 4.10329 9.18955 5.31836 8.25488V8.25391C6.18838 7.5883 7.24687 7.19026 8.35547 7.11035C9.46411 7.03044 10.5725 7.27238 11.5361 7.80566C12.4996 8.33891 13.2737 9.13901 13.7578 10.1016C14.2116 11.004 14.3906 12.0103 14.2754 13.0039L14.248 13.2031C14.1324 13.9227 13.8683 14.6129 13.4707 15.2324C13.1033 15.8049 12.6277 16.3048 12.0713 16.7109C12.2057 16.7751 12.3382 16.8381 12.4688 16.9043H12.4678C12.6014 16.9621 12.7223 17.0447 12.8232 17.1475C12.9252 17.2513 13.0049 17.3737 13.0576 17.5078L13.0605 17.5156C13.0926 17.6213 13.1018 17.7325 13.0879 17.8418C13.0739 17.951 13.0369 18.0566 12.9795 18.1514C12.8505 18.3808 12.6561 18.526 12.418 18.5752C12.1815 18.624 11.9128 18.5758 11.6348 18.4404H11.6338C10.8221 18.0351 9.9264 17.8062 9.01172 17.7715C8.09738 17.7368 7.18606 17.8958 6.34375 18.2383C5.52274 18.5823 4.7921 19.0973 4.20312 19.7441C3.6141 20.391 3.18124 21.1548 2.93652 21.9805V21.9814C2.76051 22.5613 2.7115 23.1595 2.70215 23.7207V25.3789ZM12.9717 12.4297C12.9609 14.73 11.1101 16.4512 8.68262 16.4512H8.65332C6.39442 16.4396 4.5609 14.6231 4.57031 12.3984V12.3965C4.59391 11.3374 5.0499 10.3301 5.83887 9.5918C6.62778 8.85354 7.68683 8.44322 8.78711 8.44727C9.88723 8.45136 10.9426 8.86939 11.7256 9.61328C12.5087 10.3575 12.9566 11.3684 12.9717 12.4277V12.4297Z" fill="black" stroke="black" stroke-width="0.2"/>
<path d="M18.3369 15.1543C19.1131 15.1621 19.8789 15.3302 20.582 15.6465C21.2851 15.9628 21.9097 16.4201 22.4131 16.9883C22.9166 17.5566 23.2874 18.2223 23.5 18.9404C23.7126 19.6586 23.7616 20.4123 23.6445 21.1504C23.5274 21.8886 23.2467 22.5942 22.8213 23.2188C22.4315 23.791 21.9273 24.2811 21.3408 24.666C22.3218 25.0769 23.2056 25.6759 23.9355 26.4297C25.2474 27.7622 25.9895 29.5208 26.0117 31.3555L26.0205 32.0312C26.0248 32.7072 26.0166 33.3831 26.0117 34.0566C26.0116 34.3281 25.949 34.5479 25.7959 34.6982C25.643 34.8484 25.4189 34.9102 25.1396 34.9102H11.4121C11.1323 34.9101 10.9068 34.8496 10.7529 34.7012C10.598 34.5518 10.5354 34.3327 10.5381 34.0615C10.5511 32.9266 10.4755 31.7561 10.6152 30.6172L10.6494 30.3643C11.0457 27.7769 12.5743 25.9218 15.0322 24.7568C15.0989 24.7208 15.1648 24.6889 15.2334 24.6582C12.4115 22.7337 12.1671 19.1154 14.2217 16.9053L14.4209 16.7012C14.8975 16.2382 15.461 15.8648 16.082 15.6006C16.7919 15.2986 17.5608 15.1465 18.3369 15.1543ZM24.4043 30.7324C23.8522 26.2867 18.4497 24.0349 14.6562 26.6729C13.4255 27.5282 12.7299 28.5649 12.373 29.7188C12.0233 30.8495 11.998 32.0976 12.1201 33.4062L24.4209 33.4092C24.427 32.4779 24.5121 31.5975 24.4043 30.7324ZM19.0283 16.708C18.2784 16.5653 17.5008 16.639 16.7949 16.9199C16.0891 17.2009 15.4871 17.6765 15.0635 18.2852C14.6399 18.8938 14.4141 19.6088 14.4141 20.3398V20.3408C14.41 20.8278 14.5066 21.3109 14.6992 21.7617C14.8919 22.2127 15.1762 22.623 15.5361 22.9678C15.896 23.3126 16.3245 23.5849 16.7959 23.7695C17.2673 23.9541 17.7729 24.0467 18.2822 24.042L18.5684 24.0312C19.2321 23.983 19.8736 23.7711 20.4287 23.4141C21.0629 23.006 21.5559 22.427 21.8467 21.751C22.1375 21.0748 22.2129 20.3313 22.0635 19.6143C21.914 18.8973 21.5469 18.2382 21.0068 17.7207C20.4667 17.2032 19.7781 16.8507 19.0283 16.708Z" fill="black" stroke="black" stroke-width="0.2"/>
<path d="M17.6943 15.1025C18.6672 15.002 19.6503 15.151 20.5439 15.5342C21.4376 15.9175 22.2104 16.5214 22.7822 17.2852C23.3539 18.0489 23.7044 18.945 23.7979 19.8818C23.8913 20.8188 23.724 21.7629 23.3135 22.6172C22.9278 23.4195 22.3388 24.1133 21.6045 24.6416C22.5229 25.0539 23.3517 25.6307 24.043 26.3447C25.3733 27.7032 26.1238 29.4927 26.1455 31.3584C26.16 32.044 26.1563 32.745 26.1523 33.415V34.0615C26.1523 34.3726 26.0737 34.6232 25.8975 34.7949C25.7217 34.9661 25.4663 35.042 25.1494 35.042L18.2861 35.0371H11.4199C11.0978 35.0371 10.8438 34.9616 10.666 34.7881C10.488 34.6143 10.4113 34.3714 10.4141 34.0605V33.0586L10.4043 32.4443C10.4043 31.8291 10.4348 31.2142 10.4961 30.6016V30.5986C10.8267 27.9021 12.3419 25.895 14.9834 24.6367C14.4102 24.2228 13.9234 23.7079 13.5518 23.1172C13.1492 22.4775 12.8893 21.764 12.7891 21.0225V21.0215C12.6725 20.087 12.8168 19.1398 13.2061 18.2764C13.5955 17.4128 14.2163 16.6638 15.0049 16.1064C15.7934 15.5492 16.7215 15.2031 17.6943 15.1025ZM17.5742 25.2637C18.6963 25.1473 19.8307 25.3134 20.8662 25.7451C21.9018 26.1769 22.8035 26.8598 23.4814 27.7275C24.0747 28.4869 24.4792 29.3649 24.666 30.2939L24.7324 30.6953V30.6982C24.7948 31.3367 24.8071 31.9789 24.7686 32.6191C24.7594 32.9126 24.75 33.2147 24.75 33.5137L24.7539 33.6357L24.7578 33.7393H11.8223L11.8125 33.6494L11.8008 33.5352V33.5342C11.5641 31.1152 11.6879 28.344 14.4639 26.4102V26.4092C15.3797 25.7747 16.4519 25.3801 17.5742 25.2637ZM20.6895 26.1602C19.7268 25.7588 18.6708 25.6045 17.627 25.7129C16.5834 25.8213 15.5868 26.1872 14.7363 26.7764L14.7373 26.7773C12.2315 28.5202 12.0422 31.0104 12.2422 33.2881H24.2949C24.2971 33.0555 24.3035 32.8244 24.3115 32.6016V32.5996C24.3482 31.9834 24.3372 31.3655 24.2773 30.751L24.2158 30.3799C24.0427 29.5192 23.6676 28.7054 23.1172 28.001C22.4883 27.1961 21.6519 26.5615 20.6895 26.1602ZM18.2969 16.3145C19.4077 16.3168 20.4728 16.7425 21.2578 17.499C22.043 18.2557 22.4838 19.2819 22.4814 20.3516C22.479 21.4212 22.0335 22.4448 21.2451 23.1982C20.5061 23.9044 19.5226 24.3189 18.4873 24.3662L18.2793 24.3711H18.2773C17.7273 24.3699 17.1827 24.2647 16.6748 24.0615C16.1669 23.8583 15.7051 23.5612 15.3164 23.1865C14.9277 22.8118 14.6201 22.3664 14.4102 21.877C14.2003 21.3876 14.0925 20.8634 14.0938 20.334C14.095 19.8045 14.2049 19.2805 14.417 18.792C14.6292 18.3034 14.9396 17.8594 15.3301 17.4863C16.1186 16.7331 17.186 16.3121 18.2969 16.3145ZM18.2979 16.7656C17.3074 16.7636 16.3572 17.1393 15.6562 17.8086C14.9553 18.4781 14.561 19.3868 14.5586 20.334C14.5562 21.2812 14.9459 22.1915 15.6436 22.8643C16.3414 23.5371 17.2903 23.9176 18.2812 23.9199C19.272 23.9219 20.2219 23.5456 20.9229 22.876C21.6238 22.2063 22.0183 21.2979 22.0205 20.3506C22.0227 19.4034 21.6333 18.4929 20.9355 17.8203C20.2377 17.1477 19.2887 16.7678 18.2979 16.7656ZM10.875 34.0723L10.8721 34.082C10.857 34.1501 10.8603 34.2212 10.8809 34.2881C10.9014 34.3549 10.9394 34.4158 10.9912 34.4658C11.0431 34.516 11.1073 34.5536 11.1787 34.5742C11.2499 34.5948 11.3255 34.5984 11.3984 34.584L11.4082 34.582H25.1455C25.3666 34.582 25.494 34.5388 25.5684 34.4658C25.6422 34.3933 25.6859 34.2693 25.6865 34.0527V33.4043C25.6865 32.7314 25.6941 32.0394 25.6797 31.3594V31.3584C25.6571 29.6064 24.9503 27.9251 23.6973 26.6484H23.6963C22.954 25.8847 22.0475 25.2842 21.0391 24.8896H21.0381L20.8125 24.7979L20.6299 24.7227L20.7979 24.6201L21.002 24.4941C21.6523 24.0948 22.1996 23.5588 22.6025 22.9277C23.0055 22.2967 23.2537 21.5866 23.3291 20.8506C23.4032 20.1279 23.3107 19.3985 23.0576 18.7139C22.8045 18.0292 22.3972 17.4057 21.8643 16.8887V16.8877C21.3964 16.4396 20.8402 16.0846 20.2285 15.8428C19.6164 15.6008 18.9601 15.4775 18.2979 15.4795H18.1406L17.875 15.4932C17.2573 15.5403 16.6532 15.6957 16.0928 15.9521C15.4523 16.2453 14.8827 16.6638 14.4219 17.1807C13.961 17.6976 13.6183 18.3017 13.416 18.9531C13.2138 19.6044 13.1565 20.2891 13.2471 20.9629C13.3442 21.6766 13.6019 22.3619 14.0029 22.9707C14.354 23.5036 14.8079 23.9675 15.3389 24.3369L15.5713 24.4893L15.5723 24.4902L15.7676 24.6162L15.9238 24.7168L15.7539 24.791L15.415 24.9414C15.3339 24.9772 15.262 25.0078 15.1914 25.041V25.04C12.6851 26.2315 11.264 28.1198 10.9541 30.6553C10.8744 31.4513 10.8481 32.2515 10.875 33.0508V34.0723Z" fill="black" stroke="black" stroke-width="0.2"/>
<path d="M24.5518 8.23535C25.6906 7.42043 27.1171 7.0681 28.5234 7.25293C29.9297 7.43781 31.2051 8.14526 32.0742 9.22461V9.22559C33.8327 11.426 33.5956 14.8025 30.8271 16.7324C31.7041 17.099 32.5057 17.6138 33.1914 18.2559L33.4541 18.5117C34.734 19.8201 35.4719 21.5396 35.5156 23.3438H35.5146C35.5487 24.2764 35.527 25.2131 35.5244 26.1416L35.5107 26.332C35.4837 26.5132 35.4145 26.663 35.2959 26.7744C35.1392 26.9215 34.9138 26.9846 34.6387 26.9854H25.7275C25.4683 26.9853 25.2479 26.9186 25.0918 26.7852C24.9336 26.6499 24.8518 26.4556 24.8555 26.2266C24.8591 25.9985 24.9427 25.8113 25.1006 25.6836C25.2557 25.5581 25.4713 25.499 25.7227 25.499H33.9746C33.9897 23.9646 34.1073 22.4674 33.4062 21.0449C31.9167 18.0179 28.0828 16.7396 24.9756 18.2686C24.8928 18.3094 24.7952 18.3641 24.6963 18.3994L24.6953 18.3984C24.5174 18.4793 24.3147 18.492 24.1279 18.4326C23.9378 18.3721 23.7782 18.2424 23.6855 18.0693V18.0684C23.6392 17.983 23.6102 17.8892 23.6016 17.793C23.5929 17.6964 23.605 17.599 23.6357 17.5068C23.6665 17.4146 23.7161 17.3292 23.7812 17.2559C23.8138 17.2193 23.8496 17.1858 23.8887 17.1562L24.0146 17.0791C24.2414 16.9548 24.4819 16.8449 24.7373 16.7236C23.8931 16.1196 23.2593 15.4164 22.8633 14.6055C22.4452 13.7492 22.2936 12.7802 22.4287 11.6992C22.6095 10.267 23.3533 9.10818 24.5508 8.23633L24.5518 8.23535ZM27.7686 8.76758C26.7524 8.77273 25.7793 9.16067 25.0596 9.84668C24.34 10.5325 23.9312 11.4613 23.9189 12.4326L23.917 12.5195C23.9748 14.5607 25.676 16.1292 27.876 16.1221H27.877C29.9634 16.1219 31.6659 14.4331 31.6582 12.3936L31.6494 12.2119C31.5818 11.3076 31.1699 10.4555 30.4883 9.81934C29.7611 9.14073 28.7845 8.76254 27.7686 8.76758Z" fill="black" stroke="black" stroke-width="0.2"/>
<mask id="path-7-outside-1_926_1905" maskUnits="userSpaceOnUse" x="21.3477" y="6.19141" width="15" height="22" fill="black">
<rect fill="white" x="21.3477" y="6.19141" width="15" height="22"/>
<path d="M30.2546 27.0137H25.7299C25.6036 27.0198 25.4774 27.0016 25.3585 26.9601C25.2397 26.9187 25.1307 26.8548 25.038 26.7723C24.9664 26.6999 24.9108 26.6143 24.8745 26.5208C24.8382 26.4272 24.8221 26.3275 24.8271 26.2278C24.8362 25.7663 25.1809 25.4733 25.7247 25.4733H33.942C33.942 25.3124 33.942 25.1502 33.9485 24.9892C33.9734 23.6136 33.997 22.3159 33.3759 21.0546C33.0223 20.3323 32.5197 19.6864 31.8985 19.1558C31.2773 18.6252 30.5505 18.2209 29.7619 17.9676C28.9846 17.7092 28.1608 17.6049 27.3403 17.6608C26.5198 17.7168 25.7196 17.932 24.9883 18.2932L24.9109 18.3322C24.8467 18.3649 24.7799 18.3989 24.7105 18.4278C24.5229 18.5142 24.3076 18.5269 24.1104 18.4629C23.9133 18.399 23.7501 18.2637 23.6556 18.0858C23.6077 17.9976 23.5783 17.9013 23.5693 17.8022C23.5603 17.7032 23.5718 17.6034 23.6031 17.5087C23.6344 17.4139 23.6849 17.326 23.7517 17.25C23.8185 17.1741 23.9003 17.1115 23.9924 17.066C24.1798 16.9628 24.375 16.8723 24.5807 16.7755L24.6816 16.7277C22.9074 15.4451 22.1382 13.7576 22.3963 11.7092C22.5746 10.2996 23.2913 9.13012 24.5296 8.2323C25.3959 7.60999 26.4359 7.24984 27.5167 7.19793C28.5974 7.14602 29.6698 7.40471 30.5964 7.94089C31.5231 8.47708 32.2621 9.26638 32.7187 10.2078C33.1753 11.1493 33.3289 12.2 33.1597 13.2257C33.039 13.9243 32.7761 14.5932 32.386 15.1943C31.996 15.7954 31.4863 16.3169 30.8862 16.729C31.7514 17.0929 32.5407 17.6041 33.216 18.2379C34.6608 19.5793 35.4981 21.4121 35.5472 23.3407C35.5734 24.0348 35.5668 24.7402 35.5603 25.423C35.5603 25.662 35.5603 25.9009 35.5603 26.1398C35.5603 26.7082 35.2405 27.0087 34.643 27.01L30.2546 27.0137ZM29.7855 25.7273H25.7234C25.3303 25.7273 25.0931 25.9109 25.0865 26.2303C25.0817 26.2963 25.0908 26.3624 25.1133 26.4249C25.1358 26.4874 25.1713 26.5448 25.2176 26.5937C25.2862 26.6521 25.3663 26.6969 25.4531 26.7254C25.5399 26.7539 25.6318 26.7656 25.7234 26.7597H34.6338C35.0938 26.7597 35.289 26.5736 35.289 26.141C35.289 25.9009 35.289 25.662 35.289 25.4218C35.289 24.7428 35.3021 24.0386 35.2759 23.3507C35.2282 21.4863 34.4187 19.7146 33.0221 18.4177C32.3138 17.754 31.4781 17.2283 30.5612 16.8698L30.3411 16.7793L30.5376 16.6535C31.827 15.8085 32.6631 14.5774 32.8963 13.1892C33.0575 12.2129 32.9115 11.2126 32.4769 10.3163C32.0424 9.42006 31.339 8.66864 30.4568 8.1582C29.5747 7.64776 28.5539 7.40153 27.525 7.45102C26.4962 7.50051 25.5062 7.84347 24.6816 8.43601C23.5023 9.28982 22.8196 10.4027 22.6519 11.7419C22.3977 13.7538 23.1891 15.4086 25.0027 16.646L25.1796 16.7717L24.9856 16.8648C24.8834 16.9151 24.7851 16.9603 24.6908 17.0056C24.489 17.1012 24.2977 17.1904 24.1169 17.2898C24.0532 17.3186 23.9964 17.3595 23.9498 17.4101C23.9033 17.4608 23.868 17.52 23.8461 17.5841C23.8243 17.6483 23.8164 17.7161 23.8228 17.7833C23.8292 17.8506 23.8499 17.9158 23.8836 17.9751C23.9483 18.0964 24.0605 18.1882 24.1956 18.2304C24.3306 18.2726 24.4776 18.2617 24.6043 18.2002C24.6633 18.1763 24.7209 18.1474 24.7825 18.1159L24.8638 18.0744C25.6266 17.6973 26.4612 17.4727 27.3171 17.4141C28.1729 17.3556 29.0323 17.4643 29.8432 17.7337C30.6655 17.9977 31.4237 18.4188 32.0718 18.9716C32.72 19.5244 33.2447 20.1975 33.6144 20.9503C34.2604 22.2643 34.2368 23.6525 34.2119 24.9955C34.2119 25.1791 34.2054 25.3627 34.204 25.5463C34.2025 25.571 34.1952 25.5952 34.1828 25.6169C34.1703 25.6387 34.153 25.6575 34.132 25.672L34.1136 25.6884L34.0756 25.7273H29.7855ZM27.8593 16.3492C25.5281 16.3492 23.6949 14.6315 23.6844 12.4322C23.678 11.9131 23.7793 11.398 23.9824 10.9168C24.1856 10.4356 24.4865 9.99807 24.8676 9.62964C25.2487 9.2612 25.7025 8.96925 26.2024 8.77079C26.7023 8.57234 27.2383 8.47136 27.7793 8.47373C28.3143 8.46802 28.845 8.56522 29.3401 8.7596C29.8352 8.95398 30.2848 9.24159 30.6621 9.60544C31.0489 9.96777 31.3567 10.4003 31.5677 10.8778C31.7787 11.3553 31.8887 11.8683 31.8913 12.3869C31.8979 13.4285 31.4765 14.4306 30.7185 15.176C30.3511 15.5438 29.9104 15.8369 29.4226 16.0378C28.9348 16.2387 28.4098 16.3433 27.8789 16.3454L27.8593 16.3492ZM27.816 8.72899H27.7819C27.2757 8.72663 26.774 8.82093 26.3061 9.0064C25.8382 9.19187 25.4134 9.46481 25.0565 9.80932C24.6996 10.1538 24.4176 10.563 24.227 11.0131C24.0365 11.4632 23.9411 11.9452 23.9465 12.431C23.957 14.4894 25.6749 16.0977 27.8593 16.0977H27.8737C28.3699 16.0959 28.8606 15.998 29.3165 15.8101C29.7725 15.6221 30.1842 15.3479 30.5272 15.0037C31.2372 14.3058 31.6318 13.3673 31.6253 12.392C31.6221 11.9061 31.5183 11.4256 31.3199 10.9785C31.1215 10.5314 30.8324 10.1267 30.4695 9.78778C29.7661 9.111 28.8121 8.72898 27.816 8.72522V8.72899Z"/>
</mask>
<path d="M30.2546 27.0137H25.7299C25.6036 27.0198 25.4774 27.0016 25.3585 26.9601C25.2397 26.9187 25.1307 26.8548 25.038 26.7723C24.9664 26.6999 24.9108 26.6143 24.8745 26.5208C24.8382 26.4272 24.8221 26.3275 24.8271 26.2278C24.8362 25.7663 25.1809 25.4733 25.7247 25.4733H33.942C33.942 25.3124 33.942 25.1502 33.9485 24.9892C33.9734 23.6136 33.997 22.3159 33.3759 21.0546C33.0223 20.3323 32.5197 19.6864 31.8985 19.1558C31.2773 18.6252 30.5505 18.2209 29.7619 17.9676C28.9846 17.7092 28.1608 17.6049 27.3403 17.6608C26.5198 17.7168 25.7196 17.932 24.9883 18.2932L24.9109 18.3322C24.8467 18.3649 24.7799 18.3989 24.7105 18.4278C24.5229 18.5142 24.3076 18.5269 24.1104 18.4629C23.9133 18.399 23.7501 18.2637 23.6556 18.0858C23.6077 17.9976 23.5783 17.9013 23.5693 17.8022C23.5603 17.7032 23.5718 17.6034 23.6031 17.5087C23.6344 17.4139 23.6849 17.326 23.7517 17.25C23.8185 17.1741 23.9003 17.1115 23.9924 17.066C24.1798 16.9628 24.375 16.8723 24.5807 16.7755L24.6816 16.7277C22.9074 15.4451 22.1382 13.7576 22.3963 11.7092C22.5746 10.2996 23.2913 9.13012 24.5296 8.2323C25.3959 7.60999 26.4359 7.24984 27.5167 7.19793C28.5974 7.14602 29.6698 7.40471 30.5964 7.94089C31.5231 8.47708 32.2621 9.26638 32.7187 10.2078C33.1753 11.1493 33.3289 12.2 33.1597 13.2257C33.039 13.9243 32.7761 14.5932 32.386 15.1943C31.996 15.7954 31.4863 16.3169 30.8862 16.729C31.7514 17.0929 32.5407 17.6041 33.216 18.2379C34.6608 19.5793 35.4981 21.4121 35.5472 23.3407C35.5734 24.0348 35.5668 24.7402 35.5603 25.423C35.5603 25.662 35.5603 25.9009 35.5603 26.1398C35.5603 26.7082 35.2405 27.0087 34.643 27.01L30.2546 27.0137ZM29.7855 25.7273H25.7234C25.3303 25.7273 25.0931 25.9109 25.0865 26.2303C25.0817 26.2963 25.0908 26.3624 25.1133 26.4249C25.1358 26.4874 25.1713 26.5448 25.2176 26.5937C25.2862 26.6521 25.3663 26.6969 25.4531 26.7254C25.5399 26.7539 25.6318 26.7656 25.7234 26.7597H34.6338C35.0938 26.7597 35.289 26.5736 35.289 26.141C35.289 25.9009 35.289 25.662 35.289 25.4218C35.289 24.7428 35.3021 24.0386 35.2759 23.3507C35.2282 21.4863 34.4187 19.7146 33.0221 18.4177C32.3138 17.754 31.4781 17.2283 30.5612 16.8698L30.3411 16.7793L30.5376 16.6535C31.827 15.8085 32.6631 14.5774 32.8963 13.1892C33.0575 12.2129 32.9115 11.2126 32.4769 10.3163C32.0424 9.42006 31.339 8.66864 30.4568 8.1582C29.5747 7.64776 28.5539 7.40153 27.525 7.45102C26.4962 7.50051 25.5062 7.84347 24.6816 8.43601C23.5023 9.28982 22.8196 10.4027 22.6519 11.7419C22.3977 13.7538 23.1891 15.4086 25.0027 16.646L25.1796 16.7717L24.9856 16.8648C24.8834 16.9151 24.7851 16.9603 24.6908 17.0056C24.489 17.1012 24.2977 17.1904 24.1169 17.2898C24.0532 17.3186 23.9964 17.3595 23.9498 17.4101C23.9033 17.4608 23.868 17.52 23.8461 17.5841C23.8243 17.6483 23.8164 17.7161 23.8228 17.7833C23.8292 17.8506 23.8499 17.9158 23.8836 17.9751C23.9483 18.0964 24.0605 18.1882 24.1956 18.2304C24.3306 18.2726 24.4776 18.2617 24.6043 18.2002C24.6633 18.1763 24.7209 18.1474 24.7825 18.1159L24.8638 18.0744C25.6266 17.6973 26.4612 17.4727 27.3171 17.4141C28.1729 17.3556 29.0323 17.4643 29.8432 17.7337C30.6655 17.9977 31.4237 18.4188 32.0718 18.9716C32.72 19.5244 33.2447 20.1975 33.6144 20.9503C34.2604 22.2643 34.2368 23.6525 34.2119 24.9955C34.2119 25.1791 34.2054 25.3627 34.204 25.5463C34.2025 25.571 34.1952 25.5952 34.1828 25.6169C34.1703 25.6387 34.153 25.6575 34.132 25.672L34.1136 25.6884L34.0756 25.7273H29.7855ZM27.8593 16.3492C25.5281 16.3492 23.6949 14.6315 23.6844 12.4322C23.678 11.9131 23.7793 11.398 23.9824 10.9168C24.1856 10.4356 24.4865 9.99807 24.8676 9.62964C25.2487 9.2612 25.7025 8.96925 26.2024 8.77079C26.7023 8.57234 27.2383 8.47136 27.7793 8.47373C28.3143 8.46802 28.845 8.56522 29.3401 8.7596C29.8352 8.95398 30.2848 9.24159 30.6621 9.60544C31.0489 9.96777 31.3567 10.4003 31.5677 10.8778C31.7787 11.3553 31.8887 11.8683 31.8913 12.3869C31.8979 13.4285 31.4765 14.4306 30.7185 15.176C30.3511 15.5438 29.9104 15.8369 29.4226 16.0378C28.9348 16.2387 28.4098 16.3433 27.8789 16.3454L27.8593 16.3492ZM27.816 8.72899H27.7819C27.2757 8.72663 26.774 8.82093 26.3061 9.0064C25.8382 9.19187 25.4134 9.46481 25.0565 9.80932C24.6996 10.1538 24.4176 10.563 24.227 11.0131C24.0365 11.4632 23.9411 11.9452 23.9465 12.431C23.957 14.4894 25.6749 16.0977 27.8593 16.0977H27.8737C28.3699 16.0959 28.8606 15.998 29.3165 15.8101C29.7725 15.6221 30.1842 15.3479 30.5272 15.0037C31.2372 14.3058 31.6318 13.3673 31.6253 12.392C31.6221 11.9061 31.5183 11.4256 31.3199 10.9785C31.1215 10.5314 30.8324 10.1267 30.4695 9.78778C29.7661 9.111 28.8121 8.72898 27.816 8.72522V8.72899Z" fill="black"/>
<path d="M30.2546 27.0137H25.7299C25.6036 27.0198 25.4774 27.0016 25.3585 26.9601C25.2397 26.9187 25.1307 26.8548 25.038 26.7723C24.9664 26.6999 24.9108 26.6143 24.8745 26.5208C24.8382 26.4272 24.8221 26.3275 24.8271 26.2278C24.8362 25.7663 25.1809 25.4733 25.7247 25.4733H33.942C33.942 25.3124 33.942 25.1502 33.9485 24.9892C33.9734 23.6136 33.997 22.3159 33.3759 21.0546C33.0223 20.3323 32.5197 19.6864 31.8985 19.1558C31.2773 18.6252 30.5505 18.2209 29.7619 17.9676C28.9846 17.7092 28.1608 17.6049 27.3403 17.6608C26.5198 17.7168 25.7196 17.932 24.9883 18.2932L24.9109 18.3322C24.8467 18.3649 24.7799 18.3989 24.7105 18.4278C24.5229 18.5142 24.3076 18.5269 24.1104 18.4629C23.9133 18.399 23.7501 18.2637 23.6556 18.0858C23.6077 17.9976 23.5783 17.9013 23.5693 17.8022C23.5603 17.7032 23.5718 17.6034 23.6031 17.5087C23.6344 17.4139 23.6849 17.326 23.7517 17.25C23.8185 17.1741 23.9003 17.1115 23.9924 17.066C24.1798 16.9628 24.375 16.8723 24.5807 16.7755L24.6816 16.7277C22.9074 15.4451 22.1382 13.7576 22.3963 11.7092C22.5746 10.2996 23.2913 9.13012 24.5296 8.2323C25.3959 7.60999 26.4359 7.24984 27.5167 7.19793C28.5974 7.14602 29.6698 7.40471 30.5964 7.94089C31.5231 8.47708 32.2621 9.26638 32.7187 10.2078C33.1753 11.1493 33.3289 12.2 33.1597 13.2257C33.039 13.9243 32.7761 14.5932 32.386 15.1943C31.996 15.7954 31.4863 16.3169 30.8862 16.729C31.7514 17.0929 32.5407 17.6041 33.216 18.2379C34.6608 19.5793 35.4981 21.4121 35.5472 23.3407C35.5734 24.0348 35.5668 24.7402 35.5603 25.423C35.5603 25.662 35.5603 25.9009 35.5603 26.1398C35.5603 26.7082 35.2405 27.0087 34.643 27.01L30.2546 27.0137ZM29.7855 25.7273H25.7234C25.3303 25.7273 25.0931 25.9109 25.0865 26.2303C25.0817 26.2963 25.0908 26.3624 25.1133 26.4249C25.1358 26.4874 25.1713 26.5448 25.2176 26.5937C25.2862 26.6521 25.3663 26.6969 25.4531 26.7254C25.5399 26.7539 25.6318 26.7656 25.7234 26.7597H34.6338C35.0938 26.7597 35.289 26.5736 35.289 26.141C35.289 25.9009 35.289 25.662 35.289 25.4218C35.289 24.7428 35.3021 24.0386 35.2759 23.3507C35.2282 21.4863 34.4187 19.7146 33.0221 18.4177C32.3138 17.754 31.4781 17.2283 30.5612 16.8698L30.3411 16.7793L30.5376 16.6535C31.827 15.8085 32.6631 14.5774 32.8963 13.1892C33.0575 12.2129 32.9115 11.2126 32.4769 10.3163C32.0424 9.42006 31.339 8.66864 30.4568 8.1582C29.5747 7.64776 28.5539 7.40153 27.525 7.45102C26.4962 7.50051 25.5062 7.84347 24.6816 8.43601C23.5023 9.28982 22.8196 10.4027 22.6519 11.7419C22.3977 13.7538 23.1891 15.4086 25.0027 16.646L25.1796 16.7717L24.9856 16.8648C24.8834 16.9151 24.7851 16.9603 24.6908 17.0056C24.489 17.1012 24.2977 17.1904 24.1169 17.2898C24.0532 17.3186 23.9964 17.3595 23.9498 17.4101C23.9033 17.4608 23.868 17.52 23.8461 17.5841C23.8243 17.6483 23.8164 17.7161 23.8228 17.7833C23.8292 17.8506 23.8499 17.9158 23.8836 17.9751C23.9483 18.0964 24.0605 18.1882 24.1956 18.2304C24.3306 18.2726 24.4776 18.2617 24.6043 18.2002C24.6633 18.1763 24.7209 18.1474 24.7825 18.1159L24.8638 18.0744C25.6266 17.6973 26.4612 17.4727 27.3171 17.4141C28.1729 17.3556 29.0323 17.4643 29.8432 17.7337C30.6655 17.9977 31.4237 18.4188 32.0718 18.9716C32.72 19.5244 33.2447 20.1975 33.6144 20.9503C34.2604 22.2643 34.2368 23.6525 34.2119 24.9955C34.2119 25.1791 34.2054 25.3627 34.204 25.5463C34.2025 25.571 34.1952 25.5952 34.1828 25.6169C34.1703 25.6387 34.153 25.6575 34.132 25.672L34.1136 25.6884L34.0756 25.7273H29.7855ZM27.8593 16.3492C25.5281 16.3492 23.6949 14.6315 23.6844 12.4322C23.678 11.9131 23.7793 11.398 23.9824 10.9168C24.1856 10.4356 24.4865 9.99807 24.8676 9.62964C25.2487 9.2612 25.7025 8.96925 26.2024 8.77079C26.7023 8.57234 27.2383 8.47136 27.7793 8.47373C28.3143 8.46802 28.845 8.56522 29.3401 8.7596C29.8352 8.95398 30.2848 9.24159 30.6621 9.60544C31.0489 9.96777 31.3567 10.4003 31.5677 10.8778C31.7787 11.3553 31.8887 11.8683 31.8913 12.3869C31.8979 13.4285 31.4765 14.4306 30.7185 15.176C30.3511 15.5438 29.9104 15.8369 29.4226 16.0378C28.9348 16.2387 28.4098 16.3433 27.8789 16.3454L27.8593 16.3492ZM27.816 8.72899H27.7819C27.2757 8.72663 26.774 8.82093 26.3061 9.0064C25.8382 9.19187 25.4134 9.46481 25.0565 9.80932C24.6996 10.1538 24.4176 10.563 24.227 11.0131C24.0365 11.4632 23.9411 11.9452 23.9465 12.431C23.957 14.4894 25.6749 16.0977 27.8593 16.0977H27.8737C28.3699 16.0959 28.8606 15.998 29.3165 15.8101C29.7725 15.6221 30.1842 15.3479 30.5272 15.0037C31.2372 14.3058 31.6318 13.3673 31.6253 12.392C31.6221 11.9061 31.5183 11.4256 31.3199 10.9785C31.1215 10.5314 30.8324 10.1267 30.4695 9.78778C29.7661 9.111 28.8121 8.72898 27.816 8.72522V8.72899Z" stroke="black" stroke-width="0.4" mask="url(#path-7-outside-1_926_1905)"/>
<path d="M18.2725 1.02539C18.9837 1.02336 19.6889 1.1558 20.3467 1.41602C21.0046 1.67635 21.6037 2.0588 22.1074 2.54199C22.6112 3.02519 23.0101 3.6001 23.2822 4.23242C23.5542 4.86465 23.6931 5.54231 23.6914 6.22656C23.6901 7.25436 23.3717 8.25891 22.7764 9.1123C22.1811 9.96547 21.3361 10.6295 20.3486 11.0215C19.3611 11.4135 18.2744 11.5156 17.2266 11.3154C16.179 11.1153 15.2163 10.6218 14.46 9.89648C13.7034 9.17085 13.1871 8.24511 12.9775 7.2373C12.7681 6.22958 12.8745 5.18483 13.2832 4.23535C13.6919 3.2859 14.3844 2.47444 15.2725 1.90332C16.1604 1.33234 17.2043 1.02725 18.2725 1.02539ZM19.0293 2.57715C18.2778 2.4357 17.4996 2.51127 16.793 2.79395C16.0862 3.07677 15.4828 3.55428 15.0596 4.16504C14.6365 4.77557 14.4117 5.49225 14.4131 6.22461V6.22559C14.4124 6.71305 14.5122 7.19601 14.707 7.64648C14.9019 8.09694 15.188 8.50623 15.5488 8.85059C15.9097 9.19499 16.3388 9.46742 16.8105 9.65234C17.2822 9.83722 17.7872 9.93108 18.2969 9.92773H18.2979C19.0638 9.92502 19.8115 9.70489 20.4463 9.29492C21.0812 8.88481 21.5742 8.30313 21.8643 7.625C22.1543 6.94692 22.2284 6.20157 22.0771 5.4834C21.9259 4.76537 21.5559 4.10628 21.0137 3.58887C20.4713 3.07132 19.781 2.71868 19.0293 2.57715Z" fill="black" stroke="black" stroke-width="0.2"/>
<path d="M18.2852 0.901367C19.732 0.926607 21.112 1.49412 22.1289 2.48438C23.1459 3.47474 23.7185 4.80898 23.7236 6.20117C23.7287 7.59332 23.1659 8.93153 22.1562 9.92871C21.1466 10.9257 19.7707 11.5031 18.3242 11.5381H18.0176C17.3743 11.522 16.7381 11.3982 16.1377 11.1719C15.4515 10.9131 14.8253 10.5254 14.2969 10.0312C13.7685 9.53704 13.3482 8.94569 13.0605 8.29297C12.773 7.64029 12.6245 6.93839 12.623 6.22949C12.6217 5.52068 12.7678 4.81869 13.0527 4.16504C13.3378 3.51135 13.7559 2.91895 14.2822 2.42285C14.8086 1.92678 15.4331 1.53663 16.1182 1.27539C16.8027 1.01444 17.5343 0.888487 18.2705 0.902344V0.901367H18.2852ZM18.2686 1.35254C17.5918 1.3393 16.919 1.45571 16.29 1.69531C15.6612 1.93489 15.0888 2.29262 14.6064 2.74707C14.1241 3.20156 13.7412 3.74392 13.4805 4.3418C13.2198 4.9397 13.0865 5.58163 13.0879 6.22949C13.0893 6.87725 13.2252 7.51842 13.4883 8.11523C13.7515 8.71216 14.1367 9.2534 14.6211 9.70605C15.1054 10.1587 15.6797 10.5138 16.3096 10.751C16.9395 10.9881 17.6124 11.1028 18.2891 11.0869H18.3174C19.6452 11.0541 20.9069 10.5236 21.8311 9.61035C22.755 8.69734 23.2682 7.47401 23.2637 6.20312C23.259 4.93206 22.7365 3.71152 21.8057 2.80469C20.933 1.95457 19.7668 1.44263 18.5303 1.3623L18.2812 1.35254H18.2686ZM18.29 2.18457C19.3898 2.20344 20.4389 2.63647 21.2109 3.39062C21.983 4.14489 22.4169 5.16065 22.417 6.21973C22.417 7.27895 21.9831 8.29544 21.2109 9.0498C20.4389 9.80391 19.3898 10.236 18.29 10.2549H18.2676V10.2539C17.7136 10.2622 17.1634 10.1666 16.6484 9.96973C16.1304 9.77156 15.6581 9.47602 15.2598 9.10059C14.8615 8.72514 14.5443 8.27685 14.3281 7.78223C14.112 7.28772 14.001 6.75622 14.001 6.21973C14.001 5.6832 14.112 5.15174 14.3281 4.65723C14.5443 4.16272 14.8616 3.71522 15.2598 3.33984C15.6581 2.96441 16.1304 2.66887 16.6484 2.4707C17.1658 2.27286 17.7188 2.17528 18.2754 2.18457H18.29ZM18.2822 2.63672C17.7849 2.6279 17.2901 2.71415 16.8281 2.89062C16.3662 3.0671 15.9461 3.33025 15.5918 3.66406C15.2374 3.99792 14.9556 4.39608 14.7637 4.83496C14.5719 5.27359 14.4737 5.74434 14.4736 6.21973C14.4736 6.6953 14.5718 7.16668 14.7637 7.60547C14.9556 8.04436 15.2374 8.4425 15.5918 8.77637C15.9461 9.11017 16.3663 9.37335 16.8281 9.5498C17.2901 9.72628 17.7849 9.81253 18.2822 9.80371H18.3018C19.2825 9.78623 20.2164 9.40006 20.9023 8.72949C21.5882 8.05899 21.9717 7.15747 21.9717 6.21973C21.9716 5.28217 21.588 4.38133 20.9023 3.71094C20.2591 3.08212 19.3978 2.70269 18.4844 2.64355L18.3018 2.63672H18.2822Z" fill="black" stroke="black" stroke-width="0.2"/>
</svg>
