<svg width="31" height="34" viewBox="0 0 31 34" fill="none" xmlns="http://www.w3.org/2000/svg">
<circle cx="23.5" cy="25.5" r="6.5" fill="#F48F38"/>
<path d="M15.931 0H16.4178C17.277 0.39079 17.0494 1.25053 17.0943 1.9707H20.3599C20.3599 1.58103 20.3354 1.20698 20.3671 0.837408C20.4028 0.410888 20.6998 0.187579 21.0161 0H21.5009C22.3499 0.389674 22.1397 1.2282 22.1723 1.98856C22.4846 1.98856 22.7755 1.9774 23.0643 1.98856C23.597 2.0109 24.145 1.97182 24.6593 2.09129C26.2207 2.45528 27.2503 3.92577 27.2524 5.72229C27.2565 9.87434 27.2565 14.026 27.2524 18.1773C27.2524 18.3593 27.2646 18.4955 27.432 18.624C30.1873 20.665 31.3823 23.4954 30.8792 27.1041C30.2751 31.4341 26.2533 34.576 22.307 33.8302C19.5068 33.3009 17.5444 31.5803 16.4167 28.7276C16.398 28.6505 16.3541 28.5837 16.2934 28.5396C16.2326 28.4956 16.1593 28.4775 16.0871 28.4886C15.5228 28.4998 14.9574 28.4886 14.3921 28.4886C10.5264 28.4886 6.66112 28.4886 2.79616 28.4886C1.41747 28.4886 0.363297 27.5585 0.0561273 26.0925C0.0403444 26.0293 0.0216107 25.9671 0 25.906V5.17071C0.014287 5.1428 0.0397994 5.116 0.0428609 5.08586C0.218386 3.51041 1.55728 1.91487 3.52888 1.98745C4.03913 2.00643 4.54938 1.98745 5.08207 1.98745C5.11677 1.2282 4.91063 0.391907 5.75764 0H6.24238C7.10164 0.39079 6.87407 1.25053 6.91897 1.9707H10.1846C10.1846 1.58103 10.1601 1.20698 10.1917 0.837408C10.2274 0.410888 10.5244 0.187579 10.8407 0H11.3255C12.1837 0.39079 11.9561 1.25053 12.0021 1.9707H15.2575C15.2952 1.2282 15.0829 0.39079 15.931 0ZM25.4287 10.625H1.82465V25.3232C1.82465 26.1238 2.16958 26.5045 2.89413 26.5045H15.8953C15.7269 23.6015 16.5606 21.1864 18.5639 19.3307C20.5671 17.475 22.8826 16.986 25.4287 17.6358V10.625ZM23.451 31.9332C24.5884 31.9309 25.6997 31.5599 26.6444 30.8669C27.5891 30.1738 28.3248 29.1899 28.7586 28.0395C29.1924 26.8892 29.3047 25.6239 29.0814 24.4037C28.8581 23.1834 28.3093 22.063 27.5041 21.184C26.699 20.305 25.6738 19.7068 24.5581 19.4651C23.4423 19.2234 22.2862 19.349 21.2356 19.8261C20.1851 20.3031 19.2875 21.1102 18.6561 22.1452C18.0247 23.1803 17.6879 24.397 17.6883 25.6414C17.6918 27.3112 18.3004 28.9114 19.3808 30.0908C20.4611 31.2703 21.9249 31.9329 23.451 31.9332ZM22.1683 3.98271C22.1683 4.30651 22.1683 4.59234 22.1683 4.87595C22.1683 5.51684 21.7856 5.96569 21.257 5.96346C20.7283 5.96123 20.3569 5.51684 20.3528 4.86813C20.3528 4.5756 20.3528 4.28306 20.3528 3.99388H17.0872V4.76541C17.0872 5.50121 16.7423 5.95788 16.1861 5.96346C15.6299 5.96904 15.2677 5.50791 15.2677 4.78104C15.2677 4.51977 15.2677 4.2585 15.2677 3.99946H11.9949C11.9949 4.32214 11.9949 4.61914 11.9949 4.91726C11.9868 5.52577 11.5939 5.96904 11.0765 5.96123C10.5591 5.95341 10.1907 5.51461 10.1815 4.92284C10.1815 4.61691 10.1815 4.31098 10.1815 3.99499H6.91591C6.91591 4.30093 6.91591 4.58676 6.91591 4.87148C6.91591 5.51349 6.53628 5.96234 6.00665 5.96123C5.47701 5.96011 5.10453 5.51461 5.10044 4.86813C5.10044 4.5756 5.10044 4.28195 5.10044 3.9749C4.48815 3.9749 3.92687 3.96931 3.3656 3.9749C3.16189 3.96985 2.95936 4.01006 2.77026 4.09307C2.58115 4.17608 2.40939 4.30019 2.26536 4.45788C2.12133 4.61557 2.00801 4.80358 1.93226 5.01054C1.85652 5.2175 1.81991 5.43912 1.82465 5.66199C1.81751 6.51168 1.82465 7.36137 1.82465 8.21218V8.59739H25.4349C25.4349 7.55789 25.4543 6.54295 25.4298 5.52912C25.4153 5.13116 25.2662 4.75328 25.0114 4.46879C24.7567 4.18429 24.4144 4.01345 24.0511 3.98941C23.4388 3.95703 22.8234 3.98271 22.1683 3.98271Z" fill="black"/>
<path d="M5.54503 19.5451C5.29399 19.5451 5.04193 19.5518 4.79088 19.5451C4.66927 19.5486 4.54825 19.5254 4.43501 19.4768C4.32177 19.4281 4.21863 19.355 4.13173 19.2619C4.04483 19.1687 3.97593 19.0574 3.92915 18.9346C3.88236 18.8117 3.85864 18.6798 3.85939 18.5467C3.86015 18.4136 3.88536 18.282 3.93353 18.1598C3.9817 18.0375 4.05185 17.9272 4.1398 17.8352C4.22775 17.7432 4.33171 17.6716 4.44549 17.6245C4.55927 17.5774 4.68055 17.5558 4.80211 17.561C5.29501 17.552 5.78791 17.5532 6.28081 17.561C6.402 17.5581 6.52248 17.5819 6.63514 17.6309C6.74779 17.6798 6.85034 17.753 6.93671 17.846C7.02309 17.9391 7.09155 18.0501 7.13805 18.1726C7.18454 18.2951 7.20813 18.4265 7.20742 18.5592C7.20742 19.1174 6.80739 19.5339 6.26958 19.5462C6.02875 19.5507 5.78689 19.5451 5.54503 19.5451Z" fill="black"/>
<path d="M10.9371 17.5616C11.1882 17.5616 11.4402 17.5549 11.6913 17.5616C11.9264 17.5681 12.15 17.6744 12.3148 17.858C12.4796 18.0416 12.5727 18.2881 12.5744 18.5455C12.5761 18.8028 12.4863 19.0508 12.324 19.237C12.1617 19.4232 11.9395 19.5331 11.7045 19.5434C11.1943 19.5568 10.6779 19.5568 10.1656 19.5434C9.93056 19.5328 9.70849 19.4226 9.54637 19.236C9.38425 19.0495 9.29479 18.8013 9.29691 18.5439C9.29903 18.2865 9.39256 18.04 9.55773 17.8567C9.7229 17.6734 9.94675 17.5676 10.182 17.5616C10.433 17.5549 10.6851 17.5616 10.9371 17.5616Z" fill="black"/>
<path d="M16.3176 19.5469C16.0656 19.5469 15.8135 19.5547 15.5625 19.5469C15.3221 19.5469 15.0916 19.4424 14.9217 19.2565C14.7517 19.0706 14.6562 18.8184 14.6562 18.5554C14.6562 18.2924 14.7517 18.0403 14.9217 17.8543C15.0916 17.6684 15.3221 17.5639 15.5625 17.5639C16.0727 17.5528 16.5891 17.5505 17.1024 17.5639C17.3425 17.5639 17.5727 17.6683 17.7424 17.854C17.9122 18.0397 18.0076 18.2916 18.0076 18.5543C18.0076 18.817 17.9122 19.0689 17.7424 19.2546C17.5727 19.4403 17.3425 19.5447 17.1024 19.5447C16.8432 19.5558 16.5809 19.5469 16.3176 19.5469Z" fill="black"/>
<path d="M10.9339 13.0953C11.1962 13.0953 11.4595 13.083 11.7207 13.0953C11.9503 13.1017 12.169 13.2039 12.3319 13.381C12.4949 13.558 12.5898 13.7966 12.5973 14.0477C12.6088 14.2989 12.5297 14.5449 12.377 14.7329C12.2243 14.9208 12.0102 15.0356 11.7809 15.0526C11.2167 15.0872 10.6511 15.0872 10.0869 15.0526C9.85786 15.0348 9.64427 14.9197 9.49173 14.732C9.33919 14.5442 9.25979 14.2987 9.27049 14.0477C9.27872 13.7967 9.37407 13.5587 9.53712 13.3819C9.70017 13.2052 9.91867 13.1031 10.1481 13.0964C10.4083 13.083 10.6716 13.0953 10.9339 13.0953Z" fill="black"/>
<path d="M16.3161 15.0661C16.0334 15.0661 15.7487 15.0907 15.4691 15.0661C15.2431 15.0417 15.034 14.9245 14.8839 14.738C14.7339 14.5516 14.654 14.3098 14.6605 14.0614C14.667 13.8131 14.7593 13.5767 14.9188 13.3999C15.0784 13.2231 15.2932 13.1191 15.5201 13.1088C16.0538 13.0887 16.5896 13.0887 17.1243 13.1088C17.3523 13.1196 17.5681 13.2249 17.7277 13.4034C17.8873 13.5819 17.9788 13.8201 17.9836 14.0698C17.9884 14.3194 17.9061 14.5617 17.7535 14.7474C17.601 14.9331 17.3895 15.0482 17.1621 15.0695C16.8825 15.0963 16.5977 15.0695 16.3161 15.0695V15.0661Z" fill="black"/>
<path d="M21.7342 13.0943C21.9873 13.0943 22.2394 13.0843 22.4914 13.0943C22.7262 13.0981 22.9503 13.2019 23.1162 13.3838C23.282 13.5656 23.3764 13.8111 23.3793 14.0679C23.3862 14.32 23.3024 14.5649 23.1459 14.7499C22.9894 14.9349 22.7727 15.0453 22.5425 15.0572C21.9888 15.0901 21.4338 15.0901 20.8801 15.0572C20.6501 15.043 20.4343 14.9306 20.2793 14.7441C20.1244 14.5576 20.0425 14.312 20.0514 14.0601C20.0565 13.8033 20.153 13.5588 20.3203 13.3786C20.4876 13.1984 20.7127 13.0968 20.9474 13.0954C21.2148 13.0843 21.472 13.0943 21.7342 13.0943Z" fill="black"/>
<path d="M5.55389 22.0406C5.81616 22.0406 6.07945 22.0283 6.3407 22.0406C6.57076 22.0485 6.78931 22.1526 6.95141 22.3314C7.11351 22.5102 7.20683 22.7502 7.2122 23.002C7.22337 23.2541 7.14332 23.501 6.98938 23.689C6.83544 23.8771 6.61999 23.9913 6.38968 24.0068C5.8258 24.042 5.26055 24.042 4.69668 24.0068C4.46625 23.9893 4.2514 23.8733 4.09861 23.6837C3.94582 23.4942 3.86738 23.2465 3.88028 22.9941C3.88984 22.7432 3.98646 22.5057 4.15046 22.33C4.31447 22.1543 4.53352 22.0536 4.76301 22.0484C5.02834 22.0283 5.29673 22.0395 5.55389 22.0406Z" fill="black"/>
<path d="M10.936 22.0406C11.1983 22.0406 11.4615 22.0283 11.7228 22.0406C11.9522 22.0476 12.1705 22.1502 12.3331 22.3275C12.4956 22.5047 12.5902 22.7432 12.5974 22.9941C12.6088 23.2453 12.5297 23.4914 12.377 23.6793C12.2243 23.8673 12.0103 23.9821 11.781 23.999C11.2167 24.0342 10.6511 24.0342 10.0869 23.999C9.85781 23.9815 9.64406 23.8665 9.49147 23.6787C9.33888 23.4909 9.25957 23.2452 9.27053 22.9941C9.27905 22.7431 9.37483 22.5051 9.53832 22.3287C9.70181 22.1523 9.92066 22.0509 10.1502 22.0451C10.4104 22.0283 10.6737 22.0406 10.936 22.0406Z" fill="black"/>
<path d="M24.3477 24.6487C25.0478 24.6487 25.703 24.6487 26.3581 24.6487C26.9704 24.6487 27.3786 25.063 27.3735 25.6536C27.3684 26.2443 26.9592 26.634 26.3663 26.6351C25.4288 26.6351 24.4906 26.6351 23.5517 26.6351C22.9007 26.6351 22.5312 26.2365 22.5312 25.5342C22.5312 24.4965 22.5312 23.4589 22.5312 22.4212C22.5312 21.7815 22.9129 21.3326 23.4436 21.336C23.9742 21.3393 24.3447 21.7826 24.3467 22.4302C24.3498 23.1582 24.3477 23.8839 24.3477 24.6487Z" fill="black"/>
</svg>
