<svg width="89" height="88" viewBox="0 0 89 88" fill="none" xmlns="http://www.w3.org/2000/svg">
<path d="M84.5677 0C85.6231 0.314444 86.4299 0.0588143 87.2956 0.941069C88.2267 1.89119 87.7927 2.64224 88.1498 3.7575C88.082 5.56951 88.2425 7.4132 88.1498 9.22295C88.1227 9.76135 88.0323 10.5757 87.9781 11.1865C87.6775 14.564 86.9294 17.9052 86.0976 21.1764C76.5737 20.1539 68.069 11.7815 67 2.22599C69.9743 1.52245 72.9305 0.739735 75.9749 0.366474C77.0326 0.235267 78.2665 0.0610779 79.279 0.00226095H84.5677V0Z" fill="#F48F38"/>
<path d="M84.3993 26.1353C82.0556 32.1097 78.7016 37.6476 74.7442 42.6832C66.687 52.9332 56.1098 61.1834 45.0399 67.9587L44.5609 67.8207L38.9401 62.1788C42.9833 52.0396 36.1895 45.192 26.0531 49.2752L20.4526 43.6039C20.3622 43.2601 22.1364 40.5839 22.4732 40.05C31.9655 25.0268 45.4536 11.1664 61.9702 4.10156C64.106 15.0551 73.3181 24.3821 84.3993 26.1353ZM56.5596 18.324C46.0163 18.6746 40.4769 31.2479 47.2165 39.3646C52.9074 46.219 63.9455 45.1581 68.2238 37.349C73.0107 28.6101 66.5016 17.9937 56.5618 18.324H56.5596Z" fill="#F48F38"/>
<path d="M31.6615 53.161C37.6168 52.937 34.36 60.7687 32.118 63.3702C28.9968 66.992 22.75 72.0955 18.7089 74.7128C16.9958 75.8236 13.5763 78.3866 11.7456 76.5882C9.91498 74.7898 12.0011 72.0525 13.0227 70.3853C14.7855 67.5055 17.1156 64.5647 19.3169 61.9993C22.4426 58.3595 26.4746 53.3578 31.6593 53.1632L31.6615 53.161Z" fill="#F48F38"/>
<path d="M13.7489 44.7293C12.3295 44.5664 10.691 44.4714 9.25807 44.5822C7.52233 44.7157 4.47579 45.8672 3.02708 45.7065C1.3162 45.5165 0.258468 43.4398 1.14442 41.9242C6.03748 37.0853 10.6096 30.8191 17.4373 28.6881C19.4487 28.0592 22.3281 27.4778 24.1791 28.6202C20.4613 33.8029 16.8068 39.0964 13.7489 44.727V44.7293Z" fill="#F48F38"/>
<path d="M59.4127 64.3997C59.9257 64.2776 60.1721 66.3497 60.1789 66.7094C60.3212 75.4007 52.0471 81.3978 46.6885 87.0171C44.9166 88.0871 42.8983 87.0601 42.7672 84.9834C42.6361 82.9067 43.513 80.1129 43.626 77.9706C43.6825 76.8983 43.5108 75.869 43.5379 74.8103C49.0051 71.6184 54.4067 68.2771 59.415 64.3975L59.4127 64.3997Z" fill="#F48F38"/>
<path d="M40.2176 70.8798L31.7332 75.1123C30.2551 75.3499 29.5342 74.5106 28.6211 73.5288L36.0386 66.6133L40.2176 70.8775V70.8798Z" fill="#F48F38"/>
<path d="M17.53 48.1641L21.6185 52.1772L14.7117 59.604C12.3634 57.8462 13.4709 56.2061 14.4811 54.0797C15.4281 52.0867 16.7345 50.234 17.53 48.1641Z" fill="#F48F38"/>
<path d="M56.9074 23.4395C67.6111 23.2246 66.9896 40.3268 55.7344 38.6957C46.902 37.4153 47.5439 23.6295 56.9074 23.4395Z" fill="#F48F38"/>
</svg>
