<svg width="63" height="88" viewBox="0 0 63 88" fill="none" xmlns="http://www.w3.org/2000/svg">
<path d="M23.8072 87.6348L14.1092 79.7941L1.57031 80.441L8.51779 58.6855L10.1269 59.2941L14.7624 66.8973L23.8863 65.8974L29.5478 69.4875L23.979 87.6348H23.8072Z" fill="#F48F38"/>
<path d="M39.0339 87.6348L33.4062 69.5984L39.1265 65.8997L48.2504 66.8973L52.8858 59.2941L54.495 58.6855L61.4425 80.441L48.9036 79.7941L39.2056 87.6348H39.0339Z" fill="#F48F38"/>
<path d="M49.5136 9.68218L56.7956 12.1525L57.5911 19.8326L62.943 25.0809L60.4343 32.2498L62.943 39.4187L57.5911 44.8366L56.7368 52.372L49.543 54.9305L45.4161 61.423L37.9239 60.595L31.4285 64.529L25.2223 60.6222L17.477 61.3642L13.4586 54.9305L6.26029 52.3765L5.4105 44.8366L0.0585938 39.4187L2.5673 32.2498L0.0585938 25.0809L5.4105 19.8326L6.20599 12.1525L13.488 9.68218L17.4702 3.31185L25.0438 4.05384L31.4443 0L37.9556 4.05384L45.5291 3.31185L49.5113 9.68218H49.5136ZM30.4408 10.1256C13.0789 11.0847 3.33345 30.7205 13.4021 45.056C22.7362 58.3464 43.0227 57.299 50.8606 43.0631C59.1958 27.9267 47.6672 9.17318 30.4408 10.1256Z" fill="#F48F38"/>
<path d="M30.6126 15.2603C43.7866 14.4912 52.6867 28.7452 46.4738 40.3819C40.523 51.5277 24.6595 52.3738 17.5086 41.9723C9.94638 30.9735 17.4024 16.0294 30.6126 15.2603Z" fill="#F48F38"/>
</svg>
