<svg width="89" height="88" viewBox="0 0 89 88" fill="none" xmlns="http://www.w3.org/2000/svg">
<path d="M88.6111 29.4668V75.3259C88.6111 80.8366 83.0061 86.8473 77.5344 87.3924C55.6049 87.7906 33.5534 87.7408 11.6193 87.4173C6.07535 86.8948 0.386719 80.9316 0.386719 75.3259V29.4668H88.6111ZM43.1994 41.0017C34.7693 42.221 35.4541 56.0996 44.5667 56.0136C55.0467 55.9141 54.4523 39.3752 43.1994 41.0017ZM37.4565 62.3568C35.1919 62.7413 30.8096 67.682 30.0661 69.8537C29.0829 72.7244 30.7011 75.8598 33.82 76.1403C40.546 76.7443 48.167 75.672 54.9879 76.1335C63.1468 73.6044 56.6491 65.0284 51.8554 62.7549C49.6858 61.7256 48.8925 62.7911 46.8697 63.1621C44.7294 63.5535 42.8106 63.4178 40.6952 62.9766C39.4793 62.7233 38.8645 62.117 37.4565 62.3568Z" fill="#F48F38"/>
<path d="M88.6111 22.1099H0.386719V12.3282C0.386719 6.7225 6.07309 0.759365 11.6193 0.236799C32.864 -0.240523 54.172 0.177982 75.4416 0.0241528C81.754 -0.179444 88.6133 5.92847 88.6133 12.3282V22.1099H88.6111ZM14.6953 7.43735C9.89939 7.86038 10.6542 15.407 15.701 14.7352C20.1963 14.1357 19.5996 7.00527 14.6953 7.43735ZM29.0377 7.43509C24.287 7.95313 24.956 15.4161 30.048 14.7352C34.5455 14.1357 33.7884 6.91705 29.0377 7.43509Z" fill="#F48F38"/>
</svg>
