<svg width="87" height="87" viewBox="0 0 87 87" fill="none" xmlns="http://www.w3.org/2000/svg">
<path d="M0.14679 44.3818L0.70277 41.9771C2.41591 35.8285 7.72257 31.5801 14.0191 30.8471L11.3681 30.035C-0.829565 24.5402 6.99708 6.20963 19.38 11.3652C28.8159 15.2946 26.8225 29.5351 16.7267 30.682C16.9301 31.1729 17.6194 30.9851 18.0895 31.0937C19.8388 31.4987 21.665 32.08 23.1385 33.1297C21.6446 35.8308 20.6321 39.1607 20.44 42.2599C20.0874 47.9674 20.6818 54.0708 20.4897 59.8168C20.9621 62.2554 22.4402 64.6262 24.8178 65.5537L24.863 65.7799L22.9713 84.547C22.6571 85.8093 21.839 86.5558 20.5395 86.6825C18.2319 86.9088 12.2902 86.954 10.0369 86.678C8.03672 86.4337 7.73387 84.7099 7.58922 83.0359L5.53481 61.5767C5.36531 61.0564 2.74136 61.4093 2.00005 61.2193C0.978498 60.9592 0.641748 60.2488 0.144531 59.439V44.3841L0.14679 44.3818Z" fill="#F48F38"/>
<path d="M44.9742 0.0593825C50.6673 0.670174 55.5965 5.84154 56.1186 11.4993C57.2713 24.0024 41.4598 30.5175 33.4749 20.6091C27.3456 13.0059 32.2771 1.0932 41.9299 0.0593825C42.6779 -0.0197942 44.2284 -0.0197942 44.9742 0.0593825Z" fill="#F48F38"/>
<path d="M40.9155 25.7737V43.7898C40.9155 43.9007 41.5257 44.8734 41.6997 45.034C42.6851 45.9412 44.2423 45.9842 45.2322 45.0612C45.3633 44.939 45.9894 43.8622 45.9894 43.7876V25.7715C54.1008 26.6424 60.6573 33.8498 61.2132 41.9281C61.5884 47.3641 60.933 53.1983 61.22 58.6773C61.1703 59.089 60.8155 59.9057 60.5443 60.1998C60.4222 60.331 59.3442 60.9576 59.2718 60.9576H52.9278L51.0564 84.5455C50.7333 85.8123 49.9219 86.552 48.6223 86.6787C46.3148 86.9049 40.3731 86.9502 38.1198 86.6742C36.9739 86.5339 36.2032 85.7512 35.8778 84.688L33.9793 60.9576H27.6353C27.5607 60.9576 26.4849 60.3332 26.3629 60.1998C26.0894 59.9057 25.7368 59.089 25.6871 58.6773C25.9719 53.1983 25.3187 47.3641 25.6939 41.9281C26.2498 33.8475 32.8109 26.656 40.9177 25.7715L40.9155 25.7737Z" fill="#F48F38"/>
<path d="M72.8943 30.6799C72.8469 30.8925 73.0683 30.8903 73.2266 30.9332C75.5183 31.5667 76.8811 31.587 79.096 32.8471C89.1895 38.5885 86.4073 49.4018 86.7531 59.1722C86.4774 60.3123 85.6705 61.1561 84.484 61.3009C83.867 61.3755 81.5436 61.0498 81.3741 61.5746L79.3197 83.0338C79.1773 84.7123 78.8677 86.4338 76.8721 86.6759C74.8764 86.9179 67.8792 86.9473 66.0508 86.6623C65.0044 86.4994 64.2563 85.6669 63.9648 84.6897L62.0934 65.5538C64.5614 64.5856 66.0757 62.0746 66.4621 59.5205C65.8858 50.784 68.2069 41.0769 63.7749 33.1298C65.2846 32.0938 67.0498 31.5033 68.8239 31.0939C69.294 30.9853 69.9833 31.1708 70.1867 30.6821C62.5025 29.8293 58.7033 20.5815 63.5195 14.4554C67.9109 8.86784 76.6054 9.36778 80.2396 15.4689C83.9868 21.7601 80.0949 29.8361 72.8943 30.6821V30.6799Z" fill="#F48F38"/>
</svg>
