<svg width="87" height="89" viewBox="0 0 87 89" fill="none" xmlns="http://www.w3.org/2000/svg">
<path d="M37.2241 76.2206L42.601 66.8915C43.445 65.7823 44.8429 65.0649 46.2161 64.9442C49.3892 64.664 54.9671 64.7073 58.1714 64.9442C59.9734 65.0763 61.5052 65.8711 62.702 67.2309C65.9622 70.9297 68.673 76.7399 71.7053 80.769C73.2572 84.5203 70.6491 88.3489 66.7258 88.4104H9.86143C9.14689 88.4195 8.51496 88.0483 7.99245 87.5882L0.37585 63.7279C0.127992 62.1085 0.695149 60.9287 2.3721 60.7625C9.85249 60.0245 18.4873 61.341 26.0905 60.7625C27.1735 60.7442 27.7184 61.6484 28.089 62.5413C30.4292 68.1966 32.0615 75.6034 34.0108 81.5867C34.2096 82.1994 34.9732 84.9575 35.3796 85.0988C35.6699 85.199 36.7864 85.2081 36.9673 84.9507C36.3018 81.4045 38.211 79.3797 41.5828 79.1223C47.2723 78.6873 53.4777 79.4708 59.2231 79.1178C60.19 78.9629 60.7103 77.8856 60.2235 77.0269C60.1342 76.872 59.3504 76.2183 59.2343 76.2183H37.2241V76.2206Z" fill="#F48F38"/>
<path d="M8.89119 57.8597L24.6782 30.6081C25.0957 30.2527 26.507 28.3441 26.9558 28.4238C32.882 33.8878 41.997 31.8015 45.7081 24.8047C47.2556 25.1327 48.6779 25.7271 50.0445 26.5175C52.1859 27.7565 60.8408 33.6828 62.0734 35.3341C64.5498 38.6594 62.4396 42.1032 61.3768 45.4991C61.1557 45.7906 61.1981 45.6198 61.0195 45.4991C60.5885 45.2098 60.1241 44.5015 59.6842 44.1325C58.465 43.1099 56.9779 42.1829 55.4237 41.8458C56.0668 37.8873 50.8752 38.0467 48.4569 36.5913L48.9861 41.675C44.4644 42.7614 40.885 46.7882 40.128 51.4551C39.5028 55.3019 40.6058 58.5817 42.9348 61.579C43.1201 61.8159 43.9999 62.5083 43.819 62.7634C39.0226 64.6675 37.7409 70.8763 34.818 74.7619L30.457 61.0324L29.0302 58.8527L29.2021 40.2264L18.4214 57.8574H8.88672L8.89119 57.8597Z" fill="#F48F38"/>
<path d="M57.6824 20.4546L53.0758 20.1517C51.1019 19.498 54.7885 16.7011 55.3847 16.1112C52.9507 2.3681 69.4768 -3.58786 79.7596 2.20639C86.3155 5.90068 88.9794 13.738 84.3461 20.2178C78.4421 28.4764 63.7471 28.6381 57.6824 20.4546ZM64.6269 11.5423C62.615 11.7929 62.8494 15.0407 64.9216 14.9519C67.1121 14.8563 66.8978 11.2622 64.6269 11.5423ZM70.6871 11.5401C68.3849 11.8407 69.1374 15.7719 71.5423 14.7925C73.3019 14.075 72.5271 11.2986 70.6871 11.5401ZM76.7473 11.5401C74.3692 11.8521 75.2021 15.7741 77.6026 14.7925C79.3621 14.0728 78.5851 11.2986 76.7473 11.5401Z" fill="#F48F38"/>
<path d="M33.6204 9.91975C46.6207 8.39603 47.7438 28.1452 35.3509 28.7716C23.5297 29.3683 22.2346 11.2544 33.6204 9.91975Z" fill="#F48F38"/>
<path d="M50.9068 44.0962C63.3891 42.6955 64.8941 61.9686 52.816 62.948C40.6688 63.9342 39.0722 45.4263 50.9068 44.0962Z" fill="#F48F38"/>
</svg>
