<svg width="87" height="87" viewBox="0 0 87 87" fill="none" xmlns="http://www.w3.org/2000/svg">
<path d="M0.195312 58.7147L0.993126 55.197C3.19444 48.5032 9.28081 43.7865 16.3435 43.3069C27.0608 43.8159 38.3612 42.6577 49.0107 43.3069C50.2944 43.3861 51.5759 43.6508 52.8099 43.9924C52.3489 44.5308 51.6076 44.9312 51.1194 45.4289C49.7 46.8789 48.5542 48.8131 47.8694 50.7247C41.2586 51.7449 36.6616 57.061 36.2322 63.7051C35.9791 67.6458 36.4175 71.8377 36.2322 75.801H2.31298C1.59879 75.801 0.441663 74.4301 0.197575 73.7696V58.7102L0.195312 58.7147Z" fill="#F48F38"/>
<path d="M34.364 0C47.7414 1.48626 55.2584 16.3647 47.8002 27.9064C39.0898 41.3845 18.1661 37.3759 14.9884 21.665C12.8978 11.3223 20.3696 0.904876 30.9807 0H34.364Z" fill="#F48F38"/>
<path d="M86.806 64.9733V81.1321C86.806 84.0978 83.3774 86.4482 80.6382 86.6383C70.4611 87.3486 59.4478 86.1089 49.1847 86.6089C46.8614 86.6518 43.4961 83.5662 43.4961 81.2995V64.971C44.773 65.4664 46.0003 66.1225 47.2208 66.7446C52.5681 69.466 58.216 72.9859 63.6198 75.3839C64.6685 75.8499 65.4889 76.0263 66.5625 75.4359L86.8037 64.9688L86.806 64.9733Z" fill="#F48F38"/>
<path d="M75.9825 57.699H80.9727C81.8857 57.699 83.861 58.5496 84.53 59.2169C84.6905 59.3775 85.0996 59.6218 84.7764 59.8096L65.2132 70.0143L45.5347 59.8096C45.2069 59.6377 45.7087 59.2621 45.8647 59.1332C46.5811 58.5405 48.4321 57.699 49.3361 57.699H54.3264V54.0614C54.3264 51.4847 57.7369 48.933 60.1574 48.7249C62.7271 48.5032 67.5817 48.5032 70.1514 48.7249C72.7212 48.9466 75.9825 51.5119 75.9825 54.231V57.699ZM70.5695 57.699V54.7378C70.5695 54.6903 70.1627 54.3283 70.0587 54.2333C67.1613 54.2966 63.6922 53.851 60.8309 54.136C60.5167 54.1677 59.7415 54.4143 59.7415 54.7378V57.699H70.5695Z" fill="#F48F38"/>
</svg>
