<svg width="83" height="87" viewBox="0 0 83 87" fill="none" xmlns="http://www.w3.org/2000/svg">
<path d="M4.1102 87H3.94044L9.29596 66.5299C-8.88026 43.5336 2.47593 8.82166 30.8517 1.40167C64.0714 -7.28481 92.7165 25.9839 78.979 57.5579C69.9339 78.3452 45.542 87.5506 24.7446 78.6783L4.1102 87ZM26.0032 28.2246H13.2753V53.874H26.0032V48.7786H18.366V43.6831H23.4567V38.4178H18.366V33.3223H26.0032V28.2269V28.2246ZM36.3543 28.2246H31.2636V53.874H36.3543V41.6441L41.445 53.874H46.5357V28.2246H41.445V40.2847L36.3543 28.2246ZM69.6171 28.2246H59.5194C56.905 28.2246 53.5391 31.1201 52.5002 33.4288C51.2394 36.2292 51.2031 45.6135 52.3938 48.4342C53.4463 50.9287 56.9005 53.8717 59.6892 53.8717H69.6171V38.4132H61.9799V43.6786H64.5263V48.774H60.1984C58.7702 48.774 57.0182 46.8709 56.8801 45.4707C56.7194 43.8259 56.6356 37.6021 56.9276 36.1589C57.0884 35.366 58.0843 34.1561 58.8064 33.7913C58.958 33.7143 59.963 33.3178 60.0287 33.3178H69.6171V28.2224V28.2246Z" fill="#F48F38"/>
</svg>
