<svg width="69" height="88" viewBox="0 0 69 88" fill="none" xmlns="http://www.w3.org/2000/svg">
<path d="M64.0136 0.0022644C64.773 0.540666 64.9358 0.778196 65.1505 1.66724C66.6331 7.80682 66.9879 14.6273 68.4095 20.8303C68.3191 22.131 67.2975 22.8187 66.0545 22.3391C65.207 22.0111 61.3287 19.2512 60.8993 19.3757C53.337 31.829 43.4582 41.9569 28.718 45.1013C21.1897 46.7075 9.3582 46.6147 1.96323 44.3593C0.0873627 43.787 0.281756 41.5406 1.65136 41.2805C3.02097 41.0203 5.52288 41.3551 7.0846 41.2827C15.4446 40.9049 24.6657 38.3871 31.8821 34.1704C40.2986 29.2524 46.6879 21.8188 50.7561 12.9895C49.6147 11.7792 42.7779 10.4197 44.9996 7.89278L62.992 0H64.0114L64.0136 0.0022644Z" fill="#F48F38"/>
<path d="M53.9617 36.9052C55.833 36.6337 60.4594 36.6857 62.4076 36.8554C65.4903 37.1223 67.1944 39.898 67.556 42.7416L67.5741 80.9364C67.3232 83.5289 65.6801 86.5173 62.8663 86.9244C60.995 87.1959 56.3687 87.1439 54.4205 86.9742C51.4395 86.7163 49.6336 84.0356 49.272 81.2577L49.2539 42.7235C49.4867 40.1853 51.2631 37.2965 53.9617 36.9052Z" fill="#F48F38"/>
<path d="M30.0329 50.3226C31.6285 50.0919 38.3681 50.0919 39.7422 50.5375C42.1763 51.3248 43.4871 54.0552 43.6567 56.4713C44.2194 64.4862 43.2386 73.173 43.6273 81.2581C43.3742 83.6922 41.6339 86.4521 39.0755 86.8932C37.2923 87.2008 32.3879 87.1398 30.4894 86.9746C27.3117 86.6987 25.5196 83.7352 25.3116 80.7762C24.7489 72.7613 25.7297 64.0745 25.341 55.9894C25.5986 53.5078 27.3999 50.7027 30.0306 50.3226H30.0329Z" fill="#F48F38"/>
<path d="M6.43755 61.5323C8.25917 61.245 13.2945 61.3174 15.2269 61.4848C18.113 61.7336 20.0184 64.6247 20.2331 67.3439C20.5879 71.8637 19.9708 76.8586 20.2081 81.4305C19.7358 84.1859 18.0362 86.7173 15.0552 86.9751C13.1567 87.138 8.25457 87.2014 6.46911 86.8937C3.59655 86.3983 2.08913 83.2493 1.89025 80.6071C1.62808 77.1188 1.6326 71.3457 1.89025 67.8551C2.08009 65.283 3.60562 61.9802 6.43523 61.5323H6.43755Z" fill="#F48F38"/>
</svg>
