<svg width="107" height="88" viewBox="0 0 107 88" fill="none" xmlns="http://www.w3.org/2000/svg">
<path d="M14.7293 68.0105C16.8718 69.1439 18.7319 70.664 19.3895 73.1095C19.9817 75.3151 19.9433 81.9297 19.7285 84.3661C19.5907 85.9225 19.0054 87.0016 17.3419 87.2007C15.2988 87.445 9.39095 87.4495 7.3501 87.2007C6.37601 87.083 5.43135 86.4179 5.25506 85.4384C4.94769 83.7282 4.96576 75.0165 5.30025 73.3312C5.74323 71.112 7.90384 68.9832 9.97408 68.2028L9.9786 27.1689C7.66654 26.1645 5.18952 25.4791 2.87746 24.4746C0.755245 23.5539 -0.648276 22.6671 0.886316 20.1629C18.264 13.0913 35.9853 6.44046 53.6207 0L105.001 19.4232C107.343 20.3778 107.347 23.2327 105.001 24.1896L53.6207 43.6128L14.727 29.0714V68.0082L14.7293 68.0105Z" fill="#F48F38"/>
<path d="M87.3148 36.1136V63.925C87.3148 64.0381 86.7972 64.7009 86.6458 64.8434C75.811 69.352 64.7163 73.5415 53.6329 77.4529C42.8116 73.9419 32.2661 69.3836 21.5398 65.5108C21.0222 65.4248 19.7227 64.3729 19.7227 63.925V36.1136L52.2972 48.3475L56.0037 48.0218L87.3148 36.1113V36.1136Z" fill="#F48F38"/>
</svg>
