<svg width="83" height="88" viewBox="0 0 83 88" fill="none" xmlns="http://www.w3.org/2000/svg">
<path d="M37.6497 45.5156C37.7356 40.9166 37.5932 35.9647 34.9105 32.042C24.3898 34.5236 13.6996 27.5154 12.0633 16.779C11.7311 14.6051 11.6837 10.9177 12.4679 8.85457C12.8905 7.74384 14.7234 7.56286 15.7902 7.41356C27.5381 5.7599 37.5977 15.3516 37.0982 27.0924C37.0734 27.7009 36.6891 28.927 36.766 29.4405C36.827 29.8386 37.8644 31.196 38.1966 31.5851C38.4159 27.814 39.2657 24.0271 40.3053 20.4053C40.5245 19.6384 41.2613 18.1544 41.3042 17.5414C41.3517 16.8492 40.7754 15.7271 40.6285 14.9466C39.2544 7.7099 44.457 0.608889 51.843 0.0614387C54.1754 -0.110488 54.8466 -0.0652443 55.5992 2.16075C58.0401 9.38166 53.8702 16.6478 46.5883 18.4463C46.0843 18.5707 44.0954 18.772 43.9621 18.9326C42.0478 24.0927 41.1392 29.574 40.7618 35.0643L43.7745 31.7592C45.3159 20.48 55.7823 12.9175 67.0239 15.6502C68.4207 15.9895 72.8323 17.5188 73.273 18.9258C73.6821 20.2311 72.5317 24.1651 71.978 25.5314C67.6364 36.2542 54.9393 40.2131 44.9678 34.6006C41.0014 38.0142 39.0939 47.0109 41.6455 51.4991C45.3362 57.9961 56.6321 54.4468 57.4209 62.6517C58.013 68.8298 58.0627 72.0172 61.8528 77.2768C62.6394 78.3672 63.9095 79.4621 64.5695 80.4235C64.6757 80.5773 64.8203 80.6158 64.748 80.8827C50.0146 90.9472 29.6468 90.3635 15.8377 78.9666L15.7541 78.6816C17.3293 75.0463 18.0729 70.7504 21.6597 68.4565C22.6812 67.8027 24.0079 67.3729 25.0701 66.7395C32.8515 62.0884 33.4369 52.6506 28.6772 45.5134H37.6497V45.5156Z" fill="#F48F38"/>
<path d="M43.5117 45.5156H81.5081C81.6098 45.5156 82.1409 45.9319 82.2381 46.0699C82.7918 46.8639 82.4483 50.1576 82.3308 51.2887C81.2324 62.0681 75.6319 71.9946 67.3826 78.8626C64.4649 76.5212 62.1415 72.8044 61.1426 69.2008C59.5357 63.4095 61.8613 58.0843 55.1127 54.8901C52.3419 53.5781 46.5515 52.9899 44.7164 50.8182C44.3841 50.4268 43.5117 48.7981 43.5117 48.3592V45.5179V45.5156Z" fill="#F48F38"/>
<path d="M13.4793 76.6744C13.2013 76.7491 13.1765 76.602 13.0206 76.4934C12.5573 76.1722 11.6238 75.1316 11.1899 74.6611C5.47416 68.4695 1.50771 59.6944 0.664702 51.2881C0.551698 50.1683 0.203683 46.8452 0.759662 46.0692C0.915608 45.8521 1.14156 45.6982 1.38565 45.5964L24.7368 45.5195C25.3221 45.6304 26.2171 47.1732 26.5562 47.7297C29.9395 53.2653 29.7542 60.036 24.0836 63.9179C22.7728 64.816 21.2495 65.2549 19.9048 66.1507C16.257 68.5735 14.7856 72.6681 13.4771 76.6744H13.4793Z" fill="#F48F38"/>
</svg>
