<svg width="97" height="100" viewBox="0 0 97 100" fill="none" xmlns="http://www.w3.org/2000/svg">
<path d="M96.3484 87.7122C96.2815 81.6304 93.8214 76.765 88.8404 73.2102C87.0949 71.9695 85.3434 70.7288 83.5371 69.5793C78.9757 66.6813 74.2806 64.0692 68.9408 62.8529C68.7397 62.814 68.5546 62.7167 68.4086 62.5731C66.8669 60.8732 64.9511 59.6082 63.2178 58.1273C61.9528 57.0417 60.9949 57.1086 59.7512 58.2398C56.092 61.5747 52.4378 64.9115 48.7887 68.2504C48.3296 68.6731 48.0741 68.7187 47.6271 68.2504C46.8821 67.4811 46.058 66.7908 45.2643 66.0671C42.3542 63.4033 39.4501 60.7333 36.5218 58.0847C35.3966 57.063 34.4691 57.0569 33.2893 57.9965C32.7206 58.4496 32.1459 58.9088 31.6107 59.3893C29.2935 61.5179 26.8699 63.455 23.6283 63.9658C23.3961 64.0328 23.171 64.1224 22.9563 64.2334C17.0691 66.5932 11.8053 70.0263 6.77871 73.8214C2.85899 76.7802 0.639136 80.7942 0.183001 85.7022C-0.163661 89.4273 0.0978559 93.1737 0.0492015 96.9109C0.0157516 99.3437 0.702995 100 3.0901 100H93.566C95.5669 100 96.3514 99.2251 96.3545 97.2637C96.3606 94.0981 96.3879 90.8991 96.3484 87.7122ZM51.9513 71.0329C55.0449 68.2677 58.1131 65.4761 61.1561 62.6582C61.5119 62.3329 61.7369 62.3298 62.0683 62.64C62.5518 63.084 63.087 63.4702 63.5888 63.8928C63.7652 64.0388 64.0388 64.1331 63.9446 64.5223C63.902 64.6439 63.8321 64.8416 63.756 65.0332C62.2356 68.9499 60.6939 72.8605 59.1947 76.7863C58.9362 77.4644 58.7659 77.6347 58.1243 77.0903C56.1264 75.3844 54.0799 73.7454 52.0425 72.0972C51.5529 71.7201 51.3948 71.5285 51.9452 71.0359L51.9513 71.0329ZM32.7936 63.8837C34.7307 62.2051 34.7185 62.193 36.6191 63.9172C39.2038 66.2688 41.7855 68.6204 44.3642 70.9721C44.5558 71.1484 44.8295 71.2761 44.8933 71.6228C44.7504 71.7475 44.5893 71.8874 44.4463 72.0151C42.3359 73.7423 40.2134 75.4635 38.1182 77.212C37.656 77.5982 37.51 77.5161 37.2881 76.9778C35.7372 72.9233 34.164 68.8769 32.5686 64.8386C32.4748 64.6821 32.4455 64.4954 32.4869 64.3177C32.5283 64.1401 32.6372 63.9855 32.7906 63.8868L32.7936 63.8837ZM40.8429 88.9073C40.1465 90.8565 39.3832 92.7814 38.7355 94.7458C38.4892 95.4847 38.176 95.7402 37.3732 95.7341C32.0091 95.6915 26.6419 95.7128 21.2777 95.7128C15.9136 95.7128 10.6163 95.6946 5.28563 95.728C4.53757 95.728 4.29126 95.5912 4.31254 94.7853C4.37032 92.2948 4.31254 89.8013 4.33383 87.3108C4.38857 83.0535 6.13404 79.5869 9.53985 77.0691C14.2107 73.6146 19.0457 70.4125 24.4798 68.2504C25.5958 67.8034 26.7635 67.475 27.9038 67.0827C28.5363 66.8638 28.8526 67.0311 29.1202 67.7061C30.8687 72.2675 32.6598 76.8288 34.4479 81.3902C35.2567 83.4519 36.6829 83.8594 38.3645 82.4241C39.0275 81.8554 39.3559 81.8919 39.8302 82.6005C40.5023 83.6009 41.7186 84.4554 41.892 85.5076C42.0653 86.5597 41.2443 87.7761 40.8398 88.9103L40.8429 88.9073ZM42.9137 95.6763C43.6679 93.5811 44.3977 91.5498 45.1366 89.5185C45.982 87.2013 45.985 87.2044 48.4512 87.2044C50.4156 87.2044 50.4187 87.2044 51.0785 89.0289C51.8722 91.2214 52.6659 93.42 53.4869 95.6824L42.9137 95.6763ZM53.5751 79.6143C52.7662 80.56 52.006 81.5483 51.2427 82.5305C51.1393 82.6874 50.9955 82.8135 50.8263 82.8954C50.6572 82.9773 50.469 83.012 50.2818 82.9958C49.5946 82.9593 48.8982 82.9958 47.8673 82.9958C46.2101 83.5431 45.0302 82.5457 43.9385 80.9918C42.5701 79.0426 42.4758 79.1125 44.3399 77.586C45.4377 76.6737 46.5415 75.798 47.618 74.8735C48.0163 74.5269 48.29 74.4478 48.7431 74.834C50.297 76.1568 51.8874 77.4401 53.4808 78.7172C53.8549 79.0152 53.9096 79.222 53.5721 79.6173L53.5751 79.6143ZM91.2306 95.7311C85.8299 95.7067 80.4293 95.7311 75.0256 95.7311C69.6949 95.7311 64.3642 95.7098 59.0335 95.7493C58.2338 95.7493 57.9266 95.503 57.6742 94.7641C56.7012 91.9239 55.6612 89.108 54.606 86.3012C54.3992 85.7508 54.3931 85.3555 54.7976 84.8963C55.5243 84.0631 56.2177 83.1965 56.8654 82.2994C57.1695 81.8615 57.4066 81.8828 57.7351 82.2203C57.862 82.337 57.9961 82.4457 58.1365 82.5457C59.6964 83.7955 61.1774 83.4245 61.9011 81.5757C63.233 78.1699 64.5436 74.7549 65.8543 71.3461C66.3134 70.1571 66.8486 68.9894 67.2196 67.773C67.472 66.9641 67.8795 66.9155 68.5637 67.1071C72.1155 68.1045 75.3905 69.704 78.5591 71.5589C81.4591 73.2412 84.252 75.1018 86.9216 77.1299C90.221 79.6538 91.9695 83.0292 92.0516 87.1983C92.1033 89.7587 92.0516 92.3222 92.0851 94.8857C92.0972 95.5729 91.8935 95.7341 91.2275 95.728L91.2306 95.7311Z" fill="url(#paint0_linear_18_726)"/>
<path d="M70.1971 19.0482C68.9413 11.8625 65.3317 6.27642 58.7573 2.80979C54.8741 0.772388 50.6594 0.109472 46.1345 0C42.3486 0.0212863 38.5566 0.71157 35.2359 3.09564C32.937 4.7438 31.3162 6.97582 29.8262 9.3234C28.9874 10.633 27.9631 11.8141 26.7853 12.8296C24.7813 14.5811 22.8321 16.3844 20.8707 18.2059C19.6544 19.3553 19.7365 20.6812 21.0653 21.7303C22.3804 22.8056 23.8162 23.7241 25.3439 24.4671C25.6285 24.5628 25.8706 24.755 26.0283 25.0105C26.186 25.266 26.2494 25.5686 26.2075 25.8659C26.0844 28.7777 26.4966 31.6874 27.4239 34.4504C27.9317 35.9221 27.9834 37.397 28.0503 38.9174C28.2449 43.2902 29.0355 47.5171 31.7784 51.1084C34.8347 55.1148 38.8319 58.3057 43.4159 60.3983C46.691 61.9188 49.9691 61.8762 53.2198 60.3162C57.4857 58.2905 61.2455 55.338 64.2248 51.674C65.5612 50.0823 66.5689 48.2416 67.1897 46.2582C68.167 43.1119 68.5788 39.8173 68.4061 36.5273C68.3227 35.2959 68.4628 34.0597 68.8196 32.8782C70.2154 28.3564 71.0212 23.7585 70.1971 19.0482ZM64.1731 36.658C64.2476 38.7415 64.0854 40.8267 63.6896 42.8736C62.9294 47.3468 60.1074 50.3999 56.7655 53.0971C54.9874 54.5793 53.0006 55.7915 50.8692 56.6945C49.1511 57.3939 47.4178 57.4791 45.7301 56.7432C41.1231 54.7362 37.246 51.7439 34.5304 47.508C32.493 44.3272 32.2011 40.6203 32.2802 36.9135C32.3126 34.8686 32.7779 32.8539 33.6455 31.002C34.0283 30.1881 34.5316 29.4367 35.1386 28.773C35.7742 28.0736 36.4523 27.8151 37.4832 27.8607C44.4772 28.1983 51.003 26.7082 56.8567 22.7459C57.4284 22.3597 57.769 22.3749 58.2768 22.7855C60.4845 24.5735 61.6735 27.0245 62.6892 29.5727C63.6379 31.9477 64.6019 34.3409 64.1731 36.658ZM66.0889 25.1665C66.0524 25.3976 66.1223 25.6743 65.727 25.7899C65.3773 25.1634 65.0155 24.4823 64.6201 23.8163C63.0754 21.189 61.0653 19.0664 58.1917 17.8653C57.2794 17.4882 56.4067 17.4639 55.6768 18.1694C52.8336 20.8666 49.291 22.1225 45.6054 22.9618C42.7622 23.6156 39.8672 23.9684 36.951 23.6095C36.3542 23.531 35.7477 23.5754 35.1687 23.7402C34.5898 23.9049 34.0507 24.1864 33.5847 24.5674C32.4575 25.3748 31.4963 26.3918 30.7536 27.5627C30.2367 26.7082 30.5894 25.7716 30.5134 24.8746C30.4617 24.239 30.7688 23.5731 30.3583 22.9649C30.1667 22.2168 29.6103 21.8306 28.9565 21.5509C27.7371 21.023 26.5572 20.4081 25.426 19.7111C26.5329 18.7046 27.5546 17.695 28.6737 16.7827C30.6746 15.1498 32.4383 13.3131 33.7398 11.0689C37.027 5.3976 42.1692 3.77072 48.3361 4.34849C51.7784 4.65258 55.1052 5.3976 58.067 7.27079C62.8534 10.3117 65.4381 14.7058 66.0737 20.301C66.2992 21.9147 66.3043 23.5515 66.0889 25.1665Z" fill="url(#paint1_linear_18_726)"/>
<defs>
<linearGradient id="paint0_linear_18_726" x1="52" y1="53.889" x2="52" y2="103.843" gradientUnits="userSpaceOnUse">
<stop offset="0.3" stop-color="#CE9EF9"/>
<stop offset="1" stop-color="#5C57EC"/>
</linearGradient>
<linearGradient id="paint1_linear_18_726" x1="47.2698" y1="-4.92103" x2="47.2698" y2="67.0491" gradientUnits="userSpaceOnUse">
<stop offset="0.3" stop-color="#CE9EF9"/>
<stop offset="1" stop-color="#5C57EC"/>
</linearGradient>
</defs>
</svg>
