<svg width="58" height="65" viewBox="0 0 58 65" fill="none" xmlns="http://www.w3.org/2000/svg">
<path d="M55.3953 52.0892C54.136 49.8357 51.6572 48.0388 48.2907 49.5194C43.9892 51.4072 39.6403 53.1725 35.3112 54.9654C34.892 55.1522 34.4413 55.2582 33.9828 55.2778C30.8377 55.3054 27.6907 55.2956 24.5457 55.2916C23.8775 55.2916 23.492 54.9674 23.4782 54.4258C23.4644 53.8525 23.8419 53.5204 24.5516 53.5145C25.7376 53.5046 26.9237 53.5145 28.1197 53.5145C30.0569 53.5145 31.9961 53.5461 33.9334 53.4947C34.2664 53.495 34.5961 53.4279 34.9026 53.2977C35.2092 53.1674 35.4862 52.9765 35.7172 52.7365C35.9481 52.4965 36.1282 52.2123 36.2466 51.901C36.365 51.5897 36.4194 51.2577 36.4063 50.9249C36.3786 49.5412 35.2855 48.4954 33.8128 48.4796C32.7967 48.4678 31.7787 48.4974 30.7626 48.4796C29.6908 48.4776 28.6199 48.4188 27.5543 48.3037C25.8721 48.0764 24.4132 47.2264 22.9326 46.4613C21.28 45.6074 19.5385 45.127 17.6724 45.297C15.6502 45.4809 13.6358 45.7497 11.6136 45.9474C11.1668 45.9909 11.0482 46.1451 11.0502 46.5819C11.068 50.0176 11.1905 53.4591 11.0067 56.8829C10.9118 58.6205 11.663 59.4053 13.0349 60.0556C14.9879 60.9788 17.0556 61.3979 19.1728 61.6806C21.8716 62.0605 24.6039 62.1447 27.321 61.9316C31.0769 61.6054 34.6351 60.532 38.1261 59.1266C43.5939 56.9192 49.063 54.7164 54.5334 52.5182C54.8319 52.3936 55.1086 52.2316 55.3953 52.0892ZM15.4643 43.6484C15.6976 43.6286 15.921 43.6088 16.1463 43.593C17.9254 43.4645 19.7302 43.3104 21.4461 43.9291C22.714 44.4174 23.9563 44.9697 25.1683 45.5836C26.6608 46.3032 28.2007 46.7401 29.875 46.6887C31.1975 46.6472 32.5239 46.6649 33.8464 46.6887C36.264 46.7242 38.0905 48.4816 38.1953 50.8557C38.2091 51.168 38.1953 51.4824 38.1953 51.8263C38.393 51.7433 38.5788 51.6761 38.7547 51.601C41.8306 50.3147 44.9065 49.0285 47.9823 47.7423C49.6354 47.069 51.4812 47.0415 53.1536 47.6652H53.1773C53.5588 47.8033 53.9194 47.9935 54.2487 48.2306L55.2668 48.962C55.5063 49.1389 55.7204 49.3477 55.9033 49.5827C56.3249 50.0891 56.6828 50.6455 56.9688 51.2392C57.1468 51.6204 57.1898 52.0508 57.0907 52.4597C56.9915 52.8686 56.7561 53.2315 56.4232 53.4888C56.0586 53.7581 55.6598 53.9775 55.2371 54.1411C50.141 56.2009 45.0369 58.241 39.9448 60.3067C36.9223 61.5323 33.8721 62.661 30.6539 63.2719C27.3455 63.8705 23.9684 63.9917 20.6257 63.6316C18.4512 63.4181 16.2768 63.1552 14.2031 62.41C13.1495 62.0324 12.1374 61.5362 11.0601 61.0717C11.0601 61.5817 11.0601 62.1115 11.0601 62.6413C11.0443 64.0428 10.1112 64.792 8.56933 64.5726C6.50755 64.278 4.4181 64.3512 2.34841 64.5864C0.89548 64.7525 0.00197678 64.025 0 62.6907C0 56.0118 0 49.3323 0 42.6521C0 41.466 0.693849 40.7386 1.88387 40.7287C4.30213 40.7102 6.71973 40.7102 9.13667 40.7287C10.3465 40.7287 11.0443 41.4759 11.0601 42.6896C11.0601 43.1838 11.0601 43.678 11.0601 44.2019L13.618 43.8362L15.4643 43.6484ZM1.80282 42.5256V62.8014H9.20783V42.5256H1.80282Z" fill="url(#paint0_linear_18_545)"/>
<path d="M6.43047 59.9089C6.42825 60.1376 6.41307 60.366 6.38501 60.5929C6.37463 60.6984 6.34351 60.8008 6.29343 60.8942C6.24335 60.9877 6.1753 61.0703 6.09318 61.1373C6.01107 61.2044 5.91652 61.2546 5.81496 61.2849C5.7134 61.3153 5.60683 61.3254 5.50139 61.3144C5.28696 61.3241 5.07738 61.2488 4.9182 61.1048C4.75903 60.9608 4.66314 60.7598 4.65137 60.5455C4.61479 60.1656 4.61082 59.7834 4.63951 59.4029C4.63366 59.1723 4.71941 58.9488 4.87799 58.7814C5.03656 58.6139 5.25504 58.5161 5.48557 58.5094C5.60029 58.5024 5.71523 58.5186 5.82361 58.5568C5.93198 58.5951 6.03159 58.6547 6.11654 58.7321C6.2015 58.8095 6.27008 58.9031 6.31823 59.0075C6.36637 59.1118 6.39311 59.2248 6.39687 59.3396C6.40775 59.5299 6.40775 59.7206 6.39687 59.9109L6.43047 59.9089Z" fill="url(#paint1_linear_18_545)"/>
<path d="M45.966 17.11C44.4992 17.5053 43.1016 17.8612 41.7179 18.2684C41.5835 18.3079 41.4589 18.642 41.457 18.8397C41.4392 21.277 41.4293 23.7144 41.457 26.1537C41.457 26.8219 41.2474 27.239 40.6504 27.5731C36.0347 30.1547 31.0868 31.0898 25.8483 30.6252C22.3528 30.3191 18.9653 29.2589 15.919 27.5177C15.6877 27.4098 15.4949 27.2339 15.3663 27.0135C15.2377 26.793 15.1795 26.5386 15.1994 26.2842C15.2212 23.7915 15.1994 21.2968 15.2172 18.8021C15.2172 18.4344 15.1184 18.2783 14.7467 18.1834C12.7699 17.6793 10.8129 17.1495 8.85198 16.6158C7.66591 16.2955 7.09067 15.2123 7.66591 14.2713C7.94207 13.8491 8.35648 13.536 8.83814 13.3857C14.92 11.7186 21.0138 10.0891 27.1194 8.49715C27.9112 8.30043 28.7392 8.30043 29.5311 8.49715C35.6195 10.0786 41.6922 11.7213 47.7688 13.3521C48.6841 13.5972 49.1525 14.127 49.1782 14.9177C49.2039 15.7084 48.8066 16.2264 47.9111 16.6C47.8242 16.6483 47.7497 16.7161 47.6935 16.798C47.6372 16.88 47.6007 16.974 47.5869 17.0724C47.5619 18.4417 47.5619 19.8122 47.5869 21.1841C47.5994 21.2849 47.6343 21.3816 47.689 21.4671C47.7438 21.5526 47.817 21.6248 47.9032 21.6783C49.7219 22.6094 50.2062 24.4161 49.0893 26.1379C49.0445 26.2108 49.016 26.2926 49.0057 26.3775C48.9955 26.4625 49.0038 26.5487 49.03 26.6301C49.6052 27.7312 49.7337 28.9054 49.6942 30.1211C49.6724 30.8822 49.6942 31.6432 49.6942 32.4043C49.6724 33.6339 48.8699 34.4345 47.6443 34.4602C47.0927 34.472 46.5392 34.4779 45.9877 34.4602C44.8768 34.4206 44.0604 33.6576 44.0268 32.5565C43.9737 31.3392 43.9829 30.1199 44.0544 28.9034C44.1039 28.2195 44.4122 27.5553 44.5625 26.8733C44.6245 26.6413 44.5999 26.3946 44.4933 26.1794C43.3507 24.5605 43.837 22.5975 45.6181 21.702C45.7604 21.6309 45.9541 21.4609 45.9561 21.3344C45.9778 19.9447 45.966 18.559 45.966 17.11ZM9.18012 14.9355V15.0344C9.39757 15.0996 9.61303 15.1708 9.83048 15.232C15.5948 16.7739 21.3577 18.3184 27.1194 19.8656C27.9075 20.086 28.741 20.086 29.5291 19.8656C34.7478 18.4515 39.9632 17.0513 45.1753 15.665C45.9462 15.4574 46.7132 15.2439 47.5869 15.0027C47.48 14.9511 47.3705 14.9049 47.2588 14.8644C41.279 13.2592 35.2914 11.6422 29.3077 10.0786C28.6457 9.92267 27.9557 9.93013 27.2973 10.1003C23.0452 11.1935 18.811 12.3459 14.5708 13.4806C12.7746 13.9616 10.979 14.4459 9.18407 14.9335L9.18012 14.9355ZM39.8498 18.7764C39.6284 18.8179 39.5177 18.8317 39.411 18.8594C36.2916 19.6956 33.1683 20.5179 30.0549 21.3759C28.9962 21.6984 27.8682 21.7175 26.7991 21.4312C24.0317 20.6622 21.2642 19.9289 18.4967 19.1856C17.955 19.0393 17.4075 18.9108 16.8065 18.7586V19.3516C16.8065 21.4451 16.8204 23.5385 16.7947 25.6299C16.775 25.8046 16.814 25.9808 16.9057 26.1308C16.9973 26.2808 17.1363 26.396 17.3007 26.4582C19.9634 27.8653 22.8774 28.7338 25.876 29.0141C30.5926 29.4569 35.0799 28.6899 39.3003 26.4858C39.6956 26.2763 39.8736 26.049 39.8656 25.5726C39.836 23.5187 39.8538 21.4628 39.8538 19.409L39.8498 18.7764ZM47.6186 27.1955C47.3181 27.2271 47.1698 27.2489 47.0255 27.2588C46.0806 27.322 45.9245 27.4564 45.7189 28.3855C45.7095 28.4224 45.7042 28.4602 45.7031 28.4982C45.6754 29.8048 45.6339 31.1135 45.6438 32.4221C45.6438 32.5684 45.9363 32.8175 46.1142 32.8372C46.6064 32.8715 47.1 32.8781 47.5929 32.857C47.9546 32.857 48.1029 32.6593 48.1009 32.3213C48.1009 31.2202 48.1464 30.1152 48.0713 29.0181C48.0258 28.4171 47.7787 27.8241 47.6186 27.1995V27.1955ZM46.7705 23.0581C46.5128 23.0608 46.2616 23.1399 46.0487 23.2852C45.8358 23.4306 45.6707 23.6358 45.5744 23.8749C45.478 24.1139 45.4546 24.3762 45.5071 24.6286C45.5596 24.881 45.6858 25.1121 45.8696 25.2929C46.0533 25.4736 46.2866 25.5959 46.5398 25.6442C46.793 25.6926 47.0548 25.6648 47.2923 25.5645C47.5297 25.4641 47.7321 25.2957 47.8739 25.0804C48.0157 24.8651 48.0906 24.6126 48.089 24.3549C48.076 24.0117 47.9321 23.6866 47.6869 23.4462C47.4417 23.2058 47.1138 23.0684 46.7705 23.0621V23.0581Z" fill="url(#paint2_linear_18_545)"/>
<path d="M46.7905 34.5604C46.5296 34.5604 46.2568 34.5604 45.982 34.5485C44.8098 34.507 43.9677 33.6867 43.9341 32.554C43.8805 31.334 43.8891 30.1121 43.9598 28.893C44.0093 28.4575 44.1081 28.0291 44.2543 27.616C44.3334 27.3649 44.4144 27.106 44.4698 26.849C44.5258 26.6423 44.5069 26.4224 44.4164 26.2283C44.1335 25.8671 43.9368 25.4462 43.8413 24.9974C43.7458 24.5487 43.754 24.0841 43.8654 23.6391C43.9767 23.194 44.1883 22.7803 44.4838 22.4294C44.7794 22.0785 45.1512 21.7998 45.5709 21.6145C45.7092 21.5453 45.8575 21.397 45.8575 21.3279C45.8773 20.2426 45.8753 19.1751 45.8733 18.0444V17.23L45.0253 17.4553C43.8906 17.7558 42.8212 18.0484 41.7438 18.3568C41.6188 18.4872 41.5482 18.6604 41.5461 18.8411C41.5284 21.1816 41.5165 23.6861 41.5461 26.1551C41.5461 26.8767 41.307 27.3116 40.6922 27.6555C36.2029 30.166 31.2036 31.1959 25.8367 30.7175C22.3252 30.4112 18.9217 29.3484 15.8599 27.6021C15.6145 27.4863 15.4099 27.299 15.273 27.0647C15.1361 26.8304 15.0733 26.5602 15.0929 26.2896C15.1048 24.9434 15.1048 23.5735 15.1048 22.249C15.1048 21.1025 15.1048 19.956 15.1048 18.8075C15.1048 18.4694 15.0237 18.3607 14.7094 18.2797C12.699 17.7637 10.6867 17.2221 8.8107 16.7101C8.51001 16.6423 8.22936 16.505 7.99116 16.3094C7.75295 16.1137 7.5638 15.8651 7.43882 15.5833C7.35332 15.3626 7.32145 15.1248 7.34585 14.8894C7.37026 14.654 7.45022 14.4277 7.57917 14.2292C7.86494 13.7843 8.29808 13.454 8.80279 13.2962C15.8777 11.359 21.6894 9.80521 27.0919 8.40367C27.8988 8.20398 28.7422 8.20398 29.5491 8.40367C34.5009 9.68265 39.5338 11.0407 44.3947 12.3454L47.7928 13.2586C48.7396 13.5136 49.2378 14.0691 49.2714 14.9112C49.305 15.7533 48.8958 16.295 47.9469 16.6903C47.8753 16.7316 47.8141 16.7887 47.7678 16.8572C47.7216 16.9257 47.6916 17.0038 47.6801 17.0857C47.6524 18.4497 47.6524 19.8314 47.6801 21.1934C47.6927 21.2775 47.7232 21.358 47.7695 21.4293C47.8159 21.5005 47.8771 21.561 47.9489 21.6066C48.8642 22.0751 49.4651 22.765 49.6885 23.5972C49.9119 24.4294 49.734 25.3328 49.1745 26.1986C49.1388 26.2572 49.1154 26.3226 49.1059 26.3906C49.0964 26.4586 49.1009 26.5278 49.1192 26.594C49.6312 27.5824 49.8387 28.6676 49.7933 30.1304C49.7814 30.5495 49.7834 30.9745 49.7933 31.3877C49.7933 31.7237 49.7933 32.0716 49.7933 32.4136C49.7695 33.6906 48.9294 34.5347 47.6524 34.5604C47.3816 34.5565 47.093 34.5604 46.7905 34.5604ZM46.0631 16.9967V18.0523C46.0631 19.183 46.0631 20.2525 46.0473 21.3377C46.0473 21.5156 45.818 21.7074 45.6519 21.7884C45.2549 21.9615 44.9028 22.2233 44.6228 22.5537C44.3429 22.8842 44.1425 23.2745 44.0371 23.6946C43.9317 24.1147 43.9241 24.5534 44.0149 24.9769C44.1056 25.4004 44.2924 25.7974 44.5607 26.1374C44.6841 26.3734 44.7144 26.6471 44.6457 26.9043C44.5864 27.1692 44.5054 27.4321 44.4263 27.6951C44.284 28.0946 44.1879 28.5091 44.1397 28.9305C44.0683 30.1437 44.0591 31.3597 44.112 32.5737C44.1436 33.6036 44.9126 34.3528 45.984 34.3864C46.577 34.4082 47.1483 34.4003 47.6346 34.3864C48.8029 34.3607 49.5719 33.5957 49.5936 32.4215C49.5936 32.0795 49.5936 31.7336 49.5936 31.3976C49.5936 30.9844 49.5936 30.5574 49.5936 30.1344C49.6371 28.7052 49.4355 27.6417 48.9393 26.6908C48.9041 26.5937 48.8915 26.4898 48.9024 26.387C48.9134 26.2843 48.9476 26.1854 49.0025 26.0978C49.5343 25.2775 49.7043 24.4294 49.4948 23.6466C49.2852 22.8638 48.7159 22.2154 47.8481 21.7706C47.7464 21.7103 47.6602 21.6271 47.5964 21.5276C47.5325 21.428 47.4928 21.315 47.4804 21.1974C47.4547 19.8334 47.4547 18.4477 47.4804 17.0817C47.4951 16.9654 47.5375 16.8543 47.6038 16.7577C47.6702 16.6611 47.7587 16.5817 47.8619 16.5263C48.7396 16.1606 49.1014 15.6822 49.0717 14.933C49.0421 14.1838 48.6171 13.6718 47.7453 13.4385L44.3453 12.5253C39.4863 11.2186 34.4614 9.86847 29.5076 8.58356C28.7286 8.39098 27.9144 8.39098 27.1354 8.58356C21.7349 9.98312 15.9231 11.5369 8.85024 13.4741C8.3916 13.619 7.99663 13.917 7.73138 14.3182C7.62003 14.4928 7.55144 14.6912 7.53117 14.8973C7.51091 15.1034 7.53954 15.3113 7.61475 15.5043C7.72987 15.7592 7.90266 15.9838 8.11947 16.1605C8.33628 16.3371 8.59119 16.461 8.86407 16.5223C10.7381 17.0323 12.7504 17.5759 14.7588 18.0899C15.1542 18.1927 15.3005 18.3785 15.2985 18.7996C15.2985 19.9461 15.2985 21.0926 15.2985 22.2391C15.2985 23.5636 15.2985 24.9335 15.2985 26.2817C15.2782 26.5193 15.3319 26.7575 15.4522 26.9634C15.5725 27.1694 15.7536 27.3331 15.9706 27.4321C19.0096 29.1647 22.3874 30.2193 25.8723 30.5238C31.2096 30.9982 36.1654 29.9763 40.621 27.4835C41.1745 27.1732 41.388 26.7996 41.3801 26.1472C41.3524 23.6822 41.3643 21.1756 41.3801 18.8332C41.3801 18.6355 41.5066 18.2401 41.7082 18.1729C42.7856 17.8566 43.859 17.5799 44.9936 17.2715L45.9583 17.0145L46.0631 16.9967ZM46.7451 32.9731C46.5291 32.9747 46.3133 32.9635 46.0987 32.9394C45.8812 32.9137 45.5471 32.637 45.5452 32.4334C45.5452 31.4094 45.561 30.3696 45.5847 29.3654C45.5847 29.0788 45.5985 28.7922 45.6045 28.5075C45.6066 28.4635 45.6132 28.4197 45.6242 28.377C45.8358 27.4124 46.0315 27.2443 47.008 27.1791C47.1029 27.1791 47.1958 27.1613 47.3282 27.1455L47.603 27.1139H47.6821L47.7018 27.191C47.7513 27.3887 47.8106 27.5863 47.8679 27.7662C48.0119 28.1754 48.1074 28.6 48.1525 29.0314C48.2039 29.7904 48.196 30.5653 48.1881 31.3126C48.1881 31.6545 48.1881 31.9985 48.1881 32.3405C48.1951 32.4264 48.1847 32.5129 48.1575 32.5948C48.1303 32.6766 48.087 32.7522 48.03 32.8169C47.9708 32.8705 47.9015 32.9116 47.8261 32.9377C47.7507 32.9639 47.6708 32.9746 47.5911 32.9691H47.5476H47.1424C47.0159 32.9612 46.8815 32.9651 46.7451 32.9651V32.9731ZM47.5476 27.2997L47.35 27.3214C47.2136 27.3373 47.1167 27.3491 47.0198 27.355C46.1184 27.4143 45.9939 27.5231 45.7982 28.4087C45.7905 28.4391 45.7859 28.4702 45.7844 28.5016C45.7844 28.7882 45.7705 29.0748 45.7646 29.3615C45.7409 30.3657 45.7171 31.4035 45.7251 32.4235C45.7251 32.5125 45.9702 32.7299 46.1204 32.7477C46.4614 32.78 46.8042 32.7886 47.1464 32.7734H47.5892C47.6444 32.7785 47.7001 32.7725 47.7531 32.7559C47.806 32.7393 47.8551 32.7123 47.8975 32.6765C47.9372 32.6288 47.9667 32.5736 47.9844 32.5141C48.0021 32.4546 48.0075 32.3922 48.0003 32.3306C48.0003 31.9886 48.0003 31.6447 48.0003 31.3007C48.0003 30.5574 48.0161 29.7865 47.9667 29.0353C47.9213 28.6176 47.8284 28.2064 47.69 27.8097C47.6465 27.6397 47.5951 27.4737 47.5476 27.2997ZM28.3729 29.2271C27.5492 29.2271 26.715 29.1875 25.8703 29.1084C22.8599 28.8216 19.9347 27.9486 17.2594 26.5386C17.0806 26.4675 16.9296 26.3402 16.8294 26.1758C16.7293 26.0114 16.6852 25.8189 16.704 25.6273C16.7237 24.0815 16.7198 22.5119 16.7178 20.9918C16.7178 20.4442 16.7178 19.8967 16.7178 19.3491V18.6394L16.8325 18.6691L17.3978 18.8094C17.7932 18.9043 18.1569 19.0071 18.5246 19.0961L20.4401 19.6081C22.5374 20.1695 24.706 20.7506 26.833 21.3417C27.8856 21.626 28.9972 21.6068 30.0393 21.2863C32.3383 20.6518 34.6828 20.0271 36.958 19.4222L39.4033 18.7699C39.4841 18.7492 39.5659 18.7327 39.6484 18.7205L39.8461 18.6849L39.9568 18.6651V19.4064C39.9568 19.9546 39.9568 20.5022 39.9568 21.0491C39.9568 22.5317 39.9568 24.0637 39.9726 25.568C39.9726 26.0563 39.8125 26.3271 39.3579 26.5663C35.968 28.3359 32.1968 29.2493 28.3729 29.2271ZM16.9076 18.8806V19.353C16.9076 19.9 16.9076 20.4475 16.9076 20.9958C16.9076 22.5159 16.9076 24.0874 16.8937 25.6333C16.8763 25.7903 16.9115 25.9487 16.9938 26.0835C17.0761 26.2184 17.2008 26.3221 17.3484 26.3785C20.0021 27.7764 22.904 28.6407 25.8901 28.9226C30.7015 29.3753 35.2007 28.5273 39.263 26.4042C39.6583 26.2065 39.7868 25.9911 39.7809 25.5759C39.7572 24.0677 39.7611 22.5357 39.7651 21.0531C39.7651 20.5055 39.7651 19.9579 39.7651 19.4104V18.8905L39.6722 18.9063C39.5773 18.9241 39.5081 18.9359 39.4429 18.9518L36.9976 19.6061C34.7322 20.1991 32.3877 20.8337 30.0789 21.4682C29.0045 21.7987 27.8585 21.8179 26.7737 21.5236C24.6467 20.9305 22.4801 20.3533 20.3828 19.7919L18.4673 19.2779C18.0996 19.1791 17.7299 19.0803 17.3425 18.9933L16.9076 18.8806ZM46.7905 25.7618C46.4247 25.7582 46.0748 25.6112 45.8161 25.3525C45.5573 25.0938 45.4104 24.7439 45.4068 24.378C45.4077 24.0087 45.553 23.6544 45.8115 23.3908C46.07 23.1271 46.4214 22.9748 46.7905 22.9666H46.8024C47.1638 22.9789 47.5064 23.1307 47.7582 23.3903C48.0099 23.6498 48.1513 23.9968 48.1526 24.3584C48.1539 24.72 48.0149 25.0681 47.765 25.3294C47.5151 25.5907 47.1736 25.745 46.8123 25.7598L46.7905 25.7618ZM46.7905 23.1544C46.4708 23.1621 46.1667 23.2943 45.943 23.5228C45.7193 23.7514 45.5935 24.0582 45.5926 24.378C45.5967 24.696 45.7253 24.9997 45.9507 25.224C46.1761 25.4483 46.4804 25.5754 46.7984 25.5779H46.8083C47.1294 25.5709 47.435 25.439 47.6603 25.2102C47.7726 25.0989 47.8619 24.9666 47.9229 24.8207C47.984 24.6748 48.0157 24.5184 48.0161 24.3602C48.0047 24.0424 47.8727 23.7408 47.6468 23.5168C47.421 23.2928 47.1184 23.1632 46.8004 23.1544H46.7905ZM28.3492 20.1181C27.9369 20.116 27.5267 20.0588 27.1295 19.9481C22.9368 18.8154 18.6689 17.6748 14.5434 16.5717L9.82084 15.3165C9.6706 15.275 9.52234 15.2295 9.37408 15.182L9.17641 15.1188L9.1171 15.101L9.09338 14.8638L10.8468 14.3894L14.5552 13.3891L17.3484 12.6478C20.5982 11.7741 23.9587 10.8687 27.2738 10.0187C27.9472 9.84475 28.6528 9.83729 29.3297 9.99696C34.0739 11.2384 38.9091 12.5351 43.5743 13.7884L47.2867 14.7768C47.3461 14.7945 47.4036 14.8176 47.4587 14.846L47.6267 14.9191L47.8699 15.0239L46.8004 15.3184C46.2469 15.4707 45.7251 15.615 45.2012 15.7553L40.7732 16.9414C37.0984 17.9298 33.299 18.9399 29.5669 19.95C29.1637 20.0609 28.7475 20.1175 28.3294 20.1181H28.3492ZM9.37211 14.9784L9.44722 15.0022C9.59351 15.0476 9.73979 15.0931 9.88607 15.1326L14.571 16.4037C18.6985 17.5067 22.9644 18.6454 27.1572 19.78C27.9288 19.9984 28.7458 19.9984 29.5174 19.78C33.2516 18.7699 37.051 17.7538 40.7258 16.7734L45.1538 15.5873C45.6776 15.4489 46.1975 15.3046 46.751 15.1524L47.3164 14.9962C47.2909 14.9842 47.2644 14.9743 47.2373 14.9666L43.5249 13.9782C38.8617 12.7249 34.0364 11.4281 29.2921 10.1887C28.6453 10.0353 27.9708 10.0421 27.3272 10.2085C24.0141 11.0605 20.6536 11.9639 17.4038 12.8376L14.5948 13.569C13.3599 13.8985 12.1244 14.2279 10.8883 14.5574L9.37211 14.9784Z" fill="url(#paint3_linear_18_545)"/>
<path d="M36.8731 3.24998C36.8078 2.80521 36.6418 2.43555 36.7367 2.15485C36.8671 1.77135 37.1518 1.24158 37.4562 1.16646C37.7606 1.09134 38.3833 1.48274 38.4703 1.78124C38.8109 2.94365 39.0451 4.13462 39.1701 5.33944C39.2037 5.67154 38.755 6.26655 38.409 6.3812C37.3554 6.73109 36.2445 6.91691 35.1533 7.14621C34.5602 7.27075 34.0581 7.10075 33.9237 6.4662C33.7755 5.77433 34.2262 5.45211 34.839 5.30781L35.9895 5.03897C34.8172 4.12553 33.4724 3.45851 32.0359 3.078C27.7068 1.86229 23.686 2.56207 19.9973 5.14571C19.8451 5.25246 19.6949 5.45211 19.5446 5.45409C19.0999 5.45409 18.5147 5.53712 18.24 5.29595C17.7636 4.8749 17.9573 4.26802 18.4831 3.96558C19.9538 3.11754 21.387 2.12915 22.9645 1.55984C27.5545 -0.0986781 31.9964 0.45482 36.2089 2.89614C36.3868 3.00289 36.5766 3.09184 36.8731 3.24998Z" fill="url(#paint4_linear_18_545)"/>
<path d="M20.2678 36.369C20.3488 36.9047 20.5188 37.2823 20.418 37.5551C20.2796 37.9327 19.9891 38.4071 19.657 38.5138C19.4099 38.5949 18.7714 38.2213 18.6943 37.9425C18.3571 36.7487 18.1164 35.5298 17.9747 34.2974C17.9391 33.9831 18.3701 33.4058 18.6923 33.309C19.7959 32.9875 20.9156 32.7242 22.0469 32.5202C22.6399 32.3957 23.1282 32.6092 23.2448 33.2437C23.3614 33.8783 22.9463 34.2084 22.3711 34.3527C22.0212 34.4417 21.6654 34.5168 21.1475 34.6374C22.8701 35.8942 24.8768 36.7057 26.9888 36.9996C30.7645 37.561 34.1902 36.6734 37.2799 34.4436C37.3808 34.3725 37.4776 34.2974 37.5824 34.2282C38.0884 33.8901 38.5886 33.8546 38.976 34.3784C39.3635 34.9023 39.1401 35.3668 38.6657 35.7384C36.5248 37.4068 33.9838 38.4845 31.2962 38.8637C27.3842 39.4251 23.7726 38.5573 20.2678 36.369Z" fill="url(#paint5_linear_18_545)"/>
<defs>
<linearGradient id="paint0_linear_18_545" x1="29.5" y1="34.741" x2="40.9137" y2="62.0866" gradientUnits="userSpaceOnUse">
<stop offset="0.3" stop-color="#CE9EF9"/>
<stop offset="1" stop-color="#5C57EC"/>
</linearGradient>
<linearGradient id="paint1_linear_18_545" x1="5.55495" y1="57.8051" x2="7.27553" y2="58.915" gradientUnits="userSpaceOnUse">
<stop offset="0.3" stop-color="#CE9EF9"/>
<stop offset="1" stop-color="#5C57EC"/>
</linearGradient>
<linearGradient id="paint2_linear_18_545" x1="29.2576" y1="1.81917" x2="44.9431" y2="27.2429" gradientUnits="userSpaceOnUse">
<stop offset="0.3" stop-color="#CE9EF9"/>
<stop offset="1" stop-color="#5C57EC"/>
</linearGradient>
<linearGradient id="paint3_linear_18_545" x1="29.2586" y1="1.67728" x2="45.0713" y2="27.2484" gradientUnits="userSpaceOnUse">
<stop offset="0.3" stop-color="#CE9EF9"/>
<stop offset="1" stop-color="#5C57EC"/>
</linearGradient>
<linearGradient id="paint4_linear_18_545" x1="28.9146" y1="-1.03434" x2="31.41" y2="7.02829" gradientUnits="userSpaceOnUse">
<stop offset="0.3" stop-color="#CE9EF9"/>
<stop offset="1" stop-color="#5C57EC"/>
</linearGradient>
<linearGradient id="paint5_linear_18_545" x1="28.9178" y1="30.8504" x2="31.3918" y2="38.8812" gradientUnits="userSpaceOnUse">
<stop offset="0.3" stop-color="#CE9EF9"/>
<stop offset="1" stop-color="#5C57EC"/>
</linearGradient>
</defs>
</svg>
