<svg width="52" height="65" viewBox="0 0 52 65" fill="none" xmlns="http://www.w3.org/2000/svg">
<path d="M26.5562 0.546875C28.185 1.08403 29.8099 1.63658 31.4426 2.15833C36.0453 3.62924 40.6505 5.09309 45.2583 6.54988C45.4355 6.60764 45.6126 6.66925 45.7839 6.74241C46.1833 6.90083 46.5189 7.18691 46.7387 7.55605C46.9584 7.92519 47.0499 8.35666 46.9988 8.7832C46.9643 9.20185 46.7928 9.59747 46.5109 9.90893C46.2291 10.2204 45.8525 10.4303 45.4393 10.5063C43.7451 10.8246 42.047 11.1154 40.345 11.3785C39.8907 11.4497 39.7097 11.5903 39.727 12.0773C39.7832 13.1151 39.7787 14.1552 39.7135 15.1924C39.675 15.6969 39.3747 16.1801 39.1976 16.673C39.1109 16.9136 38.9685 17.1582 38.9665 17.4007C38.9492 19.6456 38.9377 21.8886 38.9665 24.1392C38.9839 25.4869 38.4717 26.4495 37.1529 26.9424C37.0693 26.9868 36.9965 27.0491 36.9399 27.1251C36.8833 27.201 36.8443 27.2885 36.8256 27.3814C36.4175 30.25 35.064 32.5796 32.8403 34.4163C32.3917 34.7879 32.4668 35.7486 32.9616 36.0721C35.4779 37.7201 37.9827 39.3951 40.5337 40.9892C41.1306 41.3627 41.8814 41.484 42.5822 41.69C44.2322 42.181 45.9149 42.5833 47.3319 43.6384C49.9849 45.6118 51.296 48.259 51.3249 51.5551C51.348 54.443 51.348 57.3309 51.3249 60.2189C51.3076 62.7217 49.6172 64.3813 47.1085 64.3813H5.03163C2.4845 64.3813 0.815282 62.7217 0.796029 60.1784C0.796029 59.6798 0.782552 59.1811 0.796029 58.6825C0.821057 57.9952 1.18108 57.612 1.75867 57.6255C2.33625 57.639 2.64237 57.9952 2.6597 58.6671C2.6751 59.2273 2.64814 59.7895 2.66932 60.3498C2.71938 61.6705 3.57998 62.5022 4.90457 62.5099C6.17332 62.5099 7.44015 62.5099 8.70699 62.5003C8.74357 62.5003 8.78015 62.4695 8.88026 62.4233C8.88026 61.3355 8.88026 60.2208 8.88026 59.1041C8.87027 58.8756 8.87477 58.6467 8.89374 58.4187C8.91678 58.1798 9.02829 57.958 9.20638 57.797C9.38448 57.636 9.6163 57.5474 9.85637 57.5485C10.0983 57.558 10.3266 57.6631 10.4911 57.8406C10.6557 58.0182 10.7432 58.2538 10.7343 58.4957C10.7516 59.803 10.7343 61.1083 10.7343 62.4637H41.3674V59.3063C41.3674 59.056 41.3674 58.8057 41.3674 58.5573C41.3924 57.9624 41.7389 57.5697 42.2491 57.5466C42.7593 57.5235 43.2118 57.9316 43.2233 58.5419C43.2484 59.622 43.2329 60.7021 43.2329 61.7822V62.4984C44.7481 62.4984 46.1998 62.5561 47.6457 62.4791C48.6468 62.4271 49.4266 61.5473 49.4343 60.4807C49.4535 57.2193 49.5209 53.954 49.3688 50.6984C49.2244 47.6006 47.0161 45.0092 44.0435 44.0793C43 43.7443 41.9411 43.4382 40.8822 43.1609C40.6117 43.1014 40.3288 43.141 40.0851 43.2726C35.7571 45.8216 31.4329 48.3765 27.1319 50.9737C26.381 51.4261 25.8015 51.4627 25.0295 50.9949C20.7669 48.415 16.4716 45.8948 12.1975 43.3342C12.03 43.2207 11.8379 43.1486 11.6371 43.1239C11.4363 43.0991 11.2324 43.1224 11.0423 43.1917C10.1375 43.4882 9.21333 43.7308 8.30268 44.0138C4.79868 45.1016 2.71938 47.9144 2.67317 51.584C2.67317 52.435 2.6828 58.7845 2.6597 59.6355C2.64429 60.2131 2.29389 60.5616 1.79332 60.5866C1.67325 60.598 1.55212 60.5846 1.43745 60.5472C1.32278 60.5098 1.21703 60.4492 1.12676 60.3692C1.03648 60.2892 0.963615 60.1915 0.912683 60.0822C0.86175 59.9729 0.83384 59.8543 0.830684 59.7337C0.801805 57.7237 0.638156 50.1997 1.34666 48.2533C2.47872 45.1728 4.6408 43.1859 7.75975 42.2175C8.49135 41.9904 9.22681 41.7632 9.96997 41.5764C10.8753 41.3522 11.7333 40.9682 12.5036 40.4424C14.6407 39.0062 16.8085 37.6161 18.9629 36.2068C19.7523 35.6908 19.8043 34.8591 19.0977 34.2527C17.0512 32.5431 15.7063 30.1393 15.3203 27.5007C15.2986 27.3812 15.2514 27.2678 15.1819 27.1682C15.1125 27.0685 15.0225 26.9849 14.9179 26.9231C13.7223 26.4534 13.1698 25.587 13.1717 24.3259C13.1717 22.0811 13.1871 19.8362 13.1544 17.5875C13.1544 17.2332 12.9233 16.8828 12.8097 16.5286C12.6654 16.0838 12.4362 15.641 12.4112 15.1809C12.3535 14.1047 12.4112 13.0207 12.3785 11.9426C12.3785 11.7693 12.2129 11.4767 12.082 11.4516C10.6554 11.1917 9.24991 10.9645 7.78285 10.7181V14.9864C8.36044 15.385 8.91877 15.6834 9.35195 16.1069C9.59348 16.3929 9.71857 16.7592 9.70235 17.1331C9.54641 20.1404 10.3646 23.0206 10.7863 25.9509C10.8739 26.3965 10.9381 26.8463 10.9788 27.2986C10.9982 27.5694 10.9623 27.8414 10.8735 28.098C10.7846 28.3546 10.6446 28.5905 10.4619 28.7914C10.2792 28.9923 10.0576 29.154 9.81055 29.2667C9.5635 29.3794 9.29613 29.4408 9.02466 29.4472C7.55246 29.4895 6.07642 29.4895 4.59652 29.4472C3.29504 29.4087 2.42481 28.2747 2.64429 26.9443C3.01395 24.6918 3.44328 22.4488 3.77635 20.1924C3.9092 19.2952 3.85914 18.3711 3.87262 17.4585C3.89187 16.1378 4.49448 15.4331 5.86143 15.2098C5.86143 13.5848 5.86143 11.9484 5.86143 10.3119C5.86143 10.1906 5.73821 10.0616 5.65157 9.95377C4.63503 8.68309 5.07399 7.14094 6.63346 6.64037C10.7805 5.31065 14.9295 3.98798 19.0804 2.67238C21.1494 2.01137 23.2184 1.34907 25.2875 0.685495C25.3796 0.64777 25.4679 0.601354 25.5512 0.546875H26.5562ZM19.0996 17.2794C19.0996 17.9129 19.115 18.5501 19.0996 19.1855C19.091 19.9629 18.7768 20.7058 18.2248 21.2534C17.6729 21.801 16.9276 22.1094 16.1501 22.1119C15.8016 22.1119 15.4532 22.1119 15.0508 22.1119C15.0508 22.9763 15.0084 23.783 15.0796 24.5801C15.097 24.7842 15.4474 25.0595 15.6919 25.123C16.6545 25.3714 17.0068 25.7314 17.0954 26.6786C17.2791 28.9265 18.3005 31.0234 19.9571 32.5539C21.6137 34.0845 23.7847 34.9369 26.0401 34.9425C28.2955 34.9481 30.4707 34.1063 32.1348 32.584C33.799 31.0617 34.8307 28.9699 35.0255 26.7229C35.1237 25.7141 35.4529 25.3752 36.4483 25.1211C36.6909 25.0576 37.0259 24.7707 37.047 24.5628C37.1183 23.7676 37.0759 22.9629 37.0759 22.1138C36.7371 22.1138 36.4714 22.1138 36.2057 22.1138C34.2515 22.0984 33.0328 20.8778 33.0174 18.9159C33.0174 18.3807 33.0174 17.8455 33.0174 17.2775L19.0996 17.2794ZM31.1942 10.7085C29.1881 10.5506 27.1839 10.2811 25.1796 10.2772C23.572 10.2772 21.9606 10.5833 20.353 10.7759C18.3372 11.0165 16.3234 11.2784 14.2807 11.5344V15.3291H37.8345V11.5594C37.5592 11.5132 37.3166 11.4651 37.0644 11.4305C36.8122 11.3958 36.5253 11.3862 36.2615 11.3361L31.1942 10.7085ZM31.9643 8.91412C32.5765 9.00076 32.952 9.4455 32.8846 9.9634C32.8172 10.4813 32.4052 10.7932 31.8122 10.772M37.2838 9.56872C37.9423 9.60722 38.6123 9.73236 39.2534 9.64958C40.8572 9.44165 42.4494 9.1413 44.0454 8.86984C44.4054 8.80823 44.7616 8.71389 45.1197 8.63688C44.9998 8.48495 44.8356 8.37396 44.65 8.31921C38.5841 6.39394 32.5162 4.46866 26.4465 2.54339C26.1532 2.46803 25.8444 2.47872 25.557 2.57419C19.8043 4.39293 14.0541 6.21938 8.30653 8.05352C7.86372 8.19407 7.42668 8.35194 6.83562 8.5541C7.01414 8.63013 7.19743 8.69444 7.38432 8.74662C8.69351 8.96995 10.0027 9.19329 11.3119 9.40314C12.0685 9.52636 12.8406 9.77279 13.5818 9.70926C15.6996 9.51673 17.7866 9.21639 19.8851 8.93915C23.1812 8.50789 26.4734 8.03812 29.8042 8.63688C30.5165 8.76588 31.2462 8.80631 31.9643 8.90835L37.2838 9.56872ZM21.4369 35.7775C21.3515 37.4597 21.5341 39.1448 21.9779 40.7697C22.0145 40.9045 22.2609 41.047 22.4284 41.0778C24.7438 41.4726 27.107 41.4993 29.4307 41.1567C29.9871 41.0816 30.2104 40.8236 30.2778 40.3115C30.3336 39.9014 30.4703 39.501 30.503 39.089C30.6051 38.0147 30.6763 36.9384 30.7687 35.7332C27.5574 37.1367 24.5173 37.1213 21.4369 35.7775ZM38.5719 41.9711L32.5149 38.0147C32.1887 41.3864 31.0777 44.635 29.2709 47.5005L38.5719 41.9711ZM13.5433 41.9711L22.8501 47.4986C21.0378 44.6377 19.9172 41.3938 19.5771 38.0243L13.5433 41.9711ZM5.67853 20.7488C5.64833 20.7865 5.62309 20.8279 5.60344 20.872C5.23507 22.9744 4.86542 25.0755 4.49448 27.1754C4.42325 27.5874 4.68701 27.6047 4.98158 27.6028C6.18487 27.6028 7.38817 27.5835 8.58954 27.6028C9.07664 27.6124 9.1498 27.4102 9.07086 26.9944C8.93994 26.3032 8.8302 25.6063 8.71084 24.9132C8.47018 23.5289 8.23144 22.1446 7.98693 20.7411L5.67853 20.7488ZM29.498 43.1744H22.6171L26.0576 48.9098L29.498 43.1744ZM15.0585 20.2386C15.482 20.2386 15.8286 20.2636 16.179 20.2386C16.7335 20.1885 17.1512 19.894 17.2032 19.3299C17.2648 18.6599 17.2167 17.9822 17.2167 17.2871H15.0527L15.0585 20.2386ZM34.8946 17.2756C34.8946 17.9591 34.8676 18.5983 34.8946 19.2336C34.9254 19.8112 35.295 20.1423 35.8399 20.2213C36.2392 20.2484 36.64 20.2484 37.0393 20.2213V17.2756H34.8946ZM5.77094 18.8158H7.82136V17.1736H5.77094V18.8158Z" fill="url(#paint0_linear_18_537)"/>
<path d="M25.892 64.4648H5.03162C2.43057 64.4648 0.732479 62.7841 0.705525 60.1811V59.9963C0.705525 59.565 0.695899 59.1184 0.705525 58.6794V58.5928C0.661244 55.676 0.622739 49.9136 1.24268 48.2232C2.37666 45.1717 4.55223 43.1193 7.7193 42.1374C8.39893 41.9257 9.16904 41.6869 9.9353 41.4944C10.8291 41.2704 11.6764 40.8905 12.4382 40.372C13.9784 39.34 15.5475 38.3158 17.0723 37.3262C17.6807 36.9296 18.291 36.5349 18.8975 36.1363C19.064 36.0554 19.2062 35.932 19.3099 35.7786C19.4135 35.6252 19.4748 35.4471 19.4877 35.2624C19.5006 35.0777 19.4646 34.8929 19.3832 34.7266C19.3019 34.5603 19.1782 34.4183 19.0245 34.315C16.967 32.5892 15.613 30.1694 15.2183 27.513C15.1991 27.4074 15.158 27.3069 15.0976 27.218C15.0373 27.1291 14.959 27.0539 14.8679 26.9971C13.6569 26.5196 13.0677 25.6494 13.0696 24.3209V23.3583C13.0696 21.4715 13.0696 19.5193 13.0485 17.6017C13.0286 17.368 12.9632 17.1404 12.8559 16.9317C12.8059 16.8124 12.752 16.6891 12.7135 16.5659C12.675 16.4427 12.623 16.3099 12.5729 16.1809C12.4373 15.8704 12.349 15.5414 12.3111 15.2048C12.2764 14.5752 12.2803 13.9341 12.2841 13.3141C12.2841 12.8713 12.2841 12.4112 12.2841 11.9664C12.2841 11.8182 12.1301 11.5698 12.055 11.5564C10.9557 11.3465 9.86791 11.1713 8.71852 10.9788L7.8714 10.8363V14.9448C8.0312 15.0546 8.191 15.1566 8.34694 15.2567C8.72873 15.4839 9.08615 15.7497 9.41355 16.0499C9.67604 16.3509 9.81376 16.7406 9.7986 17.1397C9.68886 19.2575 10.0739 21.3753 10.4493 23.4026C10.6014 24.2324 10.7593 25.091 10.8825 25.9401C10.9037 26.0864 10.9287 26.2327 10.9538 26.3791C11.0148 26.684 11.0553 26.9928 11.0751 27.3032C11.0899 27.5925 11.0464 27.8819 10.9471 28.1541C10.8479 28.4263 10.695 28.6757 10.4975 28.8877C10.3091 29.0887 10.0824 29.2499 9.83084 29.362C9.57922 29.4741 9.30773 29.5347 9.03234 29.5404C7.5364 29.5827 6.04624 29.5827 4.60421 29.5404C4.3034 29.536 4.00709 29.4666 3.7356 29.337C3.4641 29.2074 3.22383 29.0206 3.03126 28.7895C2.82699 28.5318 2.6801 28.2334 2.60042 27.9143C2.52073 27.5952 2.51009 27.2628 2.56919 26.9393C2.71166 26.0729 2.86568 25.1912 3.01393 24.3402C3.25267 22.9809 3.49717 21.5755 3.70125 20.1874C3.78278 19.5142 3.81432 18.8359 3.79559 18.1581C3.79559 17.9271 3.79559 17.6961 3.79559 17.465C3.80907 16.1 4.42323 15.38 5.77863 15.1374V14.2498C5.77863 12.9599 5.77863 11.6276 5.77863 10.3126C5.77863 10.2395 5.69391 10.1374 5.62653 10.0546L5.5861 10.0065C5.07975 9.37309 4.90455 8.63186 5.10286 7.97342C5.30116 7.31497 5.84794 6.8067 6.60842 6.56219C9.52714 5.62458 12.4998 4.67927 15.3723 3.76669L19.0553 2.5942C21.1308 1.93447 23.2056 1.27218 25.2797 0.607314C25.337 0.585546 25.3919 0.557798 25.4434 0.524527L25.53 0.47447L25.5474 0.464844H26.5928L28.133 0.973117C29.2304 1.33892 30.3663 1.7182 31.4888 2.0763C34.523 3.04535 37.5585 4.00799 40.5953 4.96421L45.2833 6.47363C45.4642 6.52888 45.6422 6.59314 45.8167 6.66616C46.2239 6.83427 46.5666 7.12843 46.7946 7.50552C47.0225 7.88261 47.1236 8.32279 47.0832 8.76154C47.0427 9.20029 46.8627 9.61454 46.5697 9.94356C46.2766 10.2726 45.8859 10.4991 45.4547 10.5899C43.7431 10.9095 42.0296 11.204 40.3585 11.462C39.9138 11.5313 39.7963 11.6545 39.8098 12.0762C39.867 13.1165 39.8625 14.1592 39.7963 15.199C39.7462 15.5602 39.6355 15.9103 39.469 16.2348C39.4016 16.3869 39.3323 16.5467 39.2765 16.7026C39.2515 16.7719 39.2207 16.8412 39.1918 16.9125C39.1127 17.0653 39.0643 17.232 39.0493 17.4034C39.0301 19.9063 39.0224 22.0125 39.0493 24.1323C39.0666 25.6051 38.4563 26.5485 37.1799 27.0202C37.1103 27.0588 37.0499 27.1121 37.0027 27.1762C36.9555 27.2403 36.9227 27.3138 36.9065 27.3917C36.5022 30.2238 35.1525 32.6073 32.8923 34.4787C32.7938 34.5754 32.7186 34.6933 32.6726 34.8234C32.6265 34.9535 32.6108 35.0924 32.6266 35.2295C32.628 35.3787 32.6635 35.5256 32.7302 35.6591C32.7969 35.7925 32.8932 35.909 33.0116 35.9997L34.781 37.1548C36.6735 38.4005 38.6315 39.6885 40.5838 40.911C41.0469 41.164 41.5453 41.3463 42.0624 41.452C42.2549 41.5002 42.432 41.5483 42.6111 41.6022L43.1983 41.7736C44.6384 42.1913 46.1266 42.6245 47.3877 43.5641C50.0311 45.5298 51.3846 48.2155 51.4134 51.5462C51.4346 54.1396 51.4346 56.9755 51.4134 60.21C51.398 62.7494 49.6691 64.4552 47.1143 64.4552L25.892 64.4648ZM0.873024 60.2292C0.917305 62.7071 2.54609 64.307 5.03162 64.307C19.0579 64.307 33.0829 64.307 47.1066 64.307C49.5632 64.307 51.2228 62.6666 51.2402 60.2254C51.2613 56.989 51.2613 54.1569 51.2402 51.5616C51.2132 48.2887 49.8809 45.6434 47.2818 43.7104C46.0458 42.7882 44.571 42.3627 43.1463 41.9468C42.9538 41.8891 42.7612 41.8332 42.5591 41.7736C42.3569 41.7139 42.1971 41.6734 42.0142 41.6272C41.4806 41.5175 40.9666 41.328 40.4894 41.0651C38.5353 39.8425 36.5773 38.5622 34.6828 37.3069L32.9154 36.1517C32.7768 36.0455 32.664 35.9093 32.5857 35.7532C32.5073 35.5971 32.4653 35.4253 32.4629 35.2507C32.445 35.0874 32.465 34.9222 32.5215 34.7679C32.5779 34.6136 32.6692 34.4744 32.7883 34.3612C35.0139 32.5188 36.3462 30.1699 36.7428 27.3802C36.7641 27.272 36.8098 27.1701 36.8766 27.0823C36.9433 26.9946 37.0293 26.9232 37.1279 26.8738C38.3447 26.4272 38.903 25.5627 38.8857 24.1496C38.8606 22.0318 38.8683 19.914 38.8857 17.4111C38.9018 17.218 38.9547 17.0298 39.0416 16.8566C39.0705 16.7893 39.0994 16.7219 39.1225 16.6641C39.1802 16.5024 39.2515 16.3407 39.315 16.1847C39.4737 15.8772 39.5798 15.5454 39.6288 15.2028C39.6931 14.1694 39.6976 13.1332 39.6423 12.0993C39.6211 11.5352 39.8791 11.385 40.3315 11.3138C41.9988 11.0558 43.7123 10.7631 45.422 10.4435C45.8183 10.3688 46.179 10.1659 46.4486 9.86602C46.7182 9.56614 46.8818 9.18593 46.9141 8.78396C46.9647 8.37486 46.8777 7.96053 46.6668 7.60635C46.4559 7.25216 46.1331 6.97827 45.7493 6.82788C45.5809 6.75428 45.4087 6.69001 45.2333 6.63535L40.526 5.13941C37.4905 4.17549 34.4543 3.21285 31.4175 2.2515C30.2951 1.8934 29.1592 1.51412 28.0618 1.14832L26.5427 0.643894H25.5801L25.5204 0.680475C25.4599 0.71994 25.3953 0.752855 25.3279 0.778664C23.2473 1.43454 21.1699 2.09234 19.0958 2.75207C17.8687 3.14483 16.641 3.53566 15.4127 3.92456C12.5402 4.83907 9.56949 5.78245 6.64885 6.72199C5.93072 6.9511 5.43593 7.41316 5.25303 8.02155C5.07013 8.62994 5.2357 9.31148 5.70739 9.90254L5.74397 9.94875C5.8464 10.0456 5.91407 10.1735 5.9365 10.3126C5.94805 11.6257 5.94805 12.9599 5.9365 14.2498V15.2818L5.86719 15.2933C4.54067 15.507 3.96694 16.1578 3.94191 17.4689C3.94191 17.698 3.94191 17.9271 3.94191 18.1581C3.96239 18.8443 3.93085 19.531 3.84757 20.2124C3.6435 21.6024 3.39706 23.0079 3.15833 24.3691C3.01008 25.22 2.85606 26.1018 2.71359 26.9663C2.65972 27.2669 2.67049 27.5755 2.74518 27.8716C2.81987 28.1677 2.95677 28.4445 3.14677 28.6836C3.32439 28.8958 3.54566 29.0672 3.79551 29.1861C4.04535 29.3051 4.3179 29.3688 4.59458 29.3729C6.03661 29.4152 7.52292 29.4152 9.02271 29.3729C9.2759 29.3678 9.52552 29.3122 9.75695 29.2094C9.98837 29.1066 10.1969 28.9586 10.3704 28.7741C10.5511 28.5776 10.6905 28.3469 10.7805 28.0955C10.8704 27.8442 10.909 27.5774 10.8941 27.3109C10.8751 27.007 10.8359 26.7047 10.7766 26.406C10.7497 26.2597 10.7247 26.1114 10.7035 25.9632C10.5822 25.118 10.4243 24.2612 10.2722 23.4315C9.88716 21.3887 9.50211 19.2767 9.61955 17.13C9.63476 16.7798 9.51873 16.4366 9.29418 16.1674C8.97379 15.8763 8.62482 15.6183 8.2526 15.3973C8.08318 15.2895 7.91183 15.1778 7.73663 15.0565L7.70005 15.0315V10.6207L8.74162 10.7959C9.89679 10.9884 10.9807 11.1674 12.082 11.3735C12.2745 11.4081 12.442 11.7585 12.4459 11.951C12.4574 12.4035 12.4459 12.8617 12.4459 13.2987C12.4459 13.9167 12.4459 14.5559 12.4747 15.1797C12.5105 15.4993 12.5949 15.8116 12.725 16.1058C12.7751 16.2367 12.8251 16.3676 12.8675 16.4908C12.9098 16.6141 12.9561 16.7257 13.0061 16.8412C13.1217 17.0696 13.1929 17.3179 13.216 17.5728C13.2448 19.4981 13.241 21.4446 13.2371 23.3333V24.3075C13.2371 25.5531 13.7878 26.3791 14.9275 26.8257C15.0466 26.8927 15.1493 26.9853 15.2282 27.0969C15.3072 27.2084 15.3603 27.3361 15.3838 27.4707C15.7662 30.0977 17.1019 32.4921 19.1362 34.1976C19.3102 34.3174 19.4501 34.4804 19.5419 34.6707C19.6338 34.861 19.6746 35.0719 19.6602 35.2827C19.6458 35.4934 19.5768 35.6969 19.46 35.8729C19.3431 36.0489 19.1824 36.1915 18.9937 36.2865L17.1666 37.4706C15.6437 38.4621 14.0689 39.4844 12.5344 40.5163C11.7568 41.0502 10.8904 41.4413 9.97573 41.6715C9.20562 41.864 8.43551 42.1008 7.76744 42.3107C4.65234 43.2733 2.51336 45.293 1.41403 48.2964C0.836444 49.8559 0.836444 55.0021 0.876875 58.0325C0.962682 57.8768 1.0914 57.7491 1.24772 57.6644C1.40404 57.5798 1.58138 57.5418 1.75865 57.555C1.92038 57.5481 2.08101 57.5848 2.22364 57.6614C2.36627 57.7379 2.48563 57.8515 2.56919 57.9901C2.56919 56.9409 2.56919 55.5797 2.56919 54.386C2.56919 53.0576 2.56919 51.9101 2.56919 51.5809C2.6077 47.8863 4.7332 45.035 8.25838 43.9337C8.64344 43.8124 9.04197 43.6969 9.42702 43.5872C9.943 43.437 10.4782 43.281 10.998 43.1116C11.2003 43.0373 11.4174 43.0122 11.6313 43.0383C11.8452 43.0644 12.0498 43.141 12.2283 43.2618C13.9251 44.2758 15.6232 45.2872 17.3226 46.296C19.8639 47.8054 22.49 49.3765 25.0603 50.9167C25.7822 51.3537 26.329 51.3479 27.0779 50.8955C31.4291 48.2694 35.863 45.6511 40.0312 43.1944C40.2939 43.0531 40.5989 43.0114 40.8899 43.077C41.8525 43.3215 42.8864 43.6199 44.0647 43.9876C47.1451 44.9503 49.3053 47.6456 49.4554 50.6818C49.5825 53.3772 49.5575 56.113 49.5344 58.768C49.5344 59.3353 49.5299 59.9039 49.5209 60.4738C49.5209 61.5846 48.693 62.4991 47.6534 62.553C46.6137 62.607 45.6453 62.5954 44.5922 62.5839C44.1455 62.5839 43.695 62.5742 43.2445 62.5742H43.1617V61.781C43.1617 61.4633 43.1617 61.1457 43.1617 60.828C43.1617 60.0791 43.1617 59.3032 43.1501 58.5427C43.1514 58.4126 43.1263 58.2836 43.0764 58.1635C43.0264 58.0434 42.9526 57.9346 42.8594 57.8438C42.7794 57.7699 42.6853 57.7127 42.5828 57.6756C42.4803 57.6386 42.3714 57.6225 42.2626 57.6282C41.7909 57.6494 41.4829 58.0132 41.4598 58.56C41.4598 58.7352 41.4598 58.9162 41.4598 59.0895V62.5434H10.6553V62.4606C10.6553 62.0659 10.6553 61.677 10.6553 61.2901C10.6553 60.3274 10.6553 59.4206 10.6553 58.4946C10.66 58.3852 10.643 58.2759 10.6053 58.1731C10.5676 58.0703 10.51 57.9759 10.4358 57.8954C10.3616 57.8149 10.2722 57.7499 10.1727 57.704C10.0733 57.6582 9.96578 57.6324 9.85636 57.6282C9.63578 57.6259 9.42246 57.7069 9.25899 57.855C9.09553 58.0031 8.99396 58.2074 8.97458 58.4272C8.9569 58.5928 8.95175 58.7595 8.95918 58.9258C8.95918 58.9836 8.95918 59.0433 8.95918 59.101C8.95918 59.9212 8.95918 60.7414 8.95918 61.55V62.4741L8.90912 62.4953L8.82249 62.5396C8.78579 62.5624 8.74424 62.5762 8.70119 62.58H7.83675C6.87411 62.58 5.87874 62.5916 4.89877 62.58C3.52028 62.58 2.6308 61.7136 2.58844 60.339C2.58844 60.2928 2.58844 60.2485 2.58844 60.2004C2.50594 60.3373 2.39011 60.4512 2.25175 60.5313C2.11339 60.6114 1.957 60.6552 1.79716 60.6586C1.65738 60.6682 1.51711 60.6494 1.38478 60.6034C1.25244 60.5574 1.13076 60.4852 1.02705 60.391C0.969109 60.3401 0.917406 60.2826 0.873024 60.2196V60.2292ZM43.3215 62.4183C43.7508 62.4183 44.1744 62.4183 44.5941 62.4279C45.6453 62.4414 46.6387 62.4529 47.6437 62.399C48.5967 62.349 49.3476 61.5076 49.3534 60.4834C49.3534 59.9058 49.363 59.3455 49.3669 58.7776C49.3919 56.1284 49.415 53.3868 49.2899 50.7049C49.1493 47.7323 47.0334 45.1024 44.0223 44.159C42.8479 43.7912 41.8121 43.4947 40.8571 43.2483C40.6083 43.1941 40.3482 43.2303 40.1236 43.3504C35.9554 45.807 31.5215 48.4254 27.1704 51.0515C26.3694 51.5347 25.7553 51.5424 24.9813 51.0726C22.4111 49.517 19.7831 47.9556 17.2456 46.452C15.5462 45.4418 13.8481 44.4298 12.1513 43.4158C11.9931 43.3074 11.8112 43.2386 11.6209 43.2152C11.4306 43.1917 11.2375 43.2143 11.0577 43.281C10.536 43.4524 9.99883 43.6083 9.48093 43.7585C9.09588 43.8683 8.70119 43.9838 8.31421 44.1031C4.86219 45.1717 2.78097 47.9652 2.74439 51.5828C2.74439 51.9101 2.74439 53.0576 2.74439 54.386C2.74439 55.9166 2.74439 57.7187 2.74439 58.7911C2.74439 59.0105 2.74439 59.2319 2.74439 59.4476C2.74439 59.7421 2.74439 60.0463 2.74439 60.3448C2.79252 61.6212 3.61654 62.4183 4.89877 62.426C5.87681 62.426 6.87218 62.426 7.83289 62.426H8.69927L8.74355 62.4048L8.78976 62.3798V59.1068C8.78976 59.049 8.78976 58.9913 8.78976 58.9335C8.78305 58.7594 8.78884 58.5851 8.80708 58.4118C8.83219 58.1505 8.95463 57.9083 9.15009 57.7332C9.34555 57.5581 9.59972 57.4628 9.86213 57.4665C9.99329 57.4704 10.1224 57.5003 10.2419 57.5545C10.3614 57.6086 10.469 57.6859 10.5585 57.7818C10.648 57.8778 10.7176 57.9905 10.7633 58.1135C10.809 58.2365 10.8299 58.3673 10.8248 58.4984C10.8363 59.4245 10.8344 60.3332 10.8248 61.2958C10.8248 61.6559 10.8248 62.0178 10.8248 62.3836H41.2846V59.3032C41.2846 59.2319 41.2846 59.1607 41.2846 59.0895C41.2846 58.9124 41.2846 58.7314 41.2846 58.5504C41.3096 57.9131 41.6889 57.4857 42.2472 57.4607C42.3783 57.4527 42.5096 57.4717 42.6331 57.5164C42.7566 57.5611 42.8697 57.6306 42.9653 57.7206C43.0744 57.8267 43.1612 57.9536 43.2204 58.0938C43.2796 58.2341 43.31 58.3847 43.3099 58.5369C43.3273 59.307 43.3234 60.0771 43.3215 60.828C43.3215 61.1437 43.3215 61.4614 43.3215 61.7791V62.4183ZM0.880725 58.5985C0.880725 58.8719 0.890352 59.1203 0.892277 59.3378V59.7229C0.891387 59.8258 0.91199 59.9278 0.952768 60.0222C0.993545 60.1167 1.0536 60.2017 1.12909 60.2716C1.21528 60.3503 1.31655 60.4106 1.42675 60.449C1.53695 60.4874 1.65379 60.503 1.7702 60.4949C2.24189 60.4718 2.54031 60.1368 2.55764 59.6247C2.55764 59.4822 2.55764 59.1838 2.55764 58.7834C2.55764 58.7429 2.55764 58.7006 2.55764 58.6601C2.54609 58.2289 2.39592 57.7129 1.7394 57.6975H1.71437C1.23305 57.7071 0.926932 58.0286 0.880725 58.5985ZM26.0576 49.0723L22.4669 43.0904H29.6443L26.0576 49.0723ZM22.7615 43.2579L26.0576 48.7488L29.3498 43.2579H22.7615ZM23.1003 47.7477L13.3835 41.9719L19.6541 37.8768L19.6676 38.0135C20.0013 41.3683 21.1142 44.5987 22.9174 47.4473L23.1003 47.7477ZM13.6973 41.9719L22.5998 47.2587C20.9097 44.4971 19.8573 41.3932 19.5193 38.1733L13.6973 41.9719ZM29.0244 47.7477L29.2015 47.4589C31.0042 44.6058 32.1114 41.3691 32.4341 38.0096L32.4475 37.8729L38.7316 41.9776L29.0244 47.7477ZM32.5862 38.1617C32.2587 41.3851 31.212 44.4938 29.523 47.2587L38.4217 41.9699L32.5862 38.1617ZM26.0229 41.4809C24.8111 41.485 23.6014 41.378 22.4092 41.1613C22.2301 41.1286 21.9432 40.9784 21.8932 40.7936C21.4478 39.1604 21.2645 37.4669 21.3503 35.7763V35.655L21.46 35.7032C24.5404 37.0509 27.5766 37.0354 30.7244 35.6608L30.8515 35.605L30.8399 35.7417C30.813 36.0959 30.788 36.4367 30.7629 36.7698C30.7032 37.5765 30.6455 38.3389 30.5704 39.0993C30.543 39.3274 30.5025 39.5536 30.4491 39.777C30.4106 39.9561 30.3702 40.1428 30.3451 40.3257C30.2681 40.9033 30.0024 41.1652 29.4268 41.2422C28.2992 41.3955 27.1628 41.4746 26.0248 41.479L26.0229 41.4809ZM21.512 35.8976C21.4415 37.5314 21.6253 39.1662 22.0568 40.7435C22.0799 40.834 22.2821 40.963 22.4419 40.9919C24.5866 41.3769 26.87 41.4116 29.4172 41.0708C29.9177 41.0034 30.1276 40.7936 30.1873 40.3007C30.2142 40.1082 30.2547 39.9157 30.2951 39.7385C30.3467 39.5215 30.3859 39.3016 30.4125 39.0801C30.4838 38.3215 30.5415 37.5611 30.6051 36.7544C30.6262 36.4636 30.6474 36.1768 30.6724 35.863C27.565 37.1895 24.5655 37.2029 21.5139 35.9015L21.512 35.8976ZM26.0556 35.0139C23.7791 35.0114 21.5864 34.1546 19.9112 32.6131C18.2359 31.0716 17.2002 28.9575 17.0088 26.689C16.926 25.7995 16.6122 25.453 15.6611 25.2066C15.4127 25.1411 15.0103 24.8485 14.9872 24.5905C14.9449 23.9998 14.9327 23.4073 14.9506 22.8154C14.9506 22.5843 14.9506 22.3514 14.9506 22.1146V22.0299H15.4127C15.663 22.0299 15.8998 22.0299 16.1328 22.0299C16.8907 22.0279 17.6175 21.728 18.1564 21.195C18.6952 20.6619 19.0029 19.9383 19.013 19.1804C19.0264 18.7453 19.0226 18.3025 19.013 17.8732C19.013 17.6807 19.013 17.4766 19.013 17.2783V17.1955H33.0925V17.8116C33.0925 18.187 33.0925 18.5509 33.0925 18.9167C33.1079 20.8227 34.2977 22.0164 36.198 22.0318H37.1606V22.1146C37.1606 22.3475 37.1606 22.5786 37.1606 22.8057C37.1606 23.4141 37.176 23.9898 37.126 24.5712C37.1029 24.8177 36.7409 25.1295 36.4637 25.2008C35.476 25.4607 35.1949 25.7784 35.1025 26.7314C34.8986 28.9893 33.8589 31.0896 32.1873 32.621C30.5156 34.1524 28.3323 35.0044 26.0653 35.0101L26.0556 35.0139ZM15.1278 22.1935C15.1278 22.4034 15.1278 22.6094 15.1278 22.8134C15.1097 23.3996 15.1219 23.9863 15.1643 24.5712C15.1778 24.7214 15.482 24.9813 15.715 25.041C16.7219 25.3028 17.0915 25.7148 17.1801 26.6698C17.3662 28.8976 18.3816 30.9745 20.0255 32.4896C21.6694 34.0048 23.8219 34.8479 26.0576 34.8522H26.0672C28.2935 34.8457 30.4371 34.008 32.0778 32.5033C33.7186 30.9986 34.7382 28.9353 34.9369 26.7179C35.037 25.6937 35.3701 25.3182 36.4232 25.0429C36.6504 24.9832 36.9469 24.7156 36.9604 24.5577C37.0031 23.9761 37.0146 23.3925 36.995 22.8096C36.995 22.6171 36.995 22.4053 36.995 22.1993H36.2057C34.2053 22.1839 32.952 20.9286 32.9327 18.9263C32.9327 18.5624 32.9327 18.1966 32.9327 17.8212V17.3707H19.1862C19.1862 17.542 19.1862 17.7115 19.1862 17.8828C19.1862 18.3121 19.1862 18.7569 19.1862 19.1958C19.1766 19.9948 18.8533 20.7579 18.286 21.3205C17.7187 21.8831 16.9529 22.2002 16.1539 22.2031C15.9171 22.2031 15.6803 22.2031 15.43 22.2031L15.1278 22.1935ZM8.63188 27.694H8.5953C7.63267 27.6728 6.67003 27.6786 5.72279 27.6844H4.99119C4.77748 27.6844 4.59266 27.6844 4.48484 27.5477C4.44648 27.4922 4.42073 27.4289 4.40943 27.3624C4.39812 27.2959 4.40152 27.2277 4.41938 27.1626L4.56955 26.3097C4.8853 24.4923 5.20618 22.6755 5.53219 20.8593C5.54039 20.8202 5.55826 20.7838 5.58417 20.7534L5.6169 20.7072L5.64193 20.6668H8.06585L8.28534 21.9355C8.45668 22.9309 8.62996 23.9185 8.79938 24.9081C8.83917 25.1353 8.87768 25.3625 8.9149 25.5897C8.99191 26.0479 9.07277 26.5234 9.16133 26.9874C9.19131 27.0787 9.20116 27.1753 9.19019 27.2707C9.17922 27.3661 9.1477 27.458 9.0978 27.54C9.03621 27.5983 8.96254 27.6423 8.88201 27.6689C8.80149 27.6956 8.71609 27.7041 8.63188 27.694ZM7.00888 27.513C7.53833 27.513 8.07163 27.513 8.59915 27.5265C8.66424 27.5378 8.73098 27.5352 8.795 27.519C8.85903 27.5027 8.91891 27.4731 8.97073 27.4322C9.03042 27.3609 9.03812 27.2397 8.99769 27.0182C8.90912 26.5523 8.82826 26.0768 8.75125 25.6166C8.71275 25.3895 8.67617 25.1623 8.63574 24.9351C8.46503 23.9481 8.29368 22.9572 8.12169 21.9625L7.92916 20.8343H5.72279L5.71124 20.8497C5.70193 20.8618 5.69357 20.8747 5.68621 20.8882C5.36662 22.7056 5.04574 24.5224 4.72358 26.3386L4.5734 27.1915C4.56123 27.233 4.55751 27.2766 4.56247 27.3196C4.56743 27.3626 4.58097 27.4041 4.60228 27.4418C4.66389 27.515 4.81599 27.5207 4.98734 27.5207H5.72087L7.00888 27.513ZM15.7708 20.3356H15.4397H15.0546H14.9699V17.2013H17.2975V17.284C17.2975 17.4939 17.2975 17.7018 17.2975 17.9098C17.3158 18.3847 17.3081 18.8603 17.2744 19.3345C17.2225 19.9121 16.822 20.2605 16.1751 20.3183C16.0461 20.3356 15.9094 20.3356 15.7708 20.3356ZM15.1355 20.1585H15.4435C15.6842 20.1683 15.9252 20.1644 16.1655 20.1469C16.7238 20.0988 17.0704 19.7946 17.1146 19.3152C17.1485 18.8475 17.1562 18.3783 17.1378 17.9098C17.1378 17.7288 17.1378 17.5478 17.1378 17.3649H15.1355V20.1585ZM36.2923 20.3337C36.1397 20.3357 35.9872 20.326 35.836 20.3048C35.2219 20.2182 34.8503 19.8293 34.8195 19.2401C34.7944 18.7973 34.8002 18.3603 34.806 17.8924C34.806 17.6999 34.806 17.4843 34.806 17.2744V17.1916H37.1163V20.3125H37.0335C36.9007 20.3125 36.7717 20.3125 36.6485 20.3125C36.5253 20.3125 36.4117 20.3356 36.2923 20.3356V20.3337ZM34.9774 17.3611C34.9774 17.5433 34.9774 17.7224 34.9774 17.8982C34.9774 18.3603 34.9677 18.7954 34.9908 19.2324C35.0178 19.7407 35.3297 20.0641 35.8668 20.1412C36.1302 20.1703 36.3956 20.1761 36.66 20.1585H36.97V17.3591L34.9774 17.3611ZM7.90413 18.9013H5.68621V17.0915H7.90413V18.9013ZM5.85371 18.7357H7.73663V17.2552H5.85371V18.7357ZM37.9172 15.4146H14.1979V11.4639H14.271L16.1193 11.2291C17.5055 11.0539 18.9379 10.8729 20.3433 10.7054C20.7823 10.6534 21.229 10.5899 21.6621 10.5302C22.8187 10.3416 23.9869 10.2329 25.1584 10.2048H25.1796C26.5909 10.2048 28.0213 10.3454 29.4056 10.4763C29.9947 10.5321 30.6012 10.5899 31.2 10.638L31.8103 10.7131V10.7015C32.3551 10.7189 32.7344 10.4378 32.796 9.96415C32.8576 9.49053 32.5014 9.08815 31.947 9.00151C31.6543 8.96108 31.3559 8.92835 31.0671 8.89755C30.6455 8.85327 30.2084 8.80514 29.783 8.73005C26.5889 8.15247 23.3679 8.57603 20.2548 8.98419L19.8909 9.03039L18.5239 9.21329C16.9067 9.42893 15.2356 9.65418 13.5837 9.79088C13.0304 9.80991 12.4773 9.74896 11.9414 9.6099C11.7277 9.56562 11.5082 9.51941 11.2945 9.48476C9.9584 9.26913 8.61648 9.04195 7.36505 8.82824C7.26163 8.80576 7.16094 8.77219 7.06471 8.72813C6.99347 8.69925 6.90876 8.66459 6.80095 8.62609L6.57954 8.54522L6.8048 8.47591L7.3535 8.28339C7.69042 8.16787 7.98307 8.06583 8.27763 7.97149L8.96111 7.75394C14.3885 6.02119 20.0026 4.24223 25.5281 2.49986C25.8317 2.39915 26.158 2.38845 26.4676 2.46906C31.9855 4.2018 37.5899 5.99038 43.0096 7.7135L44.6711 8.24296C44.8737 8.3023 45.0523 8.42429 45.1813 8.59143L45.2718 8.6954L45.137 8.7262L44.7982 8.80321C44.5575 8.85904 44.3072 8.9168 44.0589 8.95916L42.9037 9.15169C41.712 9.35962 40.4798 9.57525 39.2592 9.72927C38.7897 9.77099 38.3171 9.76066 37.8499 9.69846C37.6573 9.67921 37.4648 9.65996 37.2723 9.64841L32.5804 9.07082C32.7197 9.17502 32.8287 9.31448 32.8961 9.47483C32.9635 9.63518 32.987 9.81061 32.964 9.98304C32.9411 10.1555 32.8726 10.3187 32.7655 10.4558C32.6585 10.5929 32.5168 10.699 32.3551 10.7631L36.2769 11.2464C36.4348 11.2753 36.5946 11.2907 36.7486 11.3061C36.8603 11.3061 36.9719 11.3272 37.0817 11.3426C37.2511 11.3658 37.4205 11.3946 37.5977 11.4274L37.846 11.4716L37.9153 11.4832L37.9172 15.4146ZM14.3634 15.2471H37.7517V11.6314L37.5707 11.5987C37.3955 11.5679 37.228 11.5371 37.0605 11.514C36.9527 11.4986 36.8449 11.489 36.7351 11.4793C36.5773 11.4639 36.4136 11.4485 36.2538 11.4177L31.1846 10.7959C30.5858 10.7477 29.9774 10.69 29.3902 10.6341C28.0098 10.5032 26.5812 10.3665 25.1796 10.3646H25.1584C23.9972 10.3926 22.8393 10.5007 21.693 10.6881C21.2598 10.7477 20.8112 10.8093 20.3703 10.8633C18.9648 11.0308 17.5324 11.2117 16.1482 11.3869L14.3711 11.6122L14.3634 15.2471ZM7.07819 8.5587L7.13209 8.5818C7.21727 8.62066 7.30633 8.65035 7.39778 8.67037C8.64921 8.886 9.99113 9.11318 11.3253 9.32881C11.5448 9.36347 11.7662 9.40967 11.9819 9.45395C12.5014 9.58875 13.0375 9.64904 13.5741 9.633C15.224 9.48861 16.8932 9.26335 18.5085 9.05542L19.8755 8.87445L20.2394 8.82631C23.366 8.41623 26.5928 7.99267 29.8176 8.57218C30.2373 8.64919 30.6724 8.6954 31.0902 8.73968C31.3809 8.77048 31.6813 8.80321 31.9758 8.84364L37.2915 9.49824C37.4841 9.50979 37.6766 9.52904 37.8691 9.54637C38.3241 9.60811 38.7845 9.61908 39.2418 9.5791C40.4586 9.42122 41.6889 9.20559 42.8787 9.00151L44.0338 8.80899C44.2764 8.76663 44.5248 8.7108 44.7635 8.65497L44.9561 8.60876C44.8618 8.5192 44.7476 8.45323 44.623 8.41623L42.9615 7.8887C37.5418 6.15596 31.9373 4.38085 26.4195 2.64426C26.1427 2.57249 25.8509 2.5832 25.5801 2.67506C20.0545 4.40781 14.4424 6.20216 9.02271 7.92914L8.33924 8.14669C8.0466 8.23911 7.76166 8.33922 7.42089 8.45666C7.30729 8.47976 7.18985 8.5202 7.07819 8.5587Z" fill="url(#paint1_linear_18_537)"/>
<defs>
<linearGradient id="paint0_linear_18_537" x1="27.189" y1="-16.9079" x2="68.3554" y2="15.3707" gradientUnits="userSpaceOnUse">
<stop offset="0.3" stop-color="#CE9EF9"/>
<stop offset="1" stop-color="#5C57EC"/>
</linearGradient>
<linearGradient id="paint1_linear_18_537" x1="27.1836" y1="-17.0352" x2="68.4689" y2="15.3765" gradientUnits="userSpaceOnUse">
<stop offset="0.3" stop-color="#CE9EF9"/>
<stop offset="1" stop-color="#5C57EC"/>
</linearGradient>
</defs>
</svg>
