<svg width="41" height="40" viewBox="0 0 41 40" fill="none" xmlns="http://www.w3.org/2000/svg">
<path d="M20.7378 40C18.1115 39.9512 15.4852 39.9186 12.8604 39.852C11.1677 39.8047 9.48687 39.6153 7.89037 39.0101C4.39111 37.6785 2.21165 35.1632 1.30613 31.5441C1.03883 30.4245 0.890056 29.2799 0.862249 28.1291C0.810956 26.691 0.775939 25.2533 0.757197 23.8161C0.733523 22.0154 0.711329 20.2132 0.729084 18.4126C0.750785 16.1991 0.797146 13.9866 0.868167 11.7751C0.915515 10.3339 1.09455 8.90314 1.55914 7.53155C2.79757 3.86953 5.31734 1.59094 9.02671 0.614399C10.0827 0.348382 11.1639 0.195126 12.2522 0.157201C16.7014 -0.0529031 21.1535 -0.00703522 25.6057 0.0388325C26.8811 0.0506694 28.1565 0.0980167 29.429 0.173477C31.0728 0.269651 32.6841 0.540418 34.1992 1.22695C37.3064 2.63998 39.255 5.02362 40.0969 8.32018C40.3582 9.38708 40.5109 10.4777 40.5527 11.5753C40.7539 15.9135 40.7139 20.2532 40.671 24.5958C40.6592 25.9275 40.6104 27.271 40.5379 28.607C40.4446 30.2894 40.1739 31.9435 39.4681 33.4897C38.024 36.6443 35.5797 38.5944 32.218 39.4082C31.0478 39.6807 29.8521 39.8295 28.6507 39.852C26.7006 39.9068 24.7505 39.9319 22.7989 39.963C22.1123 39.9734 21.4243 39.963 20.7363 39.963L20.7378 40ZM20.6949 3.61504V3.5958C19.2567 3.5958 17.82 3.5958 16.3818 3.5958C14.4421 3.5958 12.5082 3.66978 10.5877 3.97754C8.84028 4.25867 7.36807 5.02362 6.21546 6.38486C5.3277 7.45165 4.88381 8.70784 4.67519 10.0691C4.4478 11.7041 4.3331 13.3528 4.33192 15.0036C4.30973 16.6651 4.33192 18.3282 4.34228 19.9913C4.35264 22.2299 4.34228 24.4671 4.38667 26.7043C4.38464 28.0561 4.53353 29.404 4.83055 30.7229C5.48305 33.3862 7.12985 35.0995 9.78279 35.8216C10.7408 36.067 11.7226 36.2079 12.7109 36.2418C14.3207 36.3187 15.9335 36.3631 17.5448 36.3898C18.6575 36.4075 19.7642 36.3646 20.8828 36.3572C23.0326 36.3454 25.1825 36.3572 27.3324 36.3261C28.5872 36.3057 29.8383 36.182 31.0728 35.9562C32.9726 35.6115 34.4922 34.6705 35.6019 33.0828C36.3225 32.0471 36.6376 30.8782 36.8092 29.6516C37.0158 28.0517 37.1146 26.4398 37.1052 24.8266C37.1052 22.9387 37.1052 21.0492 37.1052 19.1612C37.0889 16.9995 37.0741 14.8364 37.0238 12.6747C36.9945 11.5993 36.8723 10.5285 36.6583 9.47427C36.0976 6.64823 34.0468 4.60785 31.2163 4.053C29.654 3.76953 28.0695 3.62544 26.4816 3.62244C24.5463 3.59136 22.6213 3.61504 20.6949 3.61504Z" fill="white"/>
<path d="M30.9676 19.9732C30.9695 21.3183 30.7065 22.6507 30.1935 23.8942C29.6805 25.1378 28.9276 26.2681 27.9778 27.2206C27.028 28.1732 25.8999 28.9293 24.6579 29.4459C23.4158 29.9625 22.0842 30.2293 20.7391 30.2313C19.3939 30.2332 18.0615 29.9702 16.818 29.4572C15.5745 28.9442 14.4442 28.1913 13.4916 27.2415C12.5391 26.2917 11.7829 25.1636 11.2663 23.9216C10.7498 22.6796 10.4829 21.3479 10.481 20.0028C10.481 14.0192 15.3326 9.79349 20.6163 9.73875C26.2136 9.68548 30.9735 14.1938 30.9676 19.9732ZM20.7154 13.3283C19.3985 13.3283 18.1112 13.7188 17.0163 14.4504C15.9213 15.182 15.0679 16.2219 14.564 17.4385C14.06 18.6551 13.9282 19.9939 14.1851 21.2854C14.442 22.577 15.0761 23.7634 16.0073 24.6946C16.9385 25.6257 18.1249 26.2599 19.4164 26.5168C20.708 26.7737 22.0467 26.6418 23.2634 26.1379C24.48 25.6339 25.5199 24.7805 26.2515 23.6856C26.9831 22.5907 27.3736 21.3034 27.3736 19.9865C27.3697 18.2218 26.667 16.5305 25.4191 15.2827C24.1713 14.0349 22.4801 13.3322 20.7154 13.3283Z" fill="white"/>
<path d="M29.0016 9.32327C28.9992 9.01019 29.0586 8.69972 29.1764 8.40962C29.2941 8.11951 29.4679 7.85546 29.6877 7.63257C29.9076 7.40968 30.1693 7.23231 30.4577 7.11062C30.7462 6.98893 31.0558 6.92529 31.3689 6.92335C31.6904 6.91205 32.0108 6.96561 32.3112 7.08083C32.6115 7.19605 32.8855 7.37057 33.1169 7.59399C33.3484 7.81741 33.5324 8.08515 33.6581 8.38123C33.7838 8.67732 33.8486 8.99569 33.8486 9.31736C33.8486 9.63902 33.7838 9.95739 33.6581 10.2535C33.5324 10.5496 33.3484 10.8173 33.1169 11.0407C32.8855 11.2641 32.6115 11.4387 32.3112 11.5539C32.0108 11.6691 31.6904 11.7227 31.3689 11.7114C31.0563 11.7114 30.7467 11.6495 30.4582 11.5292C30.1696 11.4089 29.9077 11.2327 29.6876 11.0107C29.4675 10.7886 29.2935 10.5252 29.1758 10.2356C29.058 9.94597 28.9988 9.6359 29.0016 9.32327Z" fill="white"/>
</svg>
