<svg width="40" height="40" viewBox="0 0 40 40" fill="none" xmlns="http://www.w3.org/2000/svg">
<path d="M39.9986 19.9964C39.9986 25.6582 39.9986 31.3204 39.9986 36.9829C39.9986 37.739 39.7894 38.4157 39.2861 38.9872C39.0194 39.305 38.6859 39.56 38.3093 39.734C37.9326 39.908 37.5223 39.9968 37.1074 39.9938C25.6994 40.002 14.2914 40.002 2.88332 39.9938C2.17659 39.9972 1.4937 39.7384 0.966555 39.2677C0.439412 38.7969 0.105416 38.1475 0.0290793 37.4448C0.0145396 37.2893 0 37.1316 0 36.9751C0 25.6411 0 14.3104 0 2.98315C0 1.47319 0.883563 0.380433 2.36325 0.0605464C2.54192 0.0220512 2.72405 0.0018145 2.90681 0.000148189C14.2962 0.000148189 25.6856 0.000148189 37.075 0.000148189C37.7423 -0.0066033 38.3914 0.217529 38.9124 0.634579C39.4334 1.05163 39.7942 1.63595 39.9337 2.28857C39.9813 2.53241 40.0026 2.78063 39.9974 3.02901C40.0004 8.68184 40.0008 14.3376 39.9986 19.9964ZM21.3285 17.5805L21.2838 17.5727C21.2838 17.5067 21.2715 17.4407 21.2715 17.3747C21.2715 16.66 21.2715 15.9464 21.2715 15.2317C21.2715 14.9554 21.2715 14.9543 21.002 14.9543H15.8124C15.5541 14.9543 15.5474 14.961 15.5474 15.2194V33.8355C15.5474 34.0882 15.5474 34.0894 15.8102 34.0894H21.2156C21.5388 34.0894 21.5064 34.1285 21.5075 33.793C21.5202 30.4457 21.5332 27.0985 21.5466 23.7512C21.5519 23.0845 21.6714 22.4235 21.9001 21.7972C22.2356 20.8621 22.8407 20.1944 23.8159 19.9126C24.3741 19.753 24.9583 19.7055 25.535 19.7727C26.5595 19.8846 27.292 20.3857 27.6969 21.3386C28.0403 22.1462 28.123 23.0029 28.1253 23.8664C28.132 27.1883 28.132 30.5106 28.1253 33.8332C28.1253 34.0894 28.1253 34.0905 28.3847 34.0905H34.1268V33.8019C34.1268 31.3905 34.1268 28.979 34.1268 26.5675C34.1268 25.0811 34.1201 23.5946 34.0809 22.1093C34.0568 21.4581 33.9907 20.8091 33.883 20.1664C33.7241 19.1598 33.4412 18.1834 32.9133 17.2964C32.285 16.2119 31.2861 15.3908 30.1004 14.9845C29.0167 14.6009 27.9005 14.4868 26.7585 14.5125C25.6525 14.525 24.5669 14.8129 23.6001 15.3502C22.7907 15.7877 22.0999 16.4153 21.5869 17.179C21.5019 17.3121 21.4158 17.4463 21.3285 17.5805ZM5.90645 34.0894H11.6105C11.8733 34.0894 11.8744 34.0894 11.8744 33.8176V15.2395C11.8744 14.9554 11.8744 14.9543 11.5903 14.9543H6.17823C5.90757 14.9543 5.90645 14.9543 5.90645 15.2183V34.0894ZM8.89938 5.47178C7.00587 5.43375 5.42664 7.04437 5.43 8.92343C5.43 10.8372 6.92423 12.4165 8.8826 12.4097C10.8723 12.4019 12.3665 10.883 12.3676 8.93014C12.3694 8.47463 12.2809 8.02329 12.1071 7.60224C11.9333 7.18119 11.6777 6.79879 11.3552 6.47716C11.0326 6.15554 10.6495 5.90107 10.228 5.7285C9.80643 5.55593 9.35486 5.46867 8.89938 5.47178Z" fill="white"/>
</svg>
