<svg width="60" height="65" viewBox="0 0 60 65" fill="none" xmlns="http://www.w3.org/2000/svg">
<path d="M49.8171 52.3318C49.7897 49.148 48.5189 46.5751 45.9499 44.6621C44.5792 43.638 42.9442 43.2503 41.3464 42.7745C40.6748 42.5787 39.9386 42.4553 39.3609 42.095C36.8898 40.5501 34.4657 38.9268 32.024 37.3291C31.8741 37.2077 31.759 37.0489 31.6902 36.8687C31.6215 36.6885 31.6015 36.4934 31.6324 36.303C31.0195 36.6124 30.4419 36.8767 29.8956 37.1019C29.8075 38.2298 29.7409 39.2558 29.643 40.2583C29.6058 40.65 29.4805 41.0416 29.4276 41.443C29.361 41.9384 29.1437 42.187 28.6052 42.2595C26.3539 42.5935 24.0637 42.5678 21.8205 42.1831C21.658 42.1538 21.4289 42.0167 21.3858 41.8835C20.9953 40.4545 20.8133 38.9766 20.8454 37.4955C20.2196 37.2173 19.6228 36.8782 19.0635 36.4832C19.0536 36.6849 18.9923 36.8807 18.8853 37.0521C18.7784 37.2235 18.6294 37.3646 18.4526 37.4622C16.3633 38.8329 14.2643 40.1722 12.1867 41.5742C11.44 42.082 10.6094 42.4539 9.73327 42.6726C9.01074 42.8547 8.29996 43.0741 7.57939 43.2953C4.57374 44.2254 2.47468 46.1521 1.38012 49.1363C0.782903 50.7575 0.822065 56.3811 0.861226 59.1577V59.2399C0.843604 59.7236 0.861226 60.2072 0.861226 60.6909C0.886681 63.1541 2.50405 64.7617 4.97319 64.7617H45.7325C48.1645 64.7617 49.8014 63.1541 49.8171 60.7281C49.8347 57.93 49.8406 55.1299 49.8171 52.3318ZM31.5952 39.2245L37.4694 43.0564C34.4148 44.8755 31.4366 46.6456 28.4623 48.4137C30.2092 45.637 31.2821 42.49 31.5952 39.2245ZM28.6698 44.2234C27.5714 46.0503 26.516 47.8263 25.3411 49.7805L22.0124 44.2234H28.6698ZM19.0635 39.2245C19.3891 42.488 20.4719 45.6306 22.2258 48.402L13.2108 43.0506L19.0635 39.2245ZM47.9902 60.9787C47.9902 62.0106 47.2285 62.8624 46.2573 62.9133C44.8592 62.9877 43.4514 62.9329 41.9848 62.9329V62.2456C41.9848 61.198 41.9985 60.1524 41.975 59.1127C41.9593 58.5252 41.5383 58.1336 41.0312 58.1493C40.524 58.165 40.199 58.5527 40.1755 59.1283C40.1755 59.3711 40.1755 59.612 40.1755 59.8528V62.9113H10.4969C10.4969 61.5994 10.4969 60.3345 10.4969 59.0676C10.5016 58.9515 10.4834 58.8355 10.4432 58.7265C10.403 58.6174 10.3417 58.5173 10.2627 58.432C10.1838 58.3467 10.0887 58.2778 9.9831 58.2293C9.87746 58.1808 9.76329 58.1536 9.64712 58.1493C9.41282 58.1445 9.18547 58.229 9.01126 58.3858C8.83705 58.5425 8.72905 58.7597 8.7092 58.9932C8.687 59.2105 8.67915 59.4289 8.6857 59.6472C8.6857 60.73 8.6857 61.8109 8.6857 62.8643C8.58584 62.9074 8.5506 62.9387 8.51535 62.9387C7.28959 62.9387 6.05992 62.9544 4.83221 62.9485C3.54771 62.9485 2.71357 62.1359 2.66657 60.8554C2.64699 60.3423 2.66657 59.8254 2.66657 59.3124C2.66657 57.37 2.66657 53.0465 2.66657 52.3612C2.70378 48.8053 4.72843 46.0817 8.12178 45.0263C9.00487 44.7541 9.89971 44.5191 10.7769 44.2313C10.9619 44.1626 11.1607 44.1391 11.3565 44.163C11.5524 44.1868 11.7397 44.2572 11.9028 44.3683C16.0442 46.8492 20.209 49.2929 24.3366 51.7914C25.0846 52.2437 25.6466 52.2104 26.375 51.7699C30.5418 49.2557 34.732 46.7807 38.9243 44.3096C39.161 44.1824 39.4356 44.1449 39.6977 44.2039C40.7277 44.4682 41.7498 44.7678 42.766 45.085C45.6483 45.9857 47.7865 48.496 47.9275 51.4977C48.0763 54.6541 48.0098 57.8262 47.9902 60.9787Z" fill="url(#paint0_linear_18_593)"/>
<path d="M37.7926 14.5527C37.0622 10.3741 34.9612 7.12177 31.1351 5.11474C28.8794 3.93989 26.4357 3.54828 23.8001 3.47975C21.5993 3.49345 19.3945 3.8929 17.4658 5.27922C16.1264 6.22889 15.1924 7.52709 14.325 8.88991C13.8359 9.65199 13.2383 10.3387 12.551 10.9283C11.3859 11.9465 10.2522 12.9862 9.11064 14.0534C8.39594 14.7211 8.45273 15.4926 9.22421 16.1015C9.98866 16.7245 10.8232 17.2561 11.711 17.6856C11.876 17.7414 12.0162 17.8533 12.1074 18.0017C12.1986 18.1501 12.235 18.3258 12.2103 18.4982C12.1434 20.1904 12.3863 21.8805 12.9269 23.4854C13.2226 24.3411 13.2539 25.1987 13.2931 26.0818C13.4047 28.6273 13.8649 31.0828 15.4587 33.1681C17.2349 35.4976 19.5587 37.3526 22.2239 38.5685C23.1122 39.0033 24.0897 39.2252 25.0787 39.2167C26.0677 39.2082 27.0411 38.9695 27.9219 38.5195C30.4013 37.343 32.5868 35.6278 34.3189 33.499C35.0946 32.5722 35.6801 31.5016 36.042 30.3485C36.6123 28.5218 36.8542 26.6086 36.7567 24.6975C36.7066 23.9794 36.7875 23.2582 36.9956 22.569C37.8023 19.9531 38.2703 17.2803 37.7926 14.5527ZM34.2896 24.7875C34.3337 25.999 34.241 27.2115 34.0135 28.4022C33.5709 31.0005 31.9301 32.7628 29.9877 34.3293C28.9538 35.1931 27.7977 35.8991 26.5571 36.4244C26.088 36.6353 25.5803 36.7466 25.066 36.7513C24.5517 36.756 24.042 36.654 23.5691 36.4518C20.8924 35.277 18.6386 33.548 17.0604 31.0847C15.8856 29.2343 15.7074 27.0805 15.7524 24.9266C15.7682 23.7387 16.0351 22.5675 16.5357 21.4901C16.7586 21.0168 17.0517 20.5798 17.4051 20.1939C17.5721 19.9995 17.7847 19.8495 18.0239 19.7572C18.2631 19.665 18.5214 19.6333 18.7757 19.6652C22.8328 19.861 26.6335 18.9956 30.0386 16.6929C30.3695 16.4657 30.5692 16.4755 30.8629 16.7144C32.1455 17.7541 32.8386 19.1796 33.428 20.6599C33.9782 22.0423 34.5324 23.4306 34.2896 24.7778V24.7875ZM35.4037 18.1085C35.3822 18.2417 35.4233 18.4042 35.1942 18.4708C34.9984 18.1066 34.7791 17.7111 34.55 17.3234C33.6532 15.7882 32.4842 14.5527 30.812 13.8556C30.2853 13.6363 29.7742 13.6226 29.3493 14.026C27.6967 15.5924 25.6466 16.3149 23.4947 16.8103C21.8421 17.1902 20.1659 17.3978 18.4644 17.1863C18.1168 17.1419 17.7638 17.169 17.4271 17.266C17.0904 17.363 16.777 17.5277 16.5063 17.7502C15.8512 18.2199 15.2922 18.8108 14.8596 19.4909C14.56 18.9936 14.7636 18.4512 14.7205 17.9245C14.6892 17.5564 14.8693 17.1687 14.6305 16.8143C14.5189 16.3815 14.1938 16.1563 13.8159 15.9938C13.1063 15.6867 12.4199 15.3288 11.7619 14.9227C12.4061 14.3353 13.0053 13.7479 13.6514 13.2231C14.8234 12.3 15.8185 11.1722 16.5885 9.89441C18.4996 6.597 21.4837 5.65713 25.0709 5.97825C27.0721 6.16231 29.0047 6.58917 30.7259 7.67786C33.5083 9.44013 35.0101 11.9993 35.3802 15.2517C35.5181 16.1952 35.526 17.1531 35.4037 18.0988V18.1085Z" fill="url(#paint1_linear_18_593)"/>
<path d="M43.3848 21.8622C43.1446 21.8616 42.9072 21.8103 42.6882 21.7115C42.4692 21.6127 42.2736 21.4687 42.1142 21.289C41.9548 21.1092 41.8352 20.8978 41.7633 20.6686C41.6914 20.4394 41.6688 20.1975 41.6969 19.9589L42.0161 17.2392C41.0547 16.0487 39.639 13.8027 39.6664 10.9185C39.6899 8.45524 40.7355 5.93323 42.535 3.99865C43.4713 2.9705 44.6135 2.15095 45.8873 1.5933C47.1612 1.03565 48.5382 0.752396 49.9287 0.761953C52.5062 0.788635 54.9776 1.79186 56.8443 3.56925C58.7111 5.34663 59.8343 7.76587 59.9874 10.3389C60.0673 11.7212 59.8642 13.1052 59.3904 14.4062C58.9165 15.7071 58.182 16.8976 57.2318 17.9047C56.2816 18.9117 55.1357 19.7141 53.8644 20.2626C52.5931 20.8112 51.2232 21.0943 49.8386 21.0946C49.5195 21.0946 49.1925 21.0829 49.1925 21.0829H49.1709C48.4035 21.0404 47.6445 20.9023 46.9113 20.6717L43.9879 21.7545C43.7949 21.8262 43.5907 21.8627 43.3848 21.8622ZM49.8347 2.72003C45.0374 2.72003 41.6617 7.0278 41.6245 10.944C41.601 13.3681 42.9012 15.2654 43.6785 16.1818C43.798 16.3243 43.8872 16.4896 43.9407 16.6677C43.9942 16.8458 44.0109 17.0329 43.9899 17.2176L43.6903 19.7808L46.3689 18.788C46.692 18.6678 47.0464 18.6616 47.3734 18.7704C47.9839 18.9738 48.6186 19.0956 49.261 19.1326C49.3158 19.1326 49.5782 19.1326 49.8328 19.1326C50.9508 19.1329 52.057 18.9048 53.0837 18.4622C54.1104 18.0197 55.0359 17.3721 55.8033 16.5592C56.5708 15.7462 57.1641 14.7851 57.5469 13.7346C57.9297 12.6842 58.0938 11.5666 58.0293 10.4505C57.9046 8.37451 56.998 6.42283 55.4921 4.98845C53.9861 3.55407 51.9927 2.74353 49.913 2.72003H49.8347Z" fill="url(#paint2_linear_18_593)"/>
<path d="M48.6931 12.9647C48.6039 12.9553 48.5219 12.9112 48.4648 12.842C48.4077 12.7728 48.38 12.684 48.3877 12.5946L48.4014 12.4673C48.4302 12.1405 48.5074 11.8198 48.6305 11.5157C48.7494 11.2433 48.9218 10.9976 49.1376 10.7932C49.4067 10.539 49.7029 10.3151 50.0207 10.1255C50.3927 9.8905 50.6923 9.68491 50.9195 9.50868C51.1224 9.35863 51.2962 9.17284 51.4325 8.96042C51.554 8.74985 51.6282 8.5153 51.6498 8.27313C51.6801 8.09207 51.6666 7.90638 51.6104 7.73162C51.5542 7.55686 51.4569 7.3981 51.3268 7.26864C51.0022 6.9874 50.5926 6.82329 50.1637 6.80262C49.7281 6.75246 49.2874 6.77096 48.8576 6.85744C48.5432 6.92285 48.2333 7.00787 47.9295 7.11199C47.8446 7.13873 47.7525 7.13116 47.6731 7.0909C47.5937 7.05065 47.5332 6.9809 47.5046 6.8966L47.2461 6.15645C47.2153 6.06971 47.22 5.97428 47.2592 5.89101C47.2985 5.80773 47.3691 5.74336 47.4556 5.71197C47.8493 5.57584 48.2533 5.47172 48.6638 5.40063C49.2464 5.30445 49.8396 5.2906 50.426 5.35951C51.4364 5.46916 52.1916 5.79943 52.6915 6.3503C52.9423 6.62116 53.1297 6.9444 53.2401 7.29661C53.3505 7.64881 53.3811 8.02117 53.3299 8.3867C53.3043 8.76026 53.1983 9.12388 53.0192 9.4527C52.84 9.78152 52.592 10.0678 52.2921 10.2919C51.9498 10.559 51.5914 10.8049 51.2191 11.0281C50.9443 11.1964 50.6825 11.3849 50.4358 11.5921C50.268 11.7319 50.1313 11.9053 50.0344 12.1012C49.946 12.3087 49.8905 12.5286 49.8699 12.7532C49.8651 12.798 49.8514 12.8413 49.8298 12.8808C49.8082 12.9202 49.779 12.9551 49.7439 12.9833C49.7088 13.0114 49.6685 13.0324 49.6253 13.045C49.582 13.0576 49.5368 13.0616 49.492 13.0567L48.6931 12.9647ZM47.81 15.2889C47.8531 14.8836 47.9902 14.6095 48.2173 14.4665C48.4595 14.3292 48.7388 14.2714 49.0156 14.3013C49.2924 14.3311 49.5529 14.4471 49.7603 14.633C49.9561 14.8288 50.0305 15.1205 49.9855 15.5259C49.9404 15.9312 49.8053 16.1975 49.5743 16.3502C49.3348 16.4972 49.0533 16.5604 48.774 16.53C48.4947 16.4995 48.2334 16.377 48.0313 16.1818C47.8472 15.984 47.767 15.6864 47.81 15.2889Z" fill="url(#paint3_linear_18_593)"/>
<defs>
<linearGradient id="paint0_linear_18_593" x1="21.8418" y1="-6.23828" x2="58.7443" y2="28.0776" gradientUnits="userSpaceOnUse">
<stop offset="0.3" stop-color="#CE9EF9"/>
<stop offset="1" stop-color="#5C57EC"/>
</linearGradient>
<linearGradient id="paint1_linear_18_593" x1="21.8418" y1="-6.23828" x2="58.7443" y2="28.0776" gradientUnits="userSpaceOnUse">
<stop offset="0.3" stop-color="#CE9EF9"/>
<stop offset="1" stop-color="#5C57EC"/>
</linearGradient>
<linearGradient id="paint2_linear_18_593" x1="21.8418" y1="-6.23828" x2="58.7443" y2="28.0776" gradientUnits="userSpaceOnUse">
<stop offset="0.3" stop-color="#CE9EF9"/>
<stop offset="1" stop-color="#5C57EC"/>
</linearGradient>
<linearGradient id="paint3_linear_18_593" x1="21.8418" y1="-6.23828" x2="58.7443" y2="28.0776" gradientUnits="userSpaceOnUse">
<stop offset="0.3" stop-color="#CE9EF9"/>
<stop offset="1" stop-color="#5C57EC"/>
</linearGradient>
</defs>
</svg>
