<svg width="56" height="63" viewBox="0 0 56 63" fill="none" xmlns="http://www.w3.org/2000/svg">
<path d="M14.9483 37.9476L17.8425 41.0356C19.5664 42.99 20.9725 45.2031 22.0097 47.5938C22.2194 48.0827 22.4754 48.28 22.9981 48.2178C23.3925 48.1954 23.7878 48.1954 24.1821 48.2178V36.9503L23.7181 36.8969C22.8737 36.8009 22.2408 36.2143 22.1945 35.3627C22.1429 34.4153 22.1429 33.4657 22.1945 32.5183C22.213 32.0984 22.3939 31.7021 22.6991 31.4132C23.0043 31.1242 23.4099 30.9653 23.8301 30.9698C24.6977 30.9414 25.567 30.9414 26.4328 30.9698C26.8635 30.9664 27.2783 31.1321 27.5881 31.4313C27.898 31.7305 28.078 32.1393 28.0897 32.5698C28.1492 33.4755 28.1492 34.3841 28.0897 35.2898C28.0203 36.3174 27.4283 36.776 26.0968 36.9449V48.1449H29.0443V47.1831C29.0443 45.7094 29.0443 44.2356 29.0443 42.7636C29.0443 42.0951 29.3448 41.7343 29.8657 41.688C30.4559 41.6347 30.847 42.0151 30.8523 42.7067C30.8665 44.2818 30.8523 45.8551 30.8523 47.4303V48.1414H32.863C32.863 47.096 32.9768 46.0365 32.8381 45.0125C32.5821 43.0871 33.1937 41.6347 34.7332 40.4631C35.4354 39.9298 35.9777 39.1956 36.6372 38.6054C37.0834 38.2071 37.2843 37.7751 37.215 37.1831C37.1961 36.8486 37.1961 36.5132 37.215 36.1787C37.007 36.1307 36.8168 36.0916 36.6283 36.0418C36.3211 35.9692 36.0464 35.7973 35.8468 35.5527C35.6472 35.3081 35.5339 35.0045 35.5243 34.6889C35.4977 33.9636 35.4941 33.2365 35.5243 32.5111C35.5303 32.1425 35.6768 31.79 35.9338 31.5257C36.1909 31.2614 36.5391 31.1052 36.9074 31.0889C37.6329 31.0516 38.3598 31.0516 39.0852 31.0889C39.464 31.0977 39.8244 31.2538 40.0899 31.5239C40.3554 31.7941 40.5052 32.1572 40.5074 32.536C40.5359 33.2471 40.5323 33.9583 40.5074 34.6551C40.5121 34.972 40.4078 35.2809 40.212 35.53C40.0163 35.7792 39.7408 35.9536 39.4319 36.024C39.1101 36.1129 38.9768 36.2516 39.0354 36.5574C39.3537 38.2374 38.6283 39.4303 37.3643 40.4685C36.5092 41.1671 35.7768 42.0169 34.9999 42.8116C34.8683 42.9449 34.7048 43.1334 34.703 43.2987C34.6799 44.9094 34.6888 46.5183 34.6888 48.1183C35.6772 48.296 35.6719 48.296 36.0452 47.464C37.3532 44.4806 39.2327 41.7821 41.5777 39.5209C44.3794 36.8383 46.2728 33.6543 47.0888 29.8445C47.4968 27.9483 47.6054 26 47.4105 24.0703C47.3163 23.128 47.5883 22.696 48.2141 22.648C48.8399 22.6 49.1474 23.0463 49.2239 23.9529C49.7057 29.6098 48.1892 34.6534 44.5359 39.0107C43.3714 40.3991 42.0257 41.6365 40.8683 43.032C40.0505 44.0187 39.3803 45.1369 38.703 46.232C38.2728 46.9289 37.9492 47.6916 37.5652 48.4471C38.9501 49.288 39.6363 50.4489 39.2754 52.0258C38.9394 53.4943 37.8923 54.2356 36.3937 54.4685C36.3937 54.8934 36.3937 55.3147 36.3937 55.736C36.3777 56.7494 35.8994 57.4854 35.0639 58.0471C34.8311 58.2048 34.6558 58.4337 34.5643 58.6996C33.9474 60.7476 32.6443 62.0596 30.5501 62.5609C30.4345 62.5894 30.3243 62.6374 30.2123 62.6765H27.7803C27.3448 62.5307 26.8914 62.4169 26.4754 62.232C24.8968 61.5369 23.9154 60.328 23.4639 58.6676C23.4123 58.4756 23.3128 58.2214 23.1581 58.1343C22.0185 57.5405 21.5741 56.5858 21.6132 55.3485C21.6132 55.0694 21.6132 54.7885 21.6132 54.4703C20.1021 54.232 19.0265 53.4587 18.7279 51.9369C18.4292 50.4151 19.0834 49.2703 20.4292 48.4738C19.6707 46.709 18.6968 45.0448 17.5297 43.5191C17.1883 43.0694 16.8185 42.6409 16.463 42.2018L13.5581 39.1209M34.4683 54.4471H33.935C33.7572 54.4471 33.5794 54.4471 33.391 54.4471C32.7314 54.4294 32.3528 54.0916 32.3652 53.5191C32.3777 52.9858 32.751 52.6445 33.3768 52.6303C34.1625 52.6178 34.9501 52.6303 35.7359 52.6303C36.9305 52.6303 37.5439 52.1947 37.5581 51.3414C37.5723 50.488 36.9288 50.0187 35.7625 50.0187H22.2692C22.0073 50.0126 21.7453 50.0316 21.487 50.0756C21.2071 50.129 20.9546 50.2785 20.7732 50.4982C20.5917 50.718 20.4927 50.9942 20.4932 51.2791C20.4701 52.0791 21.039 52.6231 21.9332 52.6249C24.335 52.6249 26.7332 52.6249 29.135 52.6249C29.8745 52.6249 30.3101 52.9805 30.2888 53.5618C30.2674 54.1431 29.8532 54.4365 29.1368 54.4383C27.4621 54.4383 25.7892 54.4383 24.1146 54.4383C23.9012 54.4383 23.6879 54.4383 23.439 54.4383V55.0623C23.439 56.4116 23.583 56.5663 24.9145 56.5663H32.7208C34.5625 56.5663 34.735 56.376 34.5572 54.5467C34.5519 54.5449 34.5359 54.5307 34.4683 54.4471ZM25.359 58.4187C25.7305 60.1271 27.263 60.9769 29.6452 60.8578C31.1137 60.7867 32.4897 59.6774 32.639 58.4187H25.359ZM26.2479 35.0498V32.8258H24.0114V35.0569L26.2479 35.0498ZM37.3679 32.936V34.2747H38.6639V32.936H37.3679Z" fill="url(#paint0_linear_18_556)"/>
<path d="M30.221 62.7771H27.7552L27.3428 62.6473C27.0372 62.5588 26.7369 62.4532 26.4432 62.3308C24.8788 61.6428 23.8476 60.4233 23.3819 58.7077C23.3528 58.5248 23.2603 58.358 23.1205 58.2366C22.0059 57.6571 21.485 56.7202 21.5205 55.3708C21.5205 55.1824 21.5205 54.9939 21.5205 54.7931V54.5708C19.8885 54.2917 18.9179 53.4188 18.6352 51.9771C18.3436 50.4979 18.9072 49.3104 20.3116 48.4606C19.5658 46.7278 18.6112 45.0926 17.469 43.5913C17.2379 43.2855 16.9908 42.9851 16.7579 42.7024L16.4023 42.2757L13.501 39.1824L13.6308 39.0597L16.5356 42.1602C16.653 42.3042 16.7685 42.4428 16.8912 42.5815C17.1312 42.8731 17.3819 43.1753 17.6148 43.4846C18.7868 45.0172 19.7643 46.6893 20.525 48.4624L20.5552 48.5335L20.4876 48.5744C19.1081 49.3886 18.5499 50.5299 18.829 51.9433C19.101 53.3264 20.0468 54.1548 21.6414 54.4073L21.7161 54.4179V54.4944C21.7161 54.5975 21.7161 54.6953 21.7161 54.7913C21.7161 54.9939 21.7161 55.1859 21.7161 55.3762C21.6752 56.6508 22.1659 57.5344 23.213 58.0802C23.3996 58.1762 23.5063 58.4499 23.5685 58.6615C24.0201 60.3219 25.0174 61.5059 26.5321 62.1673C26.8186 62.2873 27.1118 62.3906 27.4103 62.4766L27.8156 62.6046H30.2068L30.2956 62.5726C30.3749 62.5404 30.4563 62.5136 30.5392 62.4926C32.573 62.0037 33.8654 60.7611 34.4894 58.6899C34.5873 58.4052 34.7743 58.1596 35.0228 57.9895C35.8743 57.4242 36.2974 56.6935 36.3134 55.7584C36.3134 55.4704 36.3134 55.1824 36.3134 54.8926V54.4126L36.3881 54.4002C37.9703 54.1531 38.8894 53.3762 39.197 52.0251C39.5259 50.5851 38.9641 49.4135 37.5276 48.5424L37.4583 48.4997L37.4956 48.4251C37.6148 48.1904 37.7268 47.9557 37.8405 47.7139C38.0785 47.1948 38.3438 46.6886 38.6352 46.1975L38.813 45.9166C39.4104 44.8945 40.0787 43.9156 40.813 42.9868C41.405 42.2757 42.0574 41.5877 42.6868 40.9282C43.3161 40.2686 43.9116 39.6428 44.4805 38.9726C48.061 34.7059 49.6361 29.6571 49.149 23.9788C49.0512 22.8357 48.5801 22.7344 48.2316 22.7557C48.1315 22.7554 48.0323 22.7759 47.9405 22.816C47.8486 22.8561 47.7662 22.9149 47.6983 22.9886C47.5205 23.1948 47.4601 23.5611 47.5099 24.0731C47.7046 26.0123 47.596 27.9699 47.1881 29.8757C46.4023 33.5628 44.5392 36.8339 41.6556 39.5966C39.3183 41.852 37.4433 44.5416 36.1356 47.5148C35.7445 48.3895 35.7036 48.4037 34.6814 48.2259L34.6085 48.2135V47.0775C34.6085 45.8455 34.6085 44.5726 34.6228 43.3175C34.6228 43.1219 34.8005 42.9211 34.9463 42.7699C35.1543 42.5566 35.3588 42.3397 35.565 42.1228C36.1113 41.5185 36.6962 40.9502 37.3161 40.4215C38.7383 39.2624 39.2379 38.0837 38.957 36.5993C38.8752 36.1708 39.1436 36.0357 39.4174 35.9611C39.7077 35.8947 39.9664 35.7306 40.1503 35.4963C40.3341 35.262 40.4318 34.9717 40.4272 34.6739C40.4539 33.9237 40.4539 33.2322 40.4272 32.5619C40.4254 32.2056 40.2848 31.864 40.0352 31.6097C39.7855 31.3554 39.4466 31.2085 39.0903 31.2002C38.3678 31.1627 37.6439 31.1627 36.9214 31.2002C36.5757 31.2159 36.249 31.3627 36.0076 31.6107C35.7662 31.8587 35.6283 32.1893 35.6219 32.5353C35.5934 33.2268 35.5934 33.9575 35.6219 34.7059C35.6305 35.0027 35.737 35.2882 35.9248 35.5181C36.1126 35.748 36.3711 35.9093 36.6601 35.9771C36.7863 36.0108 36.9125 36.0393 37.0459 36.0677L37.3125 36.1282V36.1993C37.3125 36.3148 37.3125 36.4286 37.3125 36.5371C37.3005 36.7557 37.3047 36.975 37.325 37.1931C37.3961 37.7922 37.2076 38.2597 36.7188 38.6917C36.4432 38.9371 36.1854 39.2144 35.933 39.4811C35.5896 39.8686 35.213 40.2255 34.8076 40.5477C33.2841 41.6962 32.6939 43.1148 32.9481 45.0153C33.0239 45.7351 33.0394 46.46 32.9943 47.1824C32.9836 47.5024 32.973 47.8331 32.973 48.1566V48.2455H30.7703V46.0926C30.7703 44.9886 30.7703 43.8473 30.7703 42.7255C30.7793 42.5876 30.7595 42.4493 30.712 42.3196C30.6646 42.1898 30.5906 42.0713 30.4948 41.9717C30.4109 41.9004 30.3129 41.8477 30.2071 41.8171C30.1014 41.7864 29.9904 41.7785 29.8814 41.7939C29.3943 41.8366 29.1454 42.1691 29.1401 42.7806C29.1401 43.8277 29.1401 44.8908 29.1401 45.9202C29.1401 46.3468 29.1401 46.7735 29.1401 47.2002V48.2508H26.0023V36.8731L26.0788 36.8624C27.3925 36.6953 27.9294 36.2544 27.9952 35.2908C28.0539 34.3887 28.0539 33.4837 27.9952 32.5815C27.9922 32.3785 27.9492 32.178 27.8686 31.9916C27.7881 31.8052 27.6716 31.6365 27.5258 31.4952C27.38 31.3538 27.2078 31.2426 27.019 31.1679C26.8301 31.0932 26.6285 31.0564 26.4254 31.0597C25.5703 31.0313 24.6974 31.0313 23.8281 31.0597C23.43 31.0547 23.0457 31.2048 22.7563 31.4782C22.467 31.7516 22.2954 32.1269 22.2779 32.5246C22.2272 33.4679 22.2272 34.4133 22.2779 35.3566C22.3205 36.1424 22.8859 36.7113 23.7214 36.8055L24.2654 36.8677V48.2971H24.1765C24.0414 48.2971 23.9116 48.2971 23.7836 48.2971C23.5235 48.282 23.2626 48.2868 23.0032 48.3113C22.4699 48.3771 22.1588 48.1851 21.9223 47.6339C20.8866 45.2521 19.4855 43.0466 17.7694 41.0971L14.877 38.0144L15.0068 37.8917L17.9028 40.9779C19.6301 42.9401 21.0414 45.1593 22.0859 47.5557C22.2903 48.0322 22.525 48.1815 22.9748 48.1282C23.2424 48.1022 23.5116 48.0969 23.7801 48.1122C23.8796 48.1122 23.9792 48.1122 24.0805 48.1122V37.0259L23.6948 36.9815C22.7828 36.8784 22.1392 36.2295 22.0948 35.3655C22.0443 34.418 22.0443 33.4685 22.0948 32.5211C22.1141 32.0787 22.3046 31.6612 22.626 31.3567C22.9475 31.0522 23.3747 30.8845 23.8174 30.8891C24.6903 30.8606 25.5668 30.8606 26.4254 30.8891C26.8785 30.8875 27.3143 31.063 27.6397 31.3782C27.9652 31.6934 28.1547 32.1233 28.1676 32.5762C28.2272 33.4866 28.2272 34.4 28.1676 35.3104C28.0965 36.3451 27.517 36.8499 26.1748 37.0366V48.0766H28.9445V47.2037C28.9445 46.7771 28.9445 46.3504 28.9445 45.9237C28.9445 44.8944 28.9445 43.8295 28.9445 42.7824C28.9445 42.0837 29.2716 41.6713 29.8476 41.6197C29.9811 41.6022 30.1168 41.6131 30.2458 41.6517C30.3748 41.6903 30.4942 41.7557 30.5961 41.8437C30.7108 41.9603 30.7999 42.0996 30.8575 42.2527C30.915 42.4058 30.9398 42.5693 30.9303 42.7326C30.941 43.8562 30.9392 44.9975 30.9303 46.1104V48.0837H32.7632C32.7632 47.7851 32.7756 47.4846 32.7845 47.1948C32.8291 46.4837 32.8142 45.7701 32.7401 45.0615C32.477 43.0917 33.0956 41.6197 34.669 40.4393C35.0653 40.12 35.434 39.768 35.7712 39.3868C36.0254 39.1166 36.2868 38.8357 36.5676 38.5868C37.0245 38.1584 37.2023 37.7371 37.133 37.2037C37.1127 36.9773 37.1086 36.7498 37.1205 36.5228C37.1205 36.4357 37.1205 36.3451 37.1205 36.2597L36.9943 36.2313C36.8574 36.2011 36.7276 36.1726 36.5996 36.1371C36.2735 36.0611 35.9818 35.879 35.7704 35.6194C35.559 35.3597 35.4399 35.0371 35.4316 34.7024C35.4014 33.9486 35.4014 33.2144 35.4316 32.5175C35.4394 32.1272 35.5952 31.7545 35.8675 31.4749C36.1399 31.1953 36.5084 31.0297 36.8983 31.0117C37.6273 30.9743 38.3578 30.9743 39.0868 31.0117C39.4878 31.021 39.8695 31.1862 40.1506 31.4724C40.4318 31.7585 40.5903 32.143 40.5925 32.5442C40.6192 33.2197 40.6192 33.9148 40.5925 34.6686C40.5977 35.0046 40.4874 35.3322 40.2799 35.5966C40.0725 35.861 39.7806 36.0461 39.453 36.1211C39.1525 36.2046 39.0725 36.3095 39.1188 36.5566C39.4103 38.0908 38.8699 39.3602 37.4156 40.5477C36.8025 41.072 36.2236 41.6349 35.6823 42.2331C35.4761 42.4517 35.2699 42.6686 35.0601 42.8837C34.9925 42.9513 34.7899 43.1593 34.7881 43.3104C34.7703 44.5548 34.7721 45.8348 34.7739 47.0668V48.0482C35.6165 48.2028 35.6254 48.1833 35.9543 47.4455C37.2708 44.4482 39.1591 41.7362 41.5134 39.4615C44.3703 36.7237 46.2156 33.4828 46.9961 29.8313C47.3993 27.9435 47.5067 26.0045 47.3143 24.0837C47.2574 23.5131 47.3321 23.1148 47.5436 22.8659C47.627 22.7741 47.7285 22.7004 47.8417 22.6496C47.9549 22.5988 48.0774 22.572 48.2014 22.5708C48.8521 22.5299 49.2236 22.9957 49.3054 23.9557C49.7925 29.6837 48.2085 34.7717 44.5961 39.0793C44.0254 39.7619 43.3996 40.4162 42.797 41.0508C42.1676 41.7086 41.5188 42.3895 40.9303 43.1006C40.202 44.0237 39.5385 44.9961 38.9445 46.0108L38.7668 46.2899C38.4787 46.776 38.2164 47.2768 37.981 47.7904C37.8802 48.0025 37.7771 48.2141 37.6716 48.4251C39.1276 49.3371 39.6948 50.5584 39.3516 52.0571C39.0334 53.4455 38.0645 54.2864 36.4716 54.5566V54.8802C36.4716 55.1699 36.4716 55.4597 36.4716 55.7495C36.4539 56.7468 36.0059 57.5273 35.101 58.1264C34.8853 58.2723 34.722 58.4835 34.6352 58.7291C34.0023 60.8482 32.637 62.1637 30.5641 62.6597C30.4887 62.6797 30.4145 62.704 30.3419 62.7326L30.2352 62.7717L30.221 62.7771ZM29.2183 60.9673C27.021 60.9673 25.6272 60.0784 25.2734 58.4464L25.2485 58.3379H32.7383L32.7276 58.4375C32.573 59.7282 31.1632 60.8802 29.6503 60.9548C29.5028 60.9619 29.3588 60.9673 29.2183 60.9673ZM25.469 58.5157C25.8654 60.0891 27.341 60.8891 29.6379 60.7788C31.0299 60.7095 32.3276 59.6837 32.5321 58.5157H25.469ZM30.7668 56.6704H24.9108C24.2263 56.6704 23.8441 56.6277 23.6112 56.4002C23.3783 56.1726 23.3428 55.7744 23.3463 55.0757V54.3646H29.133C29.7996 54.3646 30.1783 54.0819 30.1996 53.5735C30.2074 53.4732 30.1942 53.3724 30.1608 53.2775C30.1275 53.1826 30.0747 53.0957 30.0059 53.0224C29.8877 52.9176 29.7497 52.8377 29.6001 52.7873C29.4504 52.7369 29.2922 52.7171 29.1348 52.7291H26.0023C24.6423 52.7291 23.2841 52.7291 21.9241 52.7291C21.7101 52.7389 21.4963 52.7051 21.2958 52.6296C21.0953 52.5541 20.9122 52.4385 20.7579 52.2899C20.6338 52.1563 20.5382 51.9988 20.4771 51.827C20.4159 51.6553 20.3905 51.4728 20.4023 51.2908C20.4017 50.9855 20.508 50.6895 20.7029 50.4544C20.8977 50.2193 21.1688 50.0598 21.469 50.0037C21.7325 49.9581 21.9998 49.9385 22.2672 49.9451H35.7605C36.4716 49.9451 36.9819 50.1104 37.3019 50.4357C37.4188 50.5581 37.5095 50.703 37.5685 50.8617C37.6275 51.0203 37.6535 51.1893 37.645 51.3584C37.6343 51.9859 37.2894 52.7344 35.7356 52.7344H35.0245C34.4912 52.7344 33.9259 52.7344 33.3783 52.7344C32.8308 52.7344 32.4645 53.0402 32.4539 53.5308C32.4432 54.0215 32.7863 54.3522 33.3925 54.3682C33.5152 54.3682 33.6379 54.3682 33.7605 54.3682H34.5143L34.541 54.4002L34.5961 54.4659C34.6226 54.4896 34.6402 54.5216 34.6459 54.5566C34.7383 55.5113 34.7348 56.0197 34.4681 56.3184C34.2014 56.6171 33.6912 56.6739 32.7276 56.6739L30.7668 56.6704ZM23.5241 54.5371V55.0704C23.5241 55.7193 23.5525 56.0837 23.7374 56.2686C23.9223 56.4535 24.2708 56.4855 24.9108 56.4855H32.717C33.6059 56.4855 34.1001 56.4393 34.317 56.1904C34.5339 55.9415 34.541 55.4544 34.4574 54.5904V54.5815L34.4236 54.5442H33.757C33.6325 54.5442 33.5081 54.5442 33.3836 54.5442C32.6725 54.5246 32.2583 54.1442 32.2708 53.5255C32.2832 52.9371 32.7045 52.5655 33.3694 52.5548C33.9205 52.5548 34.4788 52.5548 35.0192 52.5548H35.7303C36.8663 52.5548 37.4494 52.1495 37.4619 51.3531C37.4701 51.2077 37.4484 51.0622 37.3983 50.9256C37.3481 50.7889 37.2706 50.6639 37.1703 50.5584C36.8894 50.2722 36.4005 50.1211 35.7481 50.1211H22.269C22.013 50.1149 21.757 50.1333 21.5045 50.1762C21.2442 50.2252 21.0094 50.364 20.8408 50.5683C20.6722 50.7726 20.5806 51.0295 20.5819 51.2944C20.5718 51.4533 20.5944 51.6125 20.6482 51.7623C20.702 51.9121 20.7859 52.0493 20.8948 52.1655C21.033 52.2967 21.1965 52.3984 21.3753 52.4645C21.5541 52.5305 21.7444 52.5594 21.9348 52.5495C23.293 52.5495 24.653 52.5495 26.0112 52.5495H29.1312C29.3125 52.5372 29.4944 52.5616 29.666 52.6212C29.8377 52.6807 29.9956 52.7743 30.1303 52.8962C30.2154 52.9873 30.2809 53.0949 30.3228 53.2123C30.3647 53.3297 30.3821 53.4544 30.3739 53.5788C30.3525 54.1886 29.8992 54.5388 29.1294 54.5406H23.5241V54.5371ZM26.3436 35.1397H23.9223V32.7379H26.3436V35.1397ZM24.1001 34.9619H26.1659V32.9157H24.1001V34.9619ZM38.7525 34.3593H37.2788V32.8428H38.7525V34.3593ZM37.4565 34.1815H38.5748V33.0206H37.4565V34.1815Z" fill="url(#paint1_linear_18_556)"/>
<path d="M53.494 7.43172V9.93839C53.8318 9.93839 54.166 9.92416 54.4984 9.93839C55.1242 9.96861 55.5029 10.3135 55.51 10.8362C55.5171 11.3588 55.1295 11.7251 54.4629 11.7464C54.1464 11.7553 53.83 11.7464 53.4886 11.7464V14.2708C53.8264 14.2708 54.1589 14.2602 54.4913 14.2708C55.1366 14.2957 55.5331 14.6726 55.51 15.2219C55.4869 15.7713 55.1064 16.0682 54.4735 16.0824C54.1553 16.0824 53.8353 16.0824 53.5313 16.0824C53.1349 18.0131 52.518 18.6353 50.5891 19.0246C50.5891 19.3588 50.6033 19.7144 50.5891 20.0699C50.5589 20.6335 50.1838 21.0139 49.6895 21.0104C49.4559 21.0037 49.2337 20.9079 49.0684 20.7426C48.9032 20.5773 48.8074 20.3551 48.8006 20.1215C48.7704 19.7659 48.8006 19.4104 48.8006 19.0033H46.2691C46.2691 19.3588 46.2869 19.7019 46.2691 20.0379C46.2318 20.6353 45.8335 21.0317 45.3269 21.0122C44.8202 20.9926 44.4878 20.6104 44.4629 20.0344C44.4486 19.6984 44.4629 19.3606 44.4629 18.9962H41.9402C41.9402 19.3215 41.9509 19.6539 41.9402 19.9864C41.9153 20.6193 41.5224 21.0371 40.9891 21.0122C40.4558 20.9873 40.1411 20.5926 40.1269 19.9704C40.1269 19.6504 40.1269 19.3322 40.1269 19.0246C38.1891 18.6299 37.558 18.0042 37.1882 16.0859C36.8718 16.0859 36.5358 16.0859 36.2015 16.0859C35.5953 16.0664 35.1953 15.7055 35.1953 15.1971C35.1953 14.6886 35.5971 14.3082 36.2015 14.2851C36.5198 14.2708 36.8415 14.2851 37.2006 14.2851V11.7499C36.8451 11.7499 36.4895 11.7642 36.134 11.7499C35.6006 11.7233 35.2291 11.3766 35.2006 10.9037C35.1722 10.4308 35.5455 10.0148 36.1002 9.95261C36.278 9.93305 36.4558 9.95261 36.6442 9.94016L37.2095 9.91172V7.43172C36.8398 7.43172 36.4984 7.44772 36.1642 7.43172C35.5935 7.39794 35.2113 7.0335 35.2006 6.54283C35.19 6.05216 35.5846 5.65394 36.1891 5.62728C36.5091 5.61305 36.8309 5.62728 37.1971 5.62728C37.4104 3.90461 38.3313 2.89661 40.1286 2.71528C40.1286 2.35972 40.1162 1.99172 40.1286 1.63261C40.1518 1.09927 40.4966 0.733053 40.9749 0.704608C41.4531 0.676164 41.8762 1.03705 41.9331 1.5935C41.9429 1.77529 41.9429 1.95748 41.9331 2.13927C41.9331 2.31705 41.9331 2.49483 41.9331 2.71705H44.454C44.454 2.3615 44.4398 2.00594 44.454 1.65039C44.4806 1.07794 44.8398 0.708164 45.3429 0.708164C45.5806 0.700967 45.8115 0.788196 45.985 0.950773C46.1586 1.11335 46.2607 1.33805 46.2691 1.57572C46.3029 1.93128 46.2691 2.29928 46.2691 2.70461H48.7758C48.7758 2.35972 48.7615 2.02372 48.7758 1.6895C48.8095 1.06905 49.1686 0.693942 49.6949 0.699275C50.2211 0.704608 50.5606 1.08327 50.5838 1.71083C50.5944 2.02905 50.5838 2.35083 50.5838 2.69928C52.3135 2.89305 53.2966 3.81039 53.5011 5.62194C53.8406 5.62194 54.1944 5.60772 54.5446 5.62194C55.1349 5.64861 55.4958 5.9775 55.51 6.49128C55.5242 7.00505 55.1544 7.39083 54.5375 7.42461C54.1998 7.44772 53.862 7.43172 53.494 7.43172ZM51.6433 10.8664C51.6433 9.17394 51.6433 7.47972 51.6433 5.78727C51.6433 4.92861 51.2878 4.56772 50.4362 4.56594C47.0501 4.56594 43.6641 4.56594 40.278 4.56594C39.4335 4.56594 39.0638 4.9375 39.062 5.79083C39.062 9.15794 39.062 12.5245 39.062 15.8904C39.062 16.7793 39.4318 17.1491 40.3064 17.1491C43.6723 17.1491 47.0383 17.1491 50.4042 17.1491C51.2824 17.1491 51.6362 16.7793 51.6486 15.8868C51.6469 14.2122 51.6433 12.5393 51.6433 10.8664Z" fill="url(#paint2_linear_18_556)"/>
<path d="M45.3625 21.1018H45.3234C44.7812 21.0805 44.4007 20.6538 44.3741 20.0352C44.3741 19.8023 44.3741 19.573 44.3741 19.3241C44.3741 19.2423 44.3741 19.1605 44.3741 19.077H42.0292C42.0292 19.1481 42.0292 19.2192 42.0292 19.2921C42.0292 19.5161 42.0292 19.7507 42.0292 19.9801C42.0303 20.1415 41.9994 20.3016 41.9384 20.4511C41.8774 20.6006 41.7874 20.7366 41.6736 20.8512C41.5823 20.9357 41.4746 21.0007 41.3572 21.0419C41.2398 21.0832 41.1151 21.1 40.991 21.0912C40.4239 21.0645 40.0612 20.6325 40.0452 19.9641C40.0452 19.7436 40.0452 19.5214 40.0452 19.3045V19.0894C38.1465 18.6876 37.5047 18.0441 37.1261 16.165H36.9039C36.6781 16.165 36.4434 16.165 36.2105 16.165C35.5563 16.1436 35.1172 15.7472 35.1172 15.1783C35.1172 14.6094 35.5563 14.2058 36.207 14.1774C36.4274 14.1667 36.6461 14.1774 36.879 14.1774H37.1225V11.8378H36.8807C36.6372 11.8378 36.3847 11.8378 36.1376 11.8378C35.5599 11.8094 35.151 11.4361 35.119 10.9081C35.087 10.3801 35.4976 9.93029 36.0967 9.86273C36.215 9.85238 36.3336 9.84822 36.4523 9.85029C36.5187 9.85029 36.5844 9.85029 36.6496 9.85029L37.0176 9.83251H37.1296V7.51429H36.8772C36.6319 7.51429 36.4007 7.51429 36.1661 7.51429C35.5527 7.47696 35.1314 7.08585 35.119 6.53829C35.1065 5.99073 35.5474 5.56229 36.1856 5.53207C36.4061 5.5214 36.6265 5.53207 36.8594 5.53207H37.119C37.3572 3.80585 38.3403 2.82985 40.0399 2.63074C40.0399 2.5454 40.0399 2.45296 40.0399 2.37296C40.0399 2.12762 40.0399 1.8734 40.0399 1.62451C40.0647 1.05029 40.4381 0.643179 40.9696 0.611179C41.5012 0.579179 41.9599 0.975624 42.0221 1.57651C42.0321 1.70781 42.0351 1.83956 42.031 1.97118C42.031 2.02273 42.031 2.07607 42.031 2.1294C42.031 2.25207 42.031 2.37296 42.031 2.50807V2.62007H44.3741C44.3741 2.54007 44.3741 2.46007 44.3741 2.38007C44.3741 2.13651 44.3741 1.88585 44.3741 1.63873C44.4025 1.02362 44.7972 0.611179 45.3536 0.611179C45.6104 0.611898 45.857 0.711809 46.0418 0.89004C46.2267 1.06827 46.3355 1.31104 46.3456 1.56762C46.3641 1.8226 46.3683 2.07841 46.3581 2.33385C46.3581 2.42629 46.3581 2.52051 46.3581 2.61651H48.687C48.687 2.53829 48.687 2.46185 48.687 2.3854C48.687 2.15607 48.687 1.91785 48.687 1.68496C48.7243 1.02718 49.1279 0.600513 49.6967 0.61829C50.2656 0.636068 50.6479 1.04318 50.6727 1.71518C50.6727 1.93562 50.6727 2.15251 50.6727 2.38362C50.6727 2.46362 50.6727 2.5454 50.6727 2.62896C52.4025 2.85474 53.3519 3.80762 53.5723 5.54096H53.8105C54.0487 5.54096 54.2959 5.54096 54.543 5.54096C55.1741 5.5694 55.5776 5.9374 55.5919 6.4974C55.6061 7.0574 55.1936 7.48585 54.5359 7.5214C54.3012 7.53562 54.0719 7.53207 53.8247 7.5214H53.5741V9.85029H53.7999C54.0274 9.85029 54.2621 9.85029 54.4932 9.85029C55.1616 9.88407 55.5812 10.261 55.5901 10.8352C55.599 11.4094 55.1652 11.8165 54.4576 11.8361C54.239 11.8361 54.0221 11.8361 53.7963 11.8361H53.5687V14.181H53.7927C54.0203 14.181 54.255 14.181 54.4861 14.181C54.6465 14.1796 54.8056 14.2104 54.954 14.2715C55.1024 14.3325 55.237 14.4226 55.3501 14.5365C55.4343 14.6302 55.499 14.7398 55.5402 14.8589C55.5814 14.978 55.5984 15.1041 55.5901 15.2298C55.5652 15.8058 55.1456 16.1596 54.4665 16.1756C54.2443 16.1756 54.0239 16.1756 53.8052 16.1756H53.5954C53.2025 18.0636 52.559 18.7143 50.6781 19.1001C50.6781 19.1783 50.6781 19.2565 50.6781 19.3383C50.6781 19.5783 50.6781 19.8272 50.6781 20.0761C50.6461 20.6841 50.2461 21.1018 49.6896 21.1018C49.4328 21.0952 49.1882 20.991 49.0055 20.8103C48.8229 20.6296 48.7159 20.3861 48.7065 20.1294C48.6895 19.8761 48.686 19.6222 48.6959 19.3685C48.6959 19.2778 48.6959 19.1907 48.6959 19.093H46.3616C46.3616 19.1765 46.3616 19.2583 46.3616 19.3383C46.3616 19.5818 46.3616 19.8112 46.3616 20.0494C46.319 20.6698 45.903 21.1018 45.3625 21.1018ZM41.8514 18.9081H44.5501V18.997C44.5501 19.1125 44.5501 19.2245 44.5501 19.3347C44.5501 19.5765 44.5501 19.8041 44.5501 20.0316C44.5714 20.565 44.8772 20.9063 45.327 20.9205C45.7767 20.9347 46.1447 20.565 46.1785 20.0316C46.1927 19.8058 46.1892 19.5783 46.1785 19.3383C46.1785 19.2281 46.1785 19.1161 46.1785 19.0023V18.9134H48.8683V19.0023C48.8683 19.1285 48.8683 19.2512 48.8683 19.3703C48.8584 19.6174 48.8619 19.8649 48.879 20.1116C48.8826 20.3246 48.9684 20.5279 49.1185 20.679C49.2686 20.8301 49.4714 20.9173 49.6843 20.9223C50.1305 20.9223 50.4612 20.5667 50.4896 20.0654C50.5021 19.8218 50.4985 19.5765 50.4896 19.3383C50.4896 19.2316 50.4896 19.1285 50.4896 19.0254V18.9525L50.5607 18.9383C52.4523 18.5561 53.0496 17.9658 53.4336 16.0654L53.4479 15.9943H53.8034C54.0185 15.9943 54.239 15.9943 54.4594 15.9943C55.0425 15.9818 55.3874 15.6992 55.4087 15.2192C55.4162 15.1165 55.4029 15.0133 55.3696 14.9159C55.3363 14.8185 55.2837 14.7287 55.215 14.6521C55.117 14.5571 55.0012 14.4825 54.8743 14.4324C54.7474 14.3824 54.6118 14.358 54.4754 14.3605C54.2496 14.3516 54.0167 14.3605 53.791 14.3605H53.3874V11.6618H53.7945C54.0185 11.6618 54.2336 11.6618 54.4487 11.6618C55.0674 11.6458 55.4176 11.3454 55.4087 10.8423C55.3999 10.3392 55.0532 10.0601 54.4807 10.0316C54.255 10.0192 54.0221 10.0316 53.7981 10.0316H53.3927V7.33651H53.4816H53.8247C54.0647 7.33651 54.2941 7.33651 54.5199 7.33651C55.0816 7.30629 55.423 6.98096 55.4087 6.49562C55.3945 6.01029 55.0674 5.73651 54.5199 5.70985C54.2799 5.69918 54.0345 5.70985 53.7981 5.70985H53.4799H53.3999L53.391 5.62985C53.1972 3.91607 52.271 2.98629 50.559 2.7854L50.4807 2.77473V2.69651C50.4807 2.58629 50.4807 2.47785 50.4807 2.37118C50.4807 2.14362 50.4807 1.92673 50.4807 1.71162C50.4576 1.13562 50.159 0.788957 49.679 0.785402C49.199 0.781846 48.879 1.12673 48.8487 1.69207C48.8363 1.91785 48.8399 2.14185 48.8487 2.38007C48.8487 2.48673 48.8487 2.5934 48.8487 2.70185V2.79074H46.1785V2.70185C46.1785 2.57207 46.1785 2.44762 46.1785 2.32674C46.1884 2.07843 46.1849 1.82977 46.1679 1.58185C46.1632 1.36869 46.0751 1.16586 45.9225 1.01694C45.77 0.868018 45.5651 0.784885 45.3519 0.785402C44.8896 0.785402 44.5732 1.1214 44.5483 1.64229C44.5376 1.88585 44.5483 2.13473 44.5483 2.37473C44.5483 2.48496 44.5483 2.59518 44.5483 2.7054V2.79429H41.8514V2.50629C41.8514 2.37118 41.8514 2.25029 41.8514 2.1294C41.8514 2.07429 41.8514 2.02096 41.8514 1.96585C41.8556 1.84193 41.8527 1.71787 41.8425 1.59429C41.791 1.09118 41.4354 0.758735 40.9767 0.787179C40.5181 0.815624 40.2372 1.15162 40.2159 1.63162C40.2052 1.87518 40.207 2.11518 40.2159 2.3694C40.2159 2.4814 40.2159 2.59518 40.2159 2.70896V2.78896H40.1359C38.431 2.96674 37.4976 3.88762 37.2825 5.62274L37.2736 5.70096H37.2025H36.863C36.6319 5.70096 36.415 5.70096 36.1981 5.70096C35.647 5.72585 35.2825 6.05651 35.295 6.52585C35.3074 6.99518 35.6594 7.2974 36.175 7.32762C36.4025 7.34185 36.6301 7.33829 36.8701 7.32762L37.2025 7.33651H37.2914V9.9854L37.0247 10.0032L36.6514 10.021C36.5839 10.021 36.5163 10.021 36.447 10.021C36.336 10.0188 36.225 10.0229 36.1145 10.0334C35.6132 10.0885 35.2683 10.4494 35.295 10.8903C35.3216 11.3312 35.6612 11.6281 36.143 11.653C36.3865 11.6654 36.6354 11.653 36.8754 11.653H37.2985V14.3587H36.8754C36.6461 14.3587 36.4292 14.3587 36.2141 14.3587C35.663 14.3818 35.2932 14.7143 35.2932 15.1818C35.2932 15.6494 35.6487 15.973 36.2141 15.9907C36.4434 15.9907 36.6763 15.9907 36.9003 15.9907H37.2701L37.2843 16.0618C37.6523 17.9516 38.2407 18.5507 40.1501 18.933L40.2212 18.9472V19.3027C40.2212 19.5178 40.2212 19.7365 40.2212 19.957C40.2354 20.5312 40.5252 20.8885 40.9981 20.9116C41.0989 20.9175 41.1998 20.9032 41.2951 20.8696C41.3903 20.836 41.4779 20.7838 41.5527 20.7161C41.7486 20.5177 41.8579 20.2499 41.8567 19.9712C41.8567 19.7436 41.8567 19.5125 41.8567 19.2885C41.8567 19.1872 41.8567 19.0858 41.8567 18.9845L41.8514 18.9081ZM45.407 17.2405C43.7199 17.2405 42.0185 17.2405 40.3136 17.2405C39.3892 17.2405 38.9767 16.8245 38.975 15.893C38.975 12.3072 38.975 9.00229 38.975 5.7934C38.975 4.88673 39.3785 4.4814 40.2781 4.47962C43.5883 4.47962 47.007 4.47962 50.4381 4.47962C51.327 4.47962 51.7323 4.88496 51.7341 5.78985C51.7341 6.98985 51.7341 8.19162 51.7341 9.3934V12.3801C51.7341 13.5498 51.7341 14.7196 51.7341 15.8894C51.7341 16.8352 51.3359 17.2405 50.4114 17.2405C48.7581 17.2405 47.0905 17.2405 45.4034 17.2405H45.407ZM45.3127 4.65029H40.2799C39.4799 4.65029 39.1545 4.98096 39.1527 5.78629C39.1527 8.99518 39.1527 12.3001 39.1527 15.8858C39.1527 16.7267 39.4799 17.0556 40.3136 17.0556C43.7234 17.0556 47.1207 17.0556 50.4114 17.0556C51.2345 17.0556 51.5563 16.725 51.5581 15.8823C51.5581 14.7125 51.5581 13.5427 51.5581 12.373V9.38985C51.5581 8.18807 51.5581 6.98807 51.5581 5.78629C51.5581 4.97207 51.2434 4.65562 50.4399 4.65385L45.3127 4.65029Z" fill="url(#paint3_linear_18_556)"/>
<path d="M13.5581 39.1208C11.3436 36.5613 9.82801 33.4731 9.15814 30.1555C8.87726 28.7582 8.77948 27.3253 8.59814 25.9084C8.74037 21.6613 9.95814 17.8035 12.3777 14.3226C12.671 13.9013 13.0053 13.6346 13.5368 13.7733C14.1733 13.9511 14.319 14.6248 13.9261 15.2986C13.2648 16.4257 12.5039 17.5208 12.0257 18.7244C9.30214 25.5582 10.2479 31.9013 14.751 37.7164C14.8115 37.7964 14.8826 37.8693 14.9448 37.9475" fill="url(#paint4_linear_18_556)"/>
<path d="M13.4942 39.1776C11.2718 36.6058 9.74967 33.5046 9.07465 30.1732C8.88087 29.2096 8.77243 28.2176 8.66754 27.2505C8.61954 26.8132 8.57154 26.3616 8.51465 25.919C8.65687 21.6025 9.93687 17.6896 12.3084 14.2727C12.5591 13.9172 12.9271 13.5207 13.5529 13.6879C13.6864 13.7177 13.8108 13.7791 13.9157 13.8669C14.0205 13.9548 14.1028 14.0665 14.1555 14.1927C14.2189 14.3838 14.2376 14.5868 14.2102 14.7863C14.1828 14.9857 14.1099 15.1761 13.9973 15.343C13.8195 15.6327 13.6418 15.9207 13.4746 16.2105C12.9456 17.0192 12.4865 17.8714 12.1022 18.7581C9.41243 25.5136 10.3244 31.8692 14.8151 37.6612C14.8453 37.7003 14.8773 37.7376 14.9093 37.775C14.9413 37.8123 14.9769 37.8532 15.0089 37.8941L14.8684 38.0025C14.84 37.9634 14.808 37.9279 14.776 37.8905C14.744 37.8532 14.7066 37.8123 14.6746 37.7696C10.1431 31.9243 9.2222 25.503 11.9369 18.6923C12.3255 17.7963 12.7887 16.9346 13.3218 16.1163C13.4995 15.8301 13.6773 15.5421 13.8444 15.2523C13.9429 15.1091 14.0074 14.9453 14.033 14.7734C14.0586 14.6015 14.0445 14.426 13.992 14.2603C13.9492 14.1598 13.883 14.071 13.7989 14.0014C13.7148 13.9318 13.6151 13.8834 13.5084 13.8603C13.0835 13.7483 12.776 13.8976 12.4418 14.3741C10.0524 17.8105 8.82221 21.583 8.67821 25.9101C8.73509 26.3403 8.78487 26.799 8.83109 27.231C8.93598 28.1892 9.04443 29.1865 9.23643 30.1376C9.90502 33.4396 11.4137 36.5133 13.6169 39.0621L13.4942 39.1776Z" fill="url(#paint5_linear_18_556)"/>
<path d="M31.2665 29.1821C31.0176 29.1483 30.8203 29.1323 30.6265 29.0949C29.8069 28.9332 29.2505 28.3447 29.2185 27.5145C29.1829 26.6078 29.1812 25.6994 29.2185 24.7945C29.2558 23.8896 29.9207 23.2301 30.8612 23.1945C31.7056 23.1661 32.5536 23.1678 33.3998 23.1945C34.4203 23.2212 35.094 23.8754 35.1385 24.9065C35.174 25.7314 35.174 26.5598 35.1385 27.3847C35.0923 28.4798 34.4718 29.0185 33.0834 29.1732V29.7972C33.0834 31.2194 33.0674 32.6612 33.0834 34.0905C33.1029 34.3416 33.0619 34.5937 32.9638 34.8257C32.8658 35.0577 32.7135 35.2628 32.5198 35.4238C32.3652 35.5518 32.246 35.7225 32.0878 35.8452C31.1776 36.5563 30.646 37.3901 30.8256 38.6238C30.9145 39.2354 30.47 39.6158 29.9367 39.6141C29.4034 39.6123 29.0478 39.2425 29.0318 38.6167C28.993 38.0133 28.9977 37.4079 29.046 36.8052C29.0961 36.4746 29.2413 36.1658 29.4638 35.9163C30.0185 35.2816 30.8683 34.7874 31.1527 34.0621C31.4532 33.2905 31.2416 32.3181 31.2487 31.4327C31.27 30.6861 31.2665 29.9429 31.2665 29.1821ZM31.046 27.2674H33.2914V25.0398H31.046V27.2674Z" fill="url(#paint6_linear_18_556)"/>
<path d="M29.9581 39.7002C29.3679 39.7002 28.9875 39.2824 28.9644 38.6175V38.4646C28.9309 37.9078 28.9374 37.3494 28.9839 36.7935C29.036 36.4441 29.1886 36.1173 29.423 35.8531C29.6327 35.6241 29.8566 35.4086 30.0932 35.2077C30.5181 34.8308 30.9199 34.4735 31.0959 34.0255C31.3004 33.5011 31.2595 32.8593 31.2204 32.2477C31.2026 31.9793 31.1848 31.7019 31.1866 31.4353C31.1866 30.9215 31.1866 30.4077 31.1866 29.8851V29.2682L31.0319 29.2486C30.8808 29.2308 30.751 29.2148 30.6195 29.1899C29.7395 29.0122 29.1724 28.3793 29.1386 27.5259C29.103 26.5873 29.103 25.6682 29.1386 24.7988C29.1795 23.8264 29.8728 23.1508 30.8666 23.1171C31.663 23.0904 32.495 23.0868 33.4106 23.1171C34.4897 23.1455 35.1884 23.8282 35.2364 24.9144C35.2719 25.7357 35.2719 26.5713 35.2364 27.4033C35.1884 28.5197 34.5537 29.0957 33.1813 29.2664V29.8139C33.1813 30.2211 33.1813 30.6299 33.1813 31.0388C33.1813 32.0433 33.1813 33.0833 33.1919 34.1037C33.2117 34.3681 33.1679 34.6333 33.0643 34.8773C32.9607 35.1213 32.8003 35.337 32.5964 35.5064C32.5284 35.5663 32.4643 35.6305 32.4044 35.6984C32.33 35.7822 32.2491 35.8601 32.1626 35.9313C31.1546 36.7117 30.7759 37.5437 30.9341 38.6264C30.9588 38.7611 30.9534 38.8997 30.9184 39.0321C30.8833 39.1646 30.8195 39.2877 30.7315 39.3926C30.6323 39.4964 30.5118 39.5777 30.3784 39.6307C30.2449 39.6838 30.1016 39.7075 29.9581 39.7002ZM32.175 23.2646C31.7217 23.2646 31.2861 23.2646 30.863 23.2859C29.9741 23.3162 29.343 23.9242 29.3075 24.7971C29.2719 25.6699 29.2719 26.5748 29.3075 27.5099C29.3377 28.2762 29.8408 28.8504 30.6444 29.0068C30.7706 29.0317 30.8968 29.0459 31.0444 29.0637L31.2772 29.0922L31.3555 29.1028V29.8762C31.3555 30.3988 31.3555 30.9126 31.3555 31.4282C31.3555 31.6877 31.3715 31.9615 31.3875 32.2282C31.4284 32.8682 31.471 33.5295 31.2524 34.0895C31.0621 34.5784 30.6248 34.9659 30.2017 35.3339C29.9708 35.53 29.7523 35.7402 29.5475 35.9633C29.3365 36.1998 29.1987 36.4926 29.151 36.8059C29.106 37.3536 29.1 37.9037 29.1333 38.4522V38.6033C29.1528 39.1722 29.4586 39.5135 29.9492 39.5153C30.0668 39.5187 30.1838 39.497 30.2923 39.4517C30.4008 39.4063 30.4984 39.3383 30.5786 39.2522C30.6495 39.166 30.7006 39.0652 30.7283 38.9571C30.7559 38.849 30.7594 38.736 30.7386 38.6264C30.5715 37.4886 30.9839 36.5802 32.0346 35.7659C32.1131 35.7008 32.1862 35.6295 32.2533 35.5526C32.3187 35.4789 32.3887 35.4094 32.463 35.3446C32.6476 35.1932 32.7926 34.9992 32.8855 34.7793C32.9784 34.5594 33.0165 34.3203 32.9964 34.0824C32.9786 33.0584 32.9821 32.0184 32.9857 31.0122C32.9857 30.6051 32.9857 30.1962 32.9857 29.7891V29.0779L33.0657 29.0691C34.4061 28.9215 34.9964 28.4113 35.0408 27.3659C35.0764 26.5428 35.0764 25.7108 35.0408 24.8948C34.9981 23.9171 34.3653 23.2948 33.3893 23.2682C32.9732 23.2699 32.5679 23.2646 32.175 23.2646ZM33.3875 27.3535H30.9572V24.9499H33.3875V27.3535ZM31.135 27.1757H33.2097V25.1277H31.135V27.1757Z" fill="url(#paint7_linear_18_556)"/>
<path d="M46.838 51.1985C46.1926 51.1985 45.5473 51.2109 44.902 51.1985C43.9188 51.1736 43.2024 50.5105 43.1793 49.5381C43.1455 48.2083 43.1491 46.8714 43.1793 45.5452C43.1743 45.331 43.2119 45.118 43.2899 44.9184C43.3678 44.7189 43.4846 44.5368 43.6334 44.3827C43.7822 44.2286 43.9601 44.1055 44.1568 44.0207C44.3535 43.9358 44.5651 43.8908 44.7793 43.8883C46.1482 43.8367 47.5206 43.8367 48.8895 43.8883C49.8584 43.9203 50.502 44.5994 50.5286 45.5701C50.5642 46.8785 50.5642 48.1923 50.5286 49.5007C50.502 50.5212 49.7962 51.1789 48.7811 51.2038C48.1286 51.2109 47.4833 51.1985 46.838 51.1985ZM48.6922 49.3638V45.7123H45.0246V49.3638H48.6922Z" fill="url(#paint8_linear_18_556)"/>
<path d="M48.0471 51.2912H47.432C47.2275 51.2912 47.0266 51.2912 46.8204 51.2912H46.2373C45.8017 51.2912 45.3484 51.2912 44.9075 51.2912C43.8657 51.2645 43.1297 50.5463 43.0977 49.5436C43.0657 48.269 43.0657 46.9605 43.0977 45.5472C43.093 45.3223 43.1328 45.0987 43.2148 44.8893C43.2968 44.6798 43.4194 44.4887 43.5755 44.3268C43.7316 44.1649 43.9182 44.0354 44.1245 43.9459C44.3309 43.8563 44.5528 43.8084 44.7777 43.805C46.1199 43.7534 47.5048 43.7516 48.8951 43.805C49.8995 43.8387 50.5911 44.5498 50.6195 45.5721C50.6551 46.893 50.6551 48.2174 50.6195 49.5099C50.5911 50.5765 49.8711 51.2716 48.7848 51.2983C48.5306 51.2894 48.2853 51.2912 48.0471 51.2912ZM46.8204 51.1134H47.4337C47.8746 51.1134 48.3315 51.1134 48.7795 51.1134C49.7626 51.0903 50.4151 50.4556 50.44 49.4974C50.4755 48.2103 50.4755 46.8876 50.44 45.5703C50.4151 44.6334 49.8053 44.0059 48.888 43.9703C47.5013 43.9223 46.12 43.9241 44.7831 43.9703C44.5808 43.9735 44.3812 44.0167 44.1957 44.0974C44.0102 44.1781 43.8425 44.2946 43.7022 44.4403C43.562 44.5861 43.4519 44.7581 43.3783 44.9465C43.3048 45.135 43.2692 45.3361 43.2737 45.5383C43.2435 46.9499 43.2435 48.2547 43.2737 49.5276C43.2968 50.445 43.9546 51.0761 44.9093 51.101C45.3502 51.1116 45.7982 51.1098 46.2337 51.101L46.8204 51.1134ZM48.7884 49.4565H44.9395V45.6218H48.7813L48.7884 49.4565ZM45.1244 49.2787H48.6106V45.7996H45.1173L45.1244 49.2787Z" fill="url(#paint9_linear_18_556)"/>
<path d="M21.6079 9.64814C21.6079 10.233 21.6222 10.8179 21.6079 11.401C21.5777 12.3824 20.9217 13.097 19.9439 13.129C18.7368 13.1699 17.5244 13.1681 16.3155 13.129C16.1021 13.1323 15.8902 13.0935 15.6917 13.0149C15.4933 12.9363 15.3124 12.8193 15.1592 12.6708C15.006 12.5222 14.8835 12.3449 14.7989 12.149C14.7142 11.9531 14.669 11.7424 14.6657 11.529C14.6088 10.2846 14.6088 9.02947 14.6657 7.78147C14.7084 6.81969 15.3982 6.19392 16.3742 6.16725C17.5422 6.13525 18.7137 6.13347 19.8817 6.16725C20.9288 6.19925 21.5902 6.91036 21.6115 7.95747C21.6186 8.52458 21.6097 9.08814 21.6079 9.64814ZM19.7804 8.00014H16.495V11.2855H19.7804V8.00014Z" fill="url(#paint10_linear_18_556)"/>
<path d="M18.1445 13.2534C17.5424 13.2534 16.9309 13.2439 16.3098 13.2249C16.0846 13.2287 15.8608 13.1878 15.6514 13.1048C15.442 13.0217 15.2511 12.8981 15.0896 12.7409C14.9282 12.5838 14.7995 12.3963 14.7108 12.1892C14.6221 11.9821 14.5753 11.7595 14.5729 11.5342C14.5161 10.2898 14.5161 9.01869 14.5729 7.77958C14.6174 6.79113 15.3392 6.10847 16.3667 6.08002C17.5685 6.04624 18.7507 6.04624 19.8796 6.08002C20.9605 6.11202 21.6734 6.8498 21.6965 7.95735C21.6965 8.3538 21.6965 8.75735 21.6965 9.14846C21.6965 9.31558 21.6965 9.48446 21.6965 9.65335C21.6965 9.82224 21.6965 10.0267 21.6965 10.2116C21.6965 10.6045 21.6965 11.0098 21.6965 11.4098C21.6645 12.4605 20.9623 13.1876 19.9472 13.2231C19.3587 13.2427 18.7578 13.2534 18.1445 13.2534ZM18.1445 6.23291C17.5632 6.23291 16.9712 6.2418 16.3667 6.2578C15.4227 6.28447 14.7863 6.88358 14.7454 7.78669C14.6903 9.02224 14.6903 10.2756 14.7454 11.52C14.7477 11.7227 14.7901 11.923 14.8701 12.1092C14.95 12.2955 15.0661 12.4641 15.2115 12.6054C15.3569 12.7467 15.5288 12.8578 15.7173 12.9324C15.9058 13.007 16.1071 13.0435 16.3098 13.04C17.5543 13.0774 18.7756 13.0774 19.9329 13.04C20.8467 13.0098 21.4814 12.3502 21.5098 11.3991C21.5223 11.0027 21.5187 10.5991 21.5098 10.208C21.5098 10.0302 21.5098 9.83469 21.5098 9.64802C21.5098 9.47024 21.5098 9.31024 21.5098 9.14135C21.5098 8.75202 21.5098 8.35024 21.5098 7.95558C21.4885 6.93513 20.8592 6.28269 19.8654 6.25247C19.3072 6.2418 18.7276 6.23291 18.1392 6.23291H18.1445ZM19.8654 11.3742H16.4023V7.91113H19.8565L19.8654 11.3742ZM16.5889 11.1965H19.6876V8.08891H16.5801L16.5889 11.1965Z" fill="url(#paint11_linear_18_556)"/>
<path d="M22.813 25.1742C22.813 25.656 22.8272 26.1396 22.813 26.6231C22.7775 27.64 22.1321 28.3405 21.1152 28.3831C20.0984 28.4258 19.0619 28.424 18.0361 28.3831C17.0104 28.3422 16.3508 27.672 16.317 26.6427C16.2832 25.6133 16.2815 24.6302 16.317 23.6205C16.3544 22.5769 17.0584 21.9085 18.0948 21.8871C19.0815 21.8676 20.0681 21.864 21.053 21.8871C22.0877 21.9138 22.7704 22.6178 22.8041 23.6649C22.8272 24.1662 22.813 24.6711 22.813 25.1742ZM18.1499 26.536H20.9517V23.7502H18.1499V26.536Z" fill="url(#paint12_linear_18_556)"/>
<path d="M19.5793 28.5037C19.0726 28.5037 18.5553 28.4931 18.0308 28.4735C16.9642 28.4344 16.253 27.718 16.2264 26.6477C16.1908 25.6237 16.1908 24.6051 16.2264 23.6255C16.2655 22.5411 17.0015 21.8264 18.1002 21.8051C19.1988 21.7837 20.1553 21.7837 21.0637 21.8051C22.1428 21.8335 22.8646 22.5624 22.9002 23.6611C22.9108 24.0077 22.9002 24.3615 22.9002 24.7011C22.9002 24.8593 22.9002 25.0157 22.9002 25.174C22.9002 25.3322 22.9002 25.4726 22.9002 25.622C22.9002 25.9508 22.9002 26.2904 22.9002 26.6246C22.8628 27.7037 22.1624 28.4273 21.1224 28.4717C20.6193 28.4913 20.1055 28.5037 19.5793 28.5037ZM19.5988 21.9651C19.1242 21.9651 18.6282 21.9651 18.1037 21.9811C17.0922 22.0006 16.4397 22.6317 16.4042 23.6291C16.3686 24.6264 16.3686 25.622 16.4042 26.6424C16.4379 27.6255 17.0637 28.2602 18.0379 28.2957C19.1046 28.3366 20.1339 28.3348 21.1099 28.2957C22.0859 28.2566 22.6886 27.6148 22.7224 26.6211C22.733 26.2904 22.7224 25.9526 22.7224 25.6255C22.7224 25.4762 22.7224 25.3251 22.7224 25.1757C22.7224 25.0175 22.7224 24.8593 22.7224 24.7011C22.7224 24.3633 22.7224 24.0113 22.7224 23.6682C22.6904 22.6708 22.0379 22.0095 21.0584 21.9846C20.5908 21.9704 20.1073 21.9651 19.6024 21.9651H19.5988ZM21.0406 26.6211H18.061V23.6611H21.0406V26.6211ZM18.2388 26.4433H20.8628V23.8388H18.2388V26.4433Z" fill="url(#paint13_linear_18_556)"/>
<path d="M9.01942 47.1901C8.53586 47.1901 8.05053 47.1901 7.56697 47.1901C6.54475 47.1687 5.8283 46.5287 5.78919 45.5154C5.74475 44.47 5.74475 43.4176 5.78919 42.3705C5.83364 41.4052 6.5003 40.7705 7.4763 40.7367C8.50386 40.7023 9.53201 40.7023 10.5607 40.7367C11.5367 40.7687 12.2052 41.4016 12.2514 42.3687C12.2994 43.4158 12.2976 44.4665 12.2514 45.5136C12.2087 46.5305 11.4941 47.1687 10.4736 47.1918C9.9883 47.1989 9.50297 47.1901 9.01942 47.1901ZM7.61853 45.3394H10.4167V42.5785H7.61853V45.3394Z" fill="url(#paint14_linear_18_556)"/>
<path d="M9.91865 47.2808H8.56754C8.23865 47.2808 7.89909 47.2808 7.56487 47.2808C6.47331 47.2577 5.74087 46.5697 5.69465 45.5208C5.64843 44.4719 5.6502 43.4017 5.69465 42.3688C5.73909 41.3359 6.43598 40.6817 7.47243 40.6497C8.50887 40.6177 9.53465 40.6159 10.564 40.6497C11.5933 40.6834 12.292 41.3608 12.3418 42.367C12.3915 43.3732 12.3898 44.4434 12.3418 45.519C12.2973 46.5661 11.5649 47.2577 10.4769 47.2826L9.91865 47.2808ZM9.01909 47.103H9.46887C9.79598 47.103 10.1355 47.103 10.468 47.103C11.4546 47.0817 12.1195 46.4559 12.1586 45.503C12.2049 44.4363 12.2031 43.3697 12.1586 42.3652C12.116 41.4568 11.4866 40.8488 10.5586 40.8186C9.53287 40.7866 8.49643 40.7866 7.47954 40.8186C6.54798 40.847 5.91865 41.4568 5.87954 42.367C5.83331 43.3946 5.83331 44.4506 5.87954 45.5048C5.92043 46.4488 6.59065 47.0728 7.57554 47.0941C7.90798 47.0941 8.24576 47.0941 8.57287 47.0941L9.01909 47.103ZM10.5053 45.4301H7.52931V42.4879H10.5053V45.4301ZM7.70709 45.2523H10.3275V42.6657H7.70709V45.2523Z" fill="url(#paint15_linear_18_556)"/>
<path d="M52.445 41.8729C52.061 41.8729 51.6788 41.8835 51.2948 41.8729C50.3153 41.8409 49.6148 41.1707 49.5846 40.2C49.5597 39.4142 49.5597 38.6278 49.5846 37.8409C49.5843 37.6181 49.6285 37.3975 49.7145 37.192C49.8006 36.9865 49.9268 36.8002 50.0857 36.6441C50.2446 36.488 50.4331 36.3651 50.6401 36.2828C50.8471 36.2004 51.0685 36.1602 51.2913 36.1644C52.0581 36.1431 52.8249 36.1431 53.5917 36.1644C54.5837 36.1893 55.2575 36.8453 55.293 37.8373C55.3215 38.6231 55.3215 39.4095 55.293 40.1964C55.2575 41.192 54.5819 41.8427 53.5953 41.8729C53.2113 41.8835 52.829 41.8747 52.445 41.8729ZM53.4619 38.0204H51.437V40.0204H53.4619V38.0204Z" fill="url(#paint16_linear_18_556)"/>
<path d="M53.167 41.9686H52.8007C52.6799 41.9686 52.5554 41.9686 52.4345 41.9686H52.079C51.8194 41.9686 51.5456 41.9686 51.2896 41.9686C51.056 41.9712 50.8242 41.9277 50.6074 41.8406C50.3906 41.7536 50.1931 41.6246 50.0262 41.4612C49.8592 41.2977 49.7262 41.1029 49.6346 40.888C49.543 40.6731 49.4946 40.4422 49.4923 40.2086C49.4674 39.4317 49.4674 38.6371 49.4923 37.8442C49.4944 37.6107 49.5424 37.38 49.6337 37.1651C49.725 36.9502 49.8577 36.7554 50.0243 36.5918C50.1909 36.4282 50.388 36.299 50.6045 36.2116C50.821 36.1242 51.0526 36.0803 51.2861 36.0824C52.0505 36.0611 52.8256 36.0611 53.5972 36.0824C54.6461 36.1091 55.3483 36.7935 55.3856 37.8406C55.4141 38.6246 55.4141 39.4211 55.3856 40.2069C55.3483 41.2433 54.6479 41.9366 53.6079 41.9686C53.455 41.9669 53.311 41.9686 53.167 41.9686ZM52.4363 41.7909C52.559 41.7909 52.6799 41.7909 52.8025 41.7909C53.0621 41.7909 53.3359 41.7909 53.5919 41.7909C54.5376 41.7606 55.1705 41.1366 55.2043 40.1997C55.2327 39.4193 55.2327 38.6264 55.2043 37.8477C55.1705 36.9073 54.5359 36.2833 53.5883 36.2602C52.8274 36.2389 52.0559 36.2389 51.295 36.2602C50.3527 36.2851 49.695 36.9233 49.6736 37.8495C49.6487 38.6389 49.6487 39.43 49.6736 40.2033C49.7021 41.1224 50.3545 41.7606 51.2985 41.7909C51.5581 41.7997 51.8319 41.7909 52.0807 41.7909H52.4363ZM53.551 40.1162H51.3483V37.9331H53.5581L53.551 40.1162ZM51.5261 39.9384H53.3803V38.1109H51.5261V39.9384Z" fill="url(#paint17_linear_18_556)"/>
<path d="M7.18645 3.51508C7.18645 3.1933 7.18645 2.86975 7.18645 2.54797C7.21134 1.50797 7.82823 0.828856 8.85223 0.77019C9.59724 0.732853 10.3437 0.732853 11.0887 0.77019C12.0505 0.819967 12.6887 1.47063 12.7402 2.43952C12.7758 3.16308 12.7758 3.89197 12.7402 4.61552C12.694 5.58441 12.0647 6.2333 11.0958 6.29552C10.3718 6.33908 9.64595 6.34264 8.92156 6.30619C7.82823 6.26886 7.20601 5.58975 7.18645 4.49108C7.18112 4.16041 7.18645 3.83863 7.18645 3.51508ZM10.8913 4.48041V2.60841H9.04245V4.48041H10.8913Z" fill="url(#paint18_linear_18_556)"/>
<path d="M9.9421 6.4317C9.61321 6.4317 9.27366 6.4317 8.9181 6.40681C7.7821 6.35526 7.11899 5.65481 7.09766 4.49214C7.09766 4.26459 7.09766 4.03703 7.09766 3.8077V3.52326C7.09766 3.41837 7.09766 3.31348 7.09766 3.20681C7.09766 2.98992 7.09766 2.77126 7.09766 2.55437C7.12432 1.46103 7.79455 0.748144 8.84877 0.696589C9.59366 0.661033 10.3492 0.661033 11.0923 0.696589C12.0968 0.748144 12.7794 1.43614 12.8292 2.44948C12.8648 3.16059 12.8648 3.90192 12.8292 4.63437C12.7794 5.65659 12.1181 6.33392 11.1012 6.3997C10.7279 6.41926 10.3421 6.4317 9.9421 6.4317ZM9.9421 0.840589C9.58655 0.840589 9.21321 0.840589 8.85232 0.867255C7.88521 0.915255 7.29321 1.54459 7.2701 2.55081C7.2701 2.7677 7.2701 2.98281 7.2701 3.1997C7.2701 3.30459 7.2701 3.41126 7.2701 3.51614V3.80237C7.2701 4.02814 7.2701 4.2557 7.2701 4.48326C7.28966 5.54992 7.89054 6.18281 8.92166 6.22903C9.64307 6.26578 10.366 6.26222 11.087 6.21837C12.0061 6.1597 12.6034 5.54814 12.6479 4.61837C12.6834 3.89303 12.6834 3.16414 12.6479 2.45126C12.6017 1.52148 12.0008 0.913477 11.0799 0.867255C10.7065 0.850663 10.3297 0.841774 9.94921 0.840589H9.9421ZM10.9768 4.57392H8.95366V2.52059H10.9839L10.9768 4.57392ZM9.12432 4.39614H10.799V2.69837H9.13143L9.12432 4.39614Z" fill="url(#paint19_linear_18_556)"/>
<path d="M20.1515 16.7392C20.1515 16.5188 20.1515 16.2966 20.1515 16.0761C20.164 14.8139 20.8306 14.149 22.1071 14.1383C22.6404 14.1383 23.1542 14.1259 23.6786 14.1383C24.6778 14.1703 25.3569 14.7819 25.4298 15.7757C25.4831 16.4585 25.4831 17.1444 25.4298 17.8272C25.3498 18.789 24.6884 19.3881 23.7089 19.4272C23.1062 19.4557 22.5 19.4575 21.8973 19.4272C20.8484 19.3757 20.1924 18.6823 20.1658 17.637C20.1444 17.3437 20.1515 17.0415 20.1515 16.7392ZM22.0129 15.9801V17.6015H23.5809V15.9801H22.0129Z" fill="url(#paint20_linear_18_556)"/>
<path d="M22.7848 19.5457C22.479 19.5457 22.175 19.5457 21.8781 19.5244C20.7865 19.471 20.0897 18.751 20.063 17.6471C20.063 17.4426 20.063 17.2382 20.063 17.0319C20.063 16.9342 20.063 16.8364 20.063 16.7404V16.0737C20.0754 14.7617 20.7741 14.0613 22.1003 14.0488H22.3119C22.7581 14.0488 23.2203 14.0488 23.6737 14.0488C24.7403 14.0826 25.4354 14.7422 25.5119 15.7679C25.5653 16.4555 25.5653 17.1462 25.5119 17.8337C25.4301 18.8275 24.7385 19.4746 23.7057 19.5208C23.3928 19.5386 23.087 19.5457 22.7848 19.5457ZM22.9625 14.2124C22.7403 14.2124 22.5199 14.2124 22.303 14.2124H22.0914C20.8683 14.2231 20.2425 14.8453 20.2301 16.0613V16.7244C20.2301 16.8222 20.2301 16.9217 20.2301 17.0195C20.2301 17.2222 20.2301 17.4266 20.2301 17.6293C20.255 18.6319 20.8861 19.2844 21.8763 19.3324C22.4594 19.3608 23.0674 19.3608 23.6808 19.3324C24.6301 19.2897 25.2417 18.7191 25.3163 17.8088C25.3697 17.1308 25.3697 16.4496 25.3163 15.7715C25.247 14.8293 24.6248 14.2479 23.6505 14.2159C23.4354 14.223 23.2025 14.2195 22.9803 14.2195L22.9625 14.2124ZM23.6612 17.6826H21.9154V15.8906H23.6612V17.6826ZM22.0932 17.5048H23.4834V16.0684H22.0932V17.5048Z" fill="url(#paint21_linear_18_556)"/>
<path d="M0.779347 34.6067C0.615791 32.4076 1.5029 31.9187 3.44601 31.9045C5.63979 31.8903 6.14646 32.7294 6.09135 34.6014C6.02557 36.8005 5.62912 37.1969 3.42468 37.268C1.65935 37.3125 0.60868 36.9018 0.779347 34.6067ZM2.64246 33.78V35.38H4.2229V33.78H2.64246Z" fill="url(#paint22_linear_18_556)"/>
<path d="M3.16865 37.3528C2.18198 37.3528 1.58287 37.175 1.19176 36.7625C0.80065 36.3501 0.615761 35.6248 0.690428 34.6061C0.615761 33.5803 0.765095 32.8994 1.16332 32.4728C1.56154 32.0461 2.26198 31.8292 3.44954 31.8203C4.51621 31.8203 5.21487 32.0105 5.63443 32.4408C6.05398 32.871 6.21576 33.5074 6.18376 34.6079C6.11621 36.8479 5.67887 37.2834 3.42465 37.3492C3.33932 37.3528 3.24687 37.3528 3.16865 37.3528ZM3.50643 31.9928H3.44954C2.31709 32.0016 1.67176 32.1794 1.29487 32.5883C0.917984 32.9972 0.795317 33.6212 0.868206 34.599V34.6132C0.795317 35.5821 0.94465 36.2452 1.32154 36.6399C1.69843 37.0345 2.33487 37.2034 3.42465 37.1732C5.57932 37.111 5.94198 36.7501 6.00598 34.599C6.03621 33.5608 5.88865 32.951 5.50821 32.5616C5.12776 32.1723 4.49132 31.9928 3.50643 31.9928ZM4.31354 35.4719H2.55354V33.6941H4.31354V35.4719ZM2.73309 35.2941H4.13576V33.8719H2.73132L2.73309 35.2941Z" fill="url(#paint23_linear_18_556)"/>
<path d="M1.61645 11.0827C1.61645 10.7804 1.60223 10.4782 1.61645 10.176C1.62966 9.74824 1.80716 9.34203 2.11208 9.04174C2.41699 8.74146 2.82588 8.5702 3.25378 8.56355C3.83689 8.54044 4.42178 8.54221 5.00489 8.56355C5.43399 8.56116 5.84749 8.72427 6.1594 9.01896C6.4713 9.31365 6.65761 9.71723 6.67956 10.1458C6.72581 10.7683 6.72581 11.3934 6.67956 12.016C6.61378 12.9671 5.92756 13.6035 4.97645 13.6409C4.49289 13.6604 4.00934 13.6409 3.52578 13.6409C2.28134 13.6302 1.62356 12.9724 1.604 11.744C1.604 11.5218 1.604 11.2995 1.604 11.0791L1.61645 11.0827ZM3.45467 11.7938H4.84667V10.4142H3.45467V11.7938Z" fill="url(#paint24_linear_18_556)"/>
<path d="M4.34006 13.7359H3.80673H3.53117C2.25473 13.7253 1.54006 13.0248 1.52051 11.7519C1.52051 11.599 1.52051 11.4479 1.52051 11.295V10.9964C1.52051 10.9324 1.52051 10.8666 1.52051 10.8026C1.52051 10.5964 1.52051 10.383 1.52051 10.1733C1.53375 9.7221 1.72069 9.29349 2.04232 8.97683C2.36395 8.66017 2.79542 8.47993 3.24673 8.4737C3.8014 8.45237 4.39162 8.45059 5.00673 8.4737C5.45773 8.47173 5.89216 8.64349 6.21988 8.95333C6.5476 9.26317 6.74343 9.68731 6.76673 10.1377C6.81299 10.765 6.81299 11.3949 6.76673 12.0221C6.75013 12.4831 6.55504 12.9195 6.22265 13.2393C5.89027 13.5591 5.44662 13.7371 4.9854 13.7359C4.77029 13.7359 4.55517 13.7359 4.34006 13.7359ZM1.69829 11.1706V11.2933C1.69829 11.4444 1.69829 11.5937 1.69829 11.7448C1.71606 12.9181 2.35784 13.5439 3.53117 13.5581H3.8014C4.18717 13.5581 4.58717 13.567 4.97829 13.5581C5.89917 13.5208 6.53384 12.9164 6.59606 12.0168C6.64143 11.3984 6.64143 10.7775 6.59606 10.159C6.57503 9.75251 6.39812 9.36973 6.10212 9.09028C5.80612 8.81083 5.4138 8.65622 5.00673 8.65859C4.39695 8.63726 3.81029 8.63904 3.26095 8.65859C2.85643 8.66473 2.46974 8.82612 2.18087 9.10936C1.892 9.39261 1.72304 9.77605 1.70895 10.1804C1.69651 10.3848 1.70006 10.5928 1.70895 10.7955C1.70895 10.8915 1.70895 10.9857 1.70895 11.0817L1.69829 11.1706ZM4.93562 11.8817H3.36584V10.3244H4.93562V11.8817ZM3.54362 11.7039H4.75784V10.5021H3.54362V11.7039Z" fill="url(#paint25_linear_18_556)"/>
<path d="M31.8869 7.69136C29.714 7.3458 27.4965 7.39518 25.3411 7.83714C25.0656 7.89225 24.7918 7.96514 24.5144 8.01492C23.9616 8.11625 23.5153 7.83714 23.4069 7.34825C23.3731 7.23116 23.3649 7.10818 23.3827 6.98763C23.4005 6.86708 23.444 6.75176 23.5103 6.64946C23.5765 6.54716 23.6639 6.46027 23.7666 6.39466C23.8693 6.32905 23.9849 6.28625 24.1056 6.26914C25.35 6.03803 26.5944 5.75358 27.8584 5.70381C29.2807 5.64692 30.7029 5.79803 32.1251 5.90825C32.6816 5.9527 32.9678 6.41847 32.886 6.94292C32.8462 7.17151 32.7207 7.37629 32.535 7.5154C32.3493 7.65451 32.1174 7.71745 31.8869 7.69136Z" fill="url(#paint26_linear_18_556)"/>
<path d="M24.2957 8.12846C24.0696 8.13836 23.8474 8.06765 23.6687 7.92894C23.4899 7.79024 23.3662 7.59255 23.3197 7.37113C23.2869 7.23809 23.2813 7.09984 23.3029 6.96456C23.3246 6.82928 23.3732 6.69973 23.4459 6.58357C23.5201 6.47625 23.6154 6.38524 23.7261 6.31615C23.8368 6.24705 23.9604 6.20133 24.0894 6.1818C24.3063 6.14269 24.525 6.10002 24.7419 6.05735C25.767 5.83234 26.8076 5.68438 27.8548 5.61469C29.0626 5.59192 30.2708 5.64238 31.4726 5.7658L32.1374 5.82091C32.2643 5.82707 32.3884 5.85985 32.5017 5.91713C32.615 5.9744 32.715 6.05489 32.7952 6.15335C32.8786 6.26749 32.9374 6.39765 32.968 6.53564C32.9986 6.67363 33.0003 6.81645 32.973 6.95513C32.9297 7.20745 32.7917 7.43371 32.5871 7.58769C32.3826 7.74166 32.127 7.81173 31.8726 7.78357C29.7101 7.4415 27.5038 7.49088 25.3588 7.92935L25.0032 8.00757C24.8468 8.04313 24.6886 8.07869 24.5303 8.10891C24.4528 8.12231 24.3743 8.12885 24.2957 8.12846ZM28.4912 5.78002C28.2797 5.78002 28.0663 5.78002 27.8566 5.79246C26.8183 5.86134 25.7866 6.00813 24.7703 6.23157L24.1161 6.3578C24.0095 6.37205 23.907 6.40834 23.8152 6.46435C23.7234 6.52036 23.6442 6.59487 23.5828 6.68313C23.5232 6.77928 23.4836 6.88648 23.4665 6.99829C23.4494 7.11011 23.4551 7.22423 23.4832 7.3338C23.581 7.7818 23.9846 8.0218 24.4894 7.93113C24.6441 7.90269 24.7988 7.86713 24.9534 7.83335C25.0726 7.80491 25.1917 7.77824 25.309 7.75335C27.4751 7.31095 29.703 7.26097 31.8868 7.6058C32.0967 7.63302 32.309 7.57759 32.4789 7.45121C32.6487 7.32483 32.7628 7.13738 32.797 6.92846C32.819 6.81321 32.8169 6.69465 32.7909 6.58023C32.7649 6.46582 32.7155 6.35801 32.6459 6.26357C32.5809 6.18396 32.4997 6.11902 32.4078 6.07306C32.3159 6.02709 32.2152 6.00114 32.1126 5.99691L31.4459 5.94357C30.4859 5.86357 29.485 5.78002 28.4912 5.78002Z" fill="url(#paint27_linear_18_556)"/>
<path d="M45.3978 6.37932C46.509 6.37932 47.6183 6.37932 48.7276 6.37932C49.5045 6.37932 49.8227 6.70643 49.8245 7.48866C49.8245 9.72866 49.8245 11.9681 49.8245 14.2069C49.8245 15.0122 49.4992 15.3287 48.6725 15.3304C46.4538 15.3304 44.2352 15.3304 42.0165 15.3304C41.2112 15.3304 40.8805 14.9944 40.877 14.182C40.877 11.9633 40.877 9.74406 40.877 7.52421C40.877 6.70466 41.2005 6.38466 42.0094 6.37932C43.1401 6.37399 44.269 6.37932 45.3978 6.37932ZM42.7418 8.21399V13.4798H47.9632V8.21399H42.7418Z" fill="url(#paint28_linear_18_556)"/>
<path d="M45.2948 15.4251H42.0165C41.1579 15.4251 40.7916 15.0517 40.7881 14.1806C40.7881 12.0082 40.7881 9.76817 40.7881 7.52284C40.7881 6.65173 41.1436 6.2944 42.0094 6.28906C42.8094 6.28906 43.6094 6.28906 44.4112 6.28906H46.397C47.1733 6.28906 47.9502 6.28906 48.7276 6.28906C49.5579 6.28906 49.9116 6.64462 49.9134 7.48728C49.9134 9.77173 49.9134 12.0331 49.9134 14.2055C49.9134 15.0642 49.5579 15.4144 48.669 15.418L45.2948 15.4251ZM43.3694 6.46684C42.9161 6.46684 42.4628 6.46684 42.0094 6.46684C41.2521 6.46684 40.9694 6.7584 40.9659 7.52462C40.9659 9.76817 40.9659 12.0082 40.9659 14.1806C40.9659 14.9397 41.2628 15.2366 42.0165 15.2473C44.1072 15.2473 46.2832 15.2473 48.6725 15.2473C49.4459 15.2473 49.7392 14.9646 49.7392 14.2126C49.7392 12.0402 49.7392 9.77884 49.7392 7.4944C49.7392 6.76551 49.4548 6.47928 48.7294 6.47395C47.9543 6.47395 47.178 6.47395 46.4005 6.47395H43.3783L43.3694 6.46684ZM48.0521 13.578H42.653V8.12551H48.0468L48.0521 13.578ZM42.8308 13.4002H47.869V8.30328H42.8308V13.4002Z" fill="url(#paint29_linear_18_556)"/>
<defs>
<linearGradient id="paint0_linear_18_556" x1="32.1114" y1="21.6786" x2="57.0674" y2="43.9824" gradientUnits="userSpaceOnUse">
<stop offset="0.3" stop-color="#CE9EF9"/>
<stop offset="1" stop-color="#5C57EC"/>
</linearGradient>
<linearGradient id="paint1_linear_18_556" x1="32.1258" y1="21.5982" x2="57.1904" y2="43.9865" gradientUnits="userSpaceOnUse">
<stop offset="0.3" stop-color="#CE9EF9"/>
<stop offset="1" stop-color="#5C57EC"/>
</linearGradient>
<linearGradient id="paint2_linear_18_556" x1="45.7378" y1="0.209072" x2="58.4816" y2="12.9627" gradientUnits="userSpaceOnUse">
<stop offset="0.3" stop-color="#CE9EF9"/>
<stop offset="1" stop-color="#5C57EC"/>
</linearGradient>
<linearGradient id="paint3_linear_18_556" x1="45.7424" y1="0.114922" x2="58.5981" y2="12.9687" gradientUnits="userSpaceOnUse">
<stop offset="0.3" stop-color="#CE9EF9"/>
<stop offset="1" stop-color="#5C57EC"/>
</linearGradient>
<linearGradient id="paint4_linear_18_556" x1="11.8916" y1="13.1238" x2="19.3908" y2="15.0001" gradientUnits="userSpaceOnUse">
<stop offset="0.3" stop-color="#CE9EF9"/>
<stop offset="1" stop-color="#5C57EC"/>
</linearGradient>
<linearGradient id="paint5_linear_18_556" x1="11.8847" y1="13.0325" x2="19.5423" y2="14.9818" gradientUnits="userSpaceOnUse">
<stop offset="0.3" stop-color="#CE9EF9"/>
<stop offset="1" stop-color="#5C57EC"/>
</linearGradient>
<linearGradient id="paint6_linear_18_556" x1="32.2021" y1="22.7771" x2="38.9824" y2="25.3191" gradientUnits="userSpaceOnUse">
<stop offset="0.3" stop-color="#CE9EF9"/>
<stop offset="1" stop-color="#5C57EC"/>
</linearGradient>
<linearGradient id="paint7_linear_18_556" x1="32.2229" y1="22.695" x2="39.1525" y2="25.3341" gradientUnits="userSpaceOnUse">
<stop offset="0.3" stop-color="#CE9EF9"/>
<stop offset="1" stop-color="#5C57EC"/>
</linearGradient>
<linearGradient id="paint8_linear_18_556" x1="46.9954" y1="43.6721" x2="51.6103" y2="48.3176" gradientUnits="userSpaceOnUse">
<stop offset="0.3" stop-color="#CE9EF9"/>
<stop offset="1" stop-color="#5C57EC"/>
</linearGradient>
<linearGradient id="paint9_linear_18_556" x1="47.0033" y1="43.5839" x2="51.7288" y2="48.3376" gradientUnits="userSpaceOnUse">
<stop offset="0.3" stop-color="#CE9EF9"/>
<stop offset="1" stop-color="#5C57EC"/>
</linearGradient>
<linearGradient id="paint10_linear_18_556" x1="18.251" y1="5.97328" x2="22.6527" y2="10.3622" gradientUnits="userSpaceOnUse">
<stop offset="0.3" stop-color="#CE9EF9"/>
<stop offset="1" stop-color="#5C57EC"/>
</linearGradient>
<linearGradient id="paint11_linear_18_556" x1="18.2491" y1="5.88099" x2="22.7651" y2="10.3797" gradientUnits="userSpaceOnUse">
<stop offset="0.3" stop-color="#CE9EF9"/>
<stop offset="1" stop-color="#5C57EC"/>
</linearGradient>
<linearGradient id="paint12_linear_18_556" x1="19.6788" y1="21.7132" x2="23.7837" y2="25.8115" gradientUnits="userSpaceOnUse">
<stop offset="0.3" stop-color="#CE9EF9"/>
<stop offset="1" stop-color="#5C57EC"/>
</linearGradient>
<linearGradient id="paint13_linear_18_556" x1="19.6793" y1="21.627" x2="23.8916" y2="25.8364" gradientUnits="userSpaceOnUse">
<stop offset="0.3" stop-color="#CE9EF9"/>
<stop offset="1" stop-color="#5C57EC"/>
</linearGradient>
<linearGradient id="paint14_linear_18_556" x1="9.14496" y1="40.5545" x2="13.2123" y2="44.6543" gradientUnits="userSpaceOnUse">
<stop offset="0.3" stop-color="#CE9EF9"/>
<stop offset="1" stop-color="#5C57EC"/>
</linearGradient>
<linearGradient id="paint15_linear_18_556" x1="9.14673" y1="40.4644" x2="13.3231" y2="44.6814" gradientUnits="userSpaceOnUse">
<stop offset="0.3" stop-color="#CE9EF9"/>
<stop offset="1" stop-color="#5C57EC"/>
</linearGradient>
<linearGradient id="paint16_linear_18_556" x1="52.549" y1="36.0102" x2="56.1434" y2="39.6189" gradientUnits="userSpaceOnUse">
<stop offset="0.3" stop-color="#CE9EF9"/>
<stop offset="1" stop-color="#5C57EC"/>
</linearGradient>
<linearGradient id="paint17_linear_18_556" x1="52.5526" y1="35.924" x2="56.2554" y2="39.6487" gradientUnits="userSpaceOnUse">
<stop offset="0.3" stop-color="#CE9EF9"/>
<stop offset="1" stop-color="#5C57EC"/>
</linearGradient>
<linearGradient id="paint18_linear_18_556" x1="10.0812" y1="0.607335" x2="13.5873" y2="4.1121" gradientUnits="userSpaceOnUse">
<stop offset="0.3" stop-color="#CE9EF9"/>
<stop offset="1" stop-color="#5C57EC"/>
</linearGradient>
<linearGradient id="paint19_linear_18_556" x1="10.0858" y1="0.530899" x2="13.7004" y2="4.14578" gradientUnits="userSpaceOnUse">
<stop offset="0.3" stop-color="#CE9EF9"/>
<stop offset="1" stop-color="#5C57EC"/>
</linearGradient>
<linearGradient id="paint20_linear_18_556" x1="22.9108" y1="14.0045" x2="26.246" y2="17.3439" gradientUnits="userSpaceOnUse">
<stop offset="0.3" stop-color="#CE9EF9"/>
<stop offset="1" stop-color="#5C57EC"/>
</linearGradient>
<linearGradient id="paint21_linear_18_556" x1="22.9114" y1="13.9162" x2="26.3598" y2="17.362" gradientUnits="userSpaceOnUse">
<stop offset="0.3" stop-color="#CE9EF9"/>
<stop offset="1" stop-color="#5C57EC"/>
</linearGradient>
<linearGradient id="paint22_linear_18_556" x1="3.52878" y1="31.7748" x2="6.89557" y2="35.124" gradientUnits="userSpaceOnUse">
<stop offset="0.3" stop-color="#CE9EF9"/>
<stop offset="1" stop-color="#5C57EC"/>
</linearGradient>
<linearGradient id="paint23_linear_18_556" x1="3.53422" y1="31.6868" x2="7.00494" y2="35.1495" gradientUnits="userSpaceOnUse">
<stop offset="0.3" stop-color="#CE9EF9"/>
<stop offset="1" stop-color="#5C57EC"/>
</linearGradient>
<linearGradient id="paint24_linear_18_556" x1="4.25588" y1="8.42375" x2="7.45701" y2="11.6318" gradientUnits="userSpaceOnUse">
<stop offset="0.3" stop-color="#CE9EF9"/>
<stop offset="1" stop-color="#5C57EC"/>
</linearGradient>
<linearGradient id="paint25_linear_18_556" x1="4.26096" y1="8.32966" x2="7.57263" y2="11.6449" gradientUnits="userSpaceOnUse">
<stop offset="0.3" stop-color="#CE9EF9"/>
<stop offset="1" stop-color="#5C57EC"/>
</linearGradient>
<linearGradient id="paint26_linear_18_556" x1="28.317" y1="5.63484" x2="28.999" y2="8.40833" gradientUnits="userSpaceOnUse">
<stop offset="0.3" stop-color="#CE9EF9"/>
<stop offset="1" stop-color="#5C57EC"/>
</linearGradient>
<linearGradient id="paint27_linear_18_556" x1="28.3249" y1="5.54857" x2="29.0937" y2="8.51081" gradientUnits="userSpaceOnUse">
<stop offset="0.3" stop-color="#CE9EF9"/>
<stop offset="1" stop-color="#5C57EC"/>
</linearGradient>
<linearGradient id="paint28_linear_18_556" x1="45.5201" y1="6.16092" x2="51.137" y2="11.778" gradientUnits="userSpaceOnUse">
<stop offset="0.3" stop-color="#CE9EF9"/>
<stop offset="1" stop-color="#5C57EC"/>
</linearGradient>
<linearGradient id="paint29_linear_18_556" x1="45.5235" y1="6.06862" x2="51.2549" y2="11.7973" gradientUnits="userSpaceOnUse">
<stop offset="0.3" stop-color="#CE9EF9"/>
<stop offset="1" stop-color="#5C57EC"/>
</linearGradient>
</defs>
</svg>
