<svg width="27" height="24" viewBox="0 0 27 24" fill="none" xmlns="http://www.w3.org/2000/svg">
<path d="M12.0518 15.5523C12.0168 15.5898 11.9855 15.6223 11.9567 15.6549L6.77122 21.5787L4.89423 23.7209C4.87588 23.746 4.85169 23.7661 4.82378 23.7796C4.79586 23.7931 4.76506 23.7996 4.73406 23.7985C3.46688 23.7985 2.19886 23.7985 0.930016 23.7985H0.856188C0.853055 23.7934 0.850535 23.788 0.84868 23.7823C0.847969 23.779 0.847969 23.7755 0.84868 23.7722C0.854638 23.7626 0.861331 23.7534 0.868701 23.7447L10.1661 13.1247C10.1661 13.1247 10.1661 13.1247 10.1723 13.1009L0.308105 0.212212H0.441998C3.1115 0.212212 5.781 0.212212 8.45051 0.212212C8.48692 0.209351 8.52343 0.216319 8.55622 0.232388C8.58902 0.248456 8.6169 0.273036 8.63696 0.30356C10.4873 2.75199 12.3392 5.20043 14.1929 7.64886C14.2166 7.6814 14.2429 7.71268 14.2717 7.75147C14.303 7.71769 14.3293 7.69266 14.353 7.66513C16.507 5.20502 18.6597 2.74407 20.8111 0.282287C20.8272 0.259827 20.8484 0.241599 20.873 0.229173C20.8977 0.216748 20.925 0.210498 20.9525 0.210962C22.2314 0.210962 23.5103 0.210962 24.7891 0.210962H24.8404L24.8479 0.224726C24.8485 0.228457 24.8485 0.232257 24.8479 0.235988C24.8483 0.238893 24.8483 0.241842 24.8479 0.244747C24.8415 0.253992 24.8344 0.262773 24.8267 0.271025L16.1474 10.1928C16.1474 10.1928 16.1474 10.1991 16.1474 10.2116L26.4246 23.7948C26.3858 23.7948 26.362 23.8035 26.3383 23.8035H18.4511C18.422 23.8049 18.393 23.7985 18.3671 23.7851C18.3412 23.7717 18.3192 23.7517 18.3035 23.7272C17.5685 22.7637 16.8332 21.8018 16.0974 20.8416C14.7735 19.1073 13.45 17.3754 12.1269 15.6461C12.1094 15.6161 12.0806 15.5885 12.0518 15.5523ZM4.98558 2.46961C5.02437 2.52217 5.04564 2.55345 5.06816 2.58223L8.73706 7.37858L14.368 14.7452L18.3448 19.9432C18.6968 20.4012 19.0476 20.86 19.3971 21.3196C19.4112 21.3457 19.4319 21.3676 19.4572 21.383C19.4825 21.3984 19.5114 21.4068 19.541 21.4072C20.223 21.4072 20.905 21.4072 21.5882 21.4072C21.6165 21.4047 21.6445 21.4001 21.6721 21.3935L21.5569 21.2396L16.489 14.5412L11.1696 7.51122C9.91832 5.8603 8.67074 4.20979 7.42692 2.55971C7.40792 2.53077 7.38156 2.50742 7.35056 2.49202C7.31956 2.47663 7.28502 2.46976 7.25048 2.47211C6.53722 2.47211 5.82522 2.47211 5.11321 2.47211L4.98558 2.46961Z" fill="#0C2F47"/>
</svg>
